<?xml version="1.0" encoding="utf-8"?>
<!-- Generator: Adobe Illustrator 19.0.1, SVG Export Plug-In . SVG Version: 6.00 Build 0)  -->
<svg version="1.1" id="logo" xmlns="http://www.w3.org/2000/svg" xmlns:xlink="http://www.w3.org/1999/xlink" x="0px" y="0px"
	 viewBox="286 17 932 184" style="enable-background:new 286 17 932 184;" xml:space="preserve">
<style type="text/css">
	.st0{fill:#E0333C;}
	.st1{fill:#F8F8FF;}
</style>
<g>
	<g>
		<path class="st0" d="M1155.5,172.9c12.3,1.7,50.7,7.9,56.6,17c1.7,2.6,2.3,4.3-1,3.8c-14.9-2.8-191.7-27-420.8-7.7
			c-1,0.1-21.3,3.1-23.2,3c-1.9,0-5.1,0-5.1,0l-7.5-15.6c-4.7-9.7-5.6-9.4-1.5-12.1c51.4-34.4,85.4-95.7,60.1-120
			c-16.9-16.2-36.5,10.9-39.7,23.7c-3,12-7.1,17.2-18.4,14.9c-3.4-0.8-4-1.7-4.2-4.9c-0.6-12.8,13.5-40.5,29.4-48.6
			c9.4-4.9,24.6-2,38.4,10.5c13.1,11.9,22.6,27.4,20.7,49.6c-1.9,20.4-23.3,60-62.2,81.5C995.3,148.7,1146.8,171.8,1155.5,172.9z"/>
	</g>
	<g>
		<path class="st1" d="M348.1,172.9c-12.2,1.7-50.3,7.9-56.2,17c-1.7,2.6-2.3,4.3,1,3.8c14.8-2.8,190.3-27,417.9-7.7
			c1,0.1,21.1,3.1,23.1,3c1.9,0,5.1,0,5.1,0l7.4-15.6c4.6-9.7,5.6-9.4,1.5-12.1c-51.1-34.4-84.8-95.7-59.7-120
			c16.7-16.2,36.2,10.9,39.4,23.7c3,12,7.1,17.2,18.3,14.9c3.4-0.8,3.9-1.7,4.1-4.9c0.6-12.8-13.5-40.5-29.2-48.6
			c-9.4-4.9-24.4-2-38.1,10.5c-13.1,11.9-22.5,27.4-20.5,49.6c1.9,20.4,23.1,60,61.8,81.5C507.3,148.7,356.8,171.8,348.1,172.9z"/>
	</g>
	<g>
		<path class="st0" d="M360.7,158.4V54.1h21.1v42.8h15.1V54.1h21.2v104.3h-21.2v-46.6h-15.1v46.5L360.7,158.4L360.7,158.4z"/>
		<path class="st0" d="M430.5,158.4V54.1H474v14.5h-22.4V97h15.9v14.8h-15.9v32.1H474v14.5H430.5z"/>
		<path class="st0" d="M475.9,158.4l22.5-104.3h18.7l22.5,104.3h-20.8l-4.3-22.3h-13.6l-4.1,22.3L475.9,158.4L475.9,158.4z
			 M502.3,123.1h10.8l-5.3-38.7L502.3,123.1z"/>
		<path class="st0" d="M546.3,158.4V54.1h23c5.2,0,9.8,0.5,13.8,1.5s7.4,2.5,10.4,4.6s5.2,4.9,6.8,8.5c1.5,3.6,2.3,7.9,2.3,12.8
			c0,2.2-0.1,4.1-0.2,5.8c-0.2,1.7-0.5,3.6-1.1,5.8c-0.6,2.2-1.3,4.1-2.3,5.8c-1,1.7-2.4,3.3-4.2,5c-1.8,1.6-4,3-6.4,4.1
			c6.3,19.9,11.7,36.7,16.3,50.4h-21.8l-11.9-48h-3.5v48L546.3,158.4L546.3,158.4z M567.4,97.5h6c1.6,0,3-0.5,4.2-1.6s2-2.5,2.5-4.1
			c0.5-1.7,0.9-3.2,1.1-4.6s0.3-2.7,0.3-3.9c0-1.2-0.1-2.5-0.3-3.8c-0.2-1.3-0.5-2.8-0.9-4.4c-0.4-1.6-1.2-2.9-2.2-3.9
			s-2.3-1.5-3.7-1.5h-7V97.5z"/>
		<path class="st0" d="M621.3,158.4V69.8H606V54.1h51.4v15.8h-15v88.6L621.3,158.4L621.3,158.4z"/>
	</g>
	<g>
		<path class="st1" d="M846.7,158.4V54.1h21.1v42.8h15.1V54.1h21.2v104.3h-21.2v-46.6h-15.1v46.5L846.7,158.4L846.7,158.4z"/>
		<path class="st1" d="M916.5,158.4V54.1H960v14.5h-22.4V97h15.9v14.8h-15.9v32.1H960v14.5H916.5z"/>
		<path class="st1" d="M961.9,158.4l22.5-104.3h18.7l22.5,104.3h-20.8l-4.3-22.3h-13.6l-4.1,22.3L961.9,158.4L961.9,158.4z
			 M988.3,123.1h10.8l-5.3-38.7L988.3,123.1z"/>
		<path class="st1" d="M1032.3,158.4V54.1h23c5.2,0,9.8,0.5,13.8,1.5s7.4,2.5,10.4,4.6s5.2,4.9,6.8,8.5c1.5,3.6,2.3,7.9,2.3,12.8
			c0,2.2-0.1,4.1-0.2,5.8c-0.2,1.7-0.5,3.6-1.1,5.8c-0.6,2.2-1.3,4.1-2.3,5.8c-1,1.7-2.4,3.3-4.2,5c-1.8,1.6-4,3-6.4,4.1
			c6.3,19.9,11.7,36.7,16.3,50.4h-21.8l-11.9-48h-3.5v48L1032.3,158.4L1032.3,158.4z M1053.4,97.5h6c1.6,0,3-0.5,4.2-1.6
			c1.2-1.1,2-2.5,2.5-4.1c0.5-1.7,0.9-3.2,1.1-4.6c0.2-1.4,0.3-2.7,0.3-3.9c0-1.2-0.1-2.5-0.3-3.8c-0.2-1.3-0.5-2.8-0.9-4.4
			s-1.2-2.9-2.2-3.9s-2.3-1.5-3.7-1.5h-7L1053.4,97.5L1053.4,97.5z"/>
		<path class="st1" d="M1107.2,158.4V69.8h-15.3V54.1h51.4v15.8h-15v88.6L1107.2,158.4L1107.2,158.4L1107.2,158.4z"/>
	</g>
</g>
</svg>
