<?xml version="1.0" encoding="utf-8"?>
<!-- Generator: Adobe Illustrator 19.0.1, SVG Export Plug-In . SVG Version: 6.00 Build 0)  -->
<svg version="1.1" id="guy" xmlns="http://www.w3.org/2000/svg" xmlns:xlink="http://www.w3.org/1999/xlink" x="0px" y="0px"
	 viewBox="0 0 84 230.6" style="enable-background:new 0 0 84 230.6;" xml:space="preserve">
<style type="text/css">
	.st0{fill:#4C4B4D;}
	.st1{fill:#706A6B;}
	.st2{fill:#252424;}
	.st3{fill:#E39F7D;}
	.st4{display:none;fill:#E98E5F;}
	.st5{fill:#EEEDED;}
	.st6{fill:#4A403C;}
	.st7{fill:#C98567;}
	.st8{fill:#363536;}
	.st9{fill:#ED6E60;}
	.st10{fill:#353534;}
</style>
<g id="XMLID_70_">
	<g id="right-leg">
		<g id="XMLID_49_">
			<path id="XMLID_54_" class="st0" d="M46.4,212.2h8.5c0,0,14.4,11.1,13.3,17.5H45.8L46.4,212.2z"/>
			<path id="XMLID_50_" class="st1" d="M66.9,224.9c1,1.7,1.5,3.4,1.2,4.8H45.8l0.1-4.8H66.9z"/>
		</g>
		<path id="XMLID_23_" class="st2" d="M67.1,142.1c0,0-1.1,8.2-2.6,19c-2.7,18.5-6.8,44.6-9.6,51.1c0,0.1-0.1,0.2-0.1,0.3h-8.5
			c0,0,0.7-22.7,1.2-42.6c0-0.1,0-0.2,0-0.3c0.3-9.8,0.5-19,0.5-24.3c0-1.3,0-2.4,0-3.2H67.1z"/>
	</g>
	<g id="XMLID_59_">
		<path id="XMLID_77_" class="st0" d="M39.5,212.2H31c0,0-14.4,11.1-13.3,17.5H40L39.5,212.2z"/>
		<path id="XMLID_64_" class="st1" d="M19,224.9c-1,1.7-1.5,3.4-1.2,4.8H40l-0.1-4.8H19z"/>
	</g>
	<path id="XMLID_19_" class="st2" d="M39.7,212.5h-8.5c-2.9-6-7.1-32.9-9.8-51.6c-1.5-10.7-2.6-18.7-2.6-18.7h19.1
		c0,0.8,0,1.9,0,3.2c0.1,5.3,0.3,14.5,0.5,24.3c0,0.1,0,0.2,0,0.3C39,189.8,39.7,212.5,39.7,212.5z"/>
	<path id="XMLID_1_" class="st2" d="M48,141.9h19.1c0,0-0.8,6.7-2.3,15.6c-1.3,1.2-3.1,2.2-4.9,3.2c-3.5,1.9-7.8,3.2-12.5,3.7
		c-1.4,0.2-2.9,0.2-4.4,0.2c-1.6,0-3.1-0.1-4.6-0.3c-3.6-0.4-7-1.3-10-2.6c-2.8-1.2-5.5-2.4-7.4-4.2c-1.5-8.7-2.3-15.7-2.3-15.7
		h19.1C37.9,141.9,47.8,141.8,48,141.9z"/>
	<path id="XMLID_6_" class="st3" d="M55,78.5L55,78.5c12-0.8,19.6,13.4,21.3,16.7c0.2,0.4,0.4,0.8,0.5,1.3c4.1,12,6.5,24.9,6.2,37.8
		c-0.1,2.6,0,6-0.3,9.5c-0.1,1.2-0.2,2.3-0.4,3.5c-0.1,0.5-0.2,1.1-0.4,1.6c-0.6,2-2.3,6-6.2,5.2c-1.2-0.2-2.1-1.3-2.8-2.4
		c-1-2-1.3-4.3-1-6.5c0.5-3.2,0.8-6.4,0.9-9.6c0.1-5.8-0.2-9.7-0.2-9.7c-0.7-7.8-1.4-15-5.3-21.8C62,94.9,55.5,89.5,55.4,89.4
		C55.4,89.4,46.5,82.9,55,78.5"/>
	<path id="XMLID_55_" class="st0" d="M54.6,78.3C46,82.6,55,89.2,55,89.2c0.1,0.1,6.6,5.5,12.1,14.8c4,6.8,4.6,14,5.4,21.8
		c0,0,0.5,7.9,0.2,9.9l10.3-1.5c0.2-13.1-2.2-26.2-6.5-38.4C76.4,95.8,68.4,77.5,54.6,78.3L54.6,78.3"/>
	<path id="XMLID_2_" class="st3" d="M30.3,78.5L30.3,78.5c-12-0.8-19.6,13.4-21.3,16.7c-0.2,0.4-0.4,0.8-0.5,1.3
		c-4.1,12-6.5,24.9-6.2,37.8c0.1,2.6,0,6,0.3,9.5c0.1,1.2,0.2,2.3,0.4,3.5c0.1,0.5,0.2,1.1,0.4,1.6c0.6,2,2.3,6,6.2,5.2
		c1.2-0.2,2.1-1.3,2.8-2.4c1-2,1.3-4.3,1-6.5c-0.5-3.2-0.8-6.4-0.9-9.6c-0.1-5.8,0.2-9.7,0.2-9.7c0.7-7.8,1.4-15,5.3-21.8
		c5.4-9.3,11.8-14.6,11.9-14.7C29.9,89.4,38.8,82.9,30.3,78.5"/>
	<path id="XMLID_17_" class="st0" d="M31,78.2c8.6,4.3-0.5,10.9-0.5,10.9c-0.1,0.1-6.7,5.5-12.2,14.8c-4,6.8-4.7,14.1-5.5,21.9
		c0,0-0.6,8-0.2,10l-10.4-1.5C2,121,4.5,107.9,8.9,95.7C8.9,95.7,17.1,77.3,31,78.2L31,78.2"/>
	<g id="shirt_2_">
		<path id="torso_1_" class="st4" d="M59.1,83c-2.6-3.6-11.6-9.1-16.3-7.5c-4.7-1.6-13.6,3.9-16.3,7.5c-3.9,5.4-8.7,14.7-7.6,58.6
			h23.8h0.1h23.8C67.8,97.7,63,88.4,59.1,83z"/>
		<path id="XMLID_46_" class="st5" d="M59.1,82.7c-2.6-3.7-11.6-9.2-16.3-7.6c-4.7-1.6-13.7,3.9-16.3,7.6
			c-3.9,5.4-8.7,14.8-7.6,59.3h23.8h0.1h23.8C67.8,97.6,63,88.2,59.1,82.7z"/>
		<g id="XMLID_43_">
			<path id="XMLID_45_" class="st0" d="M28.8,115.5c0-15,1.7-28.5,4.3-38.2c-2.9,1.6-5.5,3.7-6.7,5.4c-4,5.4-8.9,14.8-7.8,59.3h12.1
				C29.5,134.2,28.8,125.2,28.8,115.5z"/>
			<path id="XMLID_44_" class="st0" d="M59.2,82.7c-1.2-1.6-3.6-3.6-6.4-5.2c2.6,9.7,4.2,23.2,4.2,38.1c0,9.6-0.7,18.7-1.9,26.5H67
				C68.1,97.6,63.2,88.2,59.2,82.7z"/>
		</g>
		<polygon id="XMLID_349_" class="st6" points="52.8,77.9 67.6,81.9 57.7,142.1 52,142.1 		"/>
		<polygon id="XMLID_348_" class="st6" points="33,77.9 18.2,81.9 28.1,142.1 33.8,142.1 		"/>
	</g>
	<g id="XMLID_219_">
		<path id="XMLID_221_" class="st7" d="M77,41.5c0.5,3.4-1.9,6.4-5.5,6.7c-3.6,0.3-6.9-2.1-7.5-5.5c-0.5-3.4,1.9-6.4,5.5-6.7
			C73.1,35.6,76.4,38.1,77,41.5z"/>
		<path id="XMLID_220_" class="st7" d="M20.5,42c0.1,3.4-2.8,6.2-6.4,6.3c-3.6,0-6.6-2.7-6.7-6.1c-0.1-3.4,2.8-6.2,6.4-6.3
			C17.4,35.9,20.4,38.6,20.5,42z"/>
	</g>
	<g id="XMLID_216_">
		<path id="XMLID_218_" class="st3" d="M43.2,4.9C36,5.3,28.5,7.8,23.2,12.5c-7.9,6.8-10.1,21-9.7,32c1.3,33.9,22.9,34.9,29.7,35.6
			V4.9z"/>
		<path id="XMLID_217_" class="st3" d="M42.7,4.9c7.2,0.4,14.2,2.9,19.6,7.6c7.9,6.8,9.2,21,8.7,32c-0.7,14.9-5.7,35.8-28.3,35.6
			V4.9z"/>
	</g>
	<ellipse id="XMLID_215_" class="st7" cx="43" cy="52.4" rx="3.2" ry="3.5"/>
	<g id="hair_1_">
		<path id="hair_2_" class="st8" d="M71.5,27.2c-0.1-2.8-0.5-5.9-1.3-8.6c-2-6.9-6.5-11.7-12.5-14.4C50.6,0.9,35,0.3,26.7,4.4
			C20.8,7.3,16.2,12,14.2,18.9c-0.8,2.6-1.2,5.8-1.3,8.6c-0.1,2.9,1.3,9.3,1.3,9.3c1.6-10.8,6-13.4,12.8-12.7
			c5.7,0.6,9.6,4,15.6,3.7c0-0.1,0-0.1,0-0.2c5.7,0.1,9.5-3.3,14.9-3.7c9-0.6,13.4,12.3,13.4,12.3C71.5,33.3,71.6,30.2,71.5,27.2z"
			/>
	</g>
	<path id="mouth_1_" class="st9" d="M50,60.5c-0.9-0.1-1.7,0.6-1.8,1.7c-0.1,0.5-0.7,4.7-5.4,5c-4.7-0.3-5.4-4.5-5.4-5
		c-0.1-1.1-0.9-1.9-1.8-1.7c-0.9,0.1-1.5,1.2-1.4,2.3c0.3,2.9,2.5,8.2,8.5,8.5v0c0,0,0.1,0,0.1,0c0,0,0.1,0,0.1,0v0
		c6-0.3,8.2-5.6,8.5-8.5C51.5,61.7,50.9,60.6,50,60.5z"/>
	<circle id="XMLID_214_" class="st10" cx="29.4" cy="40.8" r="5.2"/>
	<circle id="XMLID_14_" class="st10" cx="56" cy="40.8" r="5.2"/>
</g>
<g id="XMLID_71_">
</g>
<g id="XMLID_72_">
</g>
<g id="XMLID_73_">
</g>
<g id="XMLID_74_">
</g>
<g id="XMLID_75_">
</g>
<g id="XMLID_76_">
</g>
</svg>
