<?xml version="1.0" encoding="utf-8"?>
<!-- Generator: Adobe Illustrator 19.0.1, SVG Export Plug-In . SVG Version: 6.00 Build 0)  -->
<svg version="1.1" id="diagram" xmlns="http://www.w3.org/2000/svg" xmlns:xlink="http://www.w3.org/1999/xlink" x="0px" y="0px"
	 viewBox="174 -175 548 550" style="enable-background:new 174 -175 548 550;" xml:space="preserve">
<style type="text/css">
	.st0{fill:#FAE8C7;}
	.st1{fill:#F8F8FF;}
	.st2{fill:#E0333C;}
	.st3{display:none;fill:#E0333C;}
	.st4{fill:none;}
	.st5{fill:#E29F7D;}
	.st6{fill:#4C4B4D;}
	.st7{fill:#EEEDED;}
	.st8{fill:#C98567;}
	.st9{fill:#363536;}
	.st10{fill:#ED6E60;}
	.st11{fill:#353534;}
	.st12{display:none;fill:#FAE8C8;stroke:#E0333C;stroke-miterlimit:10;}
	.st13{display:none;}
	.st14{display:inline;fill:#E0333C;}
	.st15{display:inline;fill:#414042;}
	.st16{fill:#4A403C;}
</style>
<g id="intestines" class="organs">
	<g>
		<g>
			<path class="st0" d="M578.4,274.6c0.6-3.1,3.1-5.7,5.6-7.3c0.4-0.3,0-0.9-0.4-0.7c-2.7,1.8-5.3,4.5-5.9,7.8
				C577.5,274.8,578.3,275,578.4,274.6L578.4,274.6z"/>
		</g>
		<g>
			<path class="st0" d="M569,266.6c1.3-3.9,6-5.7,9.6-6.3c0.5-0.1,0.3-0.8-0.2-0.7c-3.9,0.6-8.7,2.7-10.1,6.8
				C568.1,266.9,568.8,267.1,569,266.6L569,266.6z"/>
		</g>
		<g>
			<path class="st0" d="M563.8,253.4c2.7-3.2,7.8-3,11.4-2.2c0.5,0.1,0.7-0.6,0.2-0.7c-3.9-0.9-9.3-1-12.1,2.4
				C562.9,253.2,563.5,253.8,563.8,253.4L563.8,253.4z"/>
		</g>
		<g>
			<path class="st0" d="M562.8,243.2c3.4-1.6,7.4-1.4,10.6,0.6c0.4,0.3,0.8-0.4,0.4-0.7c-3.4-2.2-7.7-2.3-11.3-0.6
				C562,242.8,562.4,243.4,562.8,243.2L562.8,243.2z"/>
		</g>
		<g>
			<path class="st0" d="M563.7,234.8c2.7-1.2,6-0.5,8.2,1.5c0.4,0.3,0.9-0.2,0.5-0.5c-2.4-2.3-6-3-9.1-1.7
				C562.9,234.3,563.3,234.9,563.7,234.8L563.7,234.8z"/>
		</g>
		<g>
			<path class="st0" d="M565.2,222.6c3.7-0.3,6.7,2.8,8,6c0.2,0.4,0.9,0.2,0.7-0.2c-1.4-3.5-4.6-6.9-8.7-6.5
				C564.7,221.9,564.7,222.7,565.2,222.6L565.2,222.6z"/>
		</g>
		<g>
			<path class="st0" d="M579.5,218.7c2.2,2.4,2.4,6.8,2.4,9.8c0,0.5,0.8,0.5,0.8,0c0-3.3-0.3-7.7-2.6-10.3
				C579.7,217.8,579.2,218.3,579.5,218.7L579.5,218.7z"/>
		</g>
		<g>
			<path class="st0" d="M590.9,223.3c2.8,1.7,2.2,6.7,1.7,9.2c-0.1,0.5,0.6,0.7,0.7,0.2c0.5-2.9,1-8.2-2.1-10.1
				C590.8,222.4,590.5,223,590.9,223.3L590.9,223.3z"/>
		</g>
		<g>
			<path class="st0" d="M600,223.7c1.5,3,1.3,6.6,0,9.6c-0.2,0.4,0.5,0.8,0.7,0.4c1.4-3.2,1.7-7.1,0-10.3
				C600.4,222.8,599.8,223.2,600,223.7L600,223.7z"/>
		</g>
		<g>
			<path class="st0" d="M607.1,221.6c3,2,3.1,6.2,2.3,9.3c-0.1,0.5,0.6,0.7,0.7,0.2c0.9-3.5,0.6-8-2.7-10.2
				C607.1,220.6,606.7,221.3,607.1,221.6L607.1,221.6z"/>
		</g>
		<g>
			<path class="st0" d="M615.1,217c3.8,0.7,5.2,5.1,5.4,8.4c0,0.5,0.8,0.5,0.8,0c-0.2-3.6-1.8-8.4-5.9-9.1
				C614.8,216.2,614.6,216.9,615.1,217L615.1,217z"/>
		</g>
		<g>
			<path class="st0" d="M629.6,223.3c-1.4,2.4-4.6,3.9-7,4.8c-0.5,0.2-0.3,0.9,0.2,0.7c2.6-1,6-2.5,7.5-5.2
				C630.5,223.2,629.8,222.8,629.6,223.3L629.6,223.3z"/>
		</g>
		<g>
			<path class="st0" d="M622.2,235.2c3.3,2.1,7.7,1.7,11,0c0.4-0.2,0.1-0.9-0.4-0.7c-3.2,1.6-7.2,2-10.3,0
				C622.1,234.3,621.8,235,622.2,235.2L622.2,235.2z"/>
		</g>
		<g>
			<path class="st0" d="M621.2,241.9c2.2,3.3,6.4,4.5,10.2,4c0.5-0.1,0.5-0.8,0-0.8c-3.5,0.4-7.5-0.6-9.5-3.7
				C621.6,241.1,621,241.5,621.2,241.9L621.2,241.9z"/>
		</g>
		<g>
			<path class="st0" d="M621.2,249.6c1.3,3.1,4.1,6,7.6,5.9c0.5,0,0.5-0.8,0-0.8c-3.2,0-5.8-2.7-6.9-5.4
				C621.7,249,621,249.2,621.2,249.6L621.2,249.6z"/>
		</g>
		<g>
			<path class="st0" d="M619.9,256.5c0.8,3.5,3.6,6.5,7.2,7.2c0.5,0.1,0.7-0.6,0.2-0.7c-3.3-0.6-5.9-3.4-6.7-6.6
				C620.5,255.8,619.8,256,619.9,256.5L619.9,256.5z"/>
		</g>
		<g>
			<path class="st0" d="M614.8,261.4c-1,3.8,0.9,7.6,4.1,9.6c0.4,0.3,0.8-0.4,0.4-0.7c-2.9-1.9-4.7-5.3-3.8-8.8
				C615.7,261.1,615,260.9,614.8,261.4L614.8,261.4z"/>
		</g>
		<g>
			<path class="st0" d="M609.5,264.1c-2.4,2.9-0.8,7.6,0.6,10.5c0.2,0.4,0.9,0.1,0.7-0.4c-1.2-2.5-2.9-7-0.8-9.6
				C610.4,264.3,609.8,263.8,609.5,264.1L609.5,264.1z"/>
		</g>
		<g>
			<path class="st0" d="M603,269.1c-2.5,1.7-1.3,5.4-0.1,7.5c0.2,0.4,0.9,0,0.7-0.4c-0.9-1.7-2.2-5-0.1-6.4
				C603.7,269.5,603.4,268.8,603,269.1L603,269.1z"/>
		</g>
	</g>
	<circle class="st1" cx="596.7" cy="243.5" r="56.1"/>
	<path class="st2" d="M589.6,280.5c0,0-1.6-2.3-3.3-1s-8.1,5.4-8.7-4c0,0-5.6,2.4-5.7-2.9c0,0-5.6,0.7-4.6-5.4c0,0-5.3-2.7-2.4-6.5
		c0,0-5.5-3.1-2.2-7.3c0,0-5-4.4-1.1-8.7c0,0-4-6.1,0.7-9.4c0,0-6-6.5-0.3-10.4c0,0,0.6-9.9,8-7.8c0,0,4.6-5.5,10.6,0.4
		c0,0,7.2-3.3,9.7,4.4c0,0,5.1-4.5,9.5,0.5c0,0,2.7-4.2,6.9-2.6c0,0,2.4-6.6,8.1-4.1c0,0,6.4-4.1,9.9,1.2c0,0,7-1.1,6.9,6.1
		c0,0,6.5,2.5,2.3,10.3c0,0,4.1,5.2-0.8,11.2c0,0,3.4,4.9-2.9,11.2c0,0,2.9,3.6-1.2,8.3c0,0,1.3,6.1-7.3,8.9c0,0-0.2,3.5-10.4,3.4
		c0,0-2.8,1.9-7.4,1.2c0,0-4.3,2.9-4.1,10.2c0,0-2.6-1.2-5.7,0c0,0-2.8-11.6-0.7-16c2.1-4.4,10.3-3.2,10.3-3.2s0.7-4.6,6.3-5
		c0,0,1.7-3.4,5.3-3c0,0,0.8-5.1,4.5-5.1c0,0-1.7-5.7,1.1-6.7c0,0-2.3-6,0.3-7.8c0,0-0.9-5.8,1.3-7.1c0,0-2.7-4.8-0.7-6.2
		c0,0-3.4,2.3-6.3,1.4c0,0-1.9,5.8-7.4,5.4c0,0-3.7,2.9-7.8,1.7c0,0-3.2,2.3-8.8-1.8c0,0-6.6,1.4-7.8-3.1c0,0-5.6,1.1-7.3-2.1
		c0,0,2.5,5.5-1.6,8.8c0,0,2.3,4.9,1,7.6c0,0,3.7,2.2,1.6,7.1c0,0,4.1,2.7,2.2,7.7c0,0,4.6,1.9,4.4,7c0,0,5,1.7,4.8,5.9
		C588.4,277.1,590.1,278.1,589.6,280.5z"/>
</g>
<g id="eyes" class="organs">
	<circle class="st1" cx="447.9" cy="308.5" r="56.1"/>
	<path class="st2" d="M434,329.3c-6.2-4.5-10.2-11.8-10.2-20c0-8,3.8-15.1,9.7-19.6c-10,3.4-17.6,9.8-22.7,15.3
		c0.2,2.1,0.6,4.4,1.2,6.1c1,3.2,0.9,6.4,0.4,8.9C417.7,323.4,425,327.2,434,329.3z"/>
	<path class="st2" d="M493.1,309.7c-1.1-1.7-4.3-6.3-10-10.9c-4.5-3.6-11.3-7.7-20.6-9.9c6.5,4.5,10.8,11.9,10.8,20.4
		c0,7.9-3.7,14.9-9.5,19.5C480.6,323.9,490.8,312.5,493.1,309.7z"/>
	<path class="st2" d="M410.1,318.4c0.2-2,0.2-4.3-0.5-6.6c-0.4-1.3-0.7-2.9-1-4.4c-2.3,2.7-3.9,5-4.6,6.2
		C405,314.4,407.1,316.3,410.1,318.4z"/>
	<path class="st2" d="M470.8,309.3c0-12.3-10-22.3-22.3-22.3s-22.3,10-22.3,22.3s10,22.3,22.3,22.3S470.8,321.5,470.8,309.3z
		 M448.5,298.5c1.6,0,3.2,0.4,4.6,1c-1.8,0.5-3,2.1-3,4.1c0,2.3,1.9,4.3,4.3,4.3c1.9,0,3.5-1.2,4-3c0.6,1.3,0.9,2.8,0.9,4.3
		c0,5.9-4.8,10.7-10.7,10.7c-0.5,0-0.9,0-1.4-0.1c0.9-1,1.5-2.4,1.5-3.9c0-3.2-2.6-5.7-5.7-5.7c-1.9,0-3.5,0.9-4.6,2.3
		c-0.3-1-0.5-2.1-0.5-3.3C437.8,303.4,442.6,298.5,448.5,298.5z"/>
	<path class="st3" d="M442.9,310.3c3.2,0,5.7,2.6,5.7,5.7c0,1.5-0.6,2.8-1.5,3.9c0.5,0.1,0.9,0.1,1.4,0.1c5.9,0,10.7-4.8,10.7-10.7
		c0-1.5-0.3-3-0.9-4.3c-0.6,1.7-2.1,3-4,3c-2.3,0-4.3-1.9-4.3-4.3c0-1.9,1.3-3.5,3-4.1c-1.4-0.7-2.9-1-4.6-1
		c-5.9,0-10.7,4.8-10.7,10.7c0,1.2,0.2,2.3,0.5,3.3C439.4,311.2,441,310.3,442.9,310.3z"/>
</g>
<g id="pancreas" class="organs">
	<circle class="st1" cx="301.7" cy="244.9" r="56.1"/>
	<path class="st2" d="M340,225.3c0,0-1.9-2.4-5.2,0c0,0-2.3-2.3-5.9,0c0,0-3.6-1.5-5,1c0,0-3.9-2.3-5.4,1.2c0,0-3.6-2.3-5.6,0.8
		c0,0-3.9-2.7-6.8,0c0,0-5.8-1.7-8.3,1.8c0,0-2.4-2.3-6,0c0,0-6.1-1.5-8.7,0.9c0,0-4.9-0.9-7.8,1.4c0,0-4.2,0.4-6.1,3.9
		c0,0-4.4,2.3-4.2,6.3c0,0-5.2,3.9-2.3,9.9c0,0-1.7,4,0.4,8.3c0,0,1.2,5.4,5.3,5.6c0,0,2.9,4,7.9,3.7c0,0,6.4,2.7,10,0
		c0,0,3.9-1.4,5.9-4.3c0,0,3-3,0.8-7c0,0,0.3-3.7-2.5-4.2c0,0,4.7-0.2,6-2c0,0,5.6,0.1,7.7-2.5c0,0,5.5-0.6,7.5-3.5
		c0,0,5.4-0.8,8.2-3.7c0,0,3.9-0.9,6.8-2.2c0,0,5-0.2,6.2-2.4c0,0,4.3-1.3,5.3-4.2c0,0,2.6-2.6,1.8-4.8
		C340,229.3,341.1,226.1,340,225.3z"/>
	<g>
		<path class="st0" d="M275.2,260.2c3-4.2,2.4-9.5-0.5-13.6c-0.4-0.5-1.3,0-0.9,0.5c2.7,3.8,3.3,8.6,0.5,12.6
			C273.9,260.3,274.8,260.8,275.2,260.2L275.2,260.2z"/>
	</g>
	<g>
		<path class="st0" d="M276.8,252c4-3.5,7.5-8.8,6.7-14.2c-0.1-0.6-1.1-0.4-1,0.3c0.8,5.1-2.8,10-6.4,13.3
			C275.6,251.7,276.3,252.4,276.8,252L276.8,252z"/>
	</g>
	<g>
		<path class="st0" d="M282.2,244.4c6.7-0.3,14.5-2.6,18.3-8.6c0.3-0.6-0.5-1.1-0.9-0.5c-3.5,5.6-11.1,7.7-17.4,8.1
			C281.5,243.4,281.5,244.4,282.2,244.4L282.2,244.4z"/>
	</g>
	<g>
		<path class="st0" d="M297,239.4c7.9,1,19,0.6,24.3-6.3c0.4-0.5-0.5-1-0.9-0.5c-5,6.6-15.9,6.7-23.4,5.8
			C296.4,238.3,296.4,239.3,297,239.4L297,239.4z"/>
	</g>
	<g>
		<path class="st0" d="M317.4,236.5c5.8,0.5,13-0.2,17.2-4.5c0.5-0.5-0.3-1.2-0.7-0.7c-4,4.2-11,4.7-16.5,4.2
			C316.8,235.5,316.8,236.5,317.4,236.5L317.4,236.5z"/>
	</g>
	<g>
		<path class="st0" d="M276.6,255.5c3.6-0.5,7.5,1.4,9.9,4.2c0.4,0.5,1.1-0.2,0.7-0.7c-2.7-3-6.8-5.1-10.9-4.4
			C275.7,254.6,275.9,255.6,276.6,255.5L276.6,255.5z"/>
	</g>
	<g>
		<path class="st0" d="M280.5,247.4c2.8,0.2,5.4,2,6.8,4.5c0.3,0.6,1.2,0.1,0.9-0.5c-1.5-2.8-4.4-4.8-7.6-5
			C279.8,246.4,279.9,247.4,280.5,247.4L280.5,247.4z"/>
	</g>
	<g>
		<path class="st0" d="M292.7,242c3.5-0.3,7.1,1.2,9,4.2c0.3,0.5,1.2,0,0.9-0.5c-2.1-3.3-6-5.1-9.9-4.7C292,241,292,242,292.7,242
			L292.7,242z"/>
	</g>
	<g>
		<path class="st0" d="M311.4,238.7c1.8,1,3.2,2.9,3.4,5c0.1,0.6,1.1,0.6,1,0c-0.3-2.4-1.7-4.7-3.9-5.9
			C311.4,237.5,310.9,238.4,311.4,238.7L311.4,238.7z"/>
	</g>
</g>
<g id="heart" class="organs">
	<circle class="st1" cx="239.9" cy="100" r="56.1"/>
	<path class="st2" d="M228,66.4c-0.2,2.5-0.5,5.6-0.5,8.8c0.3,0.2,0.7,0.3,1,0.5c0.1,0,0.2-0.1,0.2-0.1c2-5.3,6.7-11.2,17.3-12.5
		c-2.4-2.3-4.5-2.2-4.6-2.2c-0.3,0-0.7-0.1-0.9-0.3s-0.4-0.5-0.4-0.9v-2.3l-6.6,0.3l-0.7,4.2c-0.1,0.4-0.3,0.7-0.6,0.8
		C230.6,63.7,229.2,65,228,66.4z"/>
	<path class="st2" d="M220.1,73.4c1.7,0,3.4,0.3,5,0.8c0.1-5.1,0.7-10,0.9-11.9l-4.6-2.6c-1.9,3-3.4,9.2-4.3,14
		C218.1,73.5,219.1,73.4,220.1,73.4z"/>
	<path class="st2" d="M259.1,70.9l0.3,1c0.1,0.4,0,0.8-0.2,1.1s-0.6,0.5-1,0.5c-2.5,0.1-9.3,1-10.8,4.4c-1.8,4.1,3.2,7,4.1,7.5
		c3.7,0.9,6.9,2.2,9.5,3.8c1-3.6,2.7-8.1,6.3-9.4l-0.8-2.2c-1.8,0.3-4.2,0.9-5.2,1.6c-0.4,0.3-1,0.3-1.4,0s-0.6-0.8-0.5-1.3
		c0.1-0.4,1.1-3.9,3.4-5.7l-0.9-2.1L259.1,70.9z"/>
	<path class="st2" d="M212,79.1c-3.7,3.7-2.9,13.7-1.9,19.8c0.4-1.7,0.9-3.3,1.5-4.9c3.5-10.2,9.9-14.9,14-17.1
		c-1.8-0.8-3.7-1.2-5.5-1.2C217,75.8,214.2,77,212,79.1z"/>
	<path class="st2" d="M266.3,97.9c-2.4-4.4-6.7-7.5-13-9.5c0.9,2.5,2,6.8,1.2,11.5c-0.1,0.8-0.4,7.3,3.4,10.1c2,1.5,4.6,1.2,6.7-0.9
		c0.5-0.5,1.3-0.5,1.7,0c0.5,0.5,0.5,1.3,0,1.7c-1.4,1.4-3,2.2-4.7,2.5c1.9,3.7,0.3,9,0.2,9.3c-0.2,0.5-0.6,0.9-1.2,0.9
		c-0.1,0-0.2,0-0.4-0.1c-0.6-0.2-1-0.9-0.8-1.5c0-0.1,2.2-7.2-1.7-9.1c-3.1-1.5-4.6-4.4-5.2-7.1c-0.3,0.7-0.7,1.4-1.1,2.2l0,0
		c-0.5,0.9-1,1.9-1.6,3c-5.1,9.4-12.7,23.4-8.9,32.5c2.7,1,5.3,1.4,7.6,1.4l0,0c6.4,0,11.1-3.7,13.8-11.4
		C267.2,119.9,271.2,107,266.3,97.9z"/>
	<path class="st2" d="M227.7,136.1c3.6,2.7,7,4.7,10.1,6.2c-2.4-9.8,4.4-22.6,9.3-31.7c-1.4,0.5-2.8,0.9-4.3,1.3
		c-0.6,0.1-1.1,0.3-1.7,0.4c-1.2,0.4-2.3,0.8-3.3,1.2c-0.4,0.2-0.8,0.4-1.1,0.6c-3.3,2.3-3,6.8-3,6.8c0,0.7-0.5,1.3-1.1,1.3h-0.1
		c-0.6,0-1.2-0.5-1.2-1.1c0-0.2-0.2-3.1,1.3-5.9c-3.5,1-6.6,1.7-9.6,1.7c-0.7,0-1.2-0.5-1.2-1.2s0.5-1.2,1.2-1.2
		c2.6,0,5.3-0.5,8.3-1.4c-5.3-0.2-6.5-1.8-6.9-2.4c-0.4-0.5-0.3-1.3,0.3-1.7c0.6-0.4,1.3-0.3,1.7,0.3c0.4,0.6,2.7,2.4,14.2,0.7
		c0.6-0.2,1.1-0.3,1.7-0.5c2.6-0.7,5.1-1.3,7-2.9c0.6-1.1,1.1-2.1,1.5-3c3.3-7.2,0.1-14.6-0.6-16.1c-2.8-1.6-7.1-5.5-4.9-10.5
		c1.9-4.3,8.3-5.5,11.4-5.8l-1.7-5.7c-1.4-0.1-2.8-0.2-4.2-0.2c-7.2,0-16.4,2-19.9,11.8c-0.1,0.4-0.5,0.7-0.9,0.8
		c-0.5,0.1-11.3,2.8-16.1,17C211.4,102.3,205.4,119.5,227.7,136.1z"/>
</g>
<g id="liver" class="organs">
	<circle class="st1" cx="656.9" cy="100.6" r="56.1"/>
	<path class="st2" d="M641.4,122c1,1,2.1,1.4,3.1,1.1c0.9-0.3,1.7-1.3,2.1-2.9C644.7,120.9,642.9,121.5,641.4,122z"/>
	<path class="st2" d="M690.6,96.2c0.5-0.6,0.9-1.3,1.4-1.9c2.8-3.9,5.5-7.5,4.5-9.6c-1.3-2.5-7.8-3.7-19.4-3.7c-0.1,0-0.2,0-0.4,0
		c-3,4.3-4,9.5-4.2,13.1c0.6,4,0.1,8.1-1.6,12.6C675,106.1,685,104,690.6,96.2z"/>
	<path class="st2" d="M666.4,81.2c-0.2,0-0.4,0-0.6,0c2.3,2.6,4,5.1,5.2,7.7c0.7-3,1.7-5.7,3.1-8C671.7,81,669.2,81.1,666.4,81.2z"
		/>
	<path class="st2" d="M668.2,107.1c1.9-4.3,2.6-8.3,2.1-12.2c-0.1-0.2-0.1-0.4-0.1-0.6v-0.1c-0.8-4.5-3.2-8.7-7.4-13
		c-0.2,0-0.4,0-0.7,0c-2.9,0-5.8-0.1-8.7-0.2c-2.8-0.1-5.5-0.2-8.2-0.2c-8.3,0-16.4,0.8-20.3,7c-5.5,8.7-4.3,17.6-3.3,25.4
		c0.2,1.7,0.4,3.3,0.6,4.9c0.5,5.6,1.4,9.3,4,9.3c2.1,0,5.3-2,9.6-6c0.1-0.1,0.3-0.2,0.4-0.2C636.6,121.2,662.3,113.4,668.2,107.1z"
		/>
</g>
<g id="bone" class="organs">
	<circle class="st1" cx="302.1" cy="-46.4" r="56.1"/>
	<path id="Bone" class="st2" d="M287-21.7l19-19l19-19c2.6,2.6,6.7,2.6,9.3,0.1c2.5-2.5,2.5-6.7-0.1-9.3c-2.6-2.6-6.7-2.6-9.3-0.1
		c2.5-2.5,2.5-6.7-0.1-9.3c-2.6-2.6-6.7-2.6-9.3-0.1c-2.5,2.5-2.5,6.7,0.1,9.3l-19,19l-19,19c-2.6-2.6-6.7-2.6-9.3-0.1
		c-2.5,2.5-2.5,6.7,0.1,9.3c2.6,2.6,6.7,2.6,9.3,0.1c-2.5,2.5-2.5,6.7,0.1,9.3c2.6,2.6,6.7,2.6,9.3,0.1
		C289.6-15,289.6-19.1,287-21.7z"/>
</g>
<g id="lungs" class="organs">
	<circle class="st1" cx="593.6" cy="-45.4" r="56.1"/>
	<path class="st2" d="M565.7-40c-1.8-3.4-3.3-6.6-4.2-9.1c-0.4,2.6-0.6,5.4-0.5,8.3c0.1,3.7,0,7.5-0.1,11.2
		c-0.2,7.3-0.3,14.8,1.4,16.6c0.4,0.4,0.8,0.4,1.4,0.2c3.5-1.2,6.4-3.2,10-5.8c1.7-1.2,3.6-2.6,5.8-4
		C574.5-26.4,569.9-32.2,565.7-40z"/>
	<path class="st2" d="M565.9-46.8c-0.7-0.5-1.3-1.1-1.9-1.6c3,7,8.9,18.5,17.4,24.6c0.6-0.4,1.3-0.8,1.9-1.2c4.3-2.5,5.1-8,4.9-14.6
		C577.6-39.7,570.3-43.4,565.9-46.8z"/>
	<path class="st2" d="M567.3-48.4c5.6,4.3,12.8,6.6,20.9,6.7c-0.1-1.3-0.2-2.6-0.3-4c-0.1-0.9,0-2.9,0-5.6
		c0.2-8.5,0.7-28.4-3.8-30.3c-0.8-0.3-1.6-0.5-2.4-0.5c-4.2,0-7.5,5.2-10.4,9.7c-0.3,0.5-0.7,1.1-1,1.6c-3.1,4.9-6.3,10.6-8.1,17.5
		C563.5-51.8,565.1-50,567.3-48.4z"/>
	<path class="st2" d="M623-48.5c-4.8,4.3-12.5,8.8-24.3,9c-0.2,6.5,0.6,12,4.9,14.6c0.7,0.4,1.3,0.8,1.9,1.2
		C614.1-30,620-41.5,623-48.5z"/>
	<path class="st2" d="M626.1-40.7c0.1-2.9-0.1-5.7-0.5-8.3c-1,2.4-2.4,5.6-4.2,9.1c-4.2,7.8-8.8,13.6-13.9,17.4
		c2.2,1.4,4.1,2.8,5.8,4c3.6,2.6,6.5,4.6,10,5.8c0.2,0.1,0.5,0.1,0.7,0.1c0.3,0,0.5-0.1,0.8-0.3c1.8-1.8,1.6-9.3,1.4-16.6
		C626-33.3,625.9-37.1,626.1-40.7z"/>
	<path class="st2" d="M598.8-41.6c14.3-0.2,22.2-7,25.9-11.6c-1.8-6.9-4.9-12.6-8.1-17.5c-0.3-0.5-0.7-1-1-1.6
		c-2.9-4.6-6.1-9.7-10.4-9.7c-0.8,0-1.6,0.2-2.4,0.5c-4.5,1.9-4,21.8-3.8,30.3c0.1,2.7,0.1,4.7,0,5.6C599-44.3,598.8-43,598.8-41.6z
		"/>
</g>
<g id="kidneys" class="organs">
	<circle class="st1" cx="448.4" cy="-108.3" r="56.1"/>
	<path class="st2" d="M437.7-114.3c-1.2,1-2.5,1.8-3.6,2.3c1.1,0.5,2.3,1.1,3.5,2c2.8-1.2,5.5-2.2,7.1-2.7c-0.3-1-0.5-2-0.8-2.7
		C442-114.8,439.9-114.4,437.7-114.3z"/>
	<path class="st2" d="M435.7-87.4c-1.3,4-5.8,6.7-11.3,6.7l0,0c-7.8,0-14.6-5-18.4-13.1c-6.7-14.5,1-27.8,2.2-29.7
		c0.6-0.6,2.1-1.5,5.4-0.7c0.7,0.1,1.3-0.3,1.5-0.9s-0.3-1.3-0.9-1.5c-1.9-0.4-3.4-0.4-4.5-0.2c3.6-7.5,11.1-10.9,17.6-10.9
		c6.2,0,11,2.9,12.3,7.5c1.2,4.3,0.9,8-0.8,11c-2.2,3.8-6.3,5.3-7.4,5.7c-1.7-0.6-5.3-2.3-6.5-5.1c-0.3-0.6-1-0.9-1.6-0.7
		c-0.6,0.3-0.9,1-0.7,1.6c1.4,3.4,5.1,5.3,7.1,6.1c-0.6,1.9-0.1,3.8,0.5,5.1c0,0.1-1.5,4.7-6.2,6.8c-0.6,0.3-0.9,1-0.6,1.6
		c0.2,0.5,0.7,0.7,1.1,0.7c0.2,0,0.3,0,0.5-0.1c3.8-1.7,5.8-4.7,6.8-6.6C433.3-102.1,438.3-95.3,435.7-87.4z"/>
	<path class="st2" d="M435.5-108.6c-1.3-0.8-2.5-1.4-3.6-1.8c-0.3,1.9,1,3.8,1.2,4.1c0.3,0.3,1.2,1.4,2.3,3c2.6,2.6,4.2,5.9,4.9,8.6
		h3.8C443.1-100.9,440.2-105.6,435.5-108.6z"/>
	<path class="st2" d="M424.9-97.4c-0.2,0.1-0.3,0.1-0.5,0.1c-0.5,0-0.9-0.3-1.1-0.7c-0.3-0.6,0-1.3,0.6-1.6c4.7-2.1,6.2-6.7,6.2-6.8
		c-0.6-1.3-1.1-3.2-0.5-5.1c-2-0.8-5.7-2.7-7.1-6.1c-0.3-0.6,0-1.3,0.7-1.6c0.6-0.3,1.3,0,1.6,0.7c1.2,2.8,4.8,4.5,6.5,5.1
		c1.2-0.4,5.2-1.9,7.4-5.7c1.7-2.9,2-6.6,0.8-11c-1.3-4.6-6.1-7.5-12.3-7.5c-6.5,0-14.1,3.4-17.6,10.9c1.2-0.2,2.7-0.2,4.5,0.2
		c0.7,0.1,1.1,0.8,0.9,1.5s-0.8,1.1-1.5,0.9c-3.3-0.7-4.8,0.1-5.4,0.7c-1.1,1.8-8.9,15.2-2.2,29.7c3.7,8.1,10.6,13.1,18.4,13.1l0,0
		c5.5,0,10.1-2.8,11.3-6.7c2.5-7.9-2.5-14.7-4.1-16.6C430.7-102,428.7-99.1,424.9-97.4z"/>
	<path class="st2" d="M461.7-112c-1.1-0.5-2.3-1.2-3.6-2.3c-2.2-0.1-4.3-0.5-6.3-1.1c-0.2,0.7-0.5,1.7-0.8,2.7
		c1.5,0.5,4.3,1.4,7.1,2.7C459.4-110.9,460.6-111.5,461.7-112z"/>
	<path class="st2" d="M462.8-106.2c0.2-0.3,1.5-2.2,1.2-4.2c-4.2,1.5-10.6,5.4-12.2,15.8h3.8c0.7-2.6,2.3-6,4.8-8.5
		C461.5-104.8,462.5-105.9,462.8-106.2z"/>
	<path class="st2" d="M487.7-123.4c-0.6-0.6-2.1-1.5-5.4-0.7c-0.7,0.1-1.3-0.3-1.5-0.9c-0.1-0.7,0.3-1.3,0.9-1.5
		c1.9-0.4,3.4-0.4,4.5-0.2c-3.6-7.5-11.1-10.9-17.6-10.9c-6.2,0-11,2.9-12.3,7.5c-1.2,4.3-0.9,8,0.8,11c2.2,3.8,6.3,5.3,7.4,5.7
		c1.2-0.4,5.2-2,6.5-5.1c0.3-0.6,1-0.9,1.6-0.7c0.6,0.3,0.9,1,0.7,1.6c-1.4,3.4-5.1,5.3-7.1,6.1c0.6,1.9,0.1,3.8-0.5,5.1l0,0
		c0,0.1,1.5,4.7,6.2,6.8c0.6,0.3,0.9,1,0.6,1.6c-0.2,0.5-0.7,0.7-1.1,0.7c-0.2,0-0.3,0-0.5-0.1c-3.8-1.7-5.9-4.7-6.8-6.6
		c-1.6,1.9-6.6,8.6-4,16.5c1.3,4,5.8,6.6,11.3,6.6c7.8,0,14.6-4.8,18.4-12.9C496.5-108.4,488.8-121.6,487.7-123.4z"/>
</g>
<g id="circles">
	<path class="st2" d="M448.9-27.1c-69.5,0-125.8,56.3-125.8,125.8s56.3,125.8,125.8,125.8s125.8-56.3,125.8-125.8
		S518.4-27.1,448.9-27.1z M448.9,218.1c-65.9,0-119.4-53.4-119.4-119.4S382.9-20.7,448.9-20.7S568.3,32.7,568.3,98.7
		S514.8,218.1,448.9,218.1z"/>
	<g>
		<path class="st2" d="M297.8,95.6c-2.3-30.1-27.4-53.9-58.1-53.9c-32.2,0-58.3,26.1-58.3,58.3s26.1,58.3,58.3,58.3
			c30.6,0,55.7-23.6,58.1-53.6V95.6L297.8,95.6z M239.7,148.1c-26.6,0-48.1-21.5-48.1-48.1s21.5-48.1,48.1-48.1s48.1,21.5,48.1,48.1
			S266.3,148.1,239.7,148.1z"/>
		<path class="st2" d="M296.8,95.6c0.1,1.5,0.2,2.9,0.2,4.4c0,1.6-0.1,3.1-0.2,4.7v0.2l26.5-4.7c0-0.1,0-0.2,0-0.4L296.8,95.6z"/>
	</g>
	<g>
		<path class="st2" d="M598.2,104.5c2.3,30.1,27.4,53.9,58.1,53.9c32.2,0,58.3-26.1,58.3-58.3s-26.1-58.3-58.3-58.3
			c-30.6,0-55.7,23.6-58.1,53.6V104.5L598.2,104.5z M656.3,51.9c26.6,0,48.1,21.5,48.1,48.1s-21.5,48.1-48.1,48.1
			s-48.1-21.5-48.1-48.1C608.2,73.5,629.7,51.9,656.3,51.9z"/>
		<path class="st2" d="M599.2,104.5c-0.1-1.5-0.2-2.9-0.2-4.4c0-1.6,0.1-3.1,0.2-4.7v-0.2l-24.8,4.7c0,0.1,0,0.2,0,0.4L599.2,104.5z
			"/>
	</g>
	<g>
		<path class="st2" d="M346.6-7.7c19.7-22.9,18.7-57.5-3-79.2c-22.8-22.8-59.7-22.8-82.4,0c-22.8,22.8-22.8,59.7,0,82.4
			c21.7,21.7,56.1,22.7,79,3.2L346.6-7.7L346.6-7.7z M268.3-11.6c-18.8-18.8-18.8-49.3,0-68c18.8-18.8,49.3-18.8,68,0
			c18.8,18.8,18.8,49.3,0,68C317.6,7.2,287.1,7.2,268.3-11.6z"/>
		<path class="st2" d="M345.9-8.3c-1,1.1-2,2.2-3,3.3c-1.1,1.1-2.3,2.1-3.4,3.2l-0.2,0.2l19.6,13c0.1-0.1,0.2-0.2,0.3-0.3L345.9-8.3
			z"/>
	</g>
	<g>
		<path class="st2" d="M552.4,205.5c-19.7,22.9-18.7,57.5,3,79.2c22.8,22.8,59.7,22.8,82.4,0c22.8-22.8,22.8-59.7,0-82.4
			c-21.7-21.7-56.1-22.7-79-3.2L552.4,205.5L552.4,205.5z M630.7,209.4c18.8,18.8,18.8,49.3,0,68c-18.8,18.8-49.3,18.8-68,0
			c-18.8-18.8-18.8-49.3,0-68C581.4,190.6,611.9,190.6,630.7,209.4z"/>
		<path class="st2" d="M553.1,206.2c1-1.1,2-2.2,3-3.3c1.1-1.1,2.3-2.1,3.4-3.2l0.2-0.2l-20.4-13.8c-0.1,0.1-0.2,0.2-0.3,0.3
			L553.1,206.2z"/>
	</g>
	<g>
		<path class="st2" d="M452.4-50.2c30.1-2.3,53.9-27.4,53.9-58.1c0-32.2-26.1-58.3-58.3-58.3s-58.3,26.1-58.3,58.3
			c0,30.6,23.6,55.7,53.6,58.1H452.4L452.4-50.2z M399.9-108.3c0-26.6,21.5-48.1,48.1-48.1s48.1,21.5,48.1,48.1S474.6-60.2,448-60.2
			S399.9-81.7,399.9-108.3z"/>
		<path class="st2" d="M452.4-51.1c-1.5,0.1-2.9,0.2-4.4,0.2c-1.6,0-3.1-0.1-4.7-0.2h-0.2l4.7,24c0.1,0,0.2,0,0.4,0L452.4-51.1z"/>
	</g>
	<g>
		<path class="st2" d="M443.5,250.2c-30.1,2.3-53.9,27.4-53.9,58.1c0,32.2,26.1,58.3,58.3,58.3s58.3-26.1,58.3-58.3
			c0-30.6-23.6-55.7-53.6-58.1L443.5,250.2L443.5,250.2z M496.1,308.3c0,26.6-21.5,48.1-48.1,48.1s-48.1-21.5-48.1-48.1
			c0-26.6,21.5-48.1,48.1-48.1S496.1,281.8,496.1,308.3z"/>
		<path class="st2" d="M443.5,251.2c1.5-0.1,2.9-0.2,4.4-0.2c1.6,0,3.1,0.1,4.7,0.2h0.2l-4.7-27.3c-0.1,0-0.2,0-0.4,0L443.5,251.2z"
			/>
	</g>
	<g>
		<path class="st2" d="M555.7-1.4c22.9,19.7,57.5,18.7,79.2-3c22.8-22.8,22.8-59.7,0-82.4c-22.8-22.8-59.7-22.8-82.4,0
			c-21.7,21.7-22.7,56.1-3.2,79L555.7-1.4L555.7-1.4z M559.6-79.6c18.8-18.8,49.3-18.8,68,0c18.8,18.8,18.8,49.3,0,68
			c-18.8,18.8-49.3,18.8-68,0C540.8-30.4,540.8-60.8,559.6-79.6z"/>
		<path class="st2" d="M556.4-2.1c-1.1-1-2.2-2-3.3-3c-1.1-1.1-2.1-2.3-3.2-3.4l-0.2-0.2l-12.1,18.8c0.1,0.1,0.2,0.2,0.3,0.3
			L556.4-2.1z"/>
	</g>
	<g>
		<path class="st2" d="M339.5,200.6c-22.9-19.7-57.5-18.7-79.2,3c-22.8,22.8-22.8,59.7,0,82.4c22.8,22.8,59.7,22.8,82.4,0
			c21.7-21.7,22.7-56.1,3.2-79L339.5,200.6L339.5,200.6z M335.5,278.9c-18.8,18.8-49.3,18.8-68,0c-18.8-18.8-18.8-49.3,0-68
			c18.8-18.8,49.3-18.8,68,0C354.3,229.6,354.3,260.1,335.5,278.9z"/>
		<path class="st2" d="M338.8,201.3c1.1,1,2.2,2,3.3,3c1.1,1.1,2.1,2.3,3.2,3.4l0.2,0.2l14.7-21.3c-0.1-0.1-0.2-0.2-0.3-0.3
			L338.8,201.3z"/>
	</g>
</g>
<g id="guy">
	<path class="st4" d="M392.4,129.2c1.2-4.3,2.8-8.3,4.5-11.4c1.1-2.5,2.4-4.8,3.9-6.7c0,0,10.7-13.3,31.6-12
		c0.2,0.1,0.3,0.2,0.5,0.3l0.4-0.1c0.3-0.2,0.6-0.4,0.9-0.6c-11.9-4.5-25.2-15.5-27.7-44.4c-5.1-0.2-9.3-4.2-9.4-9.1
		c-0.1-5,4.1-9.2,9.4-9.4c0.1-0.6,0.1-1.2,0.2-1.8c-0.6-3.2-1.4-8.1-1.3-10.9c0.1-4.1,0.8-8.9,1.9-12.9c3-10.4,9.9-17.3,18.7-21.6
		c12.5-6.2,35.9-5.3,46.7-0.3c8.9,4.1,15.7,11.3,18.7,21.6c1.1,4,1.8,8.7,1.9,12.9s0,8.6-0.8,12.8c0,0.1,0,0.2,0,0.4
		c4.5,0.5,8.3,3.9,9,8.2c0.8,5.1-2.9,9.6-8.2,10.1c-0.4,0-0.7,0-1.1,0c-1.6,17.1-7.5,37.3-25.4,44.8c0.1,0.1,0.2,0.1,0.3,0.2
		l0.7,0.2c0,0,0.1,0,0.1-0.1c5.5-0.3,10.4,1.4,14.7,4.1l4.9,1.3l-0.3,2c7.3,6.3,11.9,15,13.3,18c0.3,0.6,0.6,1.3,0.8,1.9
		c0.3,0.8,0.6,1.7,0.9,2.6h2.8c1.7-5.8,16.2-5.6,15.9-1.4c0,0.4-0.1,0.9-0.1,1.4h42c2.6-9.8,4-20.1,4-30.7
		c0-65-52.7-117.7-117.7-117.7S331.4,33.6,331.4,98.6c0,10.6,1.4,20.9,4,30.7L392.4,129.2L392.4,129.2z"/>
	<path class="st5" d="M500.5,125.5c0.4,1.2,0.9,2.5,1.3,3.7h0.1c-0.3-0.9-0.6-1.7-0.9-2.6c-0.2-0.7-0.5-1.3-0.8-1.9
		c-1.4-3-6.1-11.7-13.3-18l0,0C495.6,114.5,500.5,125.5,500.5,125.5z"/>
	<path class="st6" d="M480.3,129.2h3.1h18.5c-0.4-1.2-0.9-2.6-1.4-3.9c0,0-6.5-14.9-18.2-21.9L480.3,129.2z"/>
	<path class="st6" d="M482.3,103.4c-4.2-2.7-9.1-4.4-14.7-4.1c0,0-0.1,0-0.1,0.1l-2,10.4l16.5,2L482.3,103.4z"/>
	<path class="st7" d="M465,99.6c-4.1,1.5-8.9,2.3-14.4,2.4l0,0h-0.1c-0.2,0-0.4,0-0.6,0v-0.1c-3.4-0.3-8.8-0.8-14.6-2.8l0.4,30.1h29
		L465,99.6z"/>
	<path class="st6" d="M416.8,127.6c-0.1,0.5-0.2,1.1-0.3,1.6h0.6L416.8,127.6z"/>
	<path class="st6" d="M434.6,98.8c-0.2-0.1-0.3-0.1-0.5-0.2c-0.3,0.2-0.6,0.4-0.9,0.6L434.6,98.8z"/>
	<path class="st6" d="M483.1,129.2h0.3c-0.1-0.3-0.1-0.6-0.2-0.9L483.1,129.2z"/>
	<path class="st6" d="M466.4,99.1l0.4,0.1c-0.1-0.1-0.2-0.1-0.3-0.2C466.5,99,466.5,99,466.4,99.1z"/>
	<path class="st8" d="M492.3,48.6c-0.1,1.8-0.2,3.7-0.4,5.6c0.4,0,0.7,0,1.1,0c5.4-0.5,9.1-5,8.2-10.1c-0.7-4.4-4.5-7.7-9-8.2
		C492.5,40.2,492.5,44.5,492.3,48.6z"/>
	<path class="st8" d="M406.3,35.7c-5.3,0.2-9.5,4.3-9.4,9.4c0.1,4.9,4.3,8.9,9.4,9.1c-0.2-1.8-0.3-3.7-0.4-5.6
		C405.9,44.5,405.9,40.2,406.3,35.7z"/>
	<path class="st5" d="M450.6,102h-0.1H450.6L450.6,102z"/>
	<path class="st5" d="M492.3,35.8c0-0.1,0-0.2,0-0.4c0,0.2-0.1,0.4-0.1,0.7c0,0-6.6-19.3-20.1-18.4c-8.1,0.5-13.8,5.5-22.2,5.5
		c-0.1,0-0.2,0-0.2,0c0,0.1,0,0.2,0,0.2c-9,0.5-14.9-4.6-23.4-5.5c-10.1-1.1-16.7,2.8-19.1,19c0,0-0.3-1.2-0.6-3
		c-0.1,0.6-0.1,1.2-0.2,1.8c-0.4,4.4-0.5,8.8-0.3,12.8c0.1,1.9,0.2,3.8,0.4,5.6c2.6,28.9,15.9,40,27.7,44.4c0.2,0.1,0.3,0.1,0.5,0.2
		s0.4,0.2,0.7,0.2c5.8,2,11.2,2.5,14.6,2.8v0.1c0.2,0,0.4,0,0.6,0h0.1c5.5,0,10.2-0.9,14.4-2.4c0.5-0.2,1-0.3,1.4-0.5
		c0,0,0.1,0,0.1-0.1c17.9-7.5,23.7-27.7,25.4-44.8c0.2-1.9,0.3-3.8,0.4-5.6C492.5,44.5,492.5,40.2,492.3,35.8z"/>
	<path class="st8" d="M455,60.4c0-2.9-2.1-5.2-4.8-5.2c-0.1,0-0.3,0-0.4,0c-2.4,0.2-4.4,2.5-4.4,5.2c0,2.7,1.9,5,4.4,5.2
		c0.1,0,0.3,0,0.4,0C452.9,65.7,455,63.3,455,60.4z"/>
	<path class="st9" d="M407.1,36.9c2.4-16.2,9-20.1,19.1-19c8.5,0.9,14.4,6,23.4,5.5c0-0.1,0-0.2,0-0.2c0.1,0,0.2,0,0.2,0
		c8.4,0,14-5,22.2-5.5c13.5-0.9,20.1,18.4,20.1,18.4c0-0.2,0.1-0.4,0.1-0.7c0.8-4.2,1-8.6,0.8-12.8c-0.1-4.1-0.8-8.9-1.9-12.9
		c-3-10.4-9.8-17.5-18.7-21.6c-10.8-5.1-34.3-5.9-46.7,0.3C416.9-7.2,410-0.3,407,10c-1.1,4-1.8,8.7-1.9,12.9
		c-0.1,2.8,0.7,7.8,1.3,10.9C406.8,35.7,407.1,36.9,407.1,36.9z"/>
	<path class="st10" d="M449.9,88.8h0.1h0.1l0,0c9.1-0.5,12.3-8.4,12.7-12.8c0.2-1.7-0.8-3.2-2.1-3.4c-1.3-0.2-2.5,1-2.7,2.6
		c-0.1,0.8-1.1,7.1-8.1,7.5c-0.1,0-0.1,0-0.2,0c-6.9-0.5-7.9-6.7-8-7.5c-0.2-1.7-1.4-2.8-2.7-2.6c-1.3,0.2-2.2,1.7-2.1,3.4
		C437.6,80.4,440.9,88.2,449.9,88.8L449.9,88.8L449.9,88.8z"/>
	<circle class="st11" cx="429.8" cy="43" r="7.8"/>
	<circle class="st11" cx="469.9" cy="43" r="7.8"/>
	<path class="st2" d="M335.1,129.2c13.5,50.1,59.3,87,113.7,87s100.2-36.9,113.7-87H335.1z"/>
	<path class="st5" d="M506,139.6c0.9,1.8,2.3,3.3,4.1,3.7c5.8,1.1,8.4-4.8,9.3-7.8c0.2-0.8,0.4-1.6,0.5-2.4c0.2-1.3,0.3-2.6,0.5-3.9
		c0-0.5,0.1-0.9,0.1-1.4c0.3-4.2-14.2-4.5-15.9,1.4c-0.1,0.2-0.1,0.5-0.1,0.7C504,133.2,504.4,136.7,506,139.6z"/>
	<path class="st5" d="M434.4,170.4c-3.3-0.9-6.1-1.8-8.1-2.5C429.3,169.1,432.2,169.9,434.4,170.4z"/>
	<path class="st12" d="M527.3,232.8h-156c-6.6,0-12-5.4-12-12v-32.9c0-6.6,5.4-12,12-12h156c6.6,0,12,5.4,12,12v32.9
		C539.3,227.4,533.9,232.8,527.3,232.8z"/>
	<g class="st13">
		<path class="st14" d="M394.6,212.1v-27.3h6c1.4,0,2.6,0.1,3.6,0.4s1.9,0.7,2.7,1.2c0.8,0.5,1.4,1.3,1.8,2.2s0.6,2.1,0.6,3.4
			c0,0.6,0,1.1-0.1,1.5c0,0.4-0.1,1-0.3,1.5c-0.1,0.6-0.3,1.1-0.6,1.5c-0.3,0.4-0.6,0.9-1.1,1.3s-1,0.8-1.7,1.1
			c1.6,5.2,3.1,9.6,4.3,13.2h-5.7l-3.1-12.6h-0.9v12.6L394.6,212.1L394.6,212.1z M400.1,196.1h1.6c0.4,0,0.8-0.1,1.1-0.4
			s0.5-0.6,0.7-1.1c0.1-0.4,0.2-0.8,0.3-1.2c0.1-0.4,0.1-0.7,0.1-1s0-0.7-0.1-1c0-0.3-0.1-0.7-0.2-1.1c-0.1-0.4-0.3-0.8-0.6-1
			c-0.3-0.3-0.6-0.4-1-0.4h-1.8v7.2H400.1z"/>
		<path class="st14" d="M410.4,212.1v-27.3h11.4v3.8h-5.9v7.4h4.2v3.9h-4.2v8.4h5.9v3.8L410.4,212.1L410.4,212.1z"/>
		<path class="st14" d="M422.2,203.5v-9.6c0-6.4,2.7-9.7,8-9.7c1.1,0,2.1,0.1,3,0.4s1.6,0.7,2.2,1.2s1.1,1.2,1.5,1.9
			c0.4,0.8,0.7,1.6,0.8,2.5c0.2,0.9,0.3,1.9,0.3,3v1.6h-5.3v-1.9c0-0.5,0-0.9,0-1.2c0-0.4-0.1-0.8-0.2-1.2s-0.2-0.8-0.4-1.1
			c-0.2-0.3-0.4-0.5-0.7-0.7c-0.3-0.2-0.7-0.3-1.2-0.3c-1.7,0-2.5,1.3-2.5,4v11.8c0,2.7,0.8,4,2.5,4s2.5-1.4,2.5-4.2v-2.2h-3.1v-4
			h8.6v14h-3.8l-0.7-1.9c-0.5,0.7-1.1,1.3-2,1.8s-1.7,0.7-2.7,0.7s-1.9-0.2-2.7-0.5s-1.5-0.8-2-1.4s-1-1.3-1.3-2.1s-0.6-1.6-0.8-2.4
			S422.2,204.4,422.2,203.5z"/>
		<path class="st14" d="M440,212.1v-27.3h5.5v27.3H440z"/>
		<path class="st14" d="M446.7,204.3l5.6-1.1c0,0.6,0,1,0,1.5c0,0.4,0.1,0.9,0.2,1.4s0.2,0.9,0.3,1.2s0.4,0.6,0.6,0.8
			s0.6,0.3,0.9,0.3c1.1,0,1.6-0.7,1.6-2.1c0-1.9-1.1-3.8-3.2-5.7l-1.7-1.5c-0.5-0.5-1-0.8-1.3-1.1s-0.7-0.7-1.1-1.2s-0.8-1-1-1.5
			s-0.5-1.1-0.6-1.7s-0.3-1.4-0.3-2.2c0-2.2,0.7-4,2.1-5.2c1.4-1.3,3.3-1.9,5.6-1.9c1.9,0,3.6,0.7,4.9,2.1c1.4,1.4,2,3,2,5v0.2
			c0,0.1,0,0.3,0,0.5l-5.7,0.8c0-0.1,0-0.3,0-0.5s0-0.4,0-0.6c0-0.4,0-0.7-0.1-1s-0.1-0.7-0.3-1c-0.1-0.3-0.3-0.6-0.5-0.8
			s-0.5-0.3-0.9-0.3c-0.6,0-1.1,0.2-1.4,0.7s-0.5,1-0.5,1.7c0,0.6,0.1,1.1,0.3,1.6c0.2,0.5,0.4,1,0.8,1.4s0.7,0.8,1,1.1
			s0.7,0.6,1.2,1s0.9,0.7,1.1,0.9c0.8,0.7,1.4,1.3,2,1.9c0.5,0.6,1,1.3,1.5,2c0.5,0.8,0.8,1.6,1.1,2.5c0.2,0.9,0.4,1.8,0.4,2.8
			c0,1.9-0.7,3.5-2,4.7s-3,1.8-5,1.8c-1.3,0-2.4-0.2-3.4-0.7s-1.8-1.1-2.4-1.9s-1.1-1.7-1.4-2.7
			C446.9,206.4,446.7,205.4,446.7,204.3z"/>
		<path class="st14" d="M464.9,212.1v-23.2h-4v-4.1h13.4v4.1h-3.9V212L464.9,212.1L464.9,212.1z"/>
		<path class="st14" d="M475,212.1v-27.3h11.4v3.8h-5.9v7.4h4.2v3.9h-4.2v8.4h5.9v3.8L475,212.1L475,212.1z"/>
		<path class="st14" d="M487.1,212.1v-27.3h6c1.4,0,2.6,0.1,3.6,0.4s1.9,0.7,2.7,1.2c0.8,0.5,1.4,1.3,1.8,2.2s0.6,2.1,0.6,3.4
			c0,0.6,0,1.1-0.1,1.5c0,0.4-0.1,1-0.3,1.5s-0.3,1.1-0.6,1.5s-0.6,0.9-1.1,1.3s-1,0.8-1.7,1.1c1.6,5.2,3.1,9.6,4.3,13.2h-5.7
			l-3.1-12.6h-0.9v12.6L487.1,212.1L487.1,212.1z M492.6,196.1h1.6c0.4,0,0.8-0.1,1.1-0.4c0.3-0.3,0.5-0.6,0.7-1.1
			c0.1-0.4,0.2-0.8,0.3-1.2c0.1-0.4,0.1-0.7,0.1-1s0-0.7-0.1-1c0-0.3-0.1-0.7-0.2-1.1s-0.3-0.8-0.6-1c-0.3-0.3-0.6-0.4-1-0.4h-1.9
			V196.1z"/>
		<path class="st15" d="M399.9,225.5c-0.7,1-1.8,1.6-3.2,1.6c-1.3,0-2.3-0.4-3.1-1.3s-1.2-2-1.2-3.2s0.4-2.4,1.2-3.2
			c0.8-0.9,1.9-1.3,3.2-1.3c1.3,0,2.4,0.5,3.1,1.6v-1.4h1.3v8.9h-1.3V225.5z M396.9,225.9c1,0,1.7-0.3,2.3-1
			c0.5-0.6,0.8-1.4,0.8-2.4s-0.3-1.7-0.8-2.4c-0.6-0.7-1.3-1-2.3-1c-0.9,0-1.7,0.3-2.3,1c-0.6,0.6-0.8,1.4-0.8,2.4s0.3,1.7,0.8,2.4
			C395.2,225.5,396,225.9,396.9,225.9z"/>
		<path class="st15" d="M403.8,226.9v-7.7H402V218h1.8v-3.1h1.3v3.2h2v1.2h-2v7.7L403.8,226.9L403.8,226.9z"/>
		<path class="st15" d="M412.4,219.5c0.7-1.1,1.8-1.6,3.2-1.6c1.3,0,2.3,0.4,3.1,1.3s1.2,2,1.2,3.2s-0.4,2.4-1.2,3.2
			c-0.8,0.9-1.9,1.3-3.2,1.3c-1.3,0-2.4-0.5-3.1-1.6v1.4h-1.3v-12.4h1.3V219.5z M415.4,225.9c0.9,0,1.7-0.3,2.3-1
			c0.6-0.6,0.8-1.4,0.8-2.4s-0.3-1.7-0.8-2.4c-0.6-0.7-1.4-1-2.3-1c-1,0-1.7,0.3-2.3,1c-0.5,0.6-0.8,1.4-0.8,2.4s0.3,1.7,0.8,2.4
			C413.7,225.5,414.4,225.9,415.4,225.9z"/>
		<path class="st15" d="M424.8,225.9c1.2,0,2-0.5,2.6-1.5h1.5c-0.3,0.8-0.8,1.5-1.5,1.9s-1.5,0.7-2.6,0.7c-1.3,0-2.4-0.4-3.3-1.3
			c-0.8-0.9-1.2-1.9-1.2-3.2s0.4-2.4,1.2-3.2c0.8-0.9,1.9-1.3,3.2-1.3c1.3,0,2.4,0.4,3.2,1.3s1.2,1.9,1.2,3.2v0.5h-7.4
			c0.1,0.8,0.4,1.5,1,2C423.2,225.6,424,225.9,424.8,225.9z M424.7,219.1c-0.8,0-1.5,0.3-2.1,0.8c-0.5,0.5-0.8,1.1-1,1.9h6
			c-0.1-0.8-0.4-1.4-1-1.9C426.2,219.4,425.5,219.1,424.7,219.1z"/>
		<path class="st14" d="M437,225.5c-0.7,1-1.8,1.6-3.2,1.6c-1.3,0-2.3-0.4-3.1-1.3c-0.8-0.9-1.2-2-1.2-3.2s0.4-2.4,1.2-3.2
			c0.8-0.9,1.9-1.3,3.2-1.3c1.3,0,2.4,0.5,3.1,1.6v-1.4h1.3v8.9H437V225.5z M434,225.9c1,0,1.7-0.3,2.3-1c0.5-0.6,0.8-1.4,0.8-2.4
			s-0.3-1.7-0.8-2.4c-0.6-0.7-1.3-1-2.3-1c-0.9,0-1.7,0.3-2.3,1c-0.6,0.6-0.8,1.4-0.8,2.4s0.3,1.7,0.8,2.4
			C432.3,225.5,433,225.9,434,225.9z"/>
		<path class="st15" d="M446.8,225.5c-0.7,1-1.8,1.6-3.2,1.6c-1.3,0-2.3-0.4-3.1-1.3c-0.8-0.9-1.2-2-1.2-3.2s0.4-2.4,1.2-3.2
			c0.8-0.9,1.9-1.3,3.2-1.3c1.3,0,2.4,0.5,3.1,1.6v-5h1.3v12.2h-1.3V225.5z M443.8,225.9c1,0,1.7-0.3,2.3-1c0.5-0.6,0.8-1.4,0.8-2.4
			s-0.3-1.7-0.8-2.4c-0.6-0.7-1.3-1-2.3-1c-0.9,0-1.7,0.3-2.3,1c-0.6,0.6-0.8,1.4-0.8,2.4s0.3,1.7,0.8,2.4
			C442.1,225.5,442.9,225.9,443.8,225.9z"/>
		<path class="st15" d="M453.6,217.9c1.3,0,2.4,0.4,3.2,1.3c0.8,0.9,1.2,1.9,1.2,3.2s-0.4,2.4-1.2,3.2c-0.8,0.9-1.9,1.3-3.2,1.3
			s-2.4-0.4-3.2-1.3c-0.8-0.9-1.2-1.9-1.2-3.2s0.4-2.4,1.2-3.2S452.3,217.9,453.6,217.9z M453.6,225.9c1,0,1.7-0.3,2.3-1
			c0.5-0.6,0.8-1.4,0.8-2.4s-0.3-1.7-0.8-2.4c-0.6-0.7-1.3-1-2.3-1s-1.7,0.3-2.3,1c-0.5,0.6-0.8,1.4-0.8,2.4s0.3,1.7,0.8,2.4
			C451.9,225.5,452.7,225.9,453.6,225.9z"/>
		<path class="st15" d="M460.4,218.1v1.4c0.3-0.4,0.7-0.8,1.2-1.1s1-0.4,1.6-0.4s1.1,0.1,1.5,0.2c0.4,0.2,0.8,0.4,1.1,0.7
			c0.7,0.7,1.1,1.7,1.1,2.9v5.2h-1.3v-5.1c0-0.8-0.2-1.5-0.7-1.9c-0.5-0.5-1.1-0.7-1.8-0.7c-0.7,0-1.4,0.2-1.9,0.7s-0.8,1.2-0.8,1.9
			v5.1h-1.3v-8.9L460.4,218.1L460.4,218.1z"/>
		<path class="st15" d="M472.3,217.9c1.3,0,2.4,0.4,3.2,1.3c0.8,0.9,1.2,1.9,1.2,3.2s-0.4,2.4-1.2,3.2c-0.8,0.9-1.9,1.3-3.2,1.3
			s-2.4-0.4-3.2-1.3c-0.8-0.9-1.2-1.9-1.2-3.2s0.4-2.4,1.2-3.2C469.9,218.4,470.9,217.9,472.3,217.9z M472.3,225.9
			c1,0,1.7-0.3,2.3-1c0.5-0.6,0.8-1.4,0.8-2.4s-0.3-1.7-0.8-2.4c-0.6-0.7-1.3-1-2.3-1s-1.7,0.3-2.3,1c-0.5,0.6-0.8,1.4-0.8,2.4
			s0.3,1.7,0.8,2.4C470.5,225.5,471.3,225.9,472.3,225.9z"/>
		<path class="st15" d="M482.4,217.9v1.3h-0.2c-1,0-1.7,0.4-2.3,1.2c-0.6,0.7-0.9,1.6-0.9,2.6v3.9h-1.3V218h1.3v2.2
			c0.3-0.9,0.9-1.6,1.8-2C481.3,218,481.8,217.9,482.4,217.9L482.4,217.9z"/>
		<path class="st15" d="M483.9,225.1v1.8h-1.7v-1.8H483.9z"/>
		<path class="st15" d="M489.3,225.9c0.6,0,1.1-0.2,1.5-0.5s0.8-0.7,1-1.2h1.4c-0.3,0.9-0.8,1.6-1.5,2.1c-0.8,0.5-1.7,0.8-2.7,0.8
			c-1.3,0-2.4-0.4-3.2-1.3c-0.8-0.9-1.2-1.9-1.2-3.2s0.4-2.4,1.2-3.2c0.8-0.9,1.9-1.3,3.2-1.3c1,0,1.9,0.3,2.7,0.8
			c0.7,0.5,1.2,1.2,1.5,2.1h-1.4c-0.2-0.5-0.5-0.9-1-1.2c-0.4-0.3-0.9-0.5-1.5-0.5s-1,0.1-1.4,0.3s-0.7,0.4-1,0.7
			c-0.6,0.6-0.9,1.4-0.9,2.4s0.3,1.7,0.9,2.4C487.5,225.5,488.3,225.9,489.3,225.9z"/>
		<path class="st15" d="M501.1,225.5c-0.7,1-1.8,1.6-3.2,1.6c-1.3,0-2.3-0.4-3.1-1.3c-0.8-0.9-1.2-2-1.2-3.2s0.4-2.4,1.2-3.2
			c0.8-0.9,1.9-1.3,3.2-1.3c1.3,0,2.4,0.5,3.1,1.6v-1.4h1.3v8.9h-1.3V225.5z M498.1,225.9c1,0,1.7-0.3,2.3-1
			c0.5-0.6,0.8-1.4,0.8-2.4s-0.3-1.7-0.8-2.4c-0.6-0.7-1.3-1-2.3-1c-0.9,0-1.7,0.3-2.3,1c-0.6,0.6-0.8,1.4-0.8,2.4s0.3,1.7,0.8,2.4
			C496.4,225.5,497.2,225.9,498.1,225.9z"/>
	</g>
	<path class="st5" d="M430.1,185c0.1,0,0.1,0,0.2,0.1c3.7,1,8.6,2.5,13.9,3.6c1.7,0.4,3.4,0.7,5.2,0.9c0.8,0.1,1.6,0.2,2.4,0.2
		c3.1-0.1,9.6-0.9,10.1-6.8c0.2-1.9-0.9-3.6-2.4-5c-2.4-2.3-5.6-3.7-8.9-4.1c-4.8-0.6-9.5-1.5-14.1-2.7L430.1,185z"/>
	<path class="st6" d="M434.4,170.4c-2.2-0.5-5.1-1.4-8.1-2.5c-1.3-0.5-2.7-1-3.9-1.6c-5.2-2.3-9.1-7.5-12-14.1
		c-5.1-11.8,0.4-20,2.8-23h3.3c0.1-0.5,7.7-0.3,7.8-0.8l2.5-13.5l2.3-6.3c-0.2-0.1,3.4-9.5,3.2-9.6c-20.9-1.2-31.6,12-31.6,12
		c-1.5,2-2.8,4.2-3.9,6.7c-1.7,3.1-3.3,7.1-4.5,11.4c-3.1,11-3.9,24.4,0.5,32.3C398.6,172,411,179.9,430,185l0.1-0.1l6.4-14l0.1-0.2
		C436,170.8,435.2,170.6,434.4,170.4z"/>
	<path class="st16" d="M466.4,99.1c-0.5,0.2-1,0.4-1.4,0.5l-0.4,29.6h18.5l0.2-0.9l3.5-21.5l0,0l0.3-2l-4.9-1.3l-14.8-4l-0.7-0.2
		L466.4,99.1z"/>
	<path class="st16" d="M413.1,104.7l3.8,22.9l0.3,1.6h18.4l-0.4-30.1c-0.2-0.1-0.4-0.2-0.7-0.2l-1.4,0.4l-0.4,0.1L413.1,104.7z"/>
</g>
</svg>
