<?xml version="1.0" encoding="utf-8"?>
<!-- Generator: Adobe Illustrator 19.0.1, SVG Export Plug-In . SVG Version: 6.00 Build 0)  -->
<svg version="1.1" id="diagram" xmlns="http://www.w3.org/2000/svg" xmlns:xlink="http://www.w3.org/1999/xlink" x="0px" y="0px"
	 viewBox="-56 147 498 500" style="enable-background:new -56 147 498 500;" xml:space="preserve">
<style type="text/css">
	.st0{fill:#E0333C;}
	.st1{fill:#FAE8C7;}
	.st2{display:none;fill:#E0333C;}
	.st3{fill:none;}
	.st4{fill:#E29F7D;}
	.st5{fill:#4C4B4D;}
	.st6{fill:#EEEDED;}
	.st7{fill:#4A403C;}
	.st8{fill:#C98567;}
	.st9{fill:#363536;}
	.st10{fill:#ED6E60;}
	.st11{fill:#353534;}
</style>
<g id="intestine" class="organs">
	<path class="st0" d="M323.8,564.9c0,0-1.5-2.1-3.1-0.9c-1.6,1.2-7.5,5-8-3.7c0,0-5.2,2.2-5.3-2.7c0,0-5.2,0.6-4.3-5
		c0,0-4.9-2.5-2.2-6c0,0-5.1-2.9-2-6.8c0,0-4.7-4.1-1-8c0,0-3.7-5.7,0.6-8.6c0,0-5.6-6-0.3-9.6c0,0,0.6-9.1,7.4-7.2
		c0,0,4.3-5.1,9.8,0.4c0,0,6.7-3.1,8.9,4.1c0,0,4.7-4.2,8.7,0.5c0,0,2.5-3.9,6.4-2.4c0,0,2.2-6.1,7.5-3.8c0,0,5.9-3.8,9.1,1.1
		c0,0,6.5-1,6.4,5.7c0,0,6,2.3,2.1,9.5c0,0,3.8,4.8-0.7,10.3c0,0,3.2,4.6-2.7,10.3c0,0,2.7,3.3-1.1,7.7c0,0,1.2,5.7-6.8,8.2
		c0,0-0.2,3.3-9.6,3.2c0,0-2.6,1.8-6.9,1.1c0,0-4,2.7-3.8,9.4c0,0-2.4-1.1-5.3,0c0,0-2.6-10.7-0.7-14.8c2-4.1,9.5-3,9.5-3
		s0.6-4.3,5.9-4.6c0,0,1.6-3.2,4.9-2.8c0,0,0.7-4.7,4.2-4.7c0,0-1.6-5.3,1-6.2c0,0-2.1-5.6,0.3-7.2c0,0-0.8-5.4,1.2-6.6
		c0,0-2.5-4.5-0.7-5.8c0,0-3.2,2.1-5.9,1.3c0,0-1.8,5.4-6.9,5c0,0-3.4,2.7-7.2,1.6c0,0-3,2.1-8.1-1.7c0,0-6.1,1.3-7.2-2.9
		c0,0-5.2,1-6.8-2c0,0,2.3,5.1-1.5,8.1c0,0,2.1,4.6,0.9,7.1c0,0,3.4,2,1.5,6.5c0,0,3.8,2.5,2,7.1c0,0,4.3,1.8,4.1,6.5
		c0,0,4.6,1.6,4.5,5.5C322.7,561.8,324.3,562.7,323.8,564.9z"/>
	<g>
		<g>
			<path class="st1" d="M313.5,559.5c0.5-2.8,2.8-5.2,5.1-6.8c0.4-0.2,0-0.8-0.4-0.6c-2.5,1.6-4.9,4.2-5.5,7.2
				C312.7,559.7,313.4,559.9,313.5,559.5L313.5,559.5z"/>
		</g>
		<g>
			<path class="st1" d="M304.8,552.1c1.2-3.6,5.5-5.2,8.9-5.8c0.4-0.1,0.3-0.7-0.2-0.7c-3.6,0.6-8.1,2.5-9.3,6.3
				C304,552.4,304.7,552.5,304.8,552.1L304.8,552.1z"/>
		</g>
		<g>
			<path class="st1" d="M300,539.9c2.5-2.9,7.2-2.8,10.5-2.1c0.4,0.1,0.6-0.6,0.2-0.7c-3.6-0.8-8.6-0.9-11.2,2.2
				C299.2,539.8,299.7,540.3,300,539.9L300,539.9z"/>
		</g>
		<g>
			<path class="st1" d="M299.1,530.5c3.1-1.5,6.9-1.3,9.8,0.6c0.4,0.2,0.7-0.4,0.4-0.6c-3.1-2-7.1-2.2-10.5-0.6
				C298.4,530.1,298.7,530.7,299.1,530.5L299.1,530.5z"/>
		</g>
		<g>
			<path class="st1" d="M300,522.7c2.5-1.1,5.6-0.5,7.6,1.4c0.3,0.3,0.8-0.2,0.5-0.5c-2.2-2.2-5.5-2.8-8.4-1.5
				C299.2,522.3,299.5,522.9,300,522.7L300,522.7z"/>
		</g>
		<g>
			<path class="st1" d="M301.4,511.5c3.5-0.3,6.2,2.6,7.4,5.5c0.2,0.4,0.8,0.2,0.7-0.2c-1.3-3.2-4.3-6.4-8-6
				C300.9,510.9,300.9,511.6,301.4,511.5L301.4,511.5z"/>
		</g>
		<g>
			<path class="st1" d="M314.6,507.9c2,2.2,2.2,6.3,2.2,9c0,0.4,0.7,0.4,0.7,0c0-3-0.3-7.1-2.4-9.5
				C314.8,507.1,314.3,507.5,314.6,507.9L314.6,507.9z"/>
		</g>
		<g>
			<path class="st1" d="M325,512.1c2.5,1.5,2,6.2,1.6,8.5c-0.1,0.4,0.6,0.6,0.7,0.2c0.4-2.7,0.9-7.6-1.9-9.3
				C325,511.3,324.7,511.9,325,512.1L325,512.1z"/>
		</g>
		<g>
			<path class="st1" d="M333.5,512.5c1.4,2.7,1.2,6.1,0,8.8c-0.2,0.4,0.4,0.8,0.6,0.4c1.3-3,1.5-6.6,0-9.5
				C333.9,511.7,333.3,512.1,333.5,512.5L333.5,512.5z"/>
		</g>
		<g>
			<path class="st1" d="M340,510.5c2.7,1.9,2.9,5.7,2.2,8.6c-0.1,0.4,0.6,0.6,0.7,0.2c0.8-3.2,0.5-7.4-2.5-9.4
				C340,509.7,339.6,510.3,340,510.5L340,510.5z"/>
		</g>
		<g>
			<path class="st1" d="M347.4,506.3c3.5,0.6,4.8,4.7,4.9,7.7c0,0.4,0.7,0.4,0.7,0c-0.1-3.3-1.6-7.7-5.5-8.4
				C347.2,505.5,347,506.2,347.4,506.3L347.4,506.3z"/>
		</g>
		<g>
			<path class="st1" d="M360.8,512.1c-1.3,2.2-4.2,3.6-6.5,4.4c-0.4,0.2-0.2,0.8,0.2,0.7c2.4-0.9,5.5-2.4,6.9-4.8
				C361.6,512.1,361,511.7,360.8,512.1L360.8,512.1z"/>
		</g>
		<g>
			<path class="st1" d="M353.9,523.2c3.1,2,7.1,1.6,10.2,0c0.4-0.2,0-0.8-0.4-0.6c-2.9,1.5-6.6,1.8-9.5,0
				C353.9,522.3,353.6,522.9,353.9,523.2L353.9,523.2z"/>
		</g>
		<g>
			<path class="st1" d="M353.1,529.3c2,3.1,5.9,4.2,9.4,3.7c0.4-0.1,0.4-0.8,0-0.7c-3.2,0.4-6.9-0.5-8.8-3.4
				C353.4,528.6,352.8,529,353.1,529.3L353.1,529.3z"/>
		</g>
		<g>
			<path class="st1" d="M353,536.4c1.2,2.9,3.7,5.5,7,5.5c0.4,0,0.5-0.7,0-0.7c-3,0-5.3-2.5-6.4-4.9
				C353.5,535.8,352.9,536,353,536.4L353,536.4z"/>
		</g>
		<g>
			<path class="st1" d="M351.8,542.7c0.8,3.2,3.3,6,6.7,6.6c0.4,0.1,0.6-0.6,0.2-0.7c-3.1-0.6-5.4-3.1-6.2-6.1
				C352.4,542.1,351.7,542.3,351.8,542.7L351.8,542.7z"/>
		</g>
		<g>
			<path class="st1" d="M347.2,547.3c-0.9,3.5,0.8,7,3.8,8.9c0.4,0.2,0.7-0.4,0.4-0.6c-2.7-1.7-4.3-4.9-3.5-8.1
				C348,547,347.3,546.9,347.2,547.3L347.2,547.3z"/>
		</g>
		<g>
			<path class="st1" d="M342.3,549.8c-2.2,2.7-0.7,7,0.6,9.7c0.2,0.4,0.8,0.1,0.6-0.4c-1.1-2.3-2.7-6.5-0.7-8.9
				C343,550,342.5,549.5,342.3,549.8L342.3,549.8z"/>
		</g>
		<g>
			<path class="st1" d="M336.2,554.4c-2.3,1.6-1.2,5-0.1,6.9c0.2,0.4,0.8,0,0.6-0.4c-0.8-1.5-2.1-4.6-0.1-5.9
				C336.9,554.8,336.6,554.2,336.2,554.4L336.2,554.4z"/>
		</g>
	</g>
</g>
<g id="eyes" class="organs">
	<path class="st0" d="M180.2,610c-5.7-4.2-9.5-10.9-9.5-18.5c0-7.4,3.5-13.9,9-18.1c-9.2,3.2-16.3,9.1-20.9,14.1
		c0.2,2,0.6,4,1.1,5.6c0.9,3,0.8,5.9,0.4,8.2C165.1,604.5,171.9,608,180.2,610z"/>
	<path class="st0" d="M234.8,591.9c-1-1.6-3.9-5.8-9.3-10.1c-4.2-3.3-10.5-7.1-19-9.1c6,4.1,10,11,10,18.8c0,7.3-3.4,13.8-8.8,18
		C223.3,605,232.6,594.5,234.8,591.9z"/>
	<path class="st0" d="M158.1,599.9c0.2-1.9,0.2-4-0.5-6.1c-0.4-1.2-0.7-2.6-0.9-4.1c-2.1,2.5-3.6,4.6-4.3,5.7
		C153.4,596.3,155.4,598,158.1,599.9z"/>
	<path class="st0" d="M214.2,591.5c0-11.3-9.2-20.6-20.6-20.6c-11.3,0-20.6,9.2-20.6,20.6c0,11.3,9.2,20.6,20.6,20.6
		C204.9,612.1,214.2,602.8,214.2,591.5z M193.6,581.6c1.5,0,2.9,0.3,4.2,1c-1.6,0.5-2.8,2-2.8,3.7c0,2.2,1.8,3.9,3.9,3.9
		c1.7,0,3.2-1.1,3.7-2.7c0.5,1.2,0.8,2.6,0.8,4c0,5.5-4.4,9.9-9.9,9.9c-0.4,0-0.9,0-1.3-0.1c0.9-0.9,1.4-2.2,1.4-3.6
		c0-2.9-2.4-5.3-5.3-5.3c-1.7,0-3.3,0.8-4.2,2.1c-0.3-1-0.5-2-0.5-3C183.7,586,188.1,581.6,193.6,581.6z"/>
	<path class="st2" d="M188.4,592.4c2.9,0,5.3,2.4,5.3,5.3c0,1.4-0.5,2.6-1.4,3.6c0.4,0.1,0.8,0.1,1.3,0.1c5.5,0,9.9-4.4,9.9-9.9
		c0-1.4-0.3-2.8-0.8-4c-0.5,1.6-2,2.7-3.7,2.7c-2.2,0-3.9-1.8-3.9-3.9c0-1.8,1.2-3.3,2.8-3.7c-1.3-0.6-2.7-1-4.2-1
		c-5.5,0-9.9,4.4-9.9,9.9c0,1.1,0.2,2.1,0.5,3C185.1,593.3,186.7,592.4,188.4,592.4z"/>
</g>
<g id="tissue" class="organs">
	<path class="st0" d="M93.4,514c0,0-1.8-2.2-4.8,0c0,0-2.1-2.1-5.4,0c0,0-3.4-1.4-4.6,0.9c0,0-3.6-2.1-5,1.1c0,0-3.4-2.1-5.1,0.7
		c0,0-3.6-2.5-6.3,0c0,0-5.3-1.6-7.7,1.7c0,0-2.2-2.1-5.5,0c0,0-5.6-1.4-8,0.8c0,0-4.5-0.8-7.2,1.3c0,0-3.8,0.4-5.6,3.6
		c0,0-4,2.1-3.9,5.8c0,0-4.8,3.6-2.1,9.2c0,0-1.6,3.7,0.4,7.7c0,0,1.1,5,4.9,5.1c0,0,2.7,3.7,7.3,3.5c0,0,5.9,2.5,9.2,0
		c0,0,3.6-1.3,5.4-3.9c0,0,2.8-2.8,0.7-6.4c0,0,0.3-3.5-2.3-3.9c0,0,4.3-0.2,5.5-1.9c0,0,5.1,0.1,7.1-2.3c0,0,5-0.6,6.9-3.3
		c0,0,5-0.7,7.6-3.5c0,0,3.6-0.8,6.3-2.1c0,0,4.6-0.2,5.7-2.2c0,0,3.9-1.2,4.9-3.9c0,0,2.4-2.4,1.7-4.4
		C93.4,517.6,94.5,514.7,93.4,514z"/>
	<g>
		<path class="st1" d="M33.6,546.2c2.7-3.9,2.2-8.8-0.5-12.6c-0.3-0.5-1.2,0-0.8,0.5c2.5,3.5,3.1,8,0.5,11.6
			C32.4,546.3,33.2,546.7,33.6,546.2L33.6,546.2z"/>
	</g>
	<g>
		<path class="st1" d="M35.1,538.6c3.6-3.2,6.9-8.1,6.1-13.1c-0.1-0.6-1-0.3-0.9,0.2c0.7,4.7-2.5,9.3-5.9,12.2
			C33.9,538.3,34.6,539,35.1,538.6L35.1,538.6z"/>
	</g>
	<g>
		<path class="st1" d="M40,531.6c6.2-0.3,13.4-2.4,16.9-7.9c0.3-0.5-0.5-1-0.8-0.5c-3.2,5.2-10.2,7.1-16.1,7.4
			C39.4,530.7,39.4,531.6,40,531.6L40,531.6z"/>
	</g>
	<g>
		<path class="st1" d="M53.7,527c7.3,0.9,17.6,0.6,22.4-5.8c0.4-0.5-0.4-0.9-0.8-0.5c-4.6,6.1-14.7,6.2-21.6,5.4
			C53.1,526,53.1,526.9,53.7,527L53.7,527z"/>
	</g>
	<g>
		<path class="st1" d="M72.6,524.4c5.3,0.5,12-0.1,15.9-4.2c0.4-0.4-0.2-1.1-0.7-0.7c-3.7,3.9-10.1,4.4-15.2,3.9
			C72,523.4,72,524.3,72.6,524.4L72.6,524.4z"/>
	</g>
	<g>
		<path class="st1" d="M34.9,541.8c3.3-0.5,6.9,1.3,9.2,3.9c0.4,0.5,1.1-0.2,0.7-0.7c-2.5-2.8-6.3-4.7-10.1-4.1
			C34,541,34.3,541.9,34.9,541.8L34.9,541.8z"/>
	</g>
	<g>
		<path class="st1" d="M38.5,534.4c2.6,0.1,5,1.8,6.2,4.1c0.3,0.5,1.1,0.1,0.8-0.5c-1.4-2.6-4.1-4.4-7.1-4.6
			C37.9,533.4,37.9,534.3,38.5,534.4L38.5,534.4z"/>
	</g>
	<g>
		<path class="st1" d="M49.7,529.4c3.2-0.3,6.6,1.1,8.3,3.9c0.3,0.5,1.1,0,0.8-0.5c-1.9-3-5.6-4.7-9.2-4.4
			C49.1,528.5,49.1,529.4,49.7,529.4L49.7,529.4z"/>
	</g>
	<g>
		<path class="st1" d="M67,526.3c1.7,0.9,2.9,2.7,3.2,4.6c0.1,0.6,1,0.6,0.9,0c-0.3-2.2-1.6-4.4-3.6-5.4
			C67,525.3,66.5,526.1,67,526.3L67,526.3z"/>
	</g>
</g>
<g id="heart" class="organs">
	<path class="st0" d="M-10,367.3c-0.2,2.3-0.4,5.2-0.4,8.1c0.3,0.2,0.6,0.3,0.9,0.5c0.1,0,0.2-0.1,0.2-0.1c1.9-4.9,6.2-10.3,16-11.6
		c-2.2-2.1-4.2-2.1-4.3-2.1c-0.3,0-0.6-0.1-0.8-0.3c-0.2-0.2-0.4-0.5-0.4-0.8v-2.1l-6.1,0.3l-0.7,3.9c-0.1,0.3-0.3,0.6-0.5,0.8
		C-7.6,364.8-8.9,366-10,367.3z"/>
	<path class="st0" d="M-17.3,373.7c1.5,0,3.1,0.3,4.7,0.8c0.1-4.7,0.6-9.2,0.9-11l-4.3-2.4c-1.8,2.8-3.1,8.5-3.9,12.9
		C-19.1,373.8-18.2,373.7-17.3,373.7z"/>
	<path class="st0" d="M18.7,371.5l0.3,1c0.1,0.3,0,0.7-0.2,1s-0.5,0.5-0.9,0.5c-2.3,0-8.6,0.9-10,4.1c-1.6,3.8,3,6.5,3.8,6.9
		c3.4,0.8,6.3,2,8.8,3.5c1-3.3,2.5-7.4,5.8-8.7l-0.7-2c-1.6,0.3-3.9,0.8-4.8,1.5c-0.4,0.3-0.9,0.3-1.3,0s-0.6-0.8-0.5-1.2
		s1-3.6,3.1-5.3l-0.9-1.9L18.7,371.5z"/>
	<path class="st0" d="M-24.8,379c-3.4,3.4-2.7,12.6-1.8,18.3c0.4-1.6,0.9-3.1,1.4-4.5c3.2-9.4,9.1-13.8,13-15.7
		c-1.7-0.7-3.4-1.1-5.1-1.1C-20.2,375.9-22.7,377-24.8,379z"/>
	<path class="st0" d="M25.4,396.3c-2.2-4.1-6.1-6.9-12-8.7c0.9,2.3,1.8,6.3,1.1,10.6c-0.1,0.7-0.4,6.7,3.1,9.3
		c1.9,1.4,4.3,1.1,6.2-0.8c0.4-0.4,1.2-0.4,1.6,0s0.4,1.2,0,1.6c-1.3,1.3-2.8,2-4.3,2.3c1.8,3.4,0.3,8.3,0.2,8.6
		c-0.2,0.5-0.6,0.8-1.1,0.8c-0.1,0-0.2,0-0.3-0.1c-0.6-0.2-0.9-0.8-0.7-1.4c0-0.1,2-6.6-1.6-8.4c-2.9-1.4-4.2-4.1-4.8-6.6
		c-0.3,0.6-0.7,1.3-1,2.1l0,0c-0.5,0.9-1,1.8-1.5,2.8c-4.7,8.7-11.7,21.6-8.2,30.1c2.5,0.9,4.9,1.3,7,1.3l0,0
		c5.9,0,10.2-3.4,12.8-10.5C26.2,416.7,29.9,404.8,25.4,396.3z"/>
	<path class="st0" d="M-10.3,431.6c3.3,2.5,6.4,4.4,9.4,5.7c-2.2-9,4.1-20.9,8.6-29.3c-1.3,0.5-2.6,0.8-3.9,1.2
		c-0.5,0.1-1,0.3-1.5,0.4c-1.1,0.4-2.1,0.8-3.1,1.1c-0.4,0.2-0.7,0.4-1,0.6c-3.1,2.1-2.8,6.3-2.8,6.3c0,0.6-0.4,1.2-1,1.2h-0.1
		c-0.6,0-1.1-0.4-1.1-1c0-0.2-0.2-2.9,1.2-5.5c-3.2,1-6.1,1.5-8.9,1.5c-0.6,0-1.1-0.5-1.1-1.1s0.5-1.1,1.1-1.1
		c2.4,0,4.9-0.5,7.7-1.3c-4.9-0.2-6-1.6-6.4-2.2c-0.4-0.5-0.2-1.2,0.3-1.6s1.2-0.2,1.6,0.3c0.4,0.6,2.5,2.2,13.1,0.6
		c0.5-0.1,1.1-0.3,1.6-0.4c2.4-0.6,4.8-1.2,6.5-2.7c0.5-1,1-2,1.4-2.8c3-6.7,0.1-13.4-0.6-14.8c-2.6-1.4-6.5-5.1-4.6-9.7
		c1.7-4,7.7-5.1,10.5-5.3l-1.6-5.2c-1.3-0.1-2.6-0.2-3.8-0.2c-6.6,0-15.2,1.9-18.4,10.9c-0.1,0.4-0.4,0.6-0.8,0.7
		c-0.4,0.1-10.4,2.6-14.9,15.7C-25.4,400.4-30.9,416.3-10.3,431.6z"/>
</g>
<g id="liver" class="organs">
	<path class="st0" d="M371.7,418.6c1,0.9,2,1.3,2.8,1s1.6-1.2,2-2.7C374.8,417.6,373.1,418.2,371.7,418.6z"/>
	<path class="st0" d="M417.1,394.8c0.4-0.6,0.9-1.2,1.3-1.8c2.6-3.6,5.1-6.9,4.1-8.9c-1.2-2.3-7.2-3.4-17.9-3.4c-0.1,0-0.2,0-0.3,0
		c-2.8,4-3.7,8.8-3.9,12.1c0.6,3.7,0.1,7.5-1.5,11.6C402.7,403.9,411.9,402,417.1,394.8z"/>
	<path class="st0" d="M394.8,380.9c-0.2,0-0.4,0-0.6,0c2.1,2.4,3.7,4.7,4.8,7.1c0.6-2.8,1.6-5.2,2.9-7.4
		C399.7,380.8,397.3,380.8,394.8,380.9z"/>
	<path class="st0" d="M396.5,404.9c1.7-4,2.4-7.7,1.9-11.2c-0.1-0.2-0.1-0.3-0.1-0.5v-0.1c-0.7-4.1-3-8-6.9-12c-0.2,0-0.4,0-0.6,0
		c-2.7,0-5.4-0.1-8-0.2s-5.1-0.2-7.5-0.2c-7.6,0-15.2,0.8-18.7,6.4c-5.1,8.1-4,16.2-3,23.5c0.2,1.6,0.4,3,0.5,4.5
		c0.5,5.2,1.3,8.6,3.7,8.6c1.9,0,4.9-1.9,8.9-5.5c0.1-0.1,0.3-0.2,0.4-0.2C367.3,417.9,391,410.7,396.5,404.9z"/>
</g>
<g id="pancreas" class="organs">
	<path class="st0" d="M88.4,238.7c-9-3.9-11.5,3.5-15.8,1.9s-5.8-15.8-5.8-15.8c-4.3-0.4-9.7,2.3-9.7,2.3
		c-0.8,17.1,14,21.4,6.6,40.1c-2.5,6.3-7.8,3.1-12.5-0.8c-3.7-3.1-9.3-1.2-11.3-0.4c-0.5,0.6-0.8,1.2-1,1.9
		c-0.1,0.5-0.6,0.8-1.1,0.8c-0.1,0-0.2,0-0.3,0c-0.6-0.2-1-0.8-0.8-1.4c0.3-1.2,1-2.2,1.8-3.1c-1-2.1-3.4-4.6-8.6-2.1
		c-10.8,5.2-8.6,24.5-8.6,24.5l9,2.3c0,0-0.2-5.3,0.9-8.9c-0.2,0-0.4,0-0.7,0c-0.9,0-1.8-0.2-2.7-0.5c-0.6-0.2-0.9-0.9-0.7-1.5
		c0.2-0.6,0.9-0.9,1.5-0.7c2,0.7,3.3,0.2,4.1-0.4c1.1-0.8,1.8-2.1,1.8-3.5l0,0v-0.1v-0.1v-0.1V273c0,0,0-0.1,0.1-0.1
		c0,0,0-0.1,0.1-0.1c0,0,0-0.1,0.1-0.1c0,0,0-0.1,0.1-0.1c0,0,0.1,0,0.1-0.1l0.1-0.1c0,0,0.1,0,0.1-0.1c0,0,0.1,0,0.1-0.1h0.1h0.1
		l0,0h0.1h0.1l0,0c0,0,0,0,0.1,0c0.2,0,0.4,0.1,0.6,0.2c0,0,0,0,0.1,0l0.1,0.1l0.1,0.1l0,0c0,0.1,0.1,0.1,0.1,0.2l0,0
		c0,0,0,0.1,0.1,0.1v0.1l0,0c0,0,0.6,3.3,2.5,7.1c2.6,3.8,6.4,9.5,16.6,12c17.5,4.3,31.5-5.8,38.5-21.8
		C98.8,260.8,97.3,242.6,88.4,238.7z"/>
</g>
<g id="lungs" class="organs">
	<path class="st0" d="M301.8,269c-1.7-3.2-3-6.1-3.9-8.4c-0.4,2.4-0.6,5-0.5,7.7c0.1,3.4,0,6.9-0.1,10.3c-0.1,6.7-0.3,13.7,1.3,15.3
		c0.3,0.3,0.7,0.4,1.3,0.2c3.2-1.1,5.9-3,9.2-5.4c1.6-1.2,3.4-2.4,5.4-3.7C309.9,281.6,305.6,276.2,301.8,269z"/>
	<path class="st0" d="M302,262.7c-0.6-0.5-1.2-1-1.8-1.5c2.8,6.5,8.2,17,16.1,22.7c0.6-0.4,1.2-0.7,1.8-1.1c4-2.3,4.7-7.4,4.5-13.4
		C312.7,269.3,306.1,265.9,302,262.7z"/>
	<path class="st0" d="M303.3,261.3c5.2,4,11.8,6.1,19.3,6.2c-0.1-1.2-0.2-2.4-0.3-3.7c-0.1-0.8,0-2.7,0-5.2c0.2-7.9,0.6-26.2-3.5-28
		c-0.8-0.3-1.5-0.5-2.2-0.5c-3.9,0-6.9,4.8-9.6,9c-0.3,0.5-0.6,1-0.9,1.4c-2.9,4.5-5.8,9.8-7.5,16.1
		C299.8,258.2,301.3,259.7,303.3,261.3z"/>
	<path class="st0" d="M354.7,261.2c-4.4,4-11.6,8.1-22.5,8.3c-0.2,6,0.6,11.1,4.5,13.4c0.6,0.4,1.2,0.7,1.8,1.1
		C346.5,278.3,352,267.6,354.7,261.2z"/>
	<path class="st0" d="M357.5,268.3c0.1-2.7-0.1-5.3-0.5-7.7c-0.9,2.3-2.2,5.2-3.9,8.4c-3.9,7.2-8.2,12.6-12.8,16.1
		c2,1.3,3.8,2.6,5.4,3.7c3.3,2.4,6,4.3,9.2,5.4c0.2,0.1,0.4,0.1,0.6,0.1c0.3,0,0.5-0.1,0.7-0.3c1.6-1.7,1.5-8.6,1.3-15.3
		C357.5,275.2,357.4,271.7,357.5,268.3z"/>
	<path class="st0" d="M332.3,267.5c13.2-0.2,20.5-6.5,23.9-10.7c-1.6-6.3-4.5-11.6-7.4-16.1c-0.3-0.5-0.6-0.9-0.9-1.4
		c-2.7-4.2-5.7-9-9.6-9c-0.7,0-1.5,0.2-2.2,0.5c-4.1,1.7-3.7,20.1-3.5,28c0.1,2.5,0.1,4.3,0,5.2
		C332.5,265.1,332.4,266.3,332.3,267.5z"/>
</g>
<g id="kidneys" class="organs">
	<path class="st0" d="M183.6,200.4c-1.1,0.9-2.3,1.6-3.3,2.1c1,0.5,2.2,1.1,3.3,1.8c2.6-1.1,5.1-2,6.5-2.5c-0.2-0.9-0.5-1.8-0.7-2.5
		C187.6,200,185.6,200.3,183.6,200.4z"/>
	<path class="st0" d="M181.8,225.3c-1.2,3.6-5.4,6.2-10.5,6.2l0,0c-7.2,0-13.5-4.6-17-12.1c-6.2-13.4,0.9-25.7,2-27.4
		c0.6-0.6,1.9-1.4,5-0.7c0.6,0.1,1.2-0.2,1.4-0.9c0.1-0.6-0.2-1.2-0.9-1.4c-1.7-0.4-3.1-0.4-4.2-0.2c3.3-6.9,10.3-10.1,16.3-10.1
		c5.7,0,10.2,2.7,11.4,6.9c1.1,4,0.9,7.4-0.7,10.1c-2,3.5-5.8,4.9-6.9,5.2c-1.5-0.5-4.9-2.1-6-4.7c-0.2-0.6-0.9-0.8-1.5-0.6
		c-0.6,0.2-0.8,0.9-0.6,1.5c1.3,3.1,4.7,4.9,6.5,5.6c-0.6,1.8-0.1,3.5,0.4,4.7c0,0.1-1.4,4.3-5.8,6.3c-0.6,0.3-0.8,0.9-0.6,1.5
		c0.2,0.4,0.6,0.7,1,0.7c0.2,0,0.3,0,0.5-0.1c3.5-1.6,5.4-4.3,6.3-6C179.5,211.7,184.2,218,181.8,225.3z"/>
	<path class="st0" d="M181.6,205.7c-1.2-0.7-2.3-1.3-3.3-1.6c-0.3,1.8,0.9,3.5,1.1,3.8c0.3,0.3,1.2,1.3,2.1,2.8
		c2.4,2.4,3.8,5.5,4.5,7.9h3.5C188.6,212.8,185.9,208.4,181.6,205.7z"/>
	<path class="st0" d="M171.8,216c-0.2,0.1-0.3,0.1-0.5,0.1c-0.4,0-0.8-0.2-1-0.7c-0.3-0.6,0-1.2,0.6-1.5c4.4-2,5.7-6.2,5.8-6.3
		c-0.5-1.2-1-2.9-0.4-4.7c-1.8-0.7-5.2-2.5-6.5-5.6c-0.2-0.6,0-1.2,0.6-1.5c0.6-0.2,1.2,0,1.5,0.6c1.1,2.5,4.4,4.1,6,4.7
		c1.1-0.3,4.8-1.7,6.9-5.2c1.6-2.7,1.8-6.1,0.7-10.1c-1.2-4.2-5.6-6.9-11.4-6.9c-6,0-13,3.2-16.3,10.1c1.1-0.2,2.5-0.2,4.2,0.2
		c0.6,0.1,1,0.7,0.9,1.4c-0.1,0.6-0.7,1-1.4,0.9c-3.1-0.7-4.4,0.1-5,0.7c-1.1,1.7-8.2,14-2,27.4c3.5,7.5,9.8,12.1,17,12.1l0,0
		c5.1,0,9.3-2.6,10.5-6.2c2.4-7.3-2.3-13.6-3.7-15.3C177.2,211.7,175.3,214.5,171.8,216z"/>
	<path class="st0" d="M205.8,202.5c-1-0.5-2.1-1.1-3.3-2.1c-2-0.1-4-0.4-5.8-1c-0.2,0.6-0.5,1.5-0.7,2.5c1.4,0.5,4,1.3,6.5,2.5
		C203.6,203.6,204.8,203,205.8,202.5z"/>
	<path class="st0" d="M206.8,207.9c0.2-0.3,1.4-2.1,1.1-3.9c-3.8,1.4-9.8,5-11.3,14.6h3.5c0.7-2.4,2.1-5.5,4.5-7.9
		C205.6,209.2,206.5,208.2,206.8,207.9z"/>
	<path class="st0" d="M229.7,192c-0.6-0.6-1.9-1.4-5-0.7c-0.6,0.1-1.2-0.2-1.4-0.9c-0.1-0.6,0.2-1.2,0.9-1.4
		c1.7-0.4,3.1-0.4,4.2-0.2c-3.3-6.9-10.3-10.1-16.3-10.1c-5.7,0-10.2,2.7-11.4,6.9c-1.1,4-0.9,7.4,0.7,10.1c2,3.5,5.8,4.9,6.9,5.2
		c1.1-0.4,4.8-1.9,6-4.7c0.2-0.6,0.9-0.8,1.5-0.6c0.6,0.2,0.8,0.9,0.6,1.5c-1.3,3.1-4.7,4.9-6.5,5.6c0.6,1.8,0.1,3.5-0.4,4.7l0,0
		c0,0.1,1.4,4.3,5.8,6.3c0.6,0.3,0.8,0.9,0.6,1.5c-0.2,0.4-0.6,0.7-1,0.7c-0.2,0-0.3,0-0.5-0.1c-3.5-1.6-5.4-4.3-6.3-6.1
		c-1.5,1.8-6,8-3.7,15.2c1.2,3.6,5.4,6.1,10.5,6.1c7.2,0,13.5-4.5,17-11.9C237.9,205.9,230.8,193.7,229.7,192z"/>
</g>
<g id="body">
	<path class="st0" d="M194,280.9c-64.2,0-116.2,52-116.2,116.2s52,116.2,116.2,116.2s116.1-52.1,116.1-116.2S258.1,280.9,194,280.9z
		 M194,507.3c-60.9,0-110.2-49.3-110.2-110.2S133.1,286.9,194,286.9s110.2,49.3,110.2,110.2S254.8,507.3,194,507.3z"/>
	<g>
		<path class="st0" d="M54.4,394.2c-2.1-27.8-25.3-49.7-53.7-49.7c-29.7,0-53.8,24.1-53.8,53.8s24.1,53.8,53.8,53.8
			c28.3,0,51.4-21.8,53.6-49.5L54.4,394.2L54.4,394.2z M0.8,442.7c-24.5,0-44.4-19.9-44.4-44.4s19.9-44.4,44.4-44.4
			s44.4,19.9,44.4,44.4C45.2,422.8,25.3,442.7,0.8,442.7z"/>
		<path class="st0" d="M53.5,394.2c0.1,1.4,0.2,2.7,0.2,4.1s-0.1,2.9-0.2,4.3v0.2l24.4-4.3c0-0.1,0-0.2,0-0.3L53.5,394.2z"/>
	</g>
	<g>
		<path class="st0" d="M331.8,402.4c2.1,27.8,25.3,49.7,53.7,49.7c29.7,0,53.8-24.1,53.8-53.8s-24.1-53.8-53.8-53.8
			c-28.3,0-51.4,21.8-53.6,49.5L331.8,402.4L331.8,402.4z M385.4,353.9c24.5,0,44.4,19.9,44.4,44.4s-19.9,44.4-44.4,44.4
			S341,422.8,341,398.3S360.9,353.9,385.4,353.9z"/>
		<path class="st0" d="M332.7,402.4c-0.1-1.4-0.2-2.7-0.2-4.1s0.1-2.9,0.2-4.3v-0.2l-22.9,4.3c0,0.1,0,0.2,0,0.3L332.7,402.4z"/>
	</g>
	<g>
		<path class="st0" d="M99.5,298.9c18.2-21.1,17.3-53.1-2.8-73.1c-21-21-55.1-21-76.1,0s-21,55.1,0,76.1c20,20,51.8,21,72.9,2.9
			L99.5,298.9L99.5,298.9z M27.2,295.2c-17.3-17.3-17.3-45.5,0-62.8s45.5-17.3,62.8,0s17.3,45.5,0,62.8
			C72.7,312.6,44.6,312.6,27.2,295.2z"/>
		<path class="st0" d="M98.9,298.2c-0.9,1-1.8,2-2.8,3s-2.1,2-3.2,2.9l-0.1,0.1l18.1,12c0.1-0.1,0.2-0.2,0.2-0.2L98.9,298.2z"/>
	</g>
	<g>
		<path class="st0" d="M289.6,495.7c-18.2,21.1-17.3,53.1,2.8,73.1c21,21,55.1,21,76.1,0s21-55.1,0-76.1c-20-20-51.8-21-72.9-2.9
			L289.6,495.7L289.6,495.7z M361.8,499.3c17.3,17.3,17.3,45.5,0,62.8s-45.5,17.3-62.8,0c-17.3-17.3-17.3-45.5,0-62.8
			C316.3,482,344.5,482,361.8,499.3z"/>
		<path class="st0" d="M290.2,496.3c0.9-1,1.8-2,2.8-3s2.1-2,3.2-2.9l0.1-0.1l-18.9-12.8c-0.1,0.1-0.2,0.2-0.2,0.2L290.2,496.3z"/>
	</g>
	<g>
		<path class="st0" d="M197.2,259.6c27.8-2.1,49.7-25.3,49.7-53.7c0-29.7-24.1-53.8-53.8-53.8s-53.8,24.1-53.8,53.8
			c0,28.3,21.8,51.4,49.5,53.6L197.2,259.6L197.2,259.6z M148.7,206c0-24.5,19.9-44.4,44.4-44.4s44.4,19.9,44.4,44.4
			s-19.9,44.4-44.4,44.4S148.7,230.5,148.7,206z"/>
		<path class="st0" d="M197.2,258.7c-1.4,0.1-2.7,0.2-4.1,0.2c-1.4,0-2.9-0.1-4.3-0.2h-0.2l4.3,22.1c0.1,0,0.2,0,0.3,0L197.2,258.7z
			"/>
	</g>
	<g>
		<path class="st0" d="M189,537c-27.8,2.1-49.7,25.3-49.7,53.7c0,29.7,24.1,53.8,53.8,53.8s53.8-24.1,53.8-53.8
			c0-28.3-21.8-51.4-49.5-53.6L189,537L189,537z M237.5,590.6c0,24.5-19.9,44.4-44.4,44.4s-44.4-19.9-44.4-44.4s19.9-44.4,44.4-44.4
			S237.5,566.1,237.5,590.6z"/>
		<path class="st0" d="M189,537.9c1.4-0.1,2.7-0.2,4.1-0.2c1.4,0,2.9,0.1,4.3,0.2h0.2l-4.3-25.2c-0.1,0-0.2,0-0.3,0L189,537.9z"/>
	</g>
	<g>
		<path class="st0" d="M292.5,304.7c21.1,18.2,53.1,17.3,73.1-2.8c21-21,21-55.1,0-76.1s-55.1-21-76.1,0c-20,20-21,51.8-2.9,72.9
			L292.5,304.7L292.5,304.7z M296.2,232.4c17.3-17.3,45.5-17.3,62.8,0s17.3,45.5,0,62.8s-45.5,17.3-62.8,0
			C278.8,277.9,278.8,249.8,296.2,232.4z"/>
		<path class="st0" d="M293.2,304c-1-0.9-2-1.8-3-2.8s-2-2.1-2.9-3.2l-0.2-0.1l-11.3,17.3c0.1,0.1,0.2,0.2,0.2,0.2L293.2,304z"/>
	</g>
	<g>
		<path class="st0" d="M92.9,491.2C71.8,473,39.8,473.9,19.8,494c-21,21-21,55.1,0,76.1s55.1,21,76.1,0c20-20,21-51.8,2.9-72.9
			L92.9,491.2L92.9,491.2z M89.3,563.4c-17.3,17.3-45.5,17.3-62.8,0c-17.4-17.3-17.4-45.5,0-62.8c17.3-17.3,45.5-17.3,62.8,0
			C106.6,517.9,106.6,546.1,89.3,563.4z"/>
		<path class="st0" d="M92.3,491.8c1,0.9,2,1.8,3,2.8s2,2.1,2.9,3.2l0.1,0.1l13.5-19.6c-0.1-0.1-0.2-0.2-0.2-0.2L92.3,491.8z"/>
	</g>
	<path class="st3" d="M141.8,425.3c1.1-4,2.5-7.6,4.1-10.5c1-2.3,2.2-4.4,3.6-6.2c0,0,9.9-12.3,29.2-11.1c0.2,0.1,0.3,0.2,0.4,0.2
		l0.3-0.1c0.3-0.2,0.6-0.4,0.9-0.5c-11-4.1-23.3-14.3-25.6-41c-4.7-0.2-8.6-3.9-8.7-8.4c-0.1-4.7,3.7-8.5,8.6-8.6
		c0.1-0.6,0.1-1.1,0.2-1.7c-0.5-2.9-1.3-7.5-1.2-10.1c0.1-3.8,0.7-8.2,1.8-11.9c2.8-9.6,9.1-16,17.3-20c11.5-5.7,33.1-4.9,43.1-0.2
		c8.2,3.8,14.5,10.4,17.3,20c1.1,3.6,1.6,8,1.8,11.9c0.1,3.9,0,7.9-0.8,11.8c0,0.1,0,0.2,0,0.3c4.1,0.5,7.6,3.6,8.3,7.6
		c0.8,4.7-2.6,8.8-7.6,9.3c-0.3,0-0.7,0-1,0c-1.5,15.8-6.9,34.5-23.4,41.4c0.1,0.1,0.2,0.1,0.2,0.2l0.7,0.2c0,0,0.1,0,0.1-0.1
		c5.1-0.3,9.6,1.3,13.5,3.8l4.5,1.2l-0.3,1.9c6.7,5.9,11,13.9,12.3,16.6c0.3,0.6,0.5,1.2,0.7,1.8c0.3,0.8,0.5,1.6,0.8,2.4h2.6
		c1.6-5.4,14.9-5.2,14.7-1.3c0,0.4-0.1,0.8-0.1,1.3h38.8c2.4-9,3.7-18.5,3.7-28.3c0-60-48.7-108.7-108.7-108.7
		S85.1,336.9,85.1,396.9c0,9.8,1.3,19.3,3.7,28.3L141.8,425.3L141.8,425.3z"/>
	<path class="st4" d="M241.6,421.8c0.4,1.1,0.8,2.3,1.2,3.4h0.1c-0.3-0.8-0.5-1.6-0.8-2.4c-0.2-0.6-0.5-1.2-0.7-1.8
		c-1.3-2.7-5.6-10.8-12.3-16.6l0,0C237.1,411.7,241.6,421.8,241.6,421.8z"/>
	<path class="st5" d="M229,404.5l-3.3,19.9c0.1,0.3,0.1,0.6,0.2,0.9h16.9c-0.4-1.1-0.8-2.3-1.2-3.4
		C241.6,421.8,237.1,411.7,229,404.5z"/>
	<path class="st5" d="M224.8,401.4c-3.9-2.5-8.4-4.1-13.5-3.8c0,0-0.1,0-0.1,0.1L224.8,401.4z"/>
	<path class="st5" d="M162,424.1c0,0-0.4,0.5-1,1.2h3.1c0.1-0.5,0.2-1,0.3-1.5l-3.5-21.2l18.2-4.9c-0.1-0.1-0.3-0.2-0.4-0.2
		c-19.3-1.1-29.2,11.1-29.2,11.1c-1.4,1.8-2.5,3.9-3.6,6.2c0.5-0.9,1.1-1.8,1.6-2.6C153.4,403.9,162,424.1,162,424.1z"/>
	<path class="st6" d="M208.8,397.9c-3.8,1.4-8.2,2.2-13.3,2.2l0,0h-0.1c-0.2,0-0.4,0-0.6,0V400c-3.2-0.3-8.1-0.8-13.5-2.6l0.3,27.8
		h26.8L208.8,397.9z"/>
	<path class="st5" d="M164.3,423.8c-0.1,0.5-0.2,1-0.3,1.5h0.5L164.3,423.8z"/>
	<path class="st5" d="M180.8,397.2c-0.2-0.1-0.3-0.1-0.5-0.2c-0.3,0.2-0.6,0.4-0.9,0.5L180.8,397.2z"/>
	<path class="st5" d="M225.6,425.3h0.3c-0.1-0.3-0.1-0.6-0.2-0.9L225.6,425.3z"/>
	<path class="st5" d="M210.1,397.4l0.4,0.1c-0.1-0.1-0.2-0.1-0.2-0.2C210.2,397.4,210.2,397.4,210.1,397.4z"/>
	<path class="st7" d="M210.1,397.4c-0.4,0.2-0.9,0.3-1.3,0.5l-0.3,27.4h17.1l0.1-0.9l3.3-19.9l0,0l0.3-1.9l-4.5-1.2l-13.6-3.7
		l-0.7-0.2L210.1,397.4z"/>
	<path class="st7" d="M160.9,402.6l3.5,21.2l0.2,1.5h17.1l-0.3-27.8c-0.2-0.1-0.4-0.1-0.6-0.2l-1.3,0.4l-0.3,0.1L160.9,402.6z"/>
	<path class="st8" d="M234,350.8c-0.1,1.7-0.2,3.4-0.4,5.2c0.3,0,0.7,0,1,0c5-0.5,8.4-4.6,7.6-9.3c-0.6-4-4.2-7.1-8.3-7.6
		C234.3,343.1,234.2,347.1,234,350.8z"/>
	<path class="st8" d="M154.7,339c-4.9,0.2-8.8,4-8.6,8.6c0.1,4.5,3.9,8.2,8.7,8.4c-0.1-1.7-0.3-3.4-0.3-5.2
		C154.2,347.1,154.3,343,154.7,339z"/>
	<path class="st4" d="M195.5,400.1h-0.1C195.5,400.1,195.5,400.1,195.5,400.1L195.5,400.1z"/>
	<path class="st4" d="M180.8,397.2c0.2,0.1,0.4,0.1,0.6,0.2c5.4,1.9,10.3,2.3,13.5,2.6v-12.1c-8.3-0.5-11.3-7.7-11.7-11.8
		c-0.2-1.5,0.7-2.9,1.9-3.1s2.3,0.9,2.5,2.4c0.1,0.7,1,6.4,7.3,6.9v-15.7c-2.3-0.2-4-2.3-4-4.8s1.8-4.6,4-4.8v-29.6
		c-0.1,0-0.1,0-0.2,0c0,0.1,0,0.2,0,0.2c-8.3,0.5-13.7-4.3-21.6-5.1c-9.3-1-15.5,2.6-17.7,17.5c0,0-0.2-1.1-0.6-2.8
		c-0.1,0.6-0.1,1.1-0.2,1.7c-0.4,4.1-0.4,8.1-0.3,11.9c0.1,1.8,0.2,3.5,0.3,5.2c2.4,26.7,14.7,36.9,25.6,41
		C180.4,397.1,180.6,397.2,180.8,397.2z M169.2,345.6c0-4,3.2-7.2,7.2-7.2s7.2,3.2,7.2,7.2s-3.2,7.2-7.2,7.2
		S169.2,349.6,169.2,345.6z"/>
	<path class="st4" d="M233.9,339.3c0,0-6-17.8-18.5-17c-7.5,0.5-12.8,5.1-20.5,5.1v29.5c0.1,0,0.2,0,0.4,0c2.4,0,4.4,2.2,4.4,4.8
		c0,2.7-2,4.8-4.4,4.8c-0.1,0-0.2,0-0.4,0v15.7c0.1,0,0.1,0,0.2,0c6.5-0.4,7.4-6.2,7.5-6.9c0.2-1.5,1.3-2.6,2.5-2.4
		c1.2,0.2,2.1,1.6,1.9,3.1c-0.4,4.1-3.4,11.3-11.8,11.8l0,0h-0.1H195l0,0l0,0v12.1v0.1c0.2,0,0.4,0,0.6,0h0.1c5,0,9.4-0.8,13.3-2.2
		c0.4-0.2,0.9-0.3,1.3-0.5c0,0,0.1,0,0.1-0.1c16.5-6.9,21.9-25.6,23.4-41.4c0.2-1.8,0.3-3.5,0.4-5.2c0.2-3.7,0.2-7.7,0-11.8
		c0-0.1,0-0.2,0-0.3C234,338.9,233.9,339.1,233.9,339.3z M213.3,352.8c-4,0-7.2-3.2-7.2-7.2s3.2-7.2,7.2-7.2s7.2,3.2,7.2,7.2
		S217.3,352.8,213.3,352.8z"/>
	<path class="st8" d="M199.6,361.8c0-2.7-2-4.8-4.4-4.8c-0.1,0-0.2,0-0.4,0c-2.3,0.2-4,2.3-4,4.8s1.8,4.6,4,4.8c0.1,0,0.2,0,0.4,0
		C197.6,366.6,199.6,364.4,199.6,361.8z"/>
	<path class="st9" d="M155.4,340.1c2.2-15,8.3-18.5,17.7-17.5c7.9,0.8,13.3,5.6,21.6,5.1c0-0.1,0-0.1,0-0.2c0.1,0,0.1,0,0.2,0
		c7.7,0,13-4.6,20.5-5.1c12.5-0.8,18.5,17,18.5,17c0-0.2,0.1-0.4,0.1-0.6c0.8-3.8,0.9-7.9,0.8-11.8c-0.1-3.8-0.7-8.2-1.8-11.9
		c-2.8-9.6-9.1-16.2-17.3-20c-10-4.7-31.6-5.5-43.1,0.2c-8.1,4-14.5,10.4-17.3,20c-1.1,3.6-1.6,8-1.8,11.9
		c-0.1,2.6,0.7,7.2,1.2,10.1C155.1,338.9,155.4,340.1,155.4,340.1z"/>
	<path class="st10" d="M194.9,387.9h0.1h0.1l0,0c8.4-0.5,11.4-7.7,11.8-11.8c0.2-1.5-0.7-2.9-1.9-3.1s-2.3,0.9-2.5,2.4
		c-0.1,0.7-1,6.5-7.5,6.9c-0.1,0-0.1,0-0.2,0c-6.4-0.5-7.3-6.2-7.3-6.9c-0.2-1.5-1.3-2.6-2.5-2.4s-2.1,1.6-1.9,3.1
		C183.5,380.2,186.5,387.4,194.9,387.9L194.9,387.9L194.9,387.9z"/>
	<circle class="st11" cx="176.4" cy="345.6" r="7.2"/>
	<circle class="st11" cx="213.3" cy="345.6" r="7.2"/>
	<path class="st0" d="M259.6,428.8c-0.1,0.7-0.3,1.5-0.5,2.2c-0.8,2.7-3.2,8.3-8.6,7.2c-1.7-0.3-3-1.8-3.8-3.4
		c-1.4-2.7-1.9-5.9-1.4-8.9c0-0.2,0.1-0.4,0.1-0.7h-2.6h-0.1h-16.9h-0.3h-17.1h-26.8h-17.1h-0.4H161c-2.3,2.8-7.3,10.4-2.6,21.2
		c2.6,6.1,6.3,10.9,11.1,13c1.2,0.5,2.4,1,3.6,1.5c1.9,0.6,4.4,1.4,7.5,2.3c0.8,0.2,1.5,0.3,2,0.4l-0.1,0.2c4.3,1.2,8.6,2,13,2.5
		c3.1,0.4,6,1.7,8.2,3.8c1.3,1.3,2.3,2.9,2.2,4.6c-0.5,5.5-6.5,6.2-9.3,6.3c-0.8,0-1.5,0-2.3-0.1c-1.6-0.2-3.2-0.5-4.8-0.8
		c-4.8-1-9.4-2.4-12.8-3.3c-0.1,0-0.1,0-0.2-0.1l-0.1,0.1c-17.6-4.7-29-12-34.4-21.8c-4-7.3-3.3-19.6-0.5-29.8H88.6
		c12.5,46.3,54.7,80.4,105,80.4s92.5-34.1,105-80.4h-38.8C259.9,426.5,259.8,427.7,259.6,428.8z"/>
	<path class="st4" d="M246.7,434.9c0.9,1.6,2.1,3,3.8,3.4c5.4,1.1,7.8-4.5,8.6-7.2c0.2-0.7,0.4-1.5,0.5-2.2c0.2-1.2,0.3-2.4,0.4-3.6
		c0-0.4,0.1-0.8,0.1-1.3c0.2-3.9-13.1-4.1-14.7,1.3c-0.1,0.2-0.1,0.4-0.1,0.7C244.8,429,245.2,432.1,246.7,434.9z"/>
	<path class="st4" d="M180.6,463.3c-3-0.9-5.6-1.7-7.5-2.3C175.8,462.1,178.5,462.9,180.6,463.3z"/>
	<path class="st4" d="M176.6,476.8c0.1,0,0.1,0,0.2,0.1c3.4,0.9,8,2.3,12.8,3.3c1.6,0.3,3.2,0.6,4.8,0.8c0.8,0.1,1.5,0.2,2.3,0.1
		c2.9,0,8.8-0.8,9.3-6.3c0.2-1.8-0.9-3.3-2.2-4.6c-2.2-2.1-5.2-3.4-8.2-3.8c-4.4-0.5-8.7-1.4-13-2.5L176.6,476.8z"/>
	<path class="st5" d="M142.2,455.1c5.4,9.8,16.8,17,34.4,21.8l0.1-0.1l5.9-12.9l0.1-0.2c-0.6-0.1-1.3-0.2-2-0.4
		c-2.1-0.5-4.8-1.3-7.5-2.3c-1.2-0.5-2.5-1-3.6-1.5c-4.8-2.2-8.4-6.9-11.1-13c-4.7-10.9,0.3-18.4,2.6-21.2c0.6-0.7,1-1.2,1-1.2
		s-8.6-20.1-14.5-11.9c-0.5,0.8-1.1,1.6-1.6,2.6c-1.6,2.9-3,6.5-4.1,10.5C138.9,435.5,138.2,447.8,142.2,455.1z"/>
</g>
</svg>
