<?xml version="1.0" encoding="utf-8"?>
<!-- Generator: Adobe Illustrator 19.0.1, SVG Export Plug-In . SVG Version: 6.00 Build 0)  -->
<svg version="1.1" id="puzzle_1_" xmlns="http://www.w3.org/2000/svg" xmlns:xlink="http://www.w3.org/1999/xlink" x="0px" y="0px"
	 viewBox="-302.1 269.1 85.9 74.8" style="enable-background:new -302.1 269.1 85.9 74.8;" xml:space="preserve">
<style type="text/css">
	.st0{fill:#EB2430;}
	.st1{fill:none;stroke:#FFFFFF;stroke-width:3;stroke-linecap:round;stroke-miterlimit:10;}
</style>
<g>
	<path class="st0" d="M-216.2,292.3c0.3,6.6-2.6,12.4-6.3,17.8c-9.2,13.6-21.6,24-34.6,33.8c-1.6,1.2-3,1-4.4-0.2
		c-13.4-11-26.4-22.4-35.6-37.4c-2.5-4-4.5-8.3-4.9-13.1c-1-10.4,4.7-19.4,14.2-22.8c9.5-3.4,19.9,0.2,25.8,9c2.7,4,2.9,4,5.6,0.1
		c5.8-8.3,16-11.3,26.6-8C-221,274.1-216.2,281.5-216.2,292.3z"/>
</g>
<g id="lines">
	<g>
		<line class="st1" x1="-275.2" y1="300.3" x2="-243" y2="300.3"/>
		<line class="st1" x1="-275.2" y1="306.8" x2="-243" y2="306.8"/>
		<line class="st1" x1="-275.2" y1="313.5" x2="-243" y2="313.5"/>
	</g>
</g>
</svg>
