<?xml version="1.0" encoding="utf-8"?>
<!-- Generator: Adobe Illustrator 19.0.1, SVG Export Plug-In . SVG Version: 6.00 Build 0)  -->
<svg version="1.1" id="head" xmlns="http://www.w3.org/2000/svg" xmlns:xlink="http://www.w3.org/1999/xlink" x="0px" y="0px"
	 viewBox="0 0 71.3 75.2" style="enable-background:new 0 0 71.3 75.2;" xml:space="preserve">
<style type="text/css">
	.st0{fill:#E82732;}
</style>
<path class="st0" d="M70.4,36.6c-0.5-2.9-3-5.1-6-5.5c-0.5-9-2.7-18.4-8.7-23.5C50.5,3,43.6,0.6,36.6,0v0c-0.1,0-0.2,0-0.2,0
	c-0.1,0-0.2,0-0.2,0v0c-7.1,0.5-14.3,3-19.6,7.5c-6,5.2-8.7,14.5-9.5,23.5c-3.5,0.1-6.3,2.9-6.2,6.2c0.1,3.3,2.8,5.9,6.3,6.1
	c2.6,29.5,22,31.1,29,31.8v0c0.1,0,0.3,0,0.4,0c0,0,0.1,0,0.1,0v0c20.4,0,26.2-17.5,27.5-31.8c0.2,0,0.5,0,0.7,0
	C68.5,43,70.9,40,70.4,36.6z"/>
<g>
</g>
<g>
</g>
<g>
</g>
<g>
</g>
<g>
</g>
<g>
</g>
</svg>
