<?xml version="1.0" encoding="utf-8"?>
<!-- Generator: Adobe Illustrator 19.0.1, SVG Export Plug-In . SVG Version: 6.00 Build 0)  -->
<svg version="1.1" id="phone_1_" xmlns="http://www.w3.org/2000/svg" xmlns:xlink="http://www.w3.org/1999/xlink" x="0px" y="0px"
	 viewBox="-105 197 400 400" style="enable-background:new -105 197 400 400;" xml:space="preserve">
<style type="text/css">
	.st0{fill:#333333;}
	.st1{fill:none;stroke:#333333;stroke-width:26;stroke-miterlimit:10;}
</style>
<g id="phone">
	<g>
		<path class="st0" d="M138.4,514.4c-8.6,0.5-16.5-1.5-24.6-3.7c-16.5-4.4-30.4-13.3-43.8-23.5c-17.6-13.4-32.2-29.6-46.1-46.6
			c-5.6-6.9-11-13.9-15.6-21.4c-7.9-12.9-14.9-26.3-19-41.1c-3.5-12.7-5-25.4-3.3-38.4c1.3-10.3,4.8-19.9,10.2-28.8
			c5.1-8.5,12.2-15.1,19.8-21.3c2.7-2.2,5.4-4.5,8.2-6.6c7-5,14.2-4.6,21,1c5.6,4.6,9.7,10.5,13.5,16.5c4.4,6.9,9.3,13.7,12.2,21.5
			c2.7,7.3,3.8,14.6,0.6,22c-1.6,3.6-4.1,6.5-7.1,8.9c-4.6,3.9-9.3,7.7-14.1,11.3c-6.4,4.8-7.8,11-5.7,19.5
			c2.4,9.6,7.7,17.5,13.5,25.3c5.5,7.4,11.3,14.5,17.7,20.9c8.5,8.5,16.9,17.5,28.8,21.2c6,1.9,12.3,2.2,17.4-3.2
			c2.7-2.8,5.6-5.5,8.4-8.3c3.4-3.5,7.4-6.3,11.5-8.7c8.1-4.7,16.1-3,23.9,1c8.2,4.3,15.1,10.5,21.9,16.8c4.7,4.4,9.6,8.5,13.2,13.9
			c5.8,8.7,4.8,16.8-3,23.6c-4.5,4-8.7,8.3-13.5,12.1c-6.7,5.3-13.8,9.5-22,12.1C154.4,512.9,146.5,515.1,138.4,514.4z"/>
	</g>
</g>
<g id="circle">
	<circle class="st1" cx="95" cy="397" r="182.4"/>
</g>
</svg>
