<?xml version="1.0" encoding="utf-8"?>
<!-- Generator: Adobe Illustrator 19.0.1, SVG Export Plug-In . SVG Version: 6.00 Build 0)  -->
<svg version="1.1" id="playheart" xmlns="http://www.w3.org/2000/svg" xmlns:xlink="http://www.w3.org/1999/xlink" x="0px" y="0px"
	 viewBox="26 -26.6 251.6 252.6" style="enable-background:new 26 -26.6 251.6 252.6;" xml:space="preserve">
<style type="text/css">
	.st0{fill:none;stroke:#FFFFFF;stroke-width:16;stroke-miterlimit:10;}
	.st1{fill:#EC202F;}
	.st2{fill:#FFFFFF;}
</style>
<g id="heart">
	<circle class="st0" cx="151.8" cy="99.7" r="112.1"/>
	<path id="path2417" class="st1" d="M146,165.2c-3.2-3.5-11.1-10.4-17.5-15.3c-19.2-14.5-21.8-16.6-29.6-23.8
		c-14.4-13.2-20.5-26.5-20.5-44.6c0-8.8,0.6-12.2,3.1-17.4c4.2-8.8,10.3-15.4,18.2-19.4c5.6-2.8,8.3-4.1,17.7-4.1
		c9.7-0.1,11.8,1.1,17.5,4.2c7,3.8,14.2,12,15.6,17.9l0.9,3.6l2.3-5c12.8-28,53.6-27.6,67.8,0.7c4.5,9,5,28.1,1,38.9
		c-5.2,14.1-15,24.8-37.6,41.2c-14.9,10.8-31.7,27.1-32.8,29.4C150.7,174.2,152,171.9,146,165.2z"/>
</g>
<g id="play_1_">
	<path class="st2" d="M132.5,79.3c-1.9-0.8-4,0.6-4,2.6v17.8v17.8c0,2.1,2.1,3.4,4,2.6l40.9-17.8c2.3-1,2.3-4.2,0-5.2L132.5,79.3z"
		/>
</g>
<path id="circle" class="st2" d="M89.7,168.1"/>
</svg>
