<?xml version="1.0" encoding="utf-8"?>
<!-- Generator: Adobe Illustrator 19.0.1, SVG Export Plug-In . SVG Version: 6.00 Build 0)  -->
<svg version="1.1" id="playheart" xmlns="http://www.w3.org/2000/svg" xmlns:xlink="http://www.w3.org/1999/xlink" x="0px" y="0px"
	 viewBox="-53 -18.6 251.6 252.6" style="enable-background:new -53 -18.6 251.6 252.6;" xml:space="preserve">
<style type="text/css">
	.st0{fill:none;stroke:#FFFFFF;stroke-width:16;stroke-miterlimit:10;}
	.st1{fill:#EC202F;}
	.st2{fill:#FFFFFF;}
</style>
<g id="heart">
	<circle class="st0" cx="72.8" cy="107.7" r="112.1"/>
	<path id="path2417" class="st1" d="M67,173.2c-3.2-3.5-11.1-10.4-17.5-15.3c-19.2-14.5-21.8-16.6-29.6-23.8
		C5.5,120.9-0.6,107.6-0.6,89.5c0-8.8,0.6-12.2,3.1-17.4c4.2-8.8,10.3-15.4,18.2-19.4c5.6-2.8,8.3-4.1,17.7-4.1
		c9.7-0.1,11.8,1.1,17.5,4.2c7,3.8,14.2,12,15.6,17.9l0.9,3.6l2.3-5c12.8-28,53.6-27.6,67.8,0.7c4.5,9,5,28.1,1,38.9
		c-5.2,14.1-15,24.8-37.6,41.2c-14.9,10.8-31.7,27.1-32.8,29.4C71.7,182.2,73,179.9,67,173.2z"/>
</g>
<g id="play">
	<path class="st2" d="M56.5,84.2c-4.6-2.1-9.9,1.3-9.9,6.4v17.1v17.1c0,5.1,5.2,8.5,9.9,6.4l38.4-17.1c5.6-2.5,5.6-10.3,0-12.8
		L56.5,84.2z"/>
</g>
</svg>
