<?xml version="1.0" encoding="utf-8"?>
<!-- Generator: Adobe Illustrator 19.0.1, SVG Export Plug-In . SVG Version: 6.00 Build 0)  -->
<svg version="1.1" id="Layer_1" xmlns="http://www.w3.org/2000/svg" xmlns:xlink="http://www.w3.org/1999/xlink" x="0px" y="0px"
	 viewBox="0 0 517.6 142.7" style="enable-background:new 0 0 517.6 142.7;" xml:space="preserve">
<style type="text/css">
	.st0{fill:#138D07;}
	.st1{fill:#F4F8F3;}
	.st2{fill:#FEFEFE;}
</style>
<g>
	<path class="st0" d="M517.6,142.7c-1.4-0.1-2.9-0.2-4.3-0.2c-169.7,0-339.3,0-509,0c-1.4,0-2.9,0.1-4.3,0.2C0,95.1,0,47.6,0,0
		c1.2,0,2.3,0.1,3.5,0.1c170.2,0,340.3,0,510.5,0c1.2,0,2.3-0.1,3.5-0.1C517.6,47.6,517.6,95.1,517.6,142.7z M283.3,44.6
		c-15.4-0.1-25,9.9-25.1,25.8c0,15.9,9.6,26.1,24.8,26.1c15.1,0,24.7-9.9,24.9-25.7C308.1,54.8,298.6,44.7,283.3,44.6z M36.1,96.7
		c2.8-0.1,5.5-0.2,8.2-1.1c1.7-0.6,3.5-1.2,5-2.2c8.2-5.5,8.4-16.7,0.2-22.9c-4.3-3.3-9.3-5.8-13.9-8.8c-2.2-1.5-3.5-3.7-2.6-6.4
		c0.8-2.6,3-3.4,5.5-3.7c3.9-0.5,7.5,0.5,11.1,1.7c0.7,0.2,1.9,1,2.1,0.3c0.4-1.9,0.3-3.8,0.4-5.8c0.1-1.7-1.3-1.8-2.4-2
		c-4.5-0.9-9-1.5-13.6-1c-8.8,0.9-14.3,7.1-13.3,15.1c0.6,4.8,3.5,8.1,7.4,10.6c3.4,2.2,6.9,4.1,10.4,6.2c3,1.9,5,4.4,3.9,8.1
		c-1.1,3.8-4.2,4.6-7.7,4.8c-4.1,0.2-8-0.8-11.8-2.3c-1.6-0.6-2.2-0.4-2.3,1.5c-0.3,6.1-0.4,6.1,5.7,7
		C30.9,96.2,33.5,96.4,36.1,96.7z M501.9,77.3c0.2-11.9-7-19.5-18.5-19.6c-11.4-0.1-18.7,7.1-18.9,18.8
		c-0.2,11.8,6.8,19.4,18.1,19.6C494.3,96.3,501.8,89.1,501.9,77.3z M324.5,64.9c-0.5-6.3-0.5-6.3-6.3-6.3c-0.1,0-0.3,0-0.4,0
		c-2.7-0.4-3.6,0.5-3.5,3.3c0.2,8.9,0.1,17.8,0.1,26.6c0,6.8,0,6.7,6.8,6.8c2.8,0,3.2-1.1,3.1-3.4c-0.1-5.6,0-11.2,0-16.8
		c0-4,2.1-7.1,6-8.6c4.6-1.8,6.9-0.3,7,4.6c0.1,5.7,0,11.5,0,17.2c0,7.7,0,7.7,7.8,6.9c1.4-0.1,2.1-0.5,2.1-2.1
		c-0.1-8.7,0.2-17.5-0.3-26.2c-0.4-6.6-5.6-10.1-12.1-9.2C330.3,58.4,327.4,61,324.5,64.9z M382.5,66.9c1.1-0.5,1.7-0.8,2.4-1.1
		c3.7-1.6,7.4-2.5,11.4-1.7c3.7,0.7,4,3.6,4,6.7c-0.1,3.6-2.8,1.8-4.4,2c-3.8,0.3-7.5,0.8-10.9,2.7c-4.9,2.8-7.1,8.6-5.3,13.8
		c1.6,4.8,6.6,7.4,12.3,6.6c2.7-0.4,4.9-1.7,6.9-3.4c0.8-0.7,1.5-1.4,2.4,0.1c2.5,4.2,6.5,3.7,10.4,3.2c1.2-0.2,2.5-0.4,2.2-2.1
		c-0.3-1.4,1.1-3.4-1.3-3.9c-2.6-0.5-2.8-2.4-2.8-4.4c0-5.5,0.1-11-0.1-16.4c-0.1-5.5-2.3-8.4-7.5-10.1c-4.6-1.6-9.3-1.3-13.9-0.2
		C382.2,59.9,382.2,59.9,382.5,66.9z M239.4,78.9c1.3,0,2.6,0,3.9,0c8.2,0,8.2,0,6.9-8.4c-1.2-7.4-5.4-11.8-12.3-12.7
		c-9.2-1.2-16.7,3.6-19.2,12.3c-2.9,10,0.8,19.9,9.1,23.8c7,3.3,14.3,2.3,21.4,0.3c3.1-0.9,1.7-3.9,1.4-5.7
		c-0.3-2.5-2.2-0.6-3.3-0.3c-3.1,0.6-6.1,1.3-9.3,1c-4.9-0.4-7.9-2.9-9.1-7.2c-0.6-2.2-0.6-3.5,2.3-3.3
		C233.9,79.1,236.6,78.9,239.4,78.9z M81.4,78.9c1.8,0,3.7,0,5.5,0c6.2,0,6.2,0,5.6-6.1c-0.1-1.3-0.3-2.6-0.7-3.9
		c-1.8-7.3-6.9-11.3-14.4-11.3c-8.4,0-14.7,4.8-16.9,13c-2.4,9.2,0.8,18.7,7.9,22.7c7.4,4.2,15.2,3.1,22.8,0.9
		c2.9-0.8,1.5-3.9,1.2-5.8c-0.3-2-2.1-0.5-3.1-0.3c-3.2,0.7-6.4,1.4-9.7,1.1c-5-0.5-8.5-3.6-9.3-8.1c-0.3-1.7,0.1-2.4,1.9-2.3
		C75.4,79,78.4,78.9,81.4,78.9z M125.4,58.6c4,10.7,7.8,20.7,11.6,30.7c2.3,6,2.3,5.9,8.7,6c2.5,0.1,3.7-0.8,4.5-3.1
		c3.6-9.8,7.4-19.5,11.1-29.3c1.7-4.5,1.8-4.4-2.9-4.4c-2,0-2.7,0.9-3.3,2.5c-2.3,6.2-4.8,12.4-7.2,18.6c-0.6,1.5-0.8,3.2-2.3,4.6
		c-2.9-7.7-5.8-15.1-8.5-22.6c-0.9-2.5-2.2-3.5-4.8-3.2C130.1,58.8,128,58.6,125.4,58.6z M213,87.9c-1.8,0.4-3.5,1-5.3,1.3
		c-3.7,0.6-7.3,0.6-10.3-2.3c-3.9-3.8-4.9-12.1-2-17.6c2.4-4.6,6.3-5.8,13.3-4.3c4.9,1.1,4.8,1.1,4.5-3.8c-0.1-1.6-0.6-2.3-2.2-2.6
		c-4.8-1-9.6-1.4-14.4-0.3c-5.8,1.4-10.1,4.8-12.2,10.5c-5.7,15.1,4,28.3,20.1,27.1c1-0.1,2.1-0.2,3.1-0.3
		C213.8,94.9,214.1,94.5,213,87.9z M369.2,96.1c0.5-0.1,1.8-0.3,3.1-0.4c3.3-0.2,2.4-2.7,2.6-4.6c0.2-2.7-1.7-1.6-2.9-1.6
		c-3.9-0.2-5.5-1.7-5.6-5.9c-0.1-4.8,0.2-9.7-0.1-14.5c-0.3-3.7,1-5,4.5-4.3c3,0.6,3.6-0.8,3.6-3.7c0-3.5-2.3-2.5-4-2.5
		c-2.6,0.1-4.8,0-4.1-3.6c0.6-3.2-0.8-4.1-3.8-3.4c-0.6,0.2-1.3,0.2-1.9,0.2c-2.7,0.1-4.5,0.8-3.9,4.1c0.2,1.1,0.4,2.7-1.4,2.6
		c-2.4-0.2-2.8,0.9-2.8,3c0,2.2,0.2,3.5,2.9,3.3c1.9-0.1,1.3,1.5,1.4,2.6c0,5.6,0,11.2,0,16.8C356.8,92.4,360.4,95.9,369.2,96.1z
		 M109.1,64.8c-0.5-6.2-0.5-6-6.3-6.3c-3-0.1-4,0.6-4,3.8c0.2,8.7,0.1,17.5,0.1,26.3c0,6.8,0,6.6,6.9,6.7c2.8,0,3.2-1,3.1-3.4
		c-0.2-5.4,0-10.7-0.1-16.1c0-6.3,4.2-10.5,10.3-9.6c3.2,0.4,3.5-0.7,3.2-3.1c-0.1-0.8-0.1-1.6,0-2.3c0.5-2.9-1.1-3.3-3.5-2.9
		C114.6,58.4,111.7,60.7,109.1,64.8z M429.6,64.5c-0.9-5.9-0.9-5.8-6.9-6c-2.7-0.1-3.6,0.6-3.5,3.4c0.2,8.7,0.1,17.5,0.1,26.2
		c0,7.2,0,7,7.2,7.1c2.4,0,2.8-0.8,2.8-2.9c-0.1-5.7,0-11.5,0-17.2c0-4.8,3.1-8.4,7.9-9c1.7-0.2,3.5,0,5.4,0c0-1.8-0.2-3.5,0-5.1
		c0.3-2.9-0.9-3.6-3.6-3.1C434.7,58.5,432,61.1,429.6,64.5z M457.8,76.9c0-4,0-8.1,0-12.1c0-6.3,0-6.1-6.4-6.3
		c-2.8-0.1-3.5,0.7-3.4,3.5c0.2,8.9,0.1,17.7,0.1,26.6c0,6.9,0,6.8,6.8,6.7c2.4,0,3.1-0.7,3-3.1C457.6,87.1,457.8,82,457.8,76.9z
		 M177.1,76.9c0-3.8,0-7.6,0-11.3c0-7.1,0-6.9-6.9-7c-2.7,0-3.2,0.9-3.2,3.3c0.1,8.9,0.1,17.7,0.1,26.6c0,7.2,0,7.1,7.5,6.8
		c2-0.1,2.7-0.7,2.6-2.7C177,87.4,177.1,82.1,177.1,76.9z M172.1,44.1c-3-0.3-5.3-0.7-5.2,4c0.1,4.2,1.6,4.5,5,4.4
		c3.1-0.1,5.5,0.5,5.5-4.3C177.3,43.6,175.1,43.8,172.1,44.1z M452.6,52.4c3,0.1,5.4,0.8,5.4-3.8c0-4.4-1.6-4.7-5.1-4.7
		c-3.1,0.1-5.1,0-5.1,4.3C447.8,52.6,449.7,52.9,452.6,52.4z"/>
	<path class="st1" d="M283.3,44.6c15.3,0.1,24.8,10.2,24.6,26.2c-0.1,15.8-9.8,25.7-24.9,25.7c-15.2,0-24.9-10.2-24.8-26.1
		C258.3,54.5,267.9,44.5,283.3,44.6z M297.2,71c0-4.8-0.8-9.3-3.2-13.3c-5.2-8.6-17.1-8.6-21.8,0.2c-4.5,8.2-4.4,16.9-0.1,25.2
		c4.7,8.9,16.4,9,21.8,0.5C296.3,79.7,297.1,75.3,297.2,71z"/>
	<path class="st1" d="M36.1,96.7c-2.6-0.3-5.2-0.5-7.8-0.9c-6.1-0.9-6-0.9-5.7-7c0.1-2,0.7-2.2,2.3-1.5c3.8,1.5,7.7,2.5,11.8,2.3
		c3.5-0.2,6.6-1,7.7-4.8c1-3.7-0.9-6.3-3.9-8.1c-3.4-2.1-7-4-10.4-6.2c-3.8-2.5-6.8-5.8-7.4-10.6c-1-8,4.5-14.3,13.3-15.1
		c4.6-0.4,9.1,0.1,13.6,1c1.1,0.2,2.5,0.3,2.4,2c-0.1,1.9,0,3.9-0.4,5.8c-0.2,0.7-1.4-0.1-2.1-0.3c-3.6-1.2-7.3-2.2-11.1-1.7
		c-2.5,0.3-4.7,1.2-5.5,3.7c-0.9,2.7,0.4,5,2.6,6.4c4.6,3,9.5,5.5,13.9,8.8c8.2,6.2,8,17.4-0.2,22.9c-1.5,1-3.3,1.6-5,2.2
		C41.7,96.5,38.9,96.5,36.1,96.7z"/>
	<path class="st1" d="M501.9,77.3c-0.2,11.8-7.6,19-19.3,18.8c-11.3-0.2-18.3-7.8-18.1-19.6c0.2-11.7,7.5-19,18.9-18.8
		C495,57.8,502.1,65.3,501.9,77.3z M474.8,77c0.1,2.7,0.3,5.6,1.6,8.2c1.3,2.8,3.4,4.6,6.7,4.6c3.2,0,5.5-1.7,6.7-4.5
		c2.4-5.7,2.4-11.5-0.1-17.1c-1.3-2.8-3.6-4.4-6.9-4.3c-3.1,0.1-5.1,1.8-6.4,4.5C475.2,71.1,474.9,74,474.8,77z"/>
	<path class="st1" d="M324.5,64.9c2.9-3.8,5.8-6.4,10.1-7c6.5-0.9,11.7,2.6,12.1,9.2c0.5,8.7,0.2,17.5,0.3,26.2
		c0,1.5-0.7,1.9-2.1,2.1c-7.8,0.8-7.8,0.8-7.8-6.9c0-5.7,0.1-11.5,0-17.2c-0.1-4.9-2.4-6.4-7-4.6c-3.9,1.5-6,4.5-6,8.6
		c0,5.6-0.1,11.2,0,16.8c0.1,2.4-0.3,3.5-3.1,3.4c-6.8-0.1-6.8,0.1-6.8-6.8c0-8.9,0.1-17.8-0.1-26.6c-0.1-2.8,0.9-3.8,3.5-3.3
		c0.1,0,0.3,0,0.4,0C324,58.6,324,58.6,324.5,64.9z"/>
	<path class="st1" d="M382.5,66.9c-0.4-7-0.4-7.1,5.9-8.4c4.6-1,9.3-1.3,13.9,0.2c5.2,1.8,7.4,4.7,7.5,10.1c0.1,5.5,0,11,0.1,16.4
		c0,2,0.1,3.9,2.8,4.4c2.3,0.5,1,2.6,1.3,3.9c0.3,1.6-1,1.9-2.2,2.1c-4,0.6-7.9,1-10.4-3.2c-0.9-1.5-1.5-0.8-2.4-0.1
		c-2,1.7-4.2,3-6.9,3.4c-5.7,0.8-10.7-1.8-12.3-6.6c-1.8-5.3,0.4-11.1,5.3-13.8c3.4-1.9,7.1-2.4,10.9-2.7c1.5-0.1,4.3,1.6,4.4-2
		c0.1-3-0.3-5.9-4-6.7c-4-0.8-7.8,0.2-11.4,1.7C384.3,66.1,383.6,66.4,382.5,66.9z M400.3,82.5c1.2-4.3-1.4-4.4-4.5-3.8
		c-1.1,0.2-2.3,0.5-3.4,0.9c-3.1,1.3-4.6,4.3-3.3,6.9c1.5,2.9,4,3.5,7,2.4C398.9,87.8,401.3,86.3,400.3,82.5z"/>
	<path class="st1" d="M239.4,78.9c-2.7,0-5.5,0.2-8.2,0c-2.9-0.2-2.9,1.1-2.3,3.3c1.2,4.3,4.3,6.8,9.1,7.2c3.2,0.3,6.2-0.4,9.3-1
		c1.1-0.2,3-2.1,3.3,0.3c0.2,1.8,1.6,4.8-1.4,5.7c-7.1,2-14.4,3-21.4-0.3c-8.3-3.9-12-13.8-9.1-23.8c2.5-8.7,10-13.5,19.2-12.3
		c6.9,0.9,11.1,5.3,12.3,12.7c1.3,8.4,1.3,8.4-6.9,8.4C242,78.9,240.7,78.9,239.4,78.9z M234.4,73.2c0.6,0,1.3,0.1,1.9,0
		c1.5-0.3,3.8,1,4.5-0.9c0.7-1.7-0.1-3.8-1-5.6c-0.2-0.4-0.5-0.9-0.9-1.2c-2.1-1.9-4.5-2-6.8-0.7c-2.7,1.6-4,4.6-3.5,7.3
		c0.4,2.2,3.3,0.6,5,1C233.9,73.2,234.1,73.2,234.4,73.2z"/>
	<path class="st1" d="M81.4,78.9c-3,0-6,0.1-9,0c-1.8-0.1-2.2,0.6-1.9,2.3c0.8,4.5,4.2,7.6,9.3,8.1c3.3,0.3,6.5-0.4,9.7-1.1
		c1-0.2,2.9-1.8,3.1,0.3c0.2,1.9,1.6,5-1.2,5.8c-7.6,2.2-15.4,3.2-22.8-0.9c-7.1-4-10.4-13.5-7.9-22.7c2.2-8.1,8.5-13,16.9-13
		c7.5,0,12.6,4,14.4,11.3c0.3,1.3,0.5,2.6,0.7,3.9c0.6,6.1,0.6,6.1-5.6,6.1C85,78.9,83.2,78.9,81.4,78.9z M76.4,73.2
		c1.3,0,2.6-0.1,3.9,0c2.8,0.3,3.1-1.1,2.5-3.3c-0.3-1.1-0.6-2.3-1.1-3.3c-1.5-2.8-4-3.2-6.7-2.2c-3.4,1.3-4.9,4.5-4.6,7.5
		c0.3,2.8,3.5,0.6,5.2,1.2C75.8,73.3,76.1,73.2,76.4,73.2z"/>
	<path class="st1" d="M125.4,58.6c2.6,0,4.7,0.2,6.7,0c2.7-0.3,3.9,0.7,4.8,3.2c2.7,7.5,5.6,14.8,8.5,22.6c1.5-1.4,1.7-3.2,2.3-4.6
		c2.5-6.2,4.9-12.4,7.2-18.6c0.6-1.6,1.3-2.5,3.3-2.5c4.7,0,4.7-0.2,2.9,4.4c-3.7,9.8-7.5,19.5-11.1,29.3c-0.9,2.3-2,3.2-4.5,3.1
		c-6.4-0.2-6.4,0-8.7-6C133.3,79.3,129.5,69.3,125.4,58.6z"/>
	<path class="st1" d="M213,87.9c1.1,6.6,0.8,7-5.3,7.8c-1,0.1-2.1,0.2-3.1,0.3c-16.1,1.2-25.8-12-20.1-27.1
		c2.2-5.7,6.4-9.1,12.2-10.5c4.8-1.1,9.6-0.7,14.4,0.3c1.6,0.3,2.1,1,2.2,2.6c0.3,4.9,0.3,4.9-4.5,3.8c-7-1.6-10.8-0.3-13.3,4.3
		c-2.9,5.5-1.9,13.8,2,17.6c3,2.9,6.6,2.8,10.3,2.3C209.5,88.9,211.2,88.3,213,87.9z"/>
	<path class="st1" d="M369.2,96.1c-8.8-0.2-12.4-3.7-12.5-11.8c-0.1-5.6,0-11.2,0-16.8c0-1.1,0.5-2.7-1.4-2.6
		c-2.6,0.2-2.9-1.1-2.9-3.3c0-2.1,0.4-3.2,2.8-3c1.8,0.1,1.6-1.5,1.4-2.6c-0.6-3.3,1.2-4,3.9-4.1c0.6,0,1.3-0.1,1.9-0.2
		c3-0.8,4.4,0.1,3.8,3.4c-0.7,3.6,1.4,3.7,4.1,3.6c1.7-0.1,4-1,4,2.5c0,2.8-0.6,4.2-3.6,3.7c-3.5-0.7-4.7,0.7-4.5,4.3
		c0.4,4.8,0,9.6,0.1,14.5c0.1,4.2,1.7,5.7,5.6,5.9c1.2,0.1,3.1-1,2.9,1.6c-0.1,2,0.8,4.4-2.6,4.6C371,95.8,369.8,96,369.2,96.1z"/>
	<path class="st1" d="M109.1,64.8c2.7-4.1,5.6-6.4,9.8-7c2.4-0.3,3.9,0,3.5,2.9c-0.1,0.8-0.1,1.6,0,2.3c0.3,2.5,0,3.6-3.2,3.1
		c-6.2-0.8-10.3,3.4-10.3,9.6c0,5.4-0.1,10.7,0.1,16.1c0.1,2.4-0.3,3.5-3.1,3.4c-6.9-0.1-6.9,0.1-6.9-6.7c0-8.8,0.2-17.5-0.1-26.3
		c-0.1-3.2,1-3.9,4-3.8C108.6,58.8,108.6,58.6,109.1,64.8z"/>
	<path class="st2" d="M429.6,64.5c2.4-3.4,5.1-6.1,9.3-6.7c2.7-0.4,3.9,0.2,3.6,3.1c-0.2,1.7,0,3.4,0,5.1c-1.9,0-3.7-0.2-5.4,0
		c-4.8,0.6-7.9,4.2-7.9,9c0,5.7-0.1,11.5,0,17.2c0,2.1-0.4,2.9-2.8,2.9c-7.2,0-7.2,0.1-7.2-7.1c0-8.7,0.1-17.5-0.1-26.2
		c-0.1-2.8,0.9-3.5,3.5-3.4C428.7,58.7,428.7,58.6,429.6,64.5z"/>
	<path class="st1" d="M457.8,76.9c0,5.1-0.1,10.2,0.1,15.3c0.1,2.4-0.6,3.1-3,3.1c-6.8,0-6.8,0.1-6.8-6.7c0-8.9,0.1-17.7-0.1-26.6
		c-0.1-2.7,0.7-3.5,3.4-3.5c6.4,0.1,6.4,0,6.4,6.3C457.8,68.9,457.8,72.9,457.8,76.9z"/>
	<path class="st1" d="M177.1,76.9c0,5.2-0.1,10.4,0,15.6c0,2-0.6,2.6-2.6,2.7c-7.5,0.3-7.5,0.4-7.5-6.8c0-8.9,0.1-17.7-0.1-26.6
		c0-2.5,0.5-3.4,3.2-3.3c6.9,0.1,6.9-0.1,6.9,7C177.1,69.4,177.1,73.1,177.1,76.9z"/>
	<path class="st1" d="M172.1,44.1c3-0.3,5.2-0.5,5.2,4c0,4.8-2.4,4.2-5.5,4.3c-3.4,0.2-4.9-0.2-5-4.4
		C166.8,43.5,169.1,43.8,172.1,44.1z"/>
	<path class="st1" d="M452.6,52.4c-2.9,0.5-4.8,0.3-4.8-4.1c0-4.3,1.9-4.2,5.1-4.3c3.5-0.1,5.1,0.3,5.1,4.7
		C458,53.2,455.6,52.5,452.6,52.4z"/>
	<path class="st0" d="M297.2,71c-0.1,4.3-0.9,8.7-3.3,12.5c-5.4,8.5-17.1,8.4-21.8-0.5c-4.3-8.2-4.4-16.9,0.1-25.2
		c4.8-8.8,16.6-8.8,21.8-0.2C296.4,61.7,297.2,66.2,297.2,71z"/>
	<path class="st0" d="M474.8,77c0.1-3.1,0.3-5.9,1.6-8.6c1.3-2.6,3.2-4.4,6.4-4.5c3.3-0.1,5.6,1.4,6.9,4.3
		c2.5,5.6,2.5,11.4,0.1,17.1c-1.2,2.9-3.5,4.5-6.7,4.5c-3.2,0-5.3-1.8-6.7-4.6C475.1,82.6,475,79.7,474.8,77z"/>
	<path class="st0" d="M400.3,82.5c1,3.8-1.4,5.3-4.3,6.4c-3,1.1-5.5,0.5-7-2.4c-1.3-2.6,0.2-5.6,3.3-6.9c1.1-0.4,2.2-0.7,3.4-0.9
		C398.8,78.1,401.4,78.2,400.3,82.5z"/>
	<path class="st0" d="M234.4,73.2c-0.3,0-0.5,0.1-0.8,0c-1.7-0.4-4.7,1.2-5-1c-0.4-2.7,0.8-5.7,3.5-7.3c2.3-1.4,4.7-1.3,6.8,0.7
		c0.4,0.3,0.7,0.8,0.9,1.2c1,1.7,1.7,3.8,1,5.6c-0.8,1.9-3,0.6-4.5,0.9C235.7,73.3,235,73.2,234.4,73.2z"/>
	<path class="st0" d="M76.4,73.2c-0.3,0-0.5,0.1-0.8,0c-1.8-0.6-4.9,1.5-5.2-1.2c-0.3-3,1.2-6.3,4.6-7.5c2.7-1,5.2-0.5,6.7,2.2
		c0.6,1,0.8,2.2,1.1,3.3c0.6,2.2,0.3,3.6-2.5,3.3C79,73.1,77.7,73.2,76.4,73.2z"/>
</g>
<g>
</g>
<g>
</g>
<g>
</g>
<g>
</g>
<g>
</g>
<g>
</g>
</svg>
