<?xml version="1.0" encoding="utf-8"?>
<!-- Generator: Adobe Illustrator 19.0.1, SVG Export Plug-In . SVG Version: 6.00 Build 0)  -->
<svg version="1.1" id="StatsPeople" xmlns="http://www.w3.org/2000/svg" xmlns:xlink="http://www.w3.org/1999/xlink" x="0px"
	 y="0px" viewBox="-113 263 385 270" style="enable-background:new -113 263 385 270;" xml:space="preserve">
<style type="text/css">
	.st0{fill:#FFFFFF;}
	.st1{display:none;fill:#FFFFFF;}
	.st2{fill:#6483A3;}
	.st3{fill:#92AABF;}
	.st4{fill:#252424;}
	.st5{fill:#FABA90;}
	.st6{display:none;fill:#E78C5F;}
	.st7{fill:#EEEDED;}
	.st8{fill:#E88D5E;}
	.st9{fill:#382D26;}
	.st10{fill:#EC6E60;}
	.st11{fill:#353433;}
	.st12{fill:#4B4B4D;}
	.st13{fill:#6F6A6B;}
	.st14{fill:#E29F7D;}
	.st15{fill:#49403B;}
	.st16{fill:#C98467;}
	.st17{fill:#353536;}
	.st18{fill:#AD8046;}
	.st19{fill:#3F8099;}
	.st20{fill:#808185;}
	.st21{fill:#4691B6;}
	.st22{fill:#E8E7E7;}
	.st23{fill:#515252;}
	.st24{fill:#E8A76D;}
	.st25{fill:#161616;}
	.st26{fill:#333333;}
	.st27{fill:#BE885B;}
	.st28{fill:#2D2318;}
	.st29{fill:#9B5F5A;}
	.st30{fill:#4F2616;}
	.st31{fill:#DBDBDA;}
	.st32{fill:#4B70B6;}
	.st33{fill:#FABA8F;}
	.st34{fill:#5DAD46;}
	.st35{fill:#F06265;}
	.st36{fill:#A23C3D;}
	.st37{fill:#C74F54;}
	.st38{fill:#C03F42;}
	.st39{fill:#151414;}
	.st40{fill:#69A55F;}
	.st41{fill:#8E5D3A;}
	.st42{fill:#3F4040;}
	.st43{fill:#1D1D1D;}
	.st44{fill:#5E3E29;}
	.st45{fill:#606262;}
	.st46{fill:#F4CBB8;}
	.st47{fill:#4D833D;}
	.st48{fill:#D5A28F;}
	.st49{fill:#E0C077;}
	.st50{fill:#FFEB5E;}
	.st51{fill:#E5E5E4;}
	.st52{fill:#194451;}
	.st53{fill:#F7AB83;}
	.st54{fill:#A47AB5;}
	.st55{fill:#513360;}
</style>
<g>
	<g id="right-leg_18_">
		<g id="XMLID_580_">
			<path id="XMLID_581_" class="st0" d="M-66.7,491.2h7.9c0,0,13.3,10.4,12.3,16.3h-20.7L-66.7,491.2z"/>
		</g>
		<path id="XMLID_549_" class="st0" d="M-47.5,425.7c0,0-1,7.6-2.4,17.7c-2.5,17.2-6.3,41.7-8.9,47.8c0,0.1-0.1,0.2-0.1,0.3h-7.9
			c0,0,0.6-21.2,1.1-39.8c0-0.1,0-0.2,0-0.3c0.2-9.2,0.4-17.7,0.5-22.7c0-1.2,0-2.2,0-3H-47.5z"/>
	</g>
	<g id="XMLID_547_">
		<path id="XMLID_548_" class="st0" d="M-73.1,491.2H-81c0,0-13.3,10.4-12.3,16.3h20.7L-73.1,491.2z"/>
	</g>
	<path id="XMLID_546_" class="st0" d="M-72.9,491.5h-7.9c-2.6-5.6-6.6-30.8-9.1-48.3c-1.4-10-2.4-17.5-2.4-17.5h17.7
		c0,0.8,0,1.8,0,3c0.1,5,0.3,13.5,0.5,22.7c0,0.1,0,0.2,0,0.3C-73.6,470.3-72.9,491.5-72.9,491.5z"/>
	<path id="XMLID_545_" class="st0" d="M-65.2,425.6h17.7c0,0-0.7,6.3-2.2,14.5c-1.2,1.1-2.9,2.1-4.5,3c-3.2,1.8-7.2,3-11.5,3.5
		c-1.3,0.2-2.7,0.2-4.1,0.2c-1.4,0-2.9-0.1-4.2-0.2c-3.4-0.4-6.5-1.2-9.2-2.4c-2.6-1.1-5.1-2.2-6.8-3.9c-1.4-8.2-2.2-14.7-2.2-14.7
		h17.7C-74.6,425.6-65.4,425.4-65.2,425.6z"/>
	<path id="XMLID_544_" class="st0" d="M-58.5,366.3L-58.5,366.3c11.2-0.7,18.3,12.5,19.9,15.6c0.2,0.4,0.4,0.8,0.5,1.2
		c3.9,11.2,6,23.2,5.8,35.3c0,2.4,0,5.6-0.3,8.9c-0.1,1.1-0.2,2.2-0.4,3.3c-0.1,0.5-0.2,1-0.3,1.5c-0.6,1.8-2.2,5.6-5.8,4.9
		c-1.2-0.2-2-1.2-2.6-2.3c-1-1.8-1.2-4-0.9-6c0.5-3,0.8-5.9,0.8-8.9c0.1-5.4-0.2-9.1-0.2-9.1c-0.7-7.2-1.3-14-5-20.4
		c-5-8.7-11-13.7-11.1-13.8C-58.1,376.5-66.4,370.4-58.5,366.3"/>
	<path id="XMLID_543_" class="st0" d="M-58.9,366.1c-8,4,0.4,10.2,0.4,10.2c0.1,0.1,6.2,5.1,11.3,13.8c3.7,6.3,4.3,13.1,5.1,20.4
		c0,0,0.5,7.4,0.2,9.3l9.6-1.4c0.2-12.2-2.1-24.5-6.1-35.9C-38.5,382.5-46,365.3-58.9,366.1L-58.9,366.1"/>
	<path id="XMLID_542_" class="st0" d="M-81.6,366.3L-81.6,366.3c-11.2-0.7-18.3,12.5-19.9,15.6c-0.2,0.4-0.4,0.8-0.5,1.2
		c-3.9,11.2-6,23.2-5.8,35.3c0,2.4,0,5.6,0.3,8.9c0.1,1.1,0.2,2.2,0.4,3.3c0.1,0.5,0.2,1,0.3,1.5c0.6,1.8,2.2,5.6,5.8,4.9
		c1.2-0.2,2-1.2,2.6-2.3c1-1.8,1.2-4,0.9-6c-0.5-3-0.8-5.9-0.8-8.9c-0.1-5.4,0.2-9.1,0.2-9.1c0.7-7.2,1.3-14,5-20.4
		c5-8.7,11-13.7,11.1-13.8C-82,376.5-73.7,370.4-81.6,366.3"/>
	<path id="XMLID_541_" class="st0" d="M-80.9,366c8.1,4-0.4,10.2-0.4,10.2c-0.1,0.1-6.3,5.1-11.4,13.8c-3.8,6.4-4.4,13.2-5.1,20.4
		c0,0-0.5,7.4-0.2,9.3l-9.7-1.4c-0.2-12.3,2.1-24.5,6.2-35.9C-101.6,382.4-93.9,365.2-80.9,366L-80.9,366"/>
	<g id="shirt_21_">
		<path id="torso_19_" class="st1" d="M-54.7,370.5c-2.5-3.4-10.8-8.5-15.2-7c-4.4-1.5-12.7,3.6-15.2,7c-3.6,5-8.1,13.7-7.1,54.8
			H-70h0.1h22.2C-46.6,384.2-51.1,375.5-54.7,370.5z"/>
		<path id="XMLID_540_" class="st0" d="M-54.7,370.3c-2.5-3.4-10.8-8.6-15.2-7.1c-4.4-1.5-12.8,3.7-15.2,7.1
			c-3.6,5.1-8.1,13.9-7.1,55.4H-70h0.1h22.3C-46.5,384.1-51,375.3-54.7,370.3z"/>
	</g>
	<g id="XMLID_537_">
		<path id="XMLID_539_" class="st0" d="M-38,331.7c0.5,3.2-1.8,6-5.1,6.3c-3.3,0.3-6.5-2-7-5.2c-0.5-3.2,1.8-6,5.1-6.3
			C-41.6,326.3-38.5,328.6-38,331.7z"/>
		<path id="XMLID_538_" class="st0" d="M-90.8,332.2c0.1,3.2-2.6,5.8-6,5.8c-3.4,0-6.2-2.5-6.2-5.7c-0.1-3.2,2.6-5.8,6-5.8
			S-90.8,329-90.8,332.2z"/>
	</g>
	<g id="XMLID_534_">
		<path id="XMLID_536_" class="st0" d="M-69.5,297.5c-6.7,0.4-13.7,2.7-18.7,7.1c-7.4,6.4-9.4,19.7-9,29.9
			c1.2,31.6,21.4,32.6,27.8,33.2L-69.5,297.5L-69.5,297.5z"/>
		<path id="XMLID_535_" class="st0" d="M-70,297.5c6.7,0.4,13.3,2.7,18.3,7.1c7.4,6.4,8.6,19.7,8.1,29.9c-0.6,14-5.2,33.5-26.4,33.3
			V297.5z"/>
	</g>
	
		<rect id="XMLID_577_" x="13.6" y="411.2" transform="matrix(0.7071 -0.7071 0.7071 0.7071 -304.0526 138.1011)" class="st0" width="2.2" height="49.8"/>
	
		<rect id="XMLID_576_" x="13.6" y="340.6" transform="matrix(0.7071 0.7071 -0.7071 0.7071 262.7379 96.6569)" class="st0" width="2.2" height="49.8"/>
	<g id="right-leg_16_">
		<g id="XMLID_529_">
			<path id="XMLID_531_" class="st2" d="M85.7,382.5h4.6c0,0,7.7,6,7.1,9.4h-12L85.7,382.5z"/>
			<path id="XMLID_530_" class="st3" d="M96.7,389.3c0.5,0.9,0.8,1.8,0.7,2.6h-12l0.1-2.6H96.7z"/>
		</g>
		<path id="XMLID_528_" class="st4" d="M96.8,344.8c0,0-0.6,4.4-1.4,10.2c-1.4,9.9-3.6,24-5.2,27.5c0,0,0,0.1-0.1,0.1h-4.6
			c0,0,0.4-12.2,0.6-22.9c0-0.1,0-0.1,0-0.2c0.1-5.3,0.3-10.2,0.3-13.1c0-0.7,0-1.3,0-1.7L96.8,344.8L96.8,344.8z"/>
	</g>
	<g id="XMLID_525_">
		<path id="XMLID_527_" class="st2" d="M82,382.5h-4.6c0,0-7.7,6-7.1,9.4h12L82,382.5z"/>
		<path id="XMLID_526_" class="st3" d="M71,389.3c-0.5,0.9-0.8,1.8-0.7,2.6h12l-0.1-2.6H71z"/>
	</g>
	<path id="XMLID_524_" class="st4" d="M82.1,382.6h-4.6c-1.5-3.2-3.8-17.7-5.3-27.8c-0.8-5.7-1.4-10.1-1.4-10.1h10.3
		c0,0.4,0,1,0,1.7c0,2.9,0.2,7.8,0.3,13.1c0,0.1,0,0.1,0,0.2C81.7,370.5,82.1,382.6,82.1,382.6z"/>
	<path id="XMLID_523_" class="st4" d="M86.5,344.7h10.3c0,0-0.4,3.6-1.3,8.4c-0.7,0.7-1.7,1.2-2.6,1.7c-1.9,1-4.2,1.7-6.7,2
		c-0.8,0.1-1.6,0.1-2.4,0.1c-0.8,0-1.7,0-2.5-0.1c-2-0.2-3.8-0.7-5.4-1.4c-1.5-0.7-2.9-1.3-4-2.2c-0.8-4.7-1.2-8.4-1.2-8.4H81
		C81.1,344.7,86.4,344.6,86.5,344.7z"/>
	<path id="XMLID_522_" class="st5" d="M90.3,310.6L90.3,310.6c6.5-0.4,10.6,7.2,11.4,9c0.1,0.2,0.2,0.5,0.3,0.7
		c2.2,6.4,3.5,13.4,3.3,20.3c0,1.4,0,3.2-0.2,5.1c0,0.6-0.1,1.3-0.2,1.9c0,0.3-0.1,0.6-0.2,0.9c-0.3,1.1-1.3,3.2-3.3,2.8
		c-0.7-0.1-1.1-0.7-1.5-1.3c-0.6-1.1-0.7-2.3-0.5-3.5c0.3-1.7,0.4-3.4,0.5-5.1c0.1-3.1-0.1-5.2-0.1-5.2c-0.4-4.2-0.8-8.1-2.9-11.7
		c-2.9-5-6.3-7.9-6.4-7.9C90.6,316.5,85.8,313,90.3,310.6"/>
	<path id="XMLID_521_" class="st2" d="M90.1,310.5c-4.6,2.3,0.2,5.9,0.2,5.9c0.1,0.1,3.6,2.9,6.5,7.9c2.1,3.6,2.5,7.5,2.9,11.7
		c0,0,0.3,4.3,0.1,5.3l5.5-0.8c0.1-7-1.2-14.1-3.5-20.6C101.8,319.9,97.5,310.1,90.1,310.5L90.1,310.5"/>
	<path id="XMLID_520_" class="st5" d="M77.1,310.6L77.1,310.6c-6.5-0.4-10.6,7.2-11.4,9c-0.1,0.2-0.2,0.5-0.3,0.7
		c-2.2,6.4-3.5,13.4-3.3,20.3c0,1.4,0,3.2,0.2,5.1c0,0.6,0.1,1.3,0.2,1.9c0,0.3,0.1,0.6,0.2,0.9c0.3,1.1,1.3,3.2,3.3,2.8
		c0.7-0.1,1.1-0.7,1.5-1.3c0.6-1.1,0.7-2.3,0.5-3.5c-0.3-1.7-0.4-3.4-0.5-5.1c-0.1-3.1,0.1-5.2,0.1-5.2c0.4-4.2,0.8-8.1,2.9-11.7
		c2.9-5,6.3-7.9,6.4-7.9C76.8,316.5,81.6,313,77.1,310.6"/>
	<path id="XMLID_519_" class="st2" d="M77.4,310.5c4.6,2.3-0.2,5.9-0.2,5.9c-0.1,0.1-3.6,2.9-6.6,8c-2.2,3.7-2.5,7.6-3,11.7
		c0,0-0.3,4.3-0.1,5.4l-5.6-0.8c-0.1-7.1,1.2-14.1,3.6-20.7C65.6,319.9,70,310,77.4,310.5L77.4,310.5"/>
	<g id="shirt_19_">
		<path id="torso_17_" class="st6" d="M92.5,313.1c-1.4-2-6.2-4.9-8.7-4.1c-2.5-0.9-7.3,2.1-8.7,4.1C73,316,70.4,321,71,344.6h12.8
			h0.1h12.8C97.2,320.9,94.6,315.9,92.5,313.1z"/>
		<path id="XMLID_518_" class="st7" d="M92.5,312.9c-1.4-2-6.2-5-8.8-4.1c-2.5-0.9-7.3,2.1-8.8,4.1c-2.1,2.9-4.7,8-4.1,31.9h12.8
			h0.1h12.8C97.2,320.9,94.6,315.8,92.5,312.9z"/>
		<g id="XMLID_515_">
			<path id="XMLID_517_" class="st2" d="M76.3,330.5c0-8,0.9-15.3,2.3-20.5c-1.6,0.9-3,2-3.6,2.9c-2.1,2.9-4.8,8-4.2,31.9h6.5
				C76.6,340.6,76.3,335.7,76.3,330.5z"/>
			<path id="XMLID_516_" class="st2" d="M92.6,312.9c-0.6-0.9-2-2-3.5-2.8c1.4,5.2,2.3,12.4,2.3,20.5c0,5.2-0.4,10-1,14.2h6.3
				C97.4,320.9,94.7,315.8,92.6,312.9z"/>
		</g>
	</g>
	<g id="XMLID_512_">
		<path id="XMLID_514_" class="st8" d="M102.1,290.7c0.3,1.8-1,3.4-2.9,3.6c-1.9,0.2-3.7-1.1-4-3c-0.3-1.8,1-3.4,3-3.6
			C100,287.6,101.8,288.9,102.1,290.7z"/>
		<path id="XMLID_513_" class="st8" d="M71.8,291c0,1.8-1.5,3.3-3.4,3.4c-1.9,0-3.5-1.4-3.6-3.3c0-1.8,1.5-3.3,3.4-3.4
			C70.1,287.7,71.7,289.2,71.8,291z"/>
	</g>
	<g id="XMLID_509_">
		<path id="XMLID_511_" class="st5" d="M84,271.1c-3.9,0.2-7.9,1.6-10.8,4.1c-4.3,3.7-5.4,11.3-5.2,17.2c0.7,18.2,12.3,18.8,16,19.1
			V271.1z"/>
		<path id="XMLID_510_" class="st5" d="M83.7,271.1c3.9,0.2,7.6,1.6,10.5,4.1c4.3,3.7,5,11.3,4.7,17.2c-0.4,8-3,19.3-15.2,19.1
			V271.1z"/>
	</g>
	<ellipse id="XMLID_508_" class="st8" cx="83.9" cy="296.6" rx="1.7" ry="1.9"/>
	<g id="hair_13_">
		<path id="XMLID_507_" class="st9" d="M99,282.2c0-1.4-0.3-3-0.7-4.3c-1.1-3.5-3.4-6.1-6.6-7.2c-2.6-0.9-14-0.8-16.6,0.1
			c-3.2,1.1-5.6,3.8-6.6,7.2c-0.4,1.3-0.6,2.9-0.7,4.3c0,1.5,0.7,4.7,0.7,4.7c0.8-5.4,3.6-8.3,7.2-7.9c3,0.3,5.1,2,8.3,1.8v-0.1
			c3,0,5-1.7,8-1.9c4.8-0.3,6.7,7.8,6.7,7.8C99,285.3,99,283.7,99,282.2z"/>
		<path id="XMLID_506_" class="st9" d="M68.5,277.8c2.8-7.7,10.9-8.5,18-11.6c1.8-0.8,2-1.4,3.7,0.1c3.9,3.4,6.9,7.9,8.4,12.9"/>
	</g>
	<path id="mouth_15_" class="st10" d="M87.7,301c-0.5-0.1-0.9,0.3-1,0.9c0,0.3-0.4,2.5-2.9,2.7c-2.5-0.2-2.9-2.4-2.9-2.7
		c-0.1-0.6-0.5-1-1-0.9s-0.8,0.6-0.7,1.2c0.2,1.6,1.3,4.4,4.6,4.6l0,0l0,0l0,0l0,0c3.2-0.2,4.4-3,4.6-4.6
		C88.5,301.6,88.1,301,87.7,301z"/>
	<circle id="XMLID_505_" class="st11" cx="76.5" cy="290.3" r="2.8"/>
	<circle id="XMLID_504_" class="st11" cx="90.9" cy="290.3" r="2.8"/>
	<g id="right-leg_17_">
		<g id="XMLID_494_">
			<path id="XMLID_496_" class="st12" d="M140.9,383.3h4.3c0,0,7.2,5.6,6.6,8.7h-11.2L140.9,383.3z"/>
			<path id="XMLID_495_" class="st13" d="M151.1,389.7c0.5,0.9,0.7,1.7,0.6,2.4h-11.2l0.1-2.4H151.1z"/>
		</g>
		<path id="XMLID_493_" class="st4" d="M151.2,348.3c0,0-0.5,4.1-1.3,9.5c-1.3,9.2-3.4,22.3-4.8,25.6c0,0,0,0.1-0.1,0.1h-4.3
			c0,0,0.3-11.3,0.6-21.3c0-0.1,0-0.1,0-0.2c0.1-4.9,0.2-9.5,0.3-12.2c0-0.6,0-1.2,0-1.6L151.2,348.3L151.2,348.3z"/>
	</g>
	<g id="XMLID_490_">
		<path id="XMLID_492_" class="st12" d="M137.4,383.3h-4.3c0,0-7.2,5.6-6.6,8.7h11.2L137.4,383.3z"/>
		<path id="XMLID_491_" class="st13" d="M127.2,389.7c-0.5,0.9-0.7,1.7-0.6,2.4h11.2l-0.1-2.4H127.2z"/>
	</g>
	<path id="XMLID_489_" class="st4" d="M137.5,383.5h-4.3c-1.4-3-3.6-16.5-4.9-25.8c-0.8-5.3-1.3-9.4-1.3-9.4h9.6c0,0.4,0,0.9,0,1.6
		c0,2.7,0.1,7.2,0.3,12.2c0,0.1,0,0.1,0,0.2C137.2,372.1,137.5,383.5,137.5,383.5z"/>
	<path id="XMLID_488_" class="st4" d="M141.7,348.2h9.6c0,0-0.4,3.4-1.2,7.8c-0.7,0.6-1.6,1.1-2.4,1.6c-1.7,0.9-3.9,1.6-6.2,1.8
		c-0.7,0.1-1.4,0.1-2.2,0.1s-1.5,0-2.3-0.1c-1.8-0.2-3.5-0.6-5-1.3c-1.4-0.6-2.7-1.2-3.7-2.1c-0.8-4.4-1.2-7.8-1.2-7.8h9.6
		C136.6,348.2,141.6,348.1,141.7,348.2z"/>
	<path id="XMLID_487_" class="st14" d="M145.2,316.5L145.2,316.5c6-0.4,9.8,6.7,10.6,8.4c0.1,0.2,0.2,0.4,0.3,0.6
		c2.1,6,3.2,12.4,3.1,18.9c0,1.3,0,3-0.1,4.8c0,0.6-0.1,1.2-0.2,1.7c0,0.3-0.1,0.5-0.2,0.8c-0.3,1-1.2,3-3.1,2.6
		c-0.6-0.1-1.1-0.6-1.4-1.2c-0.5-1-0.7-2.1-0.5-3.2c0.3-1.6,0.4-3.2,0.4-4.8c0.1-2.9-0.1-4.9-0.1-4.9c-0.4-3.9-0.7-7.5-2.7-10.9
		c-2.7-4.6-5.9-7.3-6-7.4C145.4,321.9,140.9,318.7,145.2,316.5"/>
	<path id="XMLID_486_" class="st12" d="M145,316.4c-4.3,2.2,0.2,5.4,0.2,5.4c0.1,0,3.3,2.7,6,7.4c2,3.4,2.3,7,2.7,10.9
		c0,0,0.3,4,0.1,5l5.1-0.8c0.1-6.6-1.1-13.1-3.3-19.2C155.9,325.1,151.9,316,145,316.4L145,316.4"/>
	<path id="XMLID_485_" class="st14" d="M132.9,316.5L132.9,316.5c-6-0.4-9.8,6.7-10.6,8.4c-0.1,0.2-0.2,0.4-0.3,0.6
		c-2.1,6-3.2,12.4-3.1,18.9c0,1.3,0,3,0.1,4.8c0,0.6,0.1,1.2,0.2,1.7c0,0.3,0.1,0.5,0.2,0.8c0.3,1,1.2,3,3.1,2.6
		c0.6-0.1,1.1-0.6,1.4-1.2c0.5-1,0.7-2.1,0.5-3.2c-0.3-1.6-0.4-3.2-0.4-4.8c-0.1-2.9,0.1-4.9,0.1-4.9c0.4-3.9,0.7-7.5,2.7-10.9
		c2.7-4.6,5.9-7.3,6-7.4C132.6,321.9,137.1,318.7,132.9,316.5"/>
	<path id="XMLID_484_" class="st12" d="M133.2,316.3c4.3,2.2-0.2,5.5-0.2,5.5c-0.1,0-3.3,2.7-6.1,7.4c-2,3.4-2.4,7-2.7,10.9
		c0,0-0.3,4-0.1,5l-5.2-0.8c-0.1-6.6,1.1-13.1,3.3-19.2C122.1,325.1,126.2,315.9,133.2,316.3L133.2,316.3"/>
	<g id="shirt_20_">
		<path id="torso_18_" class="st6" d="M147.2,318.7c-1.3-1.8-5.8-4.6-8.1-3.8c-2.3-0.8-6.8,1.9-8.1,3.8c-1.9,2.7-4.3,7.3-3.8,29.3
			h11.9h0.1H151C151.6,326.1,149.2,321.4,147.2,318.7z"/>
		<path id="XMLID_483_" class="st7" d="M147.3,318.6c-1.3-1.8-5.8-4.6-8.2-3.8c-2.4-0.8-6.8,2-8.2,3.8c-1.9,2.7-4.3,7.4-3.8,29.7
			H139h0.1H151C151.6,326,149.2,321.3,147.3,318.6z"/>
		<g id="XMLID_480_">
			<path id="XMLID_482_" class="st12" d="M132.1,335c0-7.5,0.8-14.3,2.2-19.1c-1.5,0.8-2.8,1.8-3.4,2.7c-2,2.7-4.4,7.4-3.9,29.7h6
				C132.4,344.3,132.1,339.8,132.1,335z"/>
			<path id="XMLID_481_" class="st12" d="M147.3,318.6c-0.6-0.8-1.8-1.8-3.2-2.6c1.3,4.8,2.1,11.6,2.1,19c0,4.8-0.3,9.3-0.9,13.2
				h5.9C151.7,326,149.3,321.3,147.3,318.6z"/>
		</g>
		<polygon id="XMLID_479_" class="st15" points="144.1,316.2 151.5,318.2 146.5,348.3 143.7,348.3 		"/>
		<polygon id="XMLID_478_" class="st15" points="134.2,316.2 126.8,318.2 131.7,348.3 134.6,348.3 		"/>
	</g>
	<g id="XMLID_475_">
		<path id="XMLID_477_" class="st16" d="M156.2,298c0.3,1.7-1,3.2-2.7,3.4c-1.8,0.2-3.5-1.1-3.7-2.8c-0.3-1.7,1-3.2,2.7-3.4
			C154.2,295,155.9,296.3,156.2,298z"/>
		<path id="XMLID_476_" class="st16" d="M127.9,298.2c0,1.7-1.4,3.1-3.2,3.1s-3.3-1.3-3.3-3c0-1.7,1.4-3.1,3.2-3.1
			S127.9,296.5,127.9,298.2z"/>
	</g>
	<g id="XMLID_472_">
		<path id="XMLID_474_" class="st14" d="M139.3,279.7c-3.6,0.2-7.3,1.5-10,3.8c-4,3.4-5,10.5-4.8,16c0.6,16.9,11.4,17.4,14.9,17.8
			L139.3,279.7L139.3,279.7z"/>
		<path id="XMLID_473_" class="st14" d="M139,279.7c3.6,0.2,7.1,1.5,9.8,3.8c4,3.4,4.6,10.5,4.4,16c-0.4,7.4-2.8,17.9-14.1,17.8
			L139,279.7L139,279.7z"/>
	</g>
	<ellipse id="XMLID_471_" class="st16" cx="139.2" cy="303.4" rx="1.6" ry="1.7"/>
	<g id="hair_9_">
		<path id="hair_11_" class="st17" d="M153.5,290.8c0-1.4-0.3-3-0.6-4.3c-1-3.5-3.3-5.8-6.2-7.2c-3.6-1.7-11.4-2-15.6,0.1
			c-2.9,1.5-5.2,3.8-6.2,7.2c-0.4,1.3-0.6,2.9-0.6,4.3c0,1.5,0.6,4.7,0.6,4.7c0.8-5.4,3-6.7,6.4-6.3c2.8,0.3,4.8,2,7.8,1.8V291
			c2.8,0,4.7-1.7,7.5-1.8c4.5-0.3,6.7,6.1,6.7,6.1C153.5,293.9,153.5,292.3,153.5,290.8z"/>
	</g>
	<path id="mouth_14_" class="st10" d="M142.7,307.5c-0.4-0.1-0.8,0.3-0.9,0.9c0,0.3-0.4,2.4-2.7,2.5c-2.4-0.1-2.7-2.2-2.7-2.5
		c-0.1-0.6-0.5-0.9-0.9-0.9c-0.4,0.1-0.7,0.6-0.7,1.1c0.1,1.5,1.2,4.1,4.2,4.3l0,0l0,0l0,0l0,0c3-0.2,4.1-2.8,4.2-4.3
		C143.4,308.1,143.1,307.5,142.7,307.5z"/>
	<circle id="XMLID_470_" class="st11" cx="132.4" cy="297.6" r="2.6"/>
	<circle id="XMLID_469_" class="st11" cx="145.7" cy="297.6" r="2.6"/>
	<path id="back-hair_3_" class="st18" d="M174.2,323.1l31.8-0.4c0,0-0.6-3.5,0.1-7.2c0.6-3.1,2.3-5.9,2.6-10.3
		c0.3-3.8-1.3-8.1-1.7-12.1c-0.4-4.2,0.5-8.1-1-11.6c-1.6-3.7-4.5-5.4-7.8-7.4c-2.6-1.6-5.2-3.8-9.2-3.8c-4.3,0-7.1,2.6-9.7,4.5
		c-2.8,2.1-5.4,3.6-6.7,7.2c-1.1,3.1,0.3,6.7,0,10.3c-0.3,3.4-2.2,6.8-2,10.2c0.3,4,2.5,7.2,3,10.5
		C174.8,318.6,174.2,323.1,174.2,323.1z"/>
	<g id="right-leg_12_">
		<g id="XMLID_412_">
			<path id="XMLID_414_" class="st19" d="M191.8,383.3h4.5c0,0,7.6,5.8,7,9.2h-11.8L191.8,383.3z"/>
			<path id="XMLID_413_" class="st20" d="M202.7,390c0.5,0.9,0.8,1.8,0.7,2.5h-11.8l0.1-2.5H202.7z"/>
		</g>
		<path id="XMLID_411_" class="st4" d="M202.8,346.5c0,0-0.6,4.3-1.4,10c-1.4,9.7-3.6,23.5-5.1,26.9c0,0,0,0.1-0.1,0.1h-4.5
			c0,0,0.4-11.9,0.6-22.4c0-0.1,0-0.1,0-0.2c0.1-5.2,0.2-10,0.3-12.8c0-0.7,0-1.2,0-1.7h10.2V346.5z"/>
	</g>
	<g id="XMLID_408_">
		<path id="XMLID_410_" class="st19" d="M188.2,383.3h-4.5c0,0-7.6,5.8-7,9.2h11.8L188.2,383.3z"/>
		<path id="XMLID_409_" class="st20" d="M177.4,390c-0.5,0.9-0.8,1.8-0.7,2.5h11.8l-0.1-2.5H177.4z"/>
	</g>
	<path id="XMLID_407_" class="st4" d="M188.3,383.5h-4.5c-1.5-3.2-3.7-17.3-5.2-27.2c-0.8-5.6-1.4-9.9-1.4-9.9h10.1c0,0.4,0,1,0,1.7
		c0,2.8,0.1,7.6,0.3,12.8c0,0.1,0,0.1,0,0.2C187.9,371.6,188.3,383.5,188.3,383.5z"/>
	<path id="XMLID_406_" class="st4" d="M202.8,346.4c0,0-0.2,1.9-0.7,4.8c-0.2,1-0.3,2.2-0.6,3.4c-0.7,0.6-1.7,1.2-2.6,1.7
		c-1.8,1-4.1,1.7-6.6,1.9c-0.7,0.1-1.5,0.1-2.3,0.1s-1.6,0-2.4-0.1c-1.9-0.2-3.7-0.7-5.3-1.4c-1.5-0.6-2.9-1.2-3.9-2.2
		c-0.2-1.2-0.4-2.4-0.6-3.4c-0.4-2.9-0.7-4.8-0.7-4.8h10.1c0,0,5.2-0.1,5.3,0H202.8z"/>
	<path id="XMLID_405_" class="st20" d="M202.8,346.4c0,0-0.2,1.9-0.7,4.8H178c-0.4-2.9-0.7-4.8-0.7-4.8h10.1c0,0,5.2-0.1,5.3,0
		H202.8z"/>
	<path id="XMLID_402_" class="st5" d="M196.4,313L196.4,313c6.3-0.4,10.3,7.1,11.2,8.8c0.1,0.2,0.2,0.4,0.3,0.7
		c2.2,6.3,3.4,13.1,3.3,19.9c0,1.4,0,3.2-0.2,5c0,0.6-0.1,1.2-0.2,1.8c0,0.3-0.1,0.6-0.2,0.8c-0.3,1-1.2,3.1-3.3,2.7
		c-0.7-0.1-1.1-0.7-1.5-1.3c-0.5-1-0.7-2.2-0.5-3.4c0.3-1.7,0.4-3.3,0.5-5c0.1-3-0.1-5.1-0.1-5.1c-0.4-4.1-0.7-7.9-2.8-11.5
		c-2.8-4.9-6.2-7.7-6.3-7.8C196.6,318.8,192,315.3,196.4,313"/>
	<g id="XMLID_399_">
		<path id="XMLID_401_" class="st19" d="M208.8,325.2l-5.9,1.3c-0.3-0.5-0.6-1-1-1.5c-2.6-3.9-5.3-6.2-5.4-6.2c0,0-4.7-3.5-0.2-5.7
			c7.3-0.5,11.5,9.2,11.5,9.2c0.2,0.5,0.3,0.9,0.5,1.4C208.5,324.1,208.7,324.6,208.8,325.2z"/>
		<path id="XMLID_400_" class="st21" d="M208.8,325.2l-5.9,1.3c-0.3-0.5-0.6-1-1-1.5l6.4-1.4C208.5,324.1,208.7,324.6,208.8,325.2z"
			/>
	</g>
	<path id="XMLID_398_" class="st5" d="M183.4,313L183.4,313c-6.3-0.4-10.3,7.1-11.2,8.8c-0.1,0.2-0.2,0.4-0.3,0.7
		c-2.2,6.3-3.4,13.1-3.3,19.9c0,1.4,0,3.2,0.2,5c0,0.6,0.1,1.2,0.2,1.8c0,0.3,0.1,0.6,0.2,0.8c0.3,1,1.2,3.1,3.3,2.7
		c0.7-0.1,1.1-0.7,1.5-1.3c0.5-1,0.7-2.2,0.5-3.4c-0.3-1.7-0.4-3.3-0.5-5c-0.1-3,0.1-5.1,0.1-5.1c0.4-4.1,0.7-7.9,2.8-11.5
		c2.8-4.9,6.2-7.7,6.3-7.8C183.2,318.8,187.9,315.3,183.4,313"/>
	<g id="XMLID_395_">
		<path id="XMLID_397_" class="st19" d="M171.1,325.1l5.9,1.3c0.3-0.5,0.6-1,1-1.5c2.6-3.9,5.3-6.2,5.4-6.2c0,0,4.7-3.5,0.2-5.7
			c-7.3-0.5-11.5,9.2-11.5,9.2c-0.2,0.5-0.3,0.9-0.5,1.4C171.5,324,171.3,324.6,171.1,325.1z"/>
		<path id="XMLID_396_" class="st21" d="M171.1,325.1l5.9,1.3c0.3-0.5,0.6-1,1-1.5l-6.4-1.4C171.5,324,171.3,324.6,171.1,325.1z"/>
	</g>
	<g id="shirt_15_">
		<path id="torso_13_" class="st6" d="M198.6,315.4c-1.4-1.9-6.1-4.8-8.6-4c-2.5-0.8-7.2,2.1-8.6,4c-2,2.8-4.6,7.7-4,30.8H190h0.1
			h12.5C203.1,323.1,200.6,318.2,198.6,315.4z"/>
		<path id="XMLID_394_" class="st7" d="M198.6,315.2c-1.4-1.9-6.1-4.9-8.6-4c-2.5-0.9-7.2,2.1-8.6,4c-2,2.9-4.6,7.8-4,31.2H190h0.1
			h12.5C203.2,323,200.6,318.1,198.6,315.2z"/>
		<g id="XMLID_391_">
			<path id="XMLID_393_" class="st19" d="M182.6,332.5c0-7.9,0.9-15,2.3-20.1c-1.5,0.8-2.9,1.9-3.5,2.8c-2.1,2.9-4.7,7.8-4.1,31.2
				h6.4C183,342.3,182.6,337.6,182.6,332.5z"/>
			<path id="XMLID_392_" class="st19" d="M198.7,315.2c-0.6-0.9-1.9-1.9-3.4-2.7c1.4,5.1,2.2,12.2,2.2,20c0,5.1-0.4,9.8-1,13.9h6.2
				C203.3,323,200.7,318.1,198.7,315.2z"/>
		</g>
	</g>
	<path id="XMLID_390_" class="st21" d="M182.8,331.8c0,0,0.3-14.4,2.2-19.1l-4.6-1.5l1.2,18.9L182.8,331.8z"/>
	<path id="XMLID_389_" class="st21" d="M197.6,332c0,0-0.3-14.4-2.2-19.1l4.6-1.5l-1.2,18.9L197.6,332z"/>
	<g id="XMLID_386_">
		<path id="XMLID_388_" class="st8" d="M208,293.5c0.3,1.8-1,3.4-2.9,3.5c-1.9,0.2-3.6-1.1-3.9-2.9c-0.3-1.8,1-3.4,2.9-3.5
			C205.9,290.5,207.7,291.8,208,293.5z"/>
		<path id="XMLID_387_" class="st8" d="M178.3,293.8c0,1.8-1.5,3.3-3.4,3.3s-3.5-1.4-3.5-3.2c0-1.8,1.5-3.3,3.4-3.3
			C176.7,290.6,178.2,292,178.3,293.8z"/>
	</g>
	<g id="XMLID_376_">
		<path id="XMLID_378_" class="st5" d="M190.2,274.3c-3.8,0.2-7.7,1.5-10.6,4c-4.2,3.6-5.3,11.1-5.1,16.9
			c0.7,17.8,12,18.4,15.6,18.7v-39.6H190.2z"/>
		<path id="XMLID_377_" class="st5" d="M190,274.3c3.8,0.2,7.5,1.5,10.3,4c4.2,3.6,4.9,11.1,4.6,16.9c-0.4,7.8-3,18.9-14.9,18.7
			V274.3z"/>
	</g>
	<ellipse id="XMLID_375_" class="st8" cx="190.1" cy="299.3" rx="1.7" ry="1.8"/>
	<path id="hair_7_" class="st18" d="M184.7,281c0,0,8.1,10.5,21.3,8.8c0,0,1.3-16-16.3-16s-15.1,13.3-15.1,13.3S180,284.7,184.7,281
		z"/>
	<path id="mouth_11_" class="st10" d="M193.8,303.5c-0.5-0.1-0.9,0.3-0.9,0.9c0,0.3-0.4,2.5-2.9,2.6c-2.5-0.2-2.8-2.4-2.9-2.6
		c-0.1-0.6-0.5-1-0.9-0.9c-0.5,0.1-0.8,0.6-0.7,1.2c0.2,1.5,1.3,4.3,4.5,4.5l0,0l0,0l0,0l0,0c3.2-0.2,4.3-2.9,4.5-4.5
		C194.6,304.1,194.3,303.6,193.8,303.5z"/>
	<circle id="XMLID_374_" class="st11" cx="182.9" cy="293.2" r="2.7"/>
	<circle id="XMLID_348_" class="st11" cx="197" cy="293.2" r="2.7"/>
	<g id="right-leg_13_">
		<g id="XMLID_373_">
			<path id="XMLID_404_" class="st22" d="M245.2,385.6h4.9c0,0,8.2,6.4,7.6,10h-12.8L245.2,385.6z"/>
			<path id="XMLID_403_" class="st20" d="M257,392.9c0.6,1,0.9,1.9,0.7,2.7h-12.8l0.1-2.7H257z"/>
		</g>
		<path id="XMLID_372_" class="st23" d="M257.1,345.4c0,0-0.6,4.7-1.5,10.9c-1.5,10.6-3.9,25.6-5.5,29.3c0,0.1,0,0.1-0.1,0.2h-4.9
			c0,0,0.4-13,0.7-24.4c0-0.1,0-0.1,0-0.2c0.1-5.6,0.3-10.9,0.3-13.9c0-0.7,0-1.4,0-1.8h11V345.4z"/>
	</g>
	<g id="XMLID_369_">
		<path id="XMLID_371_" class="st22" d="M241.3,385.6h-4.9c0,0-8.2,6.4-7.6,10h12.8L241.3,385.6z"/>
		<path id="XMLID_370_" class="st20" d="M229.5,392.9c-0.6,1-0.9,1.9-0.7,2.7h12.8l-0.1-2.7H229.5z"/>
	</g>
	<path id="XMLID_368_" class="st23" d="M241.4,385.7h-4.9c-1.6-3.5-4.1-18.8-5.6-29.6c-0.9-6.1-1.5-10.7-1.5-10.7h11
		c0,0.5,0,1.1,0,1.8c0,3.1,0.2,8.3,0.3,13.9c0,0.1,0,0.1,0,0.2C241,372.8,241.4,385.7,241.4,385.7z"/>
	<path id="XMLID_367_" class="st23" d="M257.1,345.4c0,0-0.3,2.1-0.7,5.2c-0.2,1.1-0.4,2.3-0.6,3.7c-0.8,0.7-1.8,1.3-2.8,1.8
		c-2,1.1-4.5,1.8-7.2,2.1c-0.8,0.1-1.7,0.1-2.5,0.1c-0.9,0-1.8,0-2.6-0.1c-2.1-0.2-4-0.7-5.7-1.5c-1.6-0.7-3.1-1.4-4.2-2.4
		c-0.2-1.3-0.4-2.6-0.6-3.7c-0.5-3.1-0.7-5.2-0.7-5.2h11c0,0,5.7-0.1,5.8,0H257.1z"/>
	<path id="XMLID_366_" class="st24" d="M250.2,309L250.2,309c6.9-0.4,11.2,7.7,12.2,9.6c0.1,0.2,0.2,0.5,0.3,0.7
		c2.4,6.9,3.7,14.3,3.5,21.6c0,1.5,0,3.4-0.2,5.5c-0.1,0.7-0.1,1.3-0.2,2c0,0.3-0.1,0.6-0.2,0.9c-0.3,1.1-1.3,3.4-3.6,3
		c-0.7-0.1-1.2-0.7-1.6-1.4c-0.6-1.1-0.8-2.4-0.6-3.7c0.3-1.8,0.5-3.6,0.5-5.5c0.1-3.3-0.1-5.6-0.1-5.6c-0.4-4.4-0.8-8.6-3-12.5
		c-3.1-5.3-6.8-8.4-6.8-8.4C250.5,315.3,245.4,311.5,250.2,309"/>
	<g id="XMLID_363_">
		<path id="XMLID_365_" class="st25" d="M263.9,322.3l-6.7,1.4c-0.4-0.6-0.7-1.2-1.1-1.7c-2.9-4.4-6-6.9-6.1-7c0,0-5.3-3.9-0.3-6.4
			c8.2-0.5,12.9,10.2,12.9,10.2c0.2,0.5,0.4,1,0.5,1.6C263.6,321.1,263.8,321.7,263.9,322.3z"/>
		<path id="XMLID_364_" class="st26" d="M263.9,322.3l-6.7,1.4c-0.4-0.6-0.7-1.2-1.1-1.7l7.2-1.5
			C263.6,321.1,263.8,321.7,263.9,322.3z"/>
	</g>
	<path id="XMLID_362_" class="st24" d="M236.1,309L236.1,309c-6.9-0.4-11.2,7.7-12.2,9.6c-0.1,0.2-0.2,0.5-0.3,0.7
		c-2.4,6.9-3.7,14.3-3.5,21.6c0,1.5,0,3.4,0.2,5.5c0.1,0.7,0.1,1.3,0.2,2c0,0.3,0.1,0.6,0.2,0.9c0.3,1.1,1.3,3.4,3.6,3
		c0.7-0.1,1.2-0.7,1.6-1.4c0.6-1.1,0.8-2.4,0.6-3.7c-0.3-1.8-0.5-3.6-0.5-5.5c-0.1-3.3,0.1-5.6,0.1-5.6c0.4-4.4,0.8-8.6,3-12.5
		c3.1-5.3,6.8-8.4,6.8-8.4C235.9,315.3,241,311.5,236.1,309"/>
	<g id="XMLID_359_">
		<path id="XMLID_361_" class="st25" d="M222.4,322.1l6.9,1.4c0.4-0.6,0.7-1.2,1.1-1.7c3.1-4.5,6.2-7,6.3-7.1c0,0,5.5-3.9,0.3-6.5
			c-8.5-0.5-13.5,10.4-13.5,10.4c-0.2,0.5-0.4,1.1-0.6,1.6C222.8,320.9,222.6,321.5,222.4,322.1z"/>
		<path id="XMLID_360_" class="st26" d="M222.4,322.2l6.9,1.4c0.4-0.6,0.7-1.2,1.1-1.7l-7.5-1.5C222.8,321,222.6,321.6,222.4,322.2z
			"/>
	</g>
	<g id="shirt_16_">
		<path id="torso_14_" class="st6" d="M252.6,311.6c-1.5-2.1-6.6-5.2-9.3-4.3c-2.7-0.9-7.8,2.2-9.3,4.3c-2.2,3.1-5,8.4-4.3,33.6
			h13.6h0.1H257C257.5,320,254.8,314.7,252.6,311.6z"/>
		<path id="XMLID_358_" class="st25" d="M252.6,311.4c-1.5-2.1-6.6-5.3-9.3-4.4c-2.7-0.9-7.8,2.3-9.3,4.4c-2.2,3.1-5,8.5-4.4,34
			h13.6h0.1h13.6C257.6,319.9,254.8,314.5,252.6,311.4z"/>
	</g>
	<g id="XMLID_355_">
		<path id="XMLID_357_" class="st27" d="M262.8,287.8c0.3,1.9-1.1,3.7-3.1,3.9c-2,0.2-4-1.2-4.3-3.2c-0.3-1.9,1.1-3.7,3.1-3.9
			C260.6,284.5,262.5,285.9,262.8,287.8z"/>
		<path id="XMLID_356_" class="st27" d="M230.5,288.1c0,1.9-1.6,3.6-3.7,3.6s-3.8-1.5-3.8-3.5c0-1.9,1.6-3.6,3.7-3.6
			C228.7,284.6,230.4,286.2,230.5,288.1z"/>
	</g>
	<g id="XMLID_352_">
		<path id="XMLID_354_" class="st24" d="M243.5,266.9c-4.1,0.2-8.4,1.7-11.5,4.3c-4.5,3.9-5.8,12-5.5,18.4c0.7,19.4,13.1,20,17,20.4
			V266.9z"/>
		<path id="XMLID_353_" class="st24" d="M243.2,266.9c4.1,0.2,8.1,1.7,11.2,4.3c4.5,3.9,5.3,12.1,5,18.4
			c-0.4,8.5-3.2,20.5-16.2,20.4V266.9z"/>
	</g>
	<ellipse id="XMLID_351_" class="st27" cx="243.3" cy="294.1" rx="1.8" ry="2"/>
	<path id="hair_5_" class="st28" d="M248.5,274.1c0,0-8.5,11.4-22.2,9.6c0,0-1.3-17.4,17-17.4s15.8,14.5,15.8,14.5
		S253.4,278.2,248.5,274.1z"/>
	<path id="mouth_10_" class="st29" d="M247.4,298.7c-0.5-0.1-1,0.4-1,1c0,0.3-0.4,2.7-3.1,2.9c-2.7-0.2-3.1-2.6-3.1-2.9
		c-0.1-0.6-0.5-1.1-1-1c-0.5,0.1-0.9,0.7-0.8,1.3c0.2,1.7,1.4,4.7,4.9,4.9l0,0c0,0,0,0,0.1,0c0,0,0,0,0.1,0l0,0
		c3.5-0.2,4.7-3.2,4.9-4.9C248.2,299.4,247.9,298.8,247.4,298.7z"/>
	<circle id="XMLID_350_" class="st11" cx="235.6" cy="287.4" r="3"/>
	<circle id="XMLID_349_" class="st11" cx="250.8" cy="287.4" r="3"/>
	<path id="XMLID_297_" class="st30" d="M67.2,460.6l34.8-0.4c0,0,14.7-57.3-18.4-57.3C51.1,402.9,67.2,460.6,67.2,460.6z"/>
	<g id="right-leg_8_">
		<g id="XMLID_294_">
			<path id="XMLID_296_" class="st31" d="M86,519.5h4.7c0,0,7.9,6.1,7.3,9.6H85.7L86,519.5z"/>
			<path id="XMLID_295_" class="st20" d="M97.3,526.5c0.5,0.9,0.8,1.8,0.7,2.6H85.7l0.1-2.6H97.3z"/>
		</g>
		<path id="XMLID_293_" class="st32" d="M97.4,481c0,0-0.6,4.5-1.4,10.4c-1.5,10.1-3.7,24.5-5.3,28.1c0,0,0,0.1-0.1,0.1h-4.7
			c0,0,0.4-12.5,0.6-23.4c0-0.1,0-0.1,0-0.2c0.1-5.4,0.3-10.4,0.3-13.4c0-0.7,0-1.3,0-1.7L97.4,481L97.4,481z"/>
	</g>
	<g id="XMLID_290_">
		<path id="XMLID_292_" class="st31" d="M82.2,519.5h-4.7c0,0-7.9,6.1-7.3,9.6h12.3L82.2,519.5z"/>
		<path id="XMLID_291_" class="st20" d="M70.9,526.5c-0.5,0.9-0.8,1.8-0.7,2.6h12.3l-0.1-2.6H70.9z"/>
	</g>
	<path id="XMLID_289_" class="st32" d="M82.3,519.6h-4.7c-1.6-3.3-3.9-18.1-5.4-28.4c-0.8-5.9-1.4-10.3-1.4-10.3h10.5
		c0,0.4,0,1,0,1.7c0,2.9,0.2,8,0.3,13.4c0,0.1,0,0.1,0,0.2C81.9,507.2,82.3,519.6,82.3,519.6z"/>
	<path id="XMLID_284_" class="st32" d="M97.4,480.9c0,0-0.2,2-0.7,5c-0.2,1.1-0.4,2.3-0.6,3.5c-0.7,0.7-1.7,1.2-2.7,1.7
		c-1.9,1-4.3,1.8-6.9,2c-0.8,0.1-1.6,0.1-2.4,0.1c-0.9,0-1.7,0-2.5-0.1c-2-0.2-3.9-0.7-5.5-1.4c-1.5-0.7-3-1.3-4.1-2.3
		c-0.2-1.3-0.4-2.5-0.6-3.6c-0.5-3-0.7-5-0.7-5h10.5c0,0,5.4-0.1,5.6,0h10.6V480.9z"/>
	<path id="XMLID_283_" class="st33" d="M90.8,446L90.8,446c6.6-0.4,10.8,7.4,11.7,9.2c0.1,0.2,0.2,0.5,0.3,0.7
		c2.3,6.6,3.5,13.7,3.4,20.8c0,1.4,0,3.3-0.2,5.2c0,0.6-0.1,1.3-0.2,1.9c0,0.3-0.1,0.6-0.2,0.9c-0.3,1.1-1.3,3.3-3.4,2.9
		c-0.7-0.1-1.2-0.7-1.5-1.3c-0.6-1.1-0.7-2.3-0.5-3.6c0.3-1.7,0.4-3.5,0.5-5.3c0.1-3.2-0.1-5.3-0.1-5.3c-0.4-4.3-0.8-8.3-2.9-12
		c-3-5.1-6.5-8-6.5-8.1C91,452,86.1,448.4,90.8,446"/>
	<path id="XMLID_282_" class="st33" d="M77.2,446L77.2,446c-6.6-0.4-10.8,7.4-11.7,9.2c-0.1,0.2-0.2,0.5-0.3,0.7
		c-2.3,6.6-3.5,13.7-3.4,20.8c0,1.4,0,3.3,0.2,5.2c0,0.6,0.1,1.3,0.2,1.9c0,0.3,0.1,0.6,0.2,0.9c0.3,1.1,1.3,3.3,3.4,2.9
		c0.7-0.1,1.2-0.7,1.5-1.3c0.6-1.1,0.7-2.3,0.5-3.6c-0.3-1.7-0.4-3.5-0.5-5.3c-0.1-3.2,0.1-5.3,0.1-5.3c0.4-4.3,0.8-8.3,2.9-12
		c3-5.1,6.5-8,6.5-8.1C77,452,81.9,448.4,77.2,446"/>
	<g id="shirt_10_">
		<path id="torso_9_" class="st6" d="M93,448.5c-1.4-2-6.4-5-8.9-4.1c-2.6-0.9-7.5,2.1-8.9,4.1c-2.1,3-4.8,8.1-4.2,32.2h13h0.1h13.1
			C97.8,456.6,95.1,451.4,93,448.5z"/>
		<path id="XMLID_281_" class="st34" d="M93,448.3c-1.4-2-6.4-5.1-9-4.2c-2.6-0.9-7.5,2.2-9,4.2c-2.1,3-4.8,8.2-4.2,32.6H84h0.1
			h13.1C97.8,456.5,95.2,451.3,93,448.3z"/>
	</g>
	<g id="shirt_9_">
		<path id="XMLID_280_" class="st5" d="M93.1,448.6c-1.5-2-6.4-5.1-9.1-4.2c-2.6-0.9-7.6,2.2-9,4.2H93.1z"/>
		<path id="XMLID_279_" class="st6" d="M97.4,478.4v0.3c0,0.8,0,1.5-0.1,2.3H70.8c0-1.7-0.1-3.4-0.1-4.9
			c-0.1-10.8,0.6-17.1,1.5-21.2c0.1-0.3,0.1-0.5,0.2-0.7c0.2-0.8,0.4-1.6,0.7-2.2c0-0.1,0.1-0.2,0.1-0.4c0.1-0.2,0.1-0.4,0.2-0.5
			c0.5-1.2,1.1-2.1,1.6-2.8c0.6-0.9,1.9-1.9,3.3-2.8l0.2,0.2c1.6,1.6,3.7,2.4,5.7,2.4c2.1,0,4.2-0.8,5.8-2.4
			c1.3,0.8,2.5,1.8,3.1,2.6C95.2,451.1,97.7,456,97.4,478.4z"/>
		<path id="XMLID_278_" class="st35" d="M97.4,478.4v0.3c0,0.8,0,1.5-0.1,2.3v0.1H70.8c0-0.6,0-1.2,0-1.8V479
			c-0.2-12.6,0.5-19.7,1.5-24.1c0.1-0.3,0.1-0.5,0.2-0.7c0.2-0.8,0.4-1.6,0.7-2.2c0-0.1,0.1-0.2,0.1-0.4c0.1-0.2,0.1-0.4,0.2-0.5
			c0.5-1.2,1.1-2.1,1.6-2.8c0.6-0.9,1.9-1.9,3.3-2.8l0.2,0.2c1.6,1.6,3.7,2.4,5.7,2.4c2.1,0,4.2-0.8,5.8-2.4
			c1.3,0.8,2.5,1.8,3.1,2.6C95.2,451.1,97.7,456,97.4,478.4z"/>
		<g id="XMLID_275_">
			<polygon id="XMLID_277_" class="st36" points="90.3,462 90.7,450.4 84.5,454.4 84.4,454.1 78.3,449.8 78.2,461.4 84.5,457.4 			
				"/>
			<rect id="XMLID_276_" x="82.9" y="453" class="st37" width="3" height="5.6"/>
		</g>
		<path id="XMLID_274_" class="st38" d="M97.4,476v2.3v0.3v2.1c0,0.1,0,0.2,0,0.3l0,0v0.1H70.9c0-0.6,0-1.2,0-1.8V479v-2.9l0,0
			L97.4,476z"/>
	</g>
	<g id="XMLID_271_">
		<path id="XMLID_273_" class="st8" d="M102.8,425.7c0.3,1.9-1.1,3.5-3,3.7c-2,0.2-3.8-1.2-4.1-3c-0.3-1.9,1.1-3.5,3-3.7
			C100.7,422.5,102.5,423.8,102.8,425.7z"/>
		<path id="XMLID_272_" class="st8" d="M71.8,426c0,1.9-1.5,3.4-3.5,3.4s-3.6-1.5-3.7-3.3c0-1.9,1.5-3.4,3.5-3.4
			C70.1,422.6,71.8,424.1,71.8,426z"/>
	</g>
	<g id="XMLID_268_">
		<path id="XMLID_270_" class="st33" d="M84.3,405.6c-4,0.2-8.1,1.6-11,4.2c-4.3,3.8-5.5,11.6-5.3,17.6
			c0.7,18.6,12.6,19.2,16.3,19.6V405.6z"/>
		<path id="XMLID_269_" class="st33" d="M84,405.6c4,0.2,7.8,1.6,10.8,4.2c4.3,3.8,5.1,11.6,4.8,17.6c-0.4,8.2-3.1,19.7-15.5,19.6
			v-41.4H84z"/>
	</g>
	<ellipse id="XMLID_267_" class="st8" cx="84.2" cy="431.7" rx="1.7" ry="1.9"/>
	<path id="XMLID_266_" class="st30" d="M76.5,413.1c0,0,10.1,8.1,22.9,6.6c0,0,1.3-14.9-15.9-14.9s-14.7,12.4-14.7,12.4
		S72,416.6,76.5,413.1z"/>
	<path id="mouth_7_" class="st10" d="M88,436.1c-0.5-0.1-0.9,0.4-1,1c0,0.3-0.4,2.6-3,2.8c-2.6-0.2-2.9-2.5-3-2.8
		c-0.1-0.6-0.5-1-1-1c-0.5,0.1-0.8,0.6-0.8,1.2c0.2,1.6,1.4,4.5,4.7,4.7l0,0l0,0l0,0l0,0c3.3-0.2,4.5-3.1,4.7-4.7
		C88.9,436.7,88.5,436.2,88,436.1z"/>
	<circle id="XMLID_265_" class="st11" cx="76.7" cy="425.3" r="2.8"/>
	<circle id="XMLID_259_" class="st11" cx="91.3" cy="425.3" r="2.8"/>
	<path id="XMLID_288_" class="st39" d="M173.4,463.3l33.9-0.4c0,0,14.3-55.8-18-55.8C157.8,407.1,173.4,463.3,173.4,463.3z"/>
	<g id="right-leg_9_">
		<g id="XMLID_285_">
			<path id="XMLID_287_" class="st31" d="M191.7,520.7h4.6c0,0,7.7,6,7.1,9.4h-12L191.7,520.7z"/>
			<path id="XMLID_286_" class="st20" d="M202.8,527.5c0.5,0.9,0.8,1.8,0.7,2.6h-12l0.1-2.6H202.8z"/>
		</g>
		<path id="XMLID_255_" class="st40" d="M202.8,483.1c0,0-0.6,4.4-1.4,10.2c-1.4,9.9-3.6,23.9-5.2,27.4c0,0,0,0.1-0.1,0.1h-4.6
			c0,0,0.4-12.1,0.6-22.8c0-0.1,0-0.1,0-0.2c0.1-5.3,0.3-10.2,0.3-13c0-0.7,0-1.3,0-1.7L202.8,483.1L202.8,483.1z"/>
	</g>
	<g id="XMLID_252_">
		<path id="XMLID_254_" class="st31" d="M188,520.7h-4.6c0,0-7.7,6-7.1,9.4h12L188,520.7z"/>
		<path id="XMLID_253_" class="st20" d="M177,527.5c-0.5,0.9-0.8,1.8-0.7,2.6h12l-0.1-2.6H177z"/>
	</g>
	<path id="XMLID_251_" class="st40" d="M188.1,520.8h-4.6c-1.5-3.2-3.8-17.6-5.3-27.7c-0.8-5.7-1.4-10-1.4-10h10.3c0,0.4,0,1,0,1.7
		c0,2.9,0.2,7.7,0.3,13c0,0.1,0,0.1,0,0.2C187.8,508.7,188.1,520.8,188.1,520.8z"/>
	<path id="XMLID_250_" class="st40" d="M202.8,483.1c0,0-0.2,2-0.7,4.9c-0.2,1-0.3,2.2-0.6,3.4c-0.7,0.7-1.7,1.2-2.6,1.7
		c-1.9,1-4.2,1.7-6.7,2c-0.8,0.1-1.6,0.1-2.4,0.1s-1.7,0-2.4-0.1c-2-0.2-3.8-0.7-5.4-1.4c-1.5-0.6-2.9-1.3-4-2.2
		c-0.2-1.3-0.4-2.4-0.6-3.5c-0.5-2.9-0.7-4.9-0.7-4.9H187c0,0,5.3-0.1,5.4,0H202.8z"/>
	<path id="XMLID_249_" class="st41" d="M196.4,449.1L196.4,449.1c6.4-0.4,10.5,7.2,11.4,9c0.1,0.2,0.2,0.5,0.3,0.7
		c2.2,6.4,3.5,13.3,3.3,20.2c0,1.4,0,3.2-0.2,5.1c0,0.6-0.1,1.2-0.2,1.9c0,0.3-0.1,0.6-0.2,0.9c-0.3,1.1-1.2,3.2-3.3,2.8
		c-0.7-0.1-1.1-0.7-1.5-1.3c-0.6-1.1-0.7-2.3-0.5-3.5c0.3-1.7,0.4-3.4,0.5-5.1c0.1-3.1-0.1-5.2-0.1-5.2c-0.4-4.2-0.7-8-2.8-11.7
		c-2.9-5-6.3-7.8-6.4-7.9C196.6,454.9,191.8,451.4,196.4,449.1"/>
	<g id="XMLID_246_">
		<path id="XMLID_248_" class="st42" d="M209,461.6l-6.1,1.3c-0.3-0.5-0.6-1.1-1-1.6c-2.7-4-5.4-6.3-5.5-6.3c0,0-4.8-3.5-0.2-5.8
			c7.4-0.5,11.7,9.3,11.7,9.3c0.2,0.5,0.3,1,0.5,1.4C208.7,460.4,208.9,461,209,461.6z"/>
		<path id="XMLID_247_" class="st43" d="M209,461.6l-6.1,1.3c-0.3-0.5-0.6-1.1-1-1.6l6.5-1.4C208.7,460.4,208.9,461,209,461.6z"/>
	</g>
	<path id="XMLID_245_" class="st41" d="M183.2,449.1L183.2,449.1c-6.4-0.4-10.5,7.2-11.4,9c-0.1,0.2-0.2,0.5-0.3,0.7
		c-2.2,6.4-3.5,13.3-3.3,20.2c0,1.4,0,3.2,0.2,5.1c0,0.6,0.1,1.2,0.2,1.9c0,0.3,0.1,0.6,0.2,0.9c0.3,1.1,1.2,3.2,3.3,2.8
		c0.7-0.1,1.1-0.7,1.5-1.3c0.6-1.1,0.7-2.3,0.5-3.5c-0.3-1.7-0.4-3.4-0.5-5.1c-0.1-3.1,0.1-5.2,0.1-5.2c0.4-4.2,0.7-8,2.8-11.7
		c2.9-5,6.3-7.8,6.4-7.9C182.9,454.9,187.7,451.4,183.2,449.1"/>
	<g id="XMLID_242_">
		<path id="XMLID_244_" class="st42" d="M170.7,461.5l6.1,1.3c0.3-0.5,0.6-1.1,1-1.6c2.7-4,5.4-6.3,5.5-6.3c0,0,4.8-3.5,0.2-5.8
			c-7.4-0.5-11.7,9.3-11.7,9.3c-0.2,0.5-0.3,1-0.5,1.4C171,460.4,170.8,460.9,170.7,461.5z"/>
		<path id="XMLID_243_" class="st43" d="M170.7,461.5l6.1,1.3c0.3-0.5,0.6-1.1,1-1.6l-6.5-1.4C171,460.4,170.8,460.9,170.7,461.5z"
			/>
	</g>
	<g id="shirt_11_">
		<path id="torso_10_" class="st6" d="M198.6,451.5c-1.4-2-6.2-4.9-8.7-4c-2.5-0.9-7.3,2.1-8.7,4c-2.1,2.9-4.6,7.9-4.1,31.4h12.7
			h0.1h12.7C203.2,459.4,200.6,454.4,198.6,451.5z"/>
		<path id="XMLID_241_" class="st42" d="M198.6,451.4c-1.4-2-6.2-5-8.7-4.1c-2.5-0.9-7.3,2.1-8.7,4.1c-2.1,2.9-4.7,7.9-4.1,31.8
			h12.8h0.1h12.8C203.2,459.3,200.7,454.3,198.6,451.4z"/>
	</g>
	<g id="XMLID_238_">
		<path id="XMLID_240_" class="st44" d="M208.1,429.3c0.3,1.8-1,3.4-2.9,3.6c-1.9,0.2-3.7-1.1-4-3c-0.3-1.8,1-3.4,2.9-3.6
			C206.1,426.1,207.9,427.5,208.1,429.3z"/>
		<path id="XMLID_239_" class="st44" d="M177.9,429.6c0,1.8-1.5,3.3-3.4,3.3s-3.5-1.4-3.6-3.3c0-1.8,1.5-3.3,3.4-3.3
			C176.3,426.3,177.9,427.7,177.9,429.6z"/>
	</g>
	<g id="XMLID_235_">
		<path id="XMLID_237_" class="st41" d="M190.1,409.7c-3.9,0.2-7.9,1.6-10.7,4.1c-4.2,3.7-5.4,11.3-5.2,17.2
			c0.7,18.1,12.3,18.7,15.9,19.1L190.1,409.7L190.1,409.7z"/>
		<path id="XMLID_236_" class="st41" d="M189.8,409.7c3.9,0.2,7.6,1.6,10.5,4.1c4.2,3.7,4.9,11.3,4.7,17.2c-0.4,8-3,19.2-15.1,19.1
			v-40.4H189.8z"/>
	</g>
	<ellipse id="XMLID_234_" class="st44" cx="189.9" cy="435.1" rx="1.7" ry="1.9"/>
	<path id="XMLID_233_" class="st39" d="M182.5,417c0,0,9.8,7.9,22.3,6.4c0,0,1.2-14.5-15.4-14.5c-16.7,0-14.4,12.1-14.4,12.1
		S178.1,420.4,182.5,417z"/>
	<path id="mouth_6_" class="st44" d="M193.7,439.5c-0.5-0.1-0.9,0.3-1,0.9c0,0.3-0.4,2.5-2.9,2.7c-2.5-0.2-2.9-2.4-2.9-2.7
		c-0.1-0.6-0.5-1-1-0.9s-0.8,0.6-0.7,1.2c0.2,1.6,1.3,4.4,4.5,4.6l0,0l0,0l0,0l0,0c3.2-0.2,4.4-3,4.5-4.6
		C194.5,440.1,194.2,439.5,193.7,439.5z"/>
	<circle id="XMLID_232_" class="st43" cx="182.7" cy="428.9" r="2.8"/>
	<circle id="XMLID_231_" class="st43" cx="196.9" cy="428.9" r="2.8"/>
	<g id="right-leg_4_">
		<g id="XMLID_173_">
			<path id="XMLID_175_" class="st34" d="M140.9,521.6h4.5c0,0,7.5,5.8,7,9.1h-11.7L140.9,521.6z"/>
			<path id="XMLID_174_" class="st20" d="M151.7,528.3c0.5,0.9,0.8,1.8,0.7,2.5h-11.7l0.1-2.5H151.7z"/>
		</g>
		<path id="XMLID_172_" class="st45" d="M151.8,485c0,0-0.6,4.3-1.4,9.9c-1.4,9.6-3.6,23.3-5.1,26.7c0,0,0,0.1-0.1,0.1h-4.5
			c0,0,0.4-11.8,0.6-22.3c0-0.1,0-0.1,0-0.2c0.1-5.2,0.2-9.9,0.3-12.7c0-0.7,0-1.2,0-1.7h10.2V485z"/>
	</g>
	<g id="XMLID_169_">
		<path id="XMLID_171_" class="st34" d="M137.3,521.6h-4.5c0,0-7.5,5.8-7,9.1h11.7L137.3,521.6z"/>
		<path id="XMLID_170_" class="st20" d="M126.6,528.3c-0.5,0.9-0.8,1.8-0.7,2.5h11.7l-0.1-2.5H126.6z"/>
	</g>
	<path id="XMLID_168_" class="st45" d="M137.4,521.7H133c-1.5-3.2-3.7-17.2-5.1-27c-0.8-5.6-1.4-9.8-1.4-9.8h10c0,0.4,0,1,0,1.7
		c0,2.8,0.1,7.6,0.3,12.7c0,0.1,0,0.1,0,0.2C137.1,509.9,137.4,521.7,137.4,521.7z"/>
	<path id="XMLID_167_" class="st45" d="M151.8,484.9c0,0-0.2,1.9-0.7,4.8c-0.2,1-0.3,2.1-0.6,3.4c-0.7,0.6-1.6,1.2-2.6,1.7
		c-1.8,1-4.1,1.7-6.5,1.9c-0.7,0.1-1.5,0.1-2.3,0.1s-1.6,0-2.4-0.1c-1.9-0.2-3.7-0.7-5.2-1.3c-1.5-0.6-2.9-1.2-3.9-2.2
		c-0.2-1.2-0.4-2.4-0.6-3.4c-0.4-2.8-0.7-4.8-0.7-4.8h10c0,0,5.2-0.1,5.3,0h10.2V484.9z"/>
	<path id="XMLID_166_" class="st20" d="M151.8,484.9c0,0-0.2,1.9-0.7,4.8h-24c-0.4-2.8-0.7-4.8-0.7-4.8h10c0,0,5.2-0.1,5.3,0H151.8z
		"/>
	<path id="XMLID_162_" class="st46" d="M145.5,451.7L145.5,451.7c6.3-0.4,10.3,7,11.1,8.8c0.1,0.2,0.2,0.4,0.3,0.7
		c2.2,6.3,3.4,13,3.2,19.7c0,1.3,0,3.1-0.2,5c0,0.6-0.1,1.2-0.2,1.8c0,0.3-0.1,0.6-0.2,0.8c-0.3,1-1.2,3.1-3.2,2.7
		c-0.7-0.1-1.1-0.7-1.4-1.3c-0.5-1-0.7-2.2-0.5-3.4c0.3-1.7,0.4-3.3,0.5-5c0.1-3-0.1-5.1-0.1-5.1c-0.4-4.1-0.7-7.9-2.8-11.4
		c-2.8-4.9-6.2-7.7-6.2-7.7C145.7,457.4,141.1,454,145.5,451.7"/>
	<g id="XMLID_159_">
		<path id="XMLID_161_" class="st34" d="M157.8,463.8l-5.9,1.2c-0.3-0.5-0.6-1-1-1.5c-2.6-3.9-5.3-6.1-5.4-6.2c0,0-4.7-3.4-0.2-5.7
			c7.2-0.4,11.5,9.1,11.5,9.1c0.2,0.5,0.3,0.9,0.5,1.4C157.5,462.7,157.7,463.3,157.8,463.8z"/>
		<path id="XMLID_160_" class="st47" d="M157.8,463.8l-5.9,1.2c-0.3-0.5-0.6-1-1-1.5l6.3-1.4C157.5,462.7,157.7,463.3,157.8,463.8z"
			/>
	</g>
	<path id="XMLID_158_" class="st46" d="M132.6,451.7L132.6,451.7c-6.3-0.4-10.3,7-11.1,8.8c-0.1,0.2-0.2,0.4-0.3,0.7
		c-2.2,6.3-3.4,13-3.2,19.7c0,1.3,0,3.1,0.2,5c0,0.6,0.1,1.2,0.2,1.8c0,0.3,0.1,0.6,0.2,0.8c0.3,1,1.2,3.1,3.2,2.7
		c0.7-0.1,1.1-0.7,1.4-1.3c0.5-1,0.7-2.2,0.5-3.4c-0.3-1.7-0.4-3.3-0.5-5c-0.1-3,0.1-5.1,0.1-5.1c0.4-4.1,0.7-7.9,2.8-11.4
		c2.8-4.9,6.2-7.7,6.2-7.7C132.4,457.4,137,454,132.6,451.7"/>
	<g id="XMLID_155_">
		<path id="XMLID_157_" class="st34" d="M120.4,463.8l5.9,1.2c0.3-0.5,0.6-1,1-1.5c2.6-3.9,5.3-6.1,5.4-6.2c0,0,4.7-3.4,0.2-5.7
			c-7.2-0.4-11.5,9.1-11.5,9.1c-0.2,0.5-0.3,0.9-0.5,1.4C120.7,462.7,120.5,463.2,120.4,463.8z"/>
		<path id="XMLID_156_" class="st47" d="M120.4,463.8l5.9,1.2c0.3-0.5,0.6-1,1-1.5l-6.3-1.4C120.7,462.7,120.5,463.2,120.4,463.8z"
			/>
	</g>
	<g id="shirt_5_">
		<path id="torso_5_" class="st6" d="M147.6,454.1c-1.4-1.9-6-4.8-8.5-3.9c-2.5-0.8-7.1,2-8.5,3.9c-2,2.8-4.5,7.7-4,30.7H139h0.1
			h12.4C152.2,461.7,149.7,456.9,147.6,454.1z"/>
		<path id="XMLID_154_" class="st34" d="M147.7,453.9c-1.4-1.9-6.1-4.8-8.5-4c-2.5-0.8-7.1,2.1-8.5,4c-2,2.8-4.5,7.8-4,31h12.5h0.1
			h12.5C152.2,461.7,149.7,456.8,147.7,453.9z"/>
	</g>
	<g id="XMLID_151_">
		<path id="XMLID_153_" class="st48" d="M157,432.4c0.3,1.8-1,3.3-2.9,3.5s-3.6-1.1-3.9-2.9s1-3.3,2.9-3.5
			C154.9,429.3,156.7,430.6,157,432.4z"/>
		<path id="XMLID_152_" class="st48" d="M127.5,432.6c0,1.8-1.5,3.2-3.3,3.3c-1.9,0-3.4-1.4-3.5-3.2c0-1.8,1.5-3.2,3.3-3.3
			C125.9,429.4,127.4,430.9,127.5,432.6z"/>
	</g>
	<g id="XMLID_148_">
		<path id="XMLID_150_" class="st46" d="M139.3,413.2c-3.8,0.2-7.7,1.5-10.5,4c-4.1,3.6-5.3,11-5.1,16.8c0.7,17.7,12,18.2,15.5,18.6
			v-39.4H139.3z"/>
		<path id="XMLID_149_" class="st46" d="M139.1,413.2c3.8,0.2,7.4,1.5,10.2,4c4.1,3.6,4.8,11,4.6,16.8c-0.4,7.8-3,18.7-14.8,18.6
			L139.1,413.2L139.1,413.2z"/>
	</g>
	<ellipse id="XMLID_147_" class="st48" cx="139.2" cy="438.1" rx="1.7" ry="1.8"/>
	<path id="hair_3_" class="st49" d="M139.3,407.6c-0.3,0-1.7,0.9-3.5,1.3c-0.8,0.2-1.6-0.8-2.5-0.5c-1,0.4-2,2.2-3,2.8
		s-2.1,0.8-3,1.7c-0.6,0.6-0.8,1.9-1.3,2.6c-0.6,1-1.6,1.4-2,2.6c-0.3,0.9-0.2,2.4-0.4,3.4c-0.2,0.9-1.2,1.7-1.2,2.7
		c0,0.8,0.8,1.7,0.9,2.5l1.7,4c-0.3-2.3,2.2-5,3-5.9c4.1-4.2,9.4-1.6,13.3,0.2c3,1.4,5.4,0.2,8.6-1c0.8-0.3,1.5,1.9,1.9,2.6
		c1.4,2.2,1.6,4.1,1.6,4.1l1.7-4c0-1.2,0.9-3.1,0.8-4.1c-0.1-1.2-1.2-1.7-1.5-2.7c-0.3-1.2,0.2-2.9-0.4-3.9c-0.5-1-2-1.3-2.7-2.1
		c-0.5-0.6-0.9-2.1-1.5-2.6c-0.9-0.8-2.1-0.5-3.1-1s-1.7-1.9-2.6-2.2c-1-0.3-2.3,0.4-3.1,0.3C140.1,408.4,139.5,407.5,139.3,407.6z"
		/>
	<path id="mouth_3_" class="st10" d="M142.9,442.3c-0.5-0.1-0.9,0.3-0.9,0.9c0,0.3-0.4,2.5-2.8,2.6c-2.5-0.1-2.8-2.3-2.8-2.6
		c-0.1-0.6-0.5-1-0.9-0.9c-0.5,0.1-0.8,0.6-0.7,1.2c0.2,1.5,1.3,4.3,4.4,4.5l0,0l0,0l0,0l0,0c3.2-0.2,4.3-2.9,4.4-4.5
		C143.7,442.9,143.4,442.4,142.9,442.3z"/>
	<circle id="XMLID_146_" class="st11" cx="132.1" cy="432" r="2.7"/>
	<circle id="XMLID_145_" class="st11" cx="146" cy="432" r="2.7"/>
	<path id="back-hair_2_" class="st50" d="M230.2,464.9l30.2-0.4c0,0-0.5-3.4,0.1-6.8c0.5-2.9,2.2-5.6,2.5-9.8
		c0.3-3.6-1.2-7.7-1.6-11.5c-0.3-4,0.5-7.7-0.9-11.1c-1.5-3.5-4.3-5.1-7.4-7c-2.5-1.5-4.9-3.6-8.7-3.6c-4.1,0-6.7,2.5-9.2,4.3
		c-2.7,2-5.1,3.5-6.3,6.8c-1.1,2.9,0.3,6.4,0,9.8c-0.2,3.3-2.1,6.4-1.9,9.7c0.3,3.8,2.4,6.9,2.9,10
		C230.8,460.6,230.2,464.9,230.2,464.9z"/>
	<g id="right-leg_5_">
		<g id="XMLID_163_">
			<path id="XMLID_165_" class="st51" d="M247,522h4.3c0,0,7.2,5.6,6.7,8.7h-11.2L247,522z"/>
			<path id="XMLID_164_" class="st20" d="M257.3,528.4c0.5,0.9,0.7,1.7,0.6,2.4h-11.2l0.1-2.4H257.3z"/>
		</g>
		<path id="XMLID_133_" class="st19" d="M257.4,487c0,0-0.5,4.1-1.3,9.5c-1.3,9.2-3.4,22.3-4.8,25.5c0,0,0,0.1-0.1,0.1h-4.3
			c0,0,0.3-11.3,0.6-21.3v-0.1c0.1-4.9,0.2-9.5,0.3-12.2c0-0.6,0-1.2,0-1.6h9.6V487z"/>
	</g>
	<g id="XMLID_130_">
		<path id="XMLID_132_" class="st51" d="M243.5,522h-4.3c0,0-7.2,5.6-6.7,8.7h11.2L243.5,522z"/>
		<path id="XMLID_131_" class="st20" d="M233.2,528.4c-0.5,0.9-0.7,1.7-0.6,2.4h11.2l-0.1-2.4H233.2z"/>
	</g>
	<path id="XMLID_129_" class="st19" d="M243.6,522.2h-4.3c-1.4-3-3.6-16.4-4.9-25.8c-0.8-5.3-1.3-9.4-1.3-9.4h9.6c0,0.4,0,0.9,0,1.6
		c0,2.7,0.1,7.2,0.3,12.1c0,0.1,0,0.1,0,0.2C243.3,510.9,243.6,522.2,243.6,522.2z"/>
	<path id="XMLID_128_" class="st19" d="M257.4,487c0,0-0.2,1.8-0.6,4.6c-0.2,1-0.3,2-0.5,3.2c-0.7,0.6-1.6,1.1-2.4,1.6
		c-1.7,0.9-3.9,1.6-6.2,1.8c-0.7,0.1-1.4,0.1-2.2,0.1c-0.8,0-1.5,0-2.3-0.1c-1.8-0.2-3.5-0.6-5-1.3c-1.4-0.6-2.7-1.2-3.7-2.1
		c-0.2-1.2-0.4-2.3-0.5-3.3c-0.4-2.7-0.6-4.6-0.6-4.6h9.6c0,0,4.9-0.1,5,0h9.4V487z"/>
	<path id="XMLID_127_" class="st52" d="M257.4,487c0,0-0.2,1.8-0.6,4.6h-22.9c-0.4-2.7-0.6-4.6-0.6-4.6h9.6c0,0,4.9-0.1,5,0H257.4z"
		/>
	<path id="XMLID_126_" class="st53" d="M251.3,455.3L251.3,455.3c6-0.4,9.8,6.7,10.6,8.4c0.1,0.2,0.2,0.4,0.3,0.6
		c2.1,6,3.2,12.4,3.1,18.9c0,1.3,0,3-0.1,4.8c0,0.6-0.1,1.2-0.2,1.7c0,0.3-0.1,0.5-0.2,0.8c-0.3,1-1.2,3-3.1,2.6
		c-0.6-0.1-1.1-0.6-1.4-1.2c-0.5-1-0.7-2.1-0.5-3.2c0.3-1.6,0.4-3.2,0.4-4.8c0.1-2.9-0.1-4.9-0.1-4.9c-0.4-3.9-0.7-7.5-2.7-10.9
		c-2.7-4.6-5.9-7.3-5.9-7.4C251.5,460.7,247.1,457.4,251.3,455.3"/>
	<g id="XMLID_123_">
		<path id="XMLID_125_" class="st54" d="M263.1,466.8l-5.6,1.2c-0.3-0.5-0.6-1-0.9-1.5c-2.5-3.7-5.1-5.9-5.1-5.9s-4.5-3.3-0.2-5.4
			c6.9-0.4,11,8.7,11,8.7c0.2,0.4,0.3,0.9,0.5,1.3C262.8,465.8,263,466.3,263.1,466.8z"/>
		<path id="XMLID_124_" class="st55" d="M263.1,466.8l-5.6,1.2c-0.3-0.5-0.6-1-0.9-1.5l6.1-1.3C262.8,465.8,263,466.3,263.1,466.8z"
			/>
	</g>
	<path id="XMLID_122_" class="st53" d="M239,455.3L239,455.3c-6-0.4-9.8,6.7-10.6,8.4c-0.1,0.2-0.2,0.4-0.3,0.6
		c-2.1,6-3.2,12.4-3.1,18.9c0,1.3,0,3,0.1,4.8c0,0.6,0.1,1.2,0.2,1.7c0,0.3,0.1,0.5,0.2,0.8c0.3,1,1.2,3,3.1,2.6
		c0.6-0.1,1.1-0.6,1.4-1.2c0.5-1,0.7-2.1,0.5-3.2c-0.3-1.6-0.4-3.2-0.4-4.8c-0.1-2.9,0.1-4.9,0.1-4.9c0.4-3.9,0.7-7.5,2.7-10.9
		c2.7-4.6,5.9-7.3,5.9-7.4C238.8,460.7,243.2,457.4,239,455.3"/>
	<g id="XMLID_119_">
		<path id="XMLID_121_" class="st54" d="M227.3,466.8l5.6,1.2c0.3-0.5,0.6-1,0.9-1.5c2.5-3.7,5.1-5.9,5.1-5.9s4.5-3.3,0.2-5.4
			c-6.9-0.4-11,8.7-11,8.7c-0.2,0.4-0.3,0.9-0.5,1.3C227.6,465.7,227.5,466.3,227.3,466.8z"/>
		<path id="XMLID_120_" class="st55" d="M227.3,466.8l5.6,1.2c0.3-0.5,0.6-1,0.9-1.5l-6.1-1.3C227.6,465.7,227.5,466.3,227.3,466.8z
			"/>
	</g>
	<g id="shirt_6_">
		<path id="torso_6_" class="st6" d="M253.4,457.5c-1.3-1.8-5.8-4.6-8.1-3.8c-2.3-0.8-6.8,1.9-8.1,3.8c-1.9,2.7-4.3,7.3-3.8,29.3
			h11.9h0.1h11.9C257.7,464.9,255.3,460.2,253.4,457.5z"/>
		<path id="XMLID_118_" class="st54" d="M253.4,457.4c-1.3-1.8-5.8-4.6-8.1-3.8c-2.3-0.8-6.8,2-8.1,3.8c-1.9,2.7-4.3,7.4-3.8,29.6
			h11.9h0.1h11.9C257.7,464.8,255.3,460.1,253.4,457.4z"/>
	</g>
	<g id="XMLID_115_">
		<path id="XMLID_117_" class="st8" d="M262.3,436.8c0.3,1.7-1,3.2-2.7,3.4c-1.8,0.2-3.5-1.1-3.7-2.8c-0.3-1.7,1-3.2,2.7-3.4
			C260.4,433.9,262,435.1,262.3,436.8z"/>
		<path id="XMLID_116_" class="st8" d="M234.1,437c0,1.7-1.4,3.1-3.2,3.1c-1.8,0-3.3-1.3-3.3-3s1.4-3.1,3.2-3.1
			C232.6,434,234,435.3,234.1,437z"/>
	</g>
	<g id="XMLID_112_">
		<path id="XMLID_114_" class="st53" d="M245.4,418.5c-3.6,0.2-7.3,1.5-10,3.8c-4,3.4-5,10.5-4.8,16c0.6,16.9,11.4,17.4,14.8,17.8
			V418.5z"/>
		<path id="XMLID_113_" class="st53" d="M245.2,418.5c3.6,0.2,7.1,1.5,9.8,3.8c4,3.4,4.6,10.5,4.4,16c-0.4,7.4-2.8,17.9-14.1,17.8
			L245.2,418.5L245.2,418.5z"/>
	</g>
	<ellipse id="XMLID_111_" class="st8" cx="245.3" cy="442.2" rx="1.6" ry="1.7"/>
	<path id="hair_2_" class="st50" d="M240.2,424.8c0,0,7.7,10,20.2,8.4c0,0,1.2-15.1-15.5-15.1s-14.4,12.6-14.4,12.6
		S235.8,428.4,240.2,424.8z"/>
	<path id="mouth_2_" class="st10" d="M248.8,446.3c-0.4-0.1-0.8,0.3-0.9,0.9c0,0.3-0.4,2.4-2.7,2.5c-2.4-0.1-2.7-2.2-2.7-2.5
		c-0.1-0.6-0.5-0.9-0.9-0.9c-0.4,0.1-0.7,0.6-0.7,1.1c0.1,1.5,1.2,4.1,4.2,4.3l0,0l0,0l0,0l0,0c3-0.2,4.1-2.8,4.2-4.3
		C249.6,446.9,249.3,446.3,248.8,446.3z"/>
	<circle id="XMLID_110_" class="st11" cx="238.5" cy="436.4" r="2.6"/>
	<circle id="XMLID_109_" class="st11" cx="251.8" cy="436.4" r="2.6"/>
</g>
</svg>
