<?xml version="1.0" encoding="utf-8"?>
<!-- Generator: Adobe Illustrator 19.0.1, SVG Export Plug-In . SVG Version: 6.00 Build 0)  -->
<svg version="1.1" id="StatsPeople" xmlns="http://www.w3.org/2000/svg" xmlns:xlink="http://www.w3.org/1999/xlink" x="0px"
	 y="0px" viewBox="93 -35 385 270" style="enable-background:new 93 -35 385 270;" xml:space="preserve">
<style type="text/css">
	.st0{display:none;fill:#FFFFFF;}
	.st1{fill:#FFFFFF;}
	.st2{fill:#6483A3;}
	.st3{fill:#92AABF;}
	.st4{fill:#252424;}
	.st5{fill:#FABA90;}
	.st6{display:none;fill:#E78C5F;}
	.st7{fill:#EEEDED;}
	.st8{fill:#E88D5E;}
	.st9{fill:#382D26;}
	.st10{fill:#EC6E60;}
	.st11{fill:#353433;}
	.st12{fill:#4B4B4D;}
	.st13{fill:#6F6A6B;}
	.st14{fill:#E29F7D;}
	.st15{fill:#49403B;}
	.st16{fill:#C98467;}
	.st17{fill:#353536;}
	.st18{fill:#AD8046;}
	.st19{fill:#3F8099;}
	.st20{fill:#808185;}
	.st21{fill:#4691B6;}
	.st22{fill:#E8E7E7;}
	.st23{fill:#515252;}
	.st24{fill:#E8A76D;}
	.st25{fill:#161616;}
	.st26{fill:#333333;}
	.st27{fill:#BE885B;}
	.st28{fill:#2D2318;}
	.st29{fill:#9B5F5A;}
	.st30{fill:#4F2616;}
	.st31{fill:#DBDBDA;}
	.st32{fill:#4B70B6;}
	.st33{fill:#FABA8F;}
	.st34{fill:#5DAD46;}
	.st35{fill:#F06265;}
	.st36{fill:#A23C3D;}
	.st37{fill:#C74F54;}
	.st38{fill:#C03F42;}
	.st39{fill:#151414;}
	.st40{fill:#69A55F;}
	.st41{fill:#8E5D3A;}
	.st42{fill:#3F4040;}
	.st43{fill:#1D1D1D;}
	.st44{fill:#5E3E29;}
	.st45{fill:#606262;}
	.st46{fill:#F4CBB8;}
	.st47{fill:#4D833D;}
	.st48{fill:#D5A28F;}
	.st49{fill:#E0C077;}
	.st50{fill:#FFEB5E;}
	.st51{fill:#E5E5E4;}
	.st52{fill:#194451;}
	.st53{fill:#F7AB83;}
	.st54{fill:#A47AB5;}
	.st55{fill:#513360;}
</style>
<g>
	<path id="torso_19_" class="st0" d="M151.6,72.4c-2.5-3.4-10.8-8.5-15.2-7c-4.4-1.5-12.7,3.6-15.2,7c-3.6,5-8.1,13.7-7.1,54.8h22.2
		h0.1h22.2C159.7,86.1,155.2,77.4,151.6,72.4z"/>
	<path class="st1" d="M174,116.3c0-0.5,0-0.9-0.1-1.4c0-0.7-0.1-1.4-0.1-2.1c-0.6-9.5-2.5-18.9-5.6-27.8c-0.1-0.4-0.3-0.8-0.5-1.2
		c-1.1-2.1-4.8-9-10.6-12.9c-2.8-1.9-6-3.1-9.7-2.9c-0.1,0.1-0.2,0.1-0.4,0.2c-0.2-0.1-0.3-0.2-0.5-0.3c11.3-4.6,14.9-17.2,15.9-28
		c0.2,0,0.5,0,0.7,0c3.3-0.3,5.6-3.1,5.1-6.3c-0.4-2.7-2.8-4.7-5.6-5.1c-0.5-8.4-2.5-17.1-8.1-22c-4.9-4.3-11.3-6.6-17.8-7.1l0,0
		c-0.1,0-0.2,0-0.3,0c-0.1,0-0.2,0-0.2,0v0c-6.5,0.5-13.3,2.8-18.2,7.1c-5.6,4.8-8.1,13.5-8.8,21.9c-3.4,0-6.1,2.6-6,5.8
		c0,3.1,2.7,5.6,6,5.7c1.6,18,9.9,24.9,17.3,27.7c-0.3,0.2-0.6,0.4-0.9,0.5c-0.1-0.1-0.3-0.1-0.4-0.2c-3.3-0.2-6.3,0.8-8.9,2.3
		c-6.5,3.7-10.6,11.3-11.7,13.6c-0.2,0.4-0.4,0.8-0.5,1.2c-3.9,11.2-6,23.2-5.8,35.3c0,2.4,0,5.6,0.3,8.9c0.1,1.1,0.2,2.2,0.4,3.3
		c0.1,0.5,0.2,1,0.3,1.5c0.6,1.8,2.2,5.6,5.8,4.9c1.2-0.2,2-1.2,2.6-2.3c1-1.8,1.2-4,0.9-6c-0.5-3-0.8-5.9-0.8-8.9c0,0,0-0.1,0-0.1
		l0.3,0c-0.3-1.9,0.2-9.3,0.2-9.3c0.7-7.2,1.3-14,5.1-20.4c0.6-1.1,1.3-2.1,1.9-3c-1.2,8.1-1.8,20.1-1.4,38.7h0v0H114
		c0,0,1,7.5,2.4,17.5c2.5,17.2,6.4,41.9,9,48h-0.1c0,0-13.3,10.4-12.3,16.3h20.7l-0.5-16h0.2c0,0-0.7-21.2-1.2-39.8
		c0-0.1,0-0.2,0-0.3c0-1.6-0.1-3.3-0.1-4.8c0.1,0,0.1,0,0.2,0c1.3,0.1,2.8,0.2,4.2,0.2s2.8,0,4.1-0.2c0,0,0.1,0,0.1,0
		c0,1.6-0.1,3.2-0.1,4.8c0,0.1,0,0.2,0,0.3c-0.5,18.6-1.1,39.8-1.1,39.8h0.1l-0.5,16h20.7c1-5.9-12.3-16.3-12.3-16.3
		c2.6-6.1,6.4-30.6,8.9-47.8c0.7-5.2,1.3-9.8,1.8-13c0.2-1.7,0.4-3,0.5-3.8c0.1-0.6,0.1-0.9,0.1-0.9h0c0-0.1,0-0.1,0-0.1h-0.1
		c0.5-18.2-0.1-30.1-1.2-38.1c0.6,0.8,1.1,1.7,1.6,2.6c3.7,6.3,4.3,13.1,5.1,20.4c0,0,0.5,7.4,0.2,9.3l0.1,0c0,0,0,0,0,0
		c0,3-0.3,5.9-0.8,8.9c-0.3,2-0.1,4.2,0.9,6c0.6,1.1,1.4,2.1,2.6,2.3c3.6,0.7,5.2-3.1,5.8-4.9c0.1-0.5,0.2-1,0.3-1.5
		c0.2-1.1,0.3-2.2,0.4-3.3c0.3-3.3,0.3-6.5,0.3-8.9C174,119,174,117.7,174,116.3z"/>
	
		<rect id="XMLID_577_" x="219.9" y="113.1" transform="matrix(-0.7071 0.7071 -0.7071 -0.7071 474.8479 79.28)" class="st1" width="2.2" height="49.8"/>
	
		<rect id="XMLID_576_" x="219.9" y="42.5" transform="matrix(-0.7071 -0.7071 0.7071 -0.7071 329.5785 271.3309)" class="st1" width="2.2" height="49.8"/>
	<g id="right-leg_16_">
		<g id="XMLID_529_">
			<path id="XMLID_531_" class="st2" d="M292,84.4h4.6c0,0,7.7,6,7.1,9.4h-12L292,84.4z"/>
			<path id="XMLID_530_" class="st3" d="M303,91.2c0.5,0.9,0.8,1.8,0.7,2.6h-12l0.1-2.6H303z"/>
		</g>
		<path id="XMLID_528_" class="st4" d="M303.1,46.7c0,0-0.6,4.4-1.4,10.2c-1.4,9.9-3.6,24-5.2,27.5c0,0,0,0.1-0.1,0.1h-4.6
			c0,0,0.4-12.2,0.6-22.9c0-0.1,0-0.1,0-0.2c0.1-5.3,0.3-10.2,0.3-13.1c0-0.7,0-1.3,0-1.7L303.1,46.7L303.1,46.7z"/>
	</g>
	<g id="XMLID_525_">
		<path id="XMLID_527_" class="st2" d="M288.3,84.4h-4.6c0,0-7.7,6-7.1,9.4h12L288.3,84.4z"/>
		<path id="XMLID_526_" class="st3" d="M277.3,91.2c-0.5,0.9-0.8,1.8-0.7,2.6h12l-0.1-2.6H277.3z"/>
	</g>
	<path id="XMLID_524_" class="st4" d="M288.4,84.5h-4.6c-1.5-3.2-3.8-17.7-5.3-27.8c-0.8-5.7-1.4-10.1-1.4-10.1h10.3
		c0,0.4,0,1,0,1.7c0,2.9,0.2,7.8,0.3,13.1c0,0.1,0,0.1,0,0.2C288,72.4,288.4,84.5,288.4,84.5z"/>
	<path id="XMLID_523_" class="st4" d="M292.8,46.6h10.3c0,0-0.4,3.6-1.3,8.4c-0.7,0.7-1.7,1.2-2.6,1.7c-1.9,1-4.2,1.7-6.7,2
		c-0.8,0.1-1.6,0.1-2.4,0.1c-0.8,0-1.7,0-2.5-0.1c-2-0.2-3.8-0.7-5.4-1.4c-1.5-0.7-2.9-1.3-4-2.2c-0.8-4.7-1.2-8.4-1.2-8.4h10.3
		C287.4,46.6,292.7,46.5,292.8,46.6z"/>
	<path id="XMLID_522_" class="st5" d="M296.6,12.5L296.6,12.5c6.5-0.4,10.6,7.2,11.4,9c0.1,0.2,0.2,0.5,0.3,0.7
		c2.2,6.4,3.5,13.4,3.3,20.3c0,1.4,0,3.2-0.2,5.1c0,0.6-0.1,1.3-0.2,1.9c0,0.3-0.1,0.6-0.2,0.9c-0.3,1.1-1.3,3.2-3.3,2.8
		c-0.7-0.1-1.1-0.7-1.5-1.3c-0.6-1.1-0.7-2.3-0.5-3.5c0.3-1.7,0.4-3.4,0.5-5.1c0.1-3.1-0.1-5.2-0.1-5.2c-0.4-4.2-0.8-8.1-2.9-11.7
		c-2.9-5-6.3-7.9-6.4-7.9C296.9,18.4,292.1,14.9,296.6,12.5"/>
	<path id="XMLID_521_" class="st2" d="M296.4,12.4c-4.6,2.3,0.2,5.9,0.2,5.9c0.1,0.1,3.6,2.9,6.5,7.9c2.1,3.6,2.5,7.5,2.9,11.7
		c0,0,0.3,4.3,0.1,5.3l5.5-0.8c0.1-7-1.2-14.1-3.5-20.6C308.1,21.8,303.8,12,296.4,12.4L296.4,12.4"/>
	<path id="XMLID_520_" class="st5" d="M283.4,12.5L283.4,12.5c-6.5-0.4-10.6,7.2-11.4,9c-0.1,0.2-0.2,0.5-0.3,0.7
		c-2.2,6.4-3.5,13.4-3.3,20.3c0,1.4,0,3.2,0.2,5.1c0,0.6,0.1,1.3,0.2,1.9c0,0.3,0.1,0.6,0.2,0.9c0.3,1.1,1.3,3.2,3.3,2.8
		c0.7-0.1,1.1-0.7,1.5-1.3c0.6-1.1,0.7-2.3,0.5-3.5c-0.3-1.7-0.4-3.4-0.5-5.1c-0.1-3.1,0.1-5.2,0.1-5.2c0.4-4.2,0.8-8.1,2.9-11.7
		c2.9-5,6.3-7.9,6.4-7.9C283.1,18.4,287.9,14.9,283.4,12.5"/>
	<path id="XMLID_519_" class="st2" d="M283.7,12.4c4.6,2.3-0.2,5.9-0.2,5.9c-0.1,0.1-3.6,2.9-6.6,8c-2.2,3.7-2.5,7.6-3,11.7
		c0,0-0.3,4.3-0.1,5.4l-5.6-0.8c-0.1-7.1,1.2-14.1,3.6-20.7C271.9,21.8,276.3,11.9,283.7,12.4L283.7,12.4"/>
	<g id="shirt_19_">
		<path id="torso_17_" class="st6" d="M298.8,15c-1.4-2-6.2-4.9-8.7-4.1c-2.5-0.9-7.3,2.1-8.7,4.1c-2.1,2.9-4.7,7.9-4.1,31.5h12.8
			h0.1H303C303.5,22.8,300.9,17.8,298.8,15z"/>
		<path id="XMLID_518_" class="st7" d="M298.8,14.8c-1.4-2-6.2-5-8.8-4.1c-2.5-0.9-7.3,2.1-8.8,4.1c-2.1,2.9-4.7,8-4.1,31.9h12.8
			h0.1h12.8C303.5,22.8,300.9,17.7,298.8,14.8z"/>
		<g id="XMLID_515_">
			<path id="XMLID_517_" class="st2" d="M282.6,32.4c0-8,0.9-15.3,2.3-20.5c-1.6,0.9-3,2-3.6,2.9c-2.1,2.9-4.8,8-4.2,31.9h6.5
				C282.9,42.5,282.6,37.6,282.6,32.4z"/>
			<path id="XMLID_516_" class="st2" d="M298.9,14.8c-0.6-0.9-2-2-3.5-2.8c1.4,5.2,2.3,12.4,2.3,20.5c0,5.2-0.4,10-1,14.2h6.3
				C303.7,22.8,301,17.7,298.9,14.8z"/>
		</g>
	</g>
	<g id="XMLID_512_">
		<path id="XMLID_514_" class="st8" d="M308.4-7.4c0.3,1.8-1,3.4-2.9,3.6c-1.9,0.2-3.7-1.1-4-3c-0.3-1.8,1-3.4,3-3.6
			C306.3-10.5,308.1-9.2,308.4-7.4z"/>
		<path id="XMLID_513_" class="st8" d="M278.1-7.1c0,1.8-1.5,3.3-3.4,3.4c-1.9,0-3.5-1.4-3.6-3.3c0-1.8,1.5-3.3,3.4-3.4
			C276.4-10.4,278-8.9,278.1-7.1z"/>
	</g>
	<g id="XMLID_509_">
		<path id="XMLID_511_" class="st5" d="M290.3-27c-3.9,0.2-7.9,1.6-10.8,4.1c-4.3,3.7-5.4,11.3-5.2,17.2c0.7,18.2,12.3,18.8,16,19.1
			V-27z"/>
		<path id="XMLID_510_" class="st5" d="M290-27c3.9,0.2,7.6,1.6,10.5,4.1c4.3,3.7,5,11.3,4.7,17.2c-0.4,8-3,19.3-15.2,19.1V-27z"/>
	</g>
	<ellipse id="XMLID_508_" class="st8" cx="290.2" cy="-1.5" rx="1.7" ry="1.9"/>
	<g id="hair_13_">
		<path id="XMLID_507_" class="st9" d="M305.3-15.9c0-1.4-0.3-3-0.7-4.3c-1.1-3.5-3.4-6.1-6.6-7.2c-2.6-0.9-14-0.8-16.6,0.1
			c-3.2,1.1-5.6,3.8-6.6,7.2c-0.4,1.3-0.6,2.9-0.7,4.3c0,1.5,0.7,4.7,0.7,4.7c0.8-5.4,3.6-8.3,7.2-7.9c3,0.3,5.1,2,8.3,1.8v-0.1
			c3,0,5-1.7,8-1.9c4.8-0.3,6.7,7.8,6.7,7.8C305.3-12.8,305.3-14.4,305.3-15.9z"/>
		<path id="XMLID_506_" class="st9" d="M274.8-20.3c2.8-7.7,10.9-8.5,18-11.6c1.8-0.8,2-1.4,3.7,0.1c3.9,3.4,6.9,7.9,8.4,12.9"/>
	</g>
	<path id="mouth_15_" class="st10" d="M294,2.9c-0.5-0.1-0.9,0.3-1,0.9c0,0.3-0.4,2.5-2.9,2.7c-2.5-0.2-2.9-2.4-2.9-2.7
		c-0.1-0.6-0.5-1-1-0.9s-0.8,0.6-0.7,1.2c0.2,1.6,1.3,4.4,4.6,4.6l0,0l0,0l0,0l0,0c3.2-0.2,4.4-3,4.6-4.6
		C294.8,3.5,294.4,2.9,294,2.9z"/>
	<circle id="XMLID_505_" class="st11" cx="282.8" cy="-7.8" r="2.8"/>
	<circle id="XMLID_504_" class="st11" cx="297.2" cy="-7.8" r="2.8"/>
	<g id="right-leg_17_">
		<g id="XMLID_494_">
			<path id="XMLID_496_" class="st12" d="M347.2,85.2h4.3c0,0,7.2,5.6,6.6,8.7h-11.2L347.2,85.2z"/>
			<path id="XMLID_495_" class="st13" d="M357.4,91.6c0.5,0.9,0.7,1.7,0.6,2.4h-11.2l0.1-2.4H357.4z"/>
		</g>
		<path id="XMLID_493_" class="st4" d="M357.5,50.2c0,0-0.5,4.1-1.3,9.5c-1.3,9.2-3.4,22.3-4.8,25.6c0,0,0,0.1-0.1,0.1H347
			c0,0,0.3-11.3,0.6-21.3c0-0.1,0-0.1,0-0.2c0.1-4.9,0.2-9.5,0.3-12.2c0-0.6,0-1.2,0-1.6L357.5,50.2L357.5,50.2z"/>
	</g>
	<g id="XMLID_490_">
		<path id="XMLID_492_" class="st12" d="M343.7,85.2h-4.3c0,0-7.2,5.6-6.6,8.7H344L343.7,85.2z"/>
		<path id="XMLID_491_" class="st13" d="M333.5,91.6c-0.5,0.9-0.7,1.7-0.6,2.4h11.2l-0.1-2.4H333.5z"/>
	</g>
	<path id="XMLID_489_" class="st4" d="M343.8,85.4h-4.3c-1.4-3-3.6-16.5-4.9-25.8c-0.8-5.3-1.3-9.4-1.3-9.4h9.6c0,0.4,0,0.9,0,1.6
		c0,2.7,0.1,7.2,0.3,12.2c0,0.1,0,0.1,0,0.2C343.5,74,343.8,85.4,343.8,85.4z"/>
	<path id="XMLID_488_" class="st4" d="M348,50.1h9.6c0,0-0.4,3.4-1.2,7.8c-0.7,0.6-1.6,1.1-2.4,1.6c-1.7,0.9-3.9,1.6-6.2,1.8
		c-0.7,0.1-1.4,0.1-2.2,0.1c-0.8,0-1.5,0-2.3-0.1c-1.8-0.2-3.5-0.6-5-1.3c-1.4-0.6-2.7-1.2-3.7-2.1c-0.8-4.4-1.2-7.8-1.2-7.8h9.6
		C342.9,50.1,347.9,50,348,50.1z"/>
	<path id="XMLID_487_" class="st14" d="M351.5,18.4L351.5,18.4c6-0.4,9.8,6.7,10.6,8.4c0.1,0.2,0.2,0.4,0.3,0.6
		c2.1,6,3.2,12.4,3.1,18.9c0,1.3,0,3-0.1,4.8c0,0.6-0.1,1.2-0.2,1.7c0,0.3-0.1,0.5-0.2,0.8c-0.3,1-1.2,3-3.1,2.6
		c-0.6-0.1-1.1-0.6-1.4-1.2c-0.5-1-0.7-2.1-0.5-3.2c0.3-1.6,0.4-3.2,0.4-4.8c0.1-2.9-0.1-4.9-0.1-4.9c-0.4-3.9-0.7-7.5-2.7-10.9
		c-2.7-4.6-5.9-7.3-6-7.4C351.7,23.8,347.2,20.6,351.5,18.4"/>
	<path id="XMLID_486_" class="st12" d="M351.3,18.3c-4.3,2.2,0.2,5.4,0.2,5.4c0.1,0,3.3,2.7,6,7.4c2,3.4,2.3,7,2.7,10.9
		c0,0,0.3,4,0.1,5l5.1-0.8c0.1-6.6-1.1-13.1-3.3-19.2C362.2,27,358.2,17.9,351.3,18.3L351.3,18.3"/>
	<path id="XMLID_485_" class="st14" d="M339.2,18.4L339.2,18.4c-6-0.4-9.8,6.7-10.6,8.4c-0.1,0.2-0.2,0.4-0.3,0.6
		c-2.1,6-3.2,12.4-3.1,18.9c0,1.3,0,3,0.1,4.8c0,0.6,0.1,1.2,0.2,1.7c0,0.3,0.1,0.5,0.2,0.8c0.3,1,1.2,3,3.1,2.6
		c0.6-0.1,1.1-0.6,1.4-1.2c0.5-1,0.7-2.1,0.5-3.2c-0.3-1.6-0.4-3.2-0.4-4.8c-0.1-2.9,0.1-4.9,0.1-4.9c0.4-3.9,0.7-7.5,2.7-10.9
		c2.7-4.6,5.9-7.3,6-7.4C338.9,23.8,343.4,20.6,339.2,18.4"/>
	<path id="XMLID_484_" class="st12" d="M339.5,18.2c4.3,2.2-0.2,5.5-0.2,5.5c-0.1,0-3.3,2.7-6.1,7.4c-2,3.4-2.4,7-2.7,10.9
		c0,0-0.3,4-0.1,5l-5.2-0.8c-0.1-6.6,1.1-13.1,3.3-19.2C328.4,27,332.5,17.8,339.5,18.2L339.5,18.2"/>
	<g id="shirt_20_">
		<path id="torso_18_" class="st6" d="M353.5,20.6c-1.3-1.8-5.8-4.6-8.1-3.8c-2.3-0.8-6.8,1.9-8.1,3.8c-1.9,2.7-4.3,7.3-3.8,29.3
			h11.9h0.1h11.8C357.9,28,355.5,23.3,353.5,20.6z"/>
		<path id="XMLID_483_" class="st7" d="M353.6,20.5c-1.3-1.8-5.8-4.6-8.2-3.8c-2.4-0.8-6.8,2-8.2,3.8c-1.9,2.7-4.3,7.4-3.8,29.7
			h11.9h0.1h11.9C357.9,27.9,355.5,23.2,353.6,20.5z"/>
		<g id="XMLID_480_">
			<path id="XMLID_482_" class="st12" d="M338.4,36.9c0-7.5,0.8-14.3,2.2-19.1c-1.5,0.8-2.8,1.8-3.4,2.7c-2,2.7-4.4,7.4-3.9,29.7h6
				C338.7,46.2,338.4,41.7,338.4,36.9z"/>
			<path id="XMLID_481_" class="st12" d="M353.6,20.5c-0.6-0.8-1.8-1.8-3.2-2.6c1.3,4.8,2.1,11.6,2.1,19c0,4.8-0.3,9.3-0.9,13.2h5.9
				C358,27.9,355.6,23.2,353.6,20.5z"/>
		</g>
		<polygon id="XMLID_479_" class="st15" points="350.4,18.1 357.8,20.1 352.8,50.2 350,50.2 		"/>
		<polygon id="XMLID_478_" class="st15" points="340.5,18.1 333.1,20.1 338,50.2 340.9,50.2 		"/>
	</g>
	<g id="XMLID_475_">
		<path id="XMLID_477_" class="st16" d="M362.5-0.1c0.3,1.7-1,3.2-2.7,3.4c-1.8,0.2-3.5-1.1-3.7-2.8c-0.3-1.7,1-3.2,2.7-3.4
			C360.5-3.1,362.2-1.8,362.5-0.1z"/>
		<path id="XMLID_476_" class="st16" d="M334.2,0.1c0,1.7-1.4,3.1-3.2,3.1s-3.3-1.3-3.3-3s1.4-3.1,3.2-3.1S334.2-1.6,334.2,0.1z"/>
	</g>
	<g id="XMLID_472_">
		<path id="XMLID_474_" class="st14" d="M345.6-18.4c-3.6,0.2-7.3,1.5-10,3.8c-4,3.4-5,10.5-4.8,16c0.6,16.9,11.4,17.4,14.9,17.8
			L345.6-18.4L345.6-18.4z"/>
		<path id="XMLID_473_" class="st14" d="M345.3-18.4c3.6,0.2,7.1,1.5,9.8,3.8c4,3.4,4.6,10.5,4.4,16c-0.4,7.4-2.8,17.9-14.1,17.8
			L345.3-18.4L345.3-18.4z"/>
	</g>
	<ellipse id="XMLID_471_" class="st16" cx="345.5" cy="5.3" rx="1.6" ry="1.7"/>
	<g id="hair_9_">
		<path id="hair_11_" class="st17" d="M359.8-7.3c0-1.4-0.3-3-0.6-4.3c-1-3.5-3.3-5.8-6.2-7.2c-3.6-1.7-11.4-2-15.6,0.1
			c-2.9,1.5-5.2,3.8-6.2,7.2c-0.4,1.3-0.6,2.9-0.6,4.3c0,1.5,0.6,4.7,0.6,4.7c0.8-5.4,3-6.7,6.4-6.3c2.8,0.3,4.8,2,7.8,1.8v-0.1
			c2.8,0,4.7-1.7,7.5-1.8c4.5-0.3,6.7,6.1,6.7,6.1C359.8-4.2,359.8-5.8,359.8-7.3z"/>
	</g>
	<path id="mouth_14_" class="st10" d="M349,9.4c-0.4-0.1-0.8,0.3-0.9,0.9c0,0.3-0.4,2.4-2.7,2.5c-2.4-0.1-2.7-2.2-2.7-2.5
		c-0.1-0.6-0.5-0.9-0.9-0.9c-0.4,0.1-0.7,0.6-0.7,1.1c0.1,1.5,1.2,4.1,4.2,4.3l0,0l0,0l0,0l0,0c3-0.2,4.1-2.8,4.2-4.3
		C349.7,10,349.4,9.4,349,9.4z"/>
	<circle id="XMLID_470_" class="st11" cx="338.7" cy="-0.5" r="2.6"/>
	<circle id="XMLID_469_" class="st11" cx="352" cy="-0.5" r="2.6"/>
	<path id="back-hair_3_" class="st18" d="M380.5,25l31.8-0.4c0,0-0.6-3.5,0.1-7.2c0.6-3.1,2.3-5.9,2.6-10.3
		c0.3-3.8-1.3-8.1-1.7-12.1c-0.4-4.2,0.5-8.1-1-11.6c-1.6-3.7-4.5-5.4-7.8-7.4c-2.6-1.6-5.2-3.8-9.2-3.8c-4.3,0-7.1,2.6-9.7,4.5
		c-2.8,2.1-5.4,3.6-6.7,7.2c-1.1,3.1,0.3,6.7,0,10.3c-0.3,3.4-2.2,6.8-2,10.2c0.3,4,2.5,7.2,3,10.5C381.1,20.5,380.5,25,380.5,25z"
		/>
	<g id="right-leg_12_">
		<g id="XMLID_412_">
			<path id="XMLID_414_" class="st19" d="M398.1,85.2h4.5c0,0,7.6,5.8,7,9.2h-11.8L398.1,85.2z"/>
			<path id="XMLID_413_" class="st20" d="M409,91.9c0.5,0.9,0.8,1.8,0.7,2.5h-11.8l0.1-2.5H409z"/>
		</g>
		<path id="XMLID_411_" class="st4" d="M409.1,48.4c0,0-0.6,4.3-1.4,10c-1.4,9.7-3.6,23.5-5.1,26.9c0,0,0,0.1-0.1,0.1H398
			c0,0,0.4-11.9,0.6-22.4c0-0.1,0-0.1,0-0.2c0.1-5.2,0.2-10,0.3-12.8c0-0.7,0-1.2,0-1.7h10.2V48.4z"/>
	</g>
	<g id="XMLID_408_">
		<path id="XMLID_410_" class="st19" d="M394.5,85.2H390c0,0-7.6,5.8-7,9.2h11.8L394.5,85.2z"/>
		<path id="XMLID_409_" class="st20" d="M383.7,91.9c-0.5,0.9-0.8,1.8-0.7,2.5h11.8l-0.1-2.5H383.7z"/>
	</g>
	<path id="XMLID_407_" class="st4" d="M394.6,85.4h-4.5c-1.5-3.2-3.7-17.3-5.2-27.2c-0.8-5.6-1.4-9.9-1.4-9.9h10.1c0,0.4,0,1,0,1.7
		c0,2.8,0.1,7.6,0.3,12.8c0,0.1,0,0.1,0,0.2C394.2,73.5,394.6,85.4,394.6,85.4z"/>
	<path id="XMLID_406_" class="st4" d="M409.1,48.3c0,0-0.2,1.9-0.7,4.8c-0.2,1-0.3,2.2-0.6,3.4c-0.7,0.6-1.7,1.2-2.6,1.7
		c-1.8,1-4.1,1.7-6.6,1.9c-0.7,0.1-1.5,0.1-2.3,0.1c-0.8,0-1.6,0-2.4-0.1c-1.9-0.2-3.7-0.7-5.3-1.4c-1.5-0.6-2.9-1.2-3.9-2.2
		c-0.2-1.2-0.4-2.4-0.6-3.4c-0.4-2.9-0.7-4.8-0.7-4.8h10.1c0,0,5.2-0.1,5.3,0H409.1z"/>
	<path id="XMLID_405_" class="st20" d="M409.1,48.3c0,0-0.2,1.9-0.7,4.8h-24.1c-0.4-2.9-0.7-4.8-0.7-4.8h10.1c0,0,5.2-0.1,5.3,0
		H409.1z"/>
	<path id="XMLID_402_" class="st5" d="M402.7,14.9L402.7,14.9c6.3-0.4,10.3,7.1,11.2,8.8c0.1,0.2,0.2,0.4,0.3,0.7
		c2.2,6.3,3.4,13.1,3.3,19.9c0,1.4,0,3.2-0.2,5c0,0.6-0.1,1.2-0.2,1.8c0,0.3-0.1,0.6-0.2,0.8c-0.3,1-1.2,3.1-3.3,2.7
		c-0.7-0.1-1.1-0.7-1.5-1.3c-0.5-1-0.7-2.2-0.5-3.4c0.3-1.7,0.4-3.3,0.5-5c0.1-3-0.1-5.1-0.1-5.1c-0.4-4.1-0.7-7.9-2.8-11.5
		c-2.8-4.9-6.2-7.7-6.3-7.8C402.9,20.7,398.3,17.2,402.7,14.9"/>
	<g id="XMLID_399_">
		<path id="XMLID_401_" class="st19" d="M415.1,27.1l-5.9,1.3c-0.3-0.5-0.6-1-1-1.5c-2.6-3.9-5.3-6.2-5.4-6.2c0,0-4.7-3.5-0.2-5.7
			c7.3-0.5,11.5,9.2,11.5,9.2c0.2,0.5,0.3,0.9,0.5,1.4C414.8,26,415,26.5,415.1,27.1z"/>
		<path id="XMLID_400_" class="st21" d="M415.1,27.1l-5.9,1.3c-0.3-0.5-0.6-1-1-1.5l6.4-1.4C414.8,26,415,26.5,415.1,27.1z"/>
	</g>
	<path id="XMLID_398_" class="st5" d="M389.7,14.9L389.7,14.9c-6.3-0.4-10.3,7.1-11.2,8.8c-0.1,0.2-0.2,0.4-0.3,0.7
		c-2.2,6.3-3.4,13.1-3.3,19.9c0,1.4,0,3.2,0.2,5c0,0.6,0.1,1.2,0.2,1.8c0,0.3,0.1,0.6,0.2,0.8c0.3,1,1.2,3.1,3.3,2.7
		c0.7-0.1,1.1-0.7,1.5-1.3c0.5-1,0.7-2.2,0.5-3.4c-0.3-1.7-0.4-3.3-0.5-5c-0.1-3,0.1-5.1,0.1-5.1c0.4-4.1,0.7-7.9,2.8-11.5
		c2.8-4.9,6.2-7.7,6.3-7.8C389.5,20.7,394.2,17.2,389.7,14.9"/>
	<g id="XMLID_395_">
		<path id="XMLID_397_" class="st19" d="M377.4,27l5.9,1.3c0.3-0.5,0.6-1,1-1.5c2.6-3.9,5.3-6.2,5.4-6.2c0,0,4.7-3.5,0.2-5.7
			c-7.3-0.5-11.5,9.2-11.5,9.2c-0.2,0.5-0.3,0.9-0.5,1.4C377.8,25.9,377.6,26.5,377.4,27z"/>
		<path id="XMLID_396_" class="st21" d="M377.4,27l5.9,1.3c0.3-0.5,0.6-1,1-1.5l-6.4-1.4C377.8,25.9,377.6,26.5,377.4,27z"/>
	</g>
	<g id="shirt_15_">
		<path id="torso_13_" class="st6" d="M404.9,17.3c-1.4-1.9-6.1-4.8-8.6-4c-2.5-0.8-7.2,2.1-8.6,4c-2,2.8-4.6,7.7-4,30.8h12.6h0.1
			h12.5C409.4,25,406.9,20.1,404.9,17.3z"/>
		<path id="XMLID_394_" class="st7" d="M404.9,17.1c-1.4-1.9-6.1-4.9-8.6-4c-2.5-0.9-7.2,2.1-8.6,4c-2,2.9-4.6,7.8-4,31.2h12.6h0.1
			h12.5C409.5,24.9,406.9,20,404.9,17.1z"/>
		<g id="XMLID_391_">
			<path id="XMLID_393_" class="st19" d="M388.9,34.4c0-7.9,0.9-15,2.3-20.1c-1.5,0.8-2.9,1.9-3.5,2.8c-2.1,2.9-4.7,7.8-4.1,31.2
				h6.4C389.3,44.2,388.9,39.5,388.9,34.4z"/>
			<path id="XMLID_392_" class="st19" d="M405,17.1c-0.6-0.9-1.9-1.9-3.4-2.7c1.4,5.1,2.2,12.2,2.2,20c0,5.1-0.4,9.8-1,13.9h6.2
				C409.6,24.9,407,20,405,17.1z"/>
		</g>
	</g>
	<path id="XMLID_390_" class="st21" d="M389.1,33.7c0,0,0.3-14.4,2.2-19.1l-4.6-1.5l1.2,18.9L389.1,33.7z"/>
	<path id="XMLID_389_" class="st21" d="M403.9,33.9c0,0-0.3-14.4-2.2-19.1l4.6-1.5l-1.2,18.9L403.9,33.9z"/>
	<g id="XMLID_386_">
		<path id="XMLID_388_" class="st8" d="M414.3-4.6c0.3,1.8-1,3.4-2.9,3.5c-1.9,0.2-3.6-1.1-3.9-2.9s1-3.4,2.9-3.5
			C412.2-7.6,414-6.3,414.3-4.6z"/>
		<path id="XMLID_387_" class="st8" d="M384.6-4.3c0,1.8-1.5,3.3-3.4,3.3s-3.5-1.4-3.5-3.2c0-1.8,1.5-3.3,3.4-3.3
			C383-7.5,384.5-6.1,384.6-4.3z"/>
	</g>
	<g id="XMLID_376_">
		<path id="XMLID_378_" class="st5" d="M396.5-23.8c-3.8,0.2-7.7,1.5-10.6,4c-4.2,3.6-5.3,11.1-5.1,16.9c0.7,17.8,12,18.4,15.6,18.7
			v-39.6H396.5z"/>
		<path id="XMLID_377_" class="st5" d="M396.3-23.8c3.8,0.2,7.5,1.5,10.3,4c4.2,3.6,4.9,11.1,4.6,16.9c-0.4,7.8-3,18.9-14.9,18.7
			L396.3-23.8L396.3-23.8z"/>
	</g>
	<ellipse id="XMLID_375_" class="st8" cx="396.4" cy="1.2" rx="1.7" ry="1.8"/>
	<path id="hair_7_" class="st18" d="M391-17.1c0,0,8.1,10.5,21.3,8.8c0,0,1.3-16-16.3-16S380.9-11,380.9-11S386.3-13.4,391-17.1z"/>
	<path id="mouth_11_" class="st10" d="M400.1,5.4c-0.5-0.1-0.9,0.3-0.9,0.9c0,0.3-0.4,2.5-2.9,2.6c-2.5-0.2-2.8-2.4-2.9-2.6
		c-0.1-0.6-0.5-1-0.9-0.9c-0.5,0.1-0.8,0.6-0.7,1.2c0.2,1.5,1.3,4.3,4.5,4.5l0,0l0,0l0,0l0,0c3.2-0.2,4.3-2.9,4.5-4.5
		C400.9,6,400.6,5.5,400.1,5.4z"/>
	<circle id="XMLID_374_" class="st11" cx="389.2" cy="-4.9" r="2.7"/>
	<circle id="XMLID_348_" class="st11" cx="403.3" cy="-4.9" r="2.7"/>
	<g id="right-leg_13_">
		<g id="XMLID_373_">
			<path id="XMLID_404_" class="st22" d="M451.5,87.5h4.9c0,0,8.2,6.4,7.6,10h-12.8L451.5,87.5z"/>
			<path id="XMLID_403_" class="st20" d="M463.3,94.8c0.6,1,0.9,1.9,0.7,2.7h-12.8l0.1-2.7H463.3z"/>
		</g>
		<path id="XMLID_372_" class="st23" d="M463.4,47.3c0,0-0.6,4.7-1.5,10.9c-1.5,10.6-3.9,25.6-5.5,29.3c0,0.1,0,0.1-0.1,0.2h-4.9
			c0,0,0.4-13,0.7-24.4c0-0.1,0-0.1,0-0.2c0.1-5.6,0.3-10.9,0.3-13.9c0-0.7,0-1.4,0-1.8h11V47.3z"/>
	</g>
	<g id="XMLID_369_">
		<path id="XMLID_371_" class="st22" d="M447.6,87.5h-4.9c0,0-8.2,6.4-7.6,10h12.8L447.6,87.5z"/>
		<path id="XMLID_370_" class="st20" d="M435.8,94.8c-0.6,1-0.9,1.9-0.7,2.7h12.8l-0.1-2.7H435.8z"/>
	</g>
	<path id="XMLID_368_" class="st23" d="M447.7,87.6h-4.9c-1.6-3.5-4.1-18.8-5.6-29.6c-0.9-6.1-1.5-10.7-1.5-10.7h11
		c0,0.5,0,1.1,0,1.8c0,3.1,0.2,8.3,0.3,13.9c0,0.1,0,0.1,0,0.2C447.3,74.7,447.7,87.6,447.7,87.6z"/>
	<path id="XMLID_367_" class="st23" d="M463.4,47.3c0,0-0.3,2.1-0.7,5.2c-0.2,1.1-0.4,2.3-0.6,3.7c-0.8,0.7-1.8,1.3-2.8,1.8
		c-2,1.1-4.5,1.8-7.2,2.1c-0.8,0.1-1.7,0.1-2.5,0.1c-0.9,0-1.8,0-2.6-0.1c-2.1-0.2-4-0.7-5.7-1.5c-1.6-0.7-3.1-1.4-4.2-2.4
		c-0.2-1.3-0.4-2.6-0.6-3.7c-0.5-3.1-0.7-5.2-0.7-5.2h11c0,0,5.7-0.1,5.8,0H463.4z"/>
	<path id="XMLID_366_" class="st24" d="M456.5,10.9L456.5,10.9c6.9-0.4,11.2,7.7,12.2,9.6c0.1,0.2,0.2,0.5,0.3,0.7
		c2.4,6.9,3.7,14.3,3.5,21.6c0,1.5,0,3.4-0.2,5.5c-0.1,0.7-0.1,1.3-0.2,2c0,0.3-0.1,0.6-0.2,0.9c-0.3,1.1-1.3,3.4-3.6,3
		c-0.7-0.1-1.2-0.7-1.6-1.4c-0.6-1.1-0.8-2.4-0.6-3.7c0.3-1.8,0.5-3.6,0.5-5.5c0.1-3.3-0.1-5.6-0.1-5.6c-0.4-4.4-0.8-8.6-3-12.5
		c-3.1-5.3-6.8-8.4-6.8-8.4C456.8,17.2,451.7,13.4,456.5,10.9"/>
	<g id="XMLID_363_">
		<path id="XMLID_365_" class="st25" d="M470.2,24.2l-6.7,1.4c-0.4-0.6-0.7-1.2-1.1-1.7c-2.9-4.4-6-6.9-6.1-7c0,0-5.3-3.9-0.3-6.4
			c8.2-0.5,12.9,10.2,12.9,10.2c0.2,0.5,0.4,1,0.5,1.6C469.9,23,470.1,23.6,470.2,24.2z"/>
		<path id="XMLID_364_" class="st26" d="M470.2,24.2l-6.7,1.4c-0.4-0.6-0.7-1.2-1.1-1.7l7.2-1.5C469.9,23,470.1,23.6,470.2,24.2z"/>
	</g>
	<path id="XMLID_362_" class="st24" d="M442.4,10.9L442.4,10.9c-6.9-0.4-11.2,7.7-12.2,9.6c-0.1,0.2-0.2,0.5-0.3,0.7
		c-2.4,6.9-3.7,14.3-3.5,21.6c0,1.5,0,3.4,0.2,5.5c0.1,0.7,0.1,1.3,0.2,2c0,0.3,0.1,0.6,0.2,0.9c0.3,1.1,1.3,3.4,3.6,3
		c0.7-0.1,1.2-0.7,1.6-1.4c0.6-1.1,0.8-2.4,0.6-3.7c-0.3-1.8-0.5-3.6-0.5-5.5c-0.1-3.3,0.1-5.6,0.1-5.6c0.4-4.4,0.8-8.6,3-12.5
		c3.1-5.3,6.8-8.4,6.8-8.4C442.2,17.2,447.3,13.4,442.4,10.9"/>
	<g id="XMLID_359_">
		<path id="XMLID_361_" class="st25" d="M428.7,24l6.9,1.4c0.4-0.6,0.7-1.2,1.1-1.7c3.1-4.5,6.2-7,6.3-7.1c0,0,5.5-3.9,0.3-6.5
			c-8.5-0.5-13.5,10.4-13.5,10.4c-0.2,0.5-0.4,1.1-0.6,1.6C429.1,22.8,428.9,23.4,428.7,24z"/>
		<path id="XMLID_360_" class="st26" d="M428.7,24.1l6.9,1.4c0.4-0.6,0.7-1.2,1.1-1.7l-7.5-1.5C429.1,22.9,428.9,23.5,428.7,24.1z"
			/>
	</g>
	<g id="shirt_16_">
		<path id="torso_14_" class="st6" d="M458.9,13.5c-1.5-2.1-6.6-5.2-9.3-4.3c-2.7-0.9-7.8,2.2-9.3,4.3c-2.2,3.1-5,8.4-4.3,33.6h13.6
			h0.1h13.6C463.8,21.9,461.1,16.6,458.9,13.5z"/>
		<path id="XMLID_358_" class="st25" d="M458.9,13.3c-1.5-2.1-6.6-5.3-9.3-4.4c-2.7-0.9-7.8,2.3-9.3,4.4c-2.2,3.1-5,8.5-4.4,34h13.6
			h0.1h13.6C463.9,21.8,461.1,16.4,458.9,13.3z"/>
	</g>
	<g id="XMLID_355_">
		<path id="XMLID_357_" class="st27" d="M469.1-10.3c0.3,1.9-1.1,3.7-3.1,3.9c-2,0.2-4-1.2-4.3-3.2c-0.3-1.9,1.1-3.7,3.1-3.9
			C466.9-13.6,468.8-12.2,469.1-10.3z"/>
		<path id="XMLID_356_" class="st27" d="M436.8-10c0,1.9-1.6,3.6-3.7,3.6c-2.1,0-3.8-1.5-3.8-3.5c0-1.9,1.6-3.6,3.7-3.6
			C435-13.5,436.7-11.9,436.8-10z"/>
	</g>
	<g id="XMLID_352_">
		<path id="XMLID_354_" class="st24" d="M449.8-31.2c-4.1,0.2-8.4,1.7-11.5,4.3c-4.5,3.9-5.8,12-5.5,18.4c0.7,19.4,13.1,20,17,20.4
			V-31.2z"/>
		<path id="XMLID_353_" class="st24" d="M449.5-31.2c4.1,0.2,8.1,1.7,11.2,4.3c4.5,3.9,5.3,12.1,5,18.4c-0.4,8.5-3.2,20.5-16.2,20.4
			V-31.2z"/>
	</g>
	<ellipse id="XMLID_351_" class="st27" cx="449.6" cy="-4" rx="1.8" ry="2"/>
	<path id="hair_5_" class="st28" d="M454.8-24c0,0-8.5,11.4-22.2,9.6c0,0-1.3-17.4,17-17.4c18.3,0,15.8,14.5,15.8,14.5
		S459.7-19.9,454.8-24z"/>
	<path id="mouth_10_" class="st29" d="M453.7,0.6c-0.5-0.1-1,0.4-1,1c0,0.3-0.4,2.7-3.1,2.9c-2.7-0.2-3.1-2.6-3.1-2.9
		c-0.1-0.6-0.5-1.1-1-1s-0.9,0.7-0.8,1.3c0.2,1.7,1.4,4.7,4.9,4.9l0,0c0,0,0,0,0.1,0c0,0,0,0,0.1,0l0,0c3.5-0.2,4.7-3.2,4.9-4.9
		C454.5,1.3,454.2,0.7,453.7,0.6z"/>
	<circle id="XMLID_350_" class="st11" cx="441.9" cy="-10.7" r="3"/>
	<circle id="XMLID_349_" class="st11" cx="457.1" cy="-10.7" r="3"/>
	<path id="XMLID_297_" class="st30" d="M273.5,162.5l34.8-0.4c0,0,14.7-57.3-18.4-57.3C257.4,104.8,273.5,162.5,273.5,162.5z"/>
	<g id="right-leg_8_">
		<g id="XMLID_294_">
			<path id="XMLID_296_" class="st31" d="M292.3,221.4h4.7c0,0,7.9,6.1,7.3,9.6H292L292.3,221.4z"/>
			<path id="XMLID_295_" class="st20" d="M303.6,228.4c0.5,0.9,0.8,1.8,0.7,2.6H292l0.1-2.6H303.6z"/>
		</g>
		<path id="XMLID_293_" class="st32" d="M303.7,182.9c0,0-0.6,4.5-1.4,10.4c-1.5,10.1-3.7,24.5-5.3,28.1c0,0,0,0.1-0.1,0.1h-4.7
			c0,0,0.4-12.5,0.6-23.4c0-0.1,0-0.1,0-0.2c0.1-5.4,0.3-10.4,0.3-13.4c0-0.7,0-1.3,0-1.7L303.7,182.9L303.7,182.9z"/>
	</g>
	<g id="XMLID_290_">
		<path id="XMLID_292_" class="st31" d="M288.5,221.4h-4.7c0,0-7.9,6.1-7.3,9.6h12.3L288.5,221.4z"/>
		<path id="XMLID_291_" class="st20" d="M277.2,228.4c-0.5,0.9-0.8,1.8-0.7,2.6h12.3l-0.1-2.6H277.2z"/>
	</g>
	<path id="XMLID_289_" class="st32" d="M288.6,221.5h-4.7c-1.6-3.3-3.9-18.1-5.4-28.4c-0.8-5.9-1.4-10.3-1.4-10.3h10.5
		c0,0.4,0,1,0,1.7c0,2.9,0.2,8,0.3,13.4c0,0.1,0,0.1,0,0.2C288.2,209.1,288.6,221.5,288.6,221.5z"/>
	<path id="XMLID_284_" class="st32" d="M303.7,182.8c0,0-0.2,2-0.7,5c-0.2,1.1-0.4,2.3-0.6,3.5c-0.7,0.7-1.7,1.2-2.7,1.7
		c-1.9,1-4.3,1.8-6.9,2c-0.8,0.1-1.6,0.1-2.4,0.1c-0.9,0-1.7,0-2.5-0.1c-2-0.2-3.9-0.7-5.5-1.4c-1.5-0.7-3-1.3-4.1-2.3
		c-0.2-1.3-0.4-2.5-0.6-3.6c-0.5-3-0.7-5-0.7-5h10.5c0,0,5.4-0.1,5.6,0L303.7,182.8C303.7,182.7,303.7,182.8,303.7,182.8z"/>
	<path id="XMLID_283_" class="st33" d="M297.1,147.9L297.1,147.9c6.6-0.4,10.8,7.4,11.7,9.2c0.1,0.2,0.2,0.5,0.3,0.7
		c2.3,6.6,3.5,13.7,3.4,20.8c0,1.4,0,3.3-0.2,5.2c0,0.6-0.1,1.3-0.2,1.9c0,0.3-0.1,0.6-0.2,0.9c-0.3,1.1-1.3,3.3-3.4,2.9
		c-0.7-0.1-1.2-0.7-1.5-1.3c-0.6-1.1-0.7-2.3-0.5-3.6c0.3-1.7,0.4-3.5,0.5-5.3c0.1-3.2-0.1-5.3-0.1-5.3c-0.4-4.3-0.8-8.3-2.9-12
		c-3-5.1-6.5-8-6.5-8.1C297.3,153.9,292.4,150.3,297.1,147.9"/>
	<path id="XMLID_282_" class="st33" d="M283.5,147.9L283.5,147.9c-6.6-0.4-10.8,7.4-11.7,9.2c-0.1,0.2-0.2,0.5-0.3,0.7
		c-2.3,6.6-3.5,13.7-3.4,20.8c0,1.4,0,3.3,0.2,5.2c0,0.6,0.1,1.3,0.2,1.9c0,0.3,0.1,0.6,0.2,0.9c0.3,1.1,1.3,3.3,3.4,2.9
		c0.7-0.1,1.2-0.7,1.5-1.3c0.6-1.1,0.7-2.3,0.5-3.6c-0.3-1.7-0.4-3.5-0.5-5.3c-0.1-3.2,0.1-5.3,0.1-5.3c0.4-4.3,0.8-8.3,2.9-12
		c3-5.1,6.5-8,6.5-8.1C283.3,153.9,288.2,150.3,283.5,147.9"/>
	<g id="shirt_10_">
		<path id="torso_9_" class="st6" d="M299.3,150.4c-1.4-2-6.4-5-8.9-4.1c-2.6-0.9-7.5,2.1-8.9,4.1c-2.1,3-4.8,8.1-4.2,32.2h13h0.1
			h13.1C304.1,158.5,301.4,153.3,299.3,150.4z"/>
		<path id="XMLID_281_" class="st34" d="M299.3,150.2c-1.4-2-6.4-5.1-9-4.2c-2.6-0.9-7.5,2.2-9,4.2c-2.1,3-4.8,8.2-4.2,32.6h13.2
			h0.1h13.1C304.1,158.4,301.5,153.2,299.3,150.2z"/>
	</g>
	<g id="shirt_9_">
		<path id="XMLID_280_" class="st5" d="M299.4,150.5c-1.5-2-6.4-5.1-9.1-4.2c-2.6-0.9-7.6,2.2-9,4.2H299.4z"/>
		<path id="XMLID_279_" class="st6" d="M303.7,180.3v0.3c0,0.8,0,1.5-0.1,2.3h-26.5c0-1.7-0.1-3.4-0.1-4.9
			c-0.1-10.8,0.6-17.1,1.5-21.2c0.1-0.3,0.1-0.5,0.2-0.7c0.2-0.8,0.4-1.6,0.7-2.2c0-0.1,0.1-0.2,0.1-0.4c0.1-0.2,0.1-0.4,0.2-0.5
			c0.5-1.2,1.1-2.1,1.6-2.8c0.6-0.9,1.9-1.9,3.3-2.8l0.2,0.2c1.6,1.6,3.7,2.4,5.7,2.4c2.1,0,4.2-0.8,5.8-2.4
			c1.3,0.8,2.5,1.8,3.1,2.6C301.5,153,304,157.9,303.7,180.3z"/>
		<path id="XMLID_278_" class="st35" d="M303.7,180.3v0.3c0,0.8,0,1.5-0.1,2.3v0.1h-26.5c0-0.6,0-1.2,0-1.8v-0.3
			c-0.2-12.6,0.5-19.7,1.5-24.1c0.1-0.3,0.1-0.5,0.2-0.7c0.2-0.8,0.4-1.6,0.7-2.2c0-0.1,0.1-0.2,0.1-0.4c0.1-0.2,0.1-0.4,0.2-0.5
			c0.5-1.2,1.1-2.1,1.6-2.8c0.6-0.9,1.9-1.9,3.3-2.8l0.2,0.2c1.6,1.6,3.7,2.4,5.7,2.4c2.1,0,4.2-0.8,5.8-2.4
			c1.3,0.8,2.5,1.8,3.1,2.6C301.5,153,304,157.9,303.7,180.3z"/>
		<g id="XMLID_275_">
			<polygon id="XMLID_277_" class="st36" points="296.6,163.9 297,152.3 290.8,156.3 290.7,156 284.6,151.7 284.5,163.3 
				290.8,159.3 			"/>
			<rect id="XMLID_276_" x="289.2" y="154.9" class="st37" width="3" height="5.6"/>
		</g>
		<path id="XMLID_274_" class="st38" d="M303.7,177.9v2.3v0.3v2.1c0,0.1,0,0.2,0,0.3l0,0v0.1h-26.5c0-0.6,0-1.2,0-1.8v-0.3V178l0,0
			L303.7,177.9z"/>
	</g>
	<g id="XMLID_271_">
		<path id="XMLID_273_" class="st8" d="M309.1,127.6c0.3,1.9-1.1,3.5-3,3.7c-2,0.2-3.8-1.2-4.1-3c-0.3-1.9,1.1-3.5,3-3.7
			C307,124.4,308.8,125.7,309.1,127.6z"/>
		<path id="XMLID_272_" class="st8" d="M278.1,127.9c0,1.9-1.5,3.4-3.5,3.4s-3.6-1.5-3.7-3.3c0-1.9,1.5-3.4,3.5-3.4
			C276.4,124.5,278.1,126,278.1,127.9z"/>
	</g>
	<g id="XMLID_268_">
		<path id="XMLID_270_" class="st33" d="M290.6,107.5c-4,0.2-8.1,1.6-11,4.2c-4.3,3.8-5.5,11.6-5.3,17.6
			c0.7,18.6,12.6,19.2,16.3,19.6V107.5z"/>
		<path id="XMLID_269_" class="st33" d="M290.3,107.5c4,0.2,7.8,1.6,10.8,4.2c4.3,3.8,5.1,11.6,4.8,17.6
			c-0.4,8.2-3.1,19.7-15.5,19.6v-41.4L290.3,107.5L290.3,107.5z"/>
	</g>
	<ellipse id="XMLID_267_" class="st8" cx="290.5" cy="133.6" rx="1.7" ry="1.9"/>
	<path id="XMLID_266_" class="st30" d="M282.8,115c0,0,10.1,8.1,22.9,6.6c0,0,1.3-14.9-15.9-14.9s-14.7,12.4-14.7,12.4
		S278.3,118.5,282.8,115z"/>
	<path id="mouth_7_" class="st10" d="M294.3,138c-0.5-0.1-0.9,0.4-1,1c0,0.3-0.4,2.6-3,2.8c-2.6-0.2-2.9-2.5-3-2.8
		c-0.1-0.6-0.5-1-1-1c-0.5,0.1-0.8,0.6-0.8,1.2c0.2,1.6,1.4,4.5,4.7,4.7l0,0l0,0l0,0l0,0c3.3-0.2,4.5-3.1,4.7-4.7
		C295.2,138.6,294.8,138.1,294.3,138z"/>
	<circle id="XMLID_265_" class="st11" cx="283" cy="127.2" r="2.8"/>
	<circle id="XMLID_259_" class="st11" cx="297.6" cy="127.2" r="2.8"/>
	<path id="XMLID_288_" class="st39" d="M379.7,165.2l33.9-0.4c0,0,14.3-55.8-18-55.8C364.1,109,379.7,165.2,379.7,165.2z"/>
	<g id="right-leg_9_">
		<g id="XMLID_285_">
			<path id="XMLID_287_" class="st31" d="M398,222.6h4.6c0,0,7.7,6,7.1,9.4h-12L398,222.6z"/>
			<path id="XMLID_286_" class="st20" d="M409.1,229.4c0.5,0.9,0.8,1.8,0.7,2.6h-12l0.1-2.6H409.1z"/>
		</g>
		<path id="XMLID_255_" class="st40" d="M409.1,185c0,0-0.6,4.4-1.4,10.2c-1.4,9.9-3.6,23.9-5.2,27.4c0,0,0,0.1-0.1,0.1h-4.6
			c0,0,0.4-12.1,0.6-22.8c0-0.1,0-0.1,0-0.2c0.1-5.3,0.3-10.2,0.3-13c0-0.7,0-1.3,0-1.7L409.1,185L409.1,185z"/>
	</g>
	<g id="XMLID_252_">
		<path id="XMLID_254_" class="st31" d="M394.3,222.6h-4.6c0,0-7.7,6-7.1,9.4h12L394.3,222.6z"/>
		<path id="XMLID_253_" class="st20" d="M383.3,229.4c-0.5,0.9-0.8,1.8-0.7,2.6h12l-0.1-2.6H383.3z"/>
	</g>
	<path id="XMLID_251_" class="st40" d="M394.4,222.7h-4.6c-1.5-3.2-3.8-17.6-5.3-27.7c-0.8-5.7-1.4-10-1.4-10h10.3c0,0.4,0,1,0,1.7
		c0,2.9,0.2,7.7,0.3,13c0,0.1,0,0.1,0,0.2C394.1,210.6,394.4,222.7,394.4,222.7z"/>
	<path id="XMLID_250_" class="st40" d="M409.1,185c0,0-0.2,2-0.7,4.9c-0.2,1-0.3,2.2-0.6,3.4c-0.7,0.7-1.7,1.2-2.6,1.7
		c-1.9,1-4.2,1.7-6.7,2c-0.8,0.1-1.6,0.1-2.4,0.1s-1.7,0-2.4-0.1c-2-0.2-3.8-0.7-5.4-1.4c-1.5-0.6-2.9-1.3-4-2.2
		c-0.2-1.3-0.4-2.4-0.6-3.5c-0.5-2.9-0.7-4.9-0.7-4.9h10.3c0,0,5.3-0.1,5.4,0H409.1z"/>
	<path id="XMLID_249_" class="st41" d="M402.7,151L402.7,151c6.4-0.4,10.5,7.2,11.4,9c0.1,0.2,0.2,0.5,0.3,0.7
		c2.2,6.4,3.5,13.3,3.3,20.2c0,1.4,0,3.2-0.2,5.1c0,0.6-0.1,1.2-0.2,1.9c0,0.3-0.1,0.6-0.2,0.9c-0.3,1.1-1.2,3.2-3.3,2.8
		c-0.7-0.1-1.1-0.7-1.5-1.3c-0.6-1.1-0.7-2.3-0.5-3.5c0.3-1.7,0.4-3.4,0.5-5.1c0.1-3.1-0.1-5.2-0.1-5.2c-0.4-4.2-0.7-8-2.8-11.7
		c-2.9-5-6.3-7.8-6.4-7.9C402.9,156.8,398.1,153.3,402.7,151"/>
	<g id="XMLID_246_">
		<path id="XMLID_248_" class="st42" d="M415.3,163.5l-6.1,1.3c-0.3-0.5-0.6-1.1-1-1.6c-2.7-4-5.4-6.3-5.5-6.3c0,0-4.8-3.5-0.2-5.8
			c7.4-0.5,11.7,9.3,11.7,9.3c0.2,0.5,0.3,1,0.5,1.4C415,162.3,415.2,162.9,415.3,163.5z"/>
		<path id="XMLID_247_" class="st43" d="M415.3,163.5l-6.1,1.3c-0.3-0.5-0.6-1.1-1-1.6l6.5-1.4C415,162.3,415.2,162.9,415.3,163.5z"
			/>
	</g>
	<path id="XMLID_245_" class="st41" d="M389.5,151L389.5,151c-6.4-0.4-10.5,7.2-11.4,9c-0.1,0.2-0.2,0.5-0.3,0.7
		c-2.2,6.4-3.5,13.3-3.3,20.2c0,1.4,0,3.2,0.2,5.1c0,0.6,0.1,1.2,0.2,1.9c0,0.3,0.1,0.6,0.2,0.9c0.3,1.1,1.2,3.2,3.3,2.8
		c0.7-0.1,1.1-0.7,1.5-1.3c0.6-1.1,0.7-2.3,0.5-3.5c-0.3-1.7-0.4-3.4-0.5-5.1c-0.1-3.1,0.1-5.2,0.1-5.2c0.4-4.2,0.7-8,2.8-11.7
		c2.9-5,6.3-7.8,6.4-7.9C389.2,156.8,394,153.3,389.5,151"/>
	<g id="XMLID_242_">
		<path id="XMLID_244_" class="st42" d="M377,163.4l6.1,1.3c0.3-0.5,0.6-1.1,1-1.6c2.7-4,5.4-6.3,5.5-6.3c0,0,4.8-3.5,0.2-5.8
			c-7.4-0.5-11.7,9.3-11.7,9.3c-0.2,0.5-0.3,1-0.5,1.4C377.3,162.3,377.1,162.8,377,163.4z"/>
		<path id="XMLID_243_" class="st43" d="M377,163.4l6.1,1.3c0.3-0.5,0.6-1.1,1-1.6l-6.5-1.4C377.3,162.3,377.1,162.8,377,163.4z"/>
	</g>
	<g id="shirt_11_">
		<path id="torso_10_" class="st6" d="M404.9,153.4c-1.4-2-6.2-4.9-8.7-4c-2.5-0.9-7.3,2.1-8.7,4c-2.1,2.9-4.6,7.9-4.1,31.4h12.7
			h0.1h12.7C409.5,161.3,406.9,156.3,404.9,153.4z"/>
		<path id="XMLID_241_" class="st42" d="M404.9,153.3c-1.4-2-6.2-5-8.7-4.1c-2.5-0.9-7.3,2.1-8.7,4.1c-2.1,2.9-4.7,7.9-4.1,31.8
			h12.8h0.1h12.8C409.5,161.2,407,156.2,404.9,153.3z"/>
	</g>
	<g id="XMLID_238_">
		<path id="XMLID_240_" class="st44" d="M414.4,131.2c0.3,1.8-1,3.4-2.9,3.6s-3.7-1.1-4-3c-0.3-1.8,1-3.4,2.9-3.6
			C412.4,128,414.2,129.4,414.4,131.2z"/>
		<path id="XMLID_239_" class="st44" d="M384.2,131.5c0,1.8-1.5,3.3-3.4,3.3s-3.5-1.4-3.6-3.3c0-1.8,1.5-3.3,3.4-3.3
			C382.6,128.2,384.2,129.6,384.2,131.5z"/>
	</g>
	<g id="XMLID_235_">
		<path id="XMLID_237_" class="st41" d="M396.4,111.6c-3.9,0.2-7.9,1.6-10.7,4.1c-4.2,3.7-5.4,11.3-5.2,17.2
			c0.7,18.1,12.3,18.7,15.9,19.1V111.6L396.4,111.6z"/>
		<path id="XMLID_236_" class="st41" d="M396.1,111.6c3.9,0.2,7.6,1.6,10.5,4.1c4.2,3.7,4.9,11.3,4.7,17.2c-0.4,8-3,19.2-15.1,19.1
			L396.1,111.6L396.1,111.6L396.1,111.6z"/>
	</g>
	<ellipse id="XMLID_234_" class="st44" cx="396.2" cy="137" rx="1.7" ry="1.9"/>
	<path id="XMLID_233_" class="st39" d="M388.8,118.9c0,0,9.8,7.9,22.3,6.4c0,0,1.2-14.5-15.4-14.5c-16.7,0-14.4,12.1-14.4,12.1
		S384.4,122.3,388.8,118.9z"/>
	<path id="mouth_6_" class="st44" d="M400,141.4c-0.5-0.1-0.9,0.3-1,0.9c0,0.3-0.4,2.5-2.9,2.7c-2.5-0.2-2.9-2.4-2.9-2.7
		c-0.1-0.6-0.5-1-1-0.9s-0.8,0.6-0.7,1.2c0.2,1.6,1.3,4.4,4.5,4.6l0,0l0,0l0,0l0,0c3.2-0.2,4.4-3,4.5-4.6
		C400.8,142,400.5,141.4,400,141.4z"/>
	<circle id="XMLID_232_" class="st43" cx="389" cy="130.8" r="2.8"/>
	<circle id="XMLID_231_" class="st43" cx="403.2" cy="130.8" r="2.8"/>
	<g id="right-leg_4_">
		<g id="XMLID_173_">
			<path id="XMLID_175_" class="st34" d="M347.2,223.5h4.5c0,0,7.5,5.8,7,9.1H347L347.2,223.5z"/>
			<path id="XMLID_174_" class="st20" d="M358,230.2c0.5,0.9,0.8,1.8,0.7,2.5H347l0.1-2.5H358z"/>
		</g>
		<path id="XMLID_172_" class="st45" d="M358.1,186.9c0,0-0.6,4.3-1.4,9.9c-1.4,9.6-3.6,23.3-5.1,26.7c0,0,0,0.1-0.1,0.1H347
			c0,0,0.4-11.8,0.6-22.3c0-0.1,0-0.1,0-0.2c0.1-5.2,0.2-9.9,0.3-12.7c0-0.7,0-1.2,0-1.7h10.2V186.9z"/>
	</g>
	<g id="XMLID_169_">
		<path id="XMLID_171_" class="st34" d="M343.6,223.5h-4.5c0,0-7.5,5.8-7,9.1h11.7L343.6,223.5z"/>
		<path id="XMLID_170_" class="st20" d="M332.9,230.2c-0.5,0.9-0.8,1.8-0.7,2.5h11.7l-0.1-2.5H332.9z"/>
	</g>
	<path id="XMLID_168_" class="st45" d="M343.7,223.6h-4.4c-1.5-3.2-3.7-17.2-5.1-27c-0.8-5.6-1.4-9.8-1.4-9.8h10c0,0.4,0,1,0,1.7
		c0,2.8,0.1,7.6,0.3,12.7c0,0.1,0,0.1,0,0.2C343.4,211.8,343.7,223.6,343.7,223.6z"/>
	<path id="XMLID_167_" class="st45" d="M358.1,186.8c0,0-0.2,1.9-0.7,4.8c-0.2,1-0.3,2.1-0.6,3.4c-0.7,0.6-1.6,1.2-2.6,1.7
		c-1.8,1-4.1,1.7-6.5,1.9c-0.7,0.1-1.5,0.1-2.3,0.1c-0.8,0-1.6,0-2.4-0.1c-1.9-0.2-3.7-0.7-5.2-1.3c-1.5-0.6-2.9-1.2-3.9-2.2
		c-0.2-1.2-0.4-2.4-0.6-3.4c-0.4-2.8-0.7-4.8-0.7-4.8h10c0,0,5.2-0.1,5.3,0h10.2V186.8z"/>
	<path id="XMLID_166_" class="st20" d="M358.1,186.8c0,0-0.2,1.9-0.7,4.8h-24c-0.4-2.8-0.7-4.8-0.7-4.8h10c0,0,5.2-0.1,5.3,0H358.1z
		"/>
	<path id="XMLID_162_" class="st46" d="M351.8,153.6L351.8,153.6c6.3-0.4,10.3,7,11.1,8.8c0.1,0.2,0.2,0.4,0.3,0.7
		c2.2,6.3,3.4,13,3.2,19.7c0,1.3,0,3.1-0.2,5c0,0.6-0.1,1.2-0.2,1.8c0,0.3-0.1,0.6-0.2,0.8c-0.3,1-1.2,3.1-3.2,2.7
		c-0.7-0.1-1.1-0.7-1.4-1.3c-0.5-1-0.7-2.2-0.5-3.4c0.3-1.7,0.4-3.3,0.5-5c0.1-3-0.1-5.1-0.1-5.1c-0.4-4.1-0.7-7.9-2.8-11.4
		c-2.8-4.9-6.2-7.7-6.2-7.7C352,159.3,347.4,155.9,351.8,153.6"/>
	<g id="XMLID_159_">
		<path id="XMLID_161_" class="st34" d="M364.1,165.7l-5.9,1.2c-0.3-0.5-0.6-1-1-1.5c-2.6-3.9-5.3-6.1-5.4-6.2c0,0-4.7-3.4-0.2-5.7
			c7.2-0.4,11.5,9.1,11.5,9.1c0.2,0.5,0.3,0.9,0.5,1.4C363.8,164.6,364,165.2,364.1,165.7z"/>
		<path id="XMLID_160_" class="st47" d="M364.1,165.7l-5.9,1.2c-0.3-0.5-0.6-1-1-1.5l6.3-1.4C363.8,164.6,364,165.2,364.1,165.7z"/>
	</g>
	<path id="XMLID_158_" class="st46" d="M338.9,153.6L338.9,153.6c-6.3-0.4-10.3,7-11.1,8.8c-0.1,0.2-0.2,0.4-0.3,0.7
		c-2.2,6.3-3.4,13-3.2,19.7c0,1.3,0,3.1,0.2,5c0,0.6,0.1,1.2,0.2,1.8c0,0.3,0.1,0.6,0.2,0.8c0.3,1,1.2,3.1,3.2,2.7
		c0.7-0.1,1.1-0.7,1.4-1.3c0.5-1,0.7-2.2,0.5-3.4c-0.3-1.7-0.4-3.3-0.5-5c-0.1-3,0.1-5.1,0.1-5.1c0.4-4.1,0.7-7.9,2.8-11.4
		c2.8-4.9,6.2-7.7,6.2-7.7C338.7,159.3,343.3,155.9,338.9,153.6"/>
	<g id="XMLID_155_">
		<path id="XMLID_157_" class="st34" d="M326.7,165.7l5.9,1.2c0.3-0.5,0.6-1,1-1.5c2.6-3.9,5.3-6.1,5.4-6.2c0,0,4.7-3.4,0.2-5.7
			c-7.2-0.4-11.5,9.1-11.5,9.1c-0.2,0.5-0.3,0.9-0.5,1.4C327,164.6,326.8,165.1,326.7,165.7z"/>
		<path id="XMLID_156_" class="st47" d="M326.7,165.7l5.9,1.2c0.3-0.5,0.6-1,1-1.5l-6.3-1.4C327,164.6,326.8,165.1,326.7,165.7z"/>
	</g>
	<g id="shirt_5_">
		<path id="torso_5_" class="st6" d="M353.9,156c-1.4-1.9-6-4.8-8.5-3.9c-2.5-0.8-7.1,2-8.5,3.9c-2,2.8-4.5,7.7-4,30.7h12.4h0.1
			h12.4C358.5,163.6,356,158.8,353.9,156z"/>
		<path id="XMLID_154_" class="st34" d="M354,155.8c-1.4-1.9-6.1-4.8-8.5-4c-2.5-0.8-7.1,2.1-8.5,4c-2,2.8-4.5,7.8-4,31h12.5h0.1
			h12.5C358.5,163.6,356,158.7,354,155.8z"/>
	</g>
	<g id="XMLID_151_">
		<path id="XMLID_153_" class="st48" d="M363.3,134.3c0.3,1.8-1,3.3-2.9,3.5s-3.6-1.1-3.9-2.9s1-3.3,2.9-3.5
			C361.2,131.2,363,132.5,363.3,134.3z"/>
		<path id="XMLID_152_" class="st48" d="M333.8,134.5c0,1.8-1.5,3.2-3.3,3.3c-1.9,0-3.4-1.4-3.5-3.2c0-1.8,1.5-3.2,3.3-3.3
			C332.2,131.3,333.7,132.8,333.8,134.5z"/>
	</g>
	<g id="XMLID_148_">
		<path id="XMLID_150_" class="st46" d="M345.6,115.1c-3.8,0.2-7.7,1.5-10.5,4c-4.1,3.6-5.3,11-5.1,16.8c0.7,17.7,12,18.2,15.5,18.6
			v-39.4H345.6z"/>
		<path id="XMLID_149_" class="st46" d="M345.4,115.1c3.8,0.2,7.4,1.5,10.2,4c4.1,3.6,4.8,11,4.6,16.8c-0.4,7.8-3,18.7-14.8,18.6
			V115.1L345.4,115.1z"/>
	</g>
	<ellipse id="XMLID_147_" class="st48" cx="345.5" cy="140" rx="1.7" ry="1.8"/>
	<path id="hair_3_" class="st49" d="M345.6,109.5c-0.3,0-1.7,0.9-3.5,1.3c-0.8,0.2-1.6-0.8-2.5-0.5c-1,0.4-2,2.2-3,2.8
		s-2.1,0.8-3,1.7c-0.6,0.6-0.8,1.9-1.3,2.6c-0.6,1-1.6,1.4-2,2.6c-0.3,0.9-0.2,2.4-0.4,3.4c-0.2,0.9-1.2,1.7-1.2,2.7
		c0,0.8,0.8,1.7,0.9,2.5l1.7,4c-0.3-2.3,2.2-5,3-5.9c4.1-4.2,9.4-1.6,13.3,0.2c3,1.4,5.4,0.2,8.6-1c0.8-0.3,1.5,1.9,1.9,2.6
		c1.4,2.2,1.6,4.1,1.6,4.1l1.7-4c0-1.2,0.9-3.1,0.8-4.1c-0.1-1.2-1.2-1.7-1.5-2.7c-0.3-1.2,0.2-2.9-0.4-3.9c-0.5-1-2-1.3-2.7-2.1
		c-0.5-0.6-0.9-2.1-1.5-2.6c-0.9-0.8-2.1-0.5-3.1-1s-1.7-1.9-2.6-2.2c-1-0.3-2.3,0.4-3.1,0.3C346.4,110.3,345.8,109.4,345.6,109.5z"
		/>
	<path id="mouth_3_" class="st10" d="M349.2,144.2c-0.5-0.1-0.9,0.3-0.9,0.9c0,0.3-0.4,2.5-2.8,2.6c-2.5-0.1-2.8-2.3-2.8-2.6
		c-0.1-0.6-0.5-1-0.9-0.9c-0.5,0.1-0.8,0.6-0.7,1.2c0.2,1.5,1.3,4.3,4.4,4.5l0,0l0,0l0,0l0,0c3.2-0.2,4.3-2.9,4.4-4.5
		C350,144.8,349.7,144.3,349.2,144.2z"/>
	<circle id="XMLID_146_" class="st11" cx="338.4" cy="133.9" r="2.7"/>
	<circle id="XMLID_145_" class="st11" cx="352.3" cy="133.9" r="2.7"/>
	<path id="back-hair_2_" class="st50" d="M436.5,166.8l30.2-0.4c0,0-0.5-3.4,0.1-6.8c0.5-2.9,2.2-5.6,2.5-9.8
		c0.3-3.6-1.2-7.7-1.6-11.5c-0.3-4,0.5-7.7-0.9-11.1c-1.5-3.5-4.3-5.1-7.4-7c-2.5-1.5-4.9-3.6-8.7-3.6c-4.1,0-6.7,2.5-9.2,4.3
		c-2.7,2-5.1,3.5-6.3,6.8c-1.1,2.9,0.3,6.4,0,9.8c-0.2,3.3-2.1,6.4-1.9,9.7c0.3,3.8,2.4,6.9,2.9,10
		C437.1,162.5,436.5,166.8,436.5,166.8z"/>
	<g id="right-leg_5_">
		<g id="XMLID_163_">
			<path id="XMLID_165_" class="st51" d="M453.3,223.9h4.3c0,0,7.2,5.6,6.7,8.7h-11.2L453.3,223.9z"/>
			<path id="XMLID_164_" class="st20" d="M463.6,230.3c0.5,0.9,0.7,1.7,0.6,2.4H453l0.1-2.4H463.6z"/>
		</g>
		<path id="XMLID_133_" class="st19" d="M463.7,188.9c0,0-0.5,4.1-1.3,9.5c-1.3,9.2-3.4,22.3-4.8,25.5c0,0,0,0.1-0.1,0.1h-4.3
			c0,0,0.3-11.3,0.6-21.3v-0.1c0.1-4.9,0.2-9.5,0.3-12.2c0-0.6,0-1.2,0-1.6h9.6V188.9z"/>
	</g>
	<g id="XMLID_130_">
		<path id="XMLID_132_" class="st51" d="M449.8,223.9h-4.3c0,0-7.2,5.6-6.7,8.7H450L449.8,223.9z"/>
		<path id="XMLID_131_" class="st20" d="M439.5,230.3c-0.5,0.9-0.7,1.7-0.6,2.4h11.2l-0.1-2.4H439.5z"/>
	</g>
	<path id="XMLID_129_" class="st19" d="M449.9,224.1h-4.3c-1.4-3-3.6-16.4-4.9-25.8c-0.8-5.3-1.3-9.4-1.3-9.4h9.6c0,0.4,0,0.9,0,1.6
		c0,2.7,0.1,7.2,0.3,12.1c0,0.1,0,0.1,0,0.2C449.6,212.8,449.9,224.1,449.9,224.1z"/>
	<path id="XMLID_128_" class="st19" d="M463.7,188.9c0,0-0.2,1.8-0.6,4.6c-0.2,1-0.3,2-0.5,3.2c-0.7,0.6-1.6,1.1-2.4,1.6
		c-1.7,0.9-3.9,1.6-6.2,1.8c-0.7,0.1-1.4,0.1-2.2,0.1c-0.8,0-1.5,0-2.3-0.1c-1.8-0.2-3.5-0.6-5-1.3c-1.4-0.6-2.7-1.2-3.7-2.1
		c-0.2-1.2-0.4-2.3-0.5-3.3c-0.4-2.7-0.6-4.6-0.6-4.6h9.6c0,0,4.9-0.1,5,0L463.7,188.9L463.7,188.9z"/>
	<path id="XMLID_127_" class="st52" d="M463.7,188.9c0,0-0.2,1.8-0.6,4.6h-22.9c-0.4-2.7-0.6-4.6-0.6-4.6h9.6c0,0,4.9-0.1,5,0H463.7
		z"/>
	<path id="XMLID_126_" class="st53" d="M457.6,157.2L457.6,157.2c6-0.4,9.8,6.7,10.6,8.4c0.1,0.2,0.2,0.4,0.3,0.6
		c2.1,6,3.2,12.4,3.1,18.9c0,1.3,0,3-0.1,4.8c0,0.6-0.1,1.2-0.2,1.7c0,0.3-0.1,0.5-0.2,0.8c-0.3,1-1.2,3-3.1,2.6
		c-0.6-0.1-1.1-0.6-1.4-1.2c-0.5-1-0.7-2.1-0.5-3.2c0.3-1.6,0.4-3.2,0.4-4.8c0.1-2.9-0.1-4.9-0.1-4.9c-0.4-3.9-0.7-7.5-2.7-10.9
		c-2.7-4.6-5.9-7.3-5.9-7.4C457.8,162.6,453.4,159.3,457.6,157.2"/>
	<g id="XMLID_123_">
		<path id="XMLID_125_" class="st54" d="M469.4,168.7l-5.6,1.2c-0.3-0.5-0.6-1-0.9-1.5c-2.5-3.7-5.1-5.9-5.1-5.9s-4.5-3.3-0.2-5.4
			c6.9-0.4,11,8.7,11,8.7c0.2,0.4,0.3,0.9,0.5,1.3C469.1,167.7,469.3,168.2,469.4,168.7z"/>
		<path id="XMLID_124_" class="st55" d="M469.4,168.7l-5.6,1.2c-0.3-0.5-0.6-1-0.9-1.5l6.1-1.3C469.1,167.7,469.3,168.2,469.4,168.7
			z"/>
	</g>
	<path id="XMLID_122_" class="st53" d="M445.3,157.2L445.3,157.2c-6-0.4-9.8,6.7-10.6,8.4c-0.1,0.2-0.2,0.4-0.3,0.6
		c-2.1,6-3.2,12.4-3.1,18.9c0,1.3,0,3,0.1,4.8c0,0.6,0.1,1.2,0.2,1.7c0,0.3,0.1,0.5,0.2,0.8c0.3,1,1.2,3,3.1,2.6
		c0.6-0.1,1.1-0.6,1.4-1.2c0.5-1,0.7-2.1,0.5-3.2c-0.3-1.6-0.4-3.2-0.4-4.8c-0.1-2.9,0.1-4.9,0.1-4.9c0.4-3.9,0.7-7.5,2.7-10.9
		c2.7-4.6,5.9-7.3,5.9-7.4C445.1,162.6,449.5,159.3,445.3,157.2"/>
	<g id="XMLID_119_">
		<path id="XMLID_121_" class="st54" d="M433.6,168.7l5.6,1.2c0.3-0.5,0.6-1,0.9-1.5c2.5-3.7,5.1-5.9,5.1-5.9s4.5-3.3,0.2-5.4
			c-6.9-0.4-11,8.7-11,8.7c-0.2,0.4-0.3,0.9-0.5,1.3C433.9,167.6,433.8,168.2,433.6,168.7z"/>
		<path id="XMLID_120_" class="st55" d="M433.6,168.7l5.6,1.2c0.3-0.5,0.6-1,0.9-1.5l-6.1-1.3C433.9,167.6,433.8,168.2,433.6,168.7z
			"/>
	</g>
	<g id="shirt_6_">
		<path id="torso_6_" class="st6" d="M459.7,159.4c-1.3-1.8-5.8-4.6-8.1-3.8c-2.3-0.8-6.8,1.9-8.1,3.8c-1.9,2.7-4.3,7.3-3.8,29.3
			h11.9h0.1h11.9C464,166.8,461.6,162.1,459.7,159.4z"/>
		<path id="XMLID_118_" class="st54" d="M459.7,159.3c-1.3-1.8-5.8-4.6-8.1-3.8c-2.3-0.8-6.8,2-8.1,3.8c-1.9,2.7-4.3,7.4-3.8,29.6
			h11.9h0.1h11.9C464,166.7,461.6,162,459.7,159.3z"/>
	</g>
	<g id="XMLID_115_">
		<path id="XMLID_117_" class="st8" d="M468.6,138.7c0.3,1.7-1,3.2-2.7,3.4c-1.8,0.2-3.5-1.1-3.7-2.8c-0.3-1.7,1-3.2,2.7-3.4
			C466.7,135.8,468.3,137,468.6,138.7z"/>
		<path id="XMLID_116_" class="st8" d="M440.4,138.9c0,1.7-1.4,3.1-3.2,3.1c-1.8,0-3.3-1.3-3.3-3s1.4-3.1,3.2-3.1
			C438.9,135.9,440.3,137.2,440.4,138.9z"/>
	</g>
	<g id="XMLID_112_">
		<path id="XMLID_114_" class="st53" d="M451.7,120.4c-3.6,0.2-7.3,1.5-10,3.8c-4,3.4-5,10.5-4.8,16c0.6,16.9,11.4,17.4,14.8,17.8
			V120.4z"/>
		<path id="XMLID_113_" class="st53" d="M451.5,120.4c3.6,0.2,7.1,1.5,9.8,3.8c4,3.4,4.6,10.5,4.4,16c-0.4,7.4-2.8,17.9-14.1,17.8
			L451.5,120.4L451.5,120.4z"/>
	</g>
	<ellipse id="XMLID_111_" class="st8" cx="451.6" cy="144.1" rx="1.6" ry="1.7"/>
	<path id="hair_2_" class="st50" d="M446.5,126.7c0,0,7.7,10,20.2,8.4c0,0,1.2-15.1-15.5-15.1s-14.4,12.6-14.4,12.6
		S442.1,130.3,446.5,126.7z"/>
	<path id="mouth_2_" class="st10" d="M455.1,148.2c-0.4-0.1-0.8,0.3-0.9,0.9c0,0.3-0.4,2.4-2.7,2.5c-2.4-0.1-2.7-2.2-2.7-2.5
		c-0.1-0.6-0.5-0.9-0.9-0.9c-0.4,0.1-0.7,0.6-0.7,1.1c0.1,1.5,1.2,4.1,4.2,4.3l0,0l0,0l0,0l0,0c3-0.2,4.1-2.8,4.2-4.3
		C455.9,148.8,455.6,148.2,455.1,148.2z"/>
	<circle id="XMLID_110_" class="st11" cx="444.8" cy="138.3" r="2.6"/>
	<circle id="XMLID_109_" class="st11" cx="458.1" cy="138.3" r="2.6"/>
</g>
</svg>
