<?xml version="1.0" encoding="utf-8"?>
<!-- Generator: Adobe Illustrator 19.0.1, SVG Export Plug-In . SVG Version: 6.00 Build 0)  -->
<svg version="1.1" id="button" xmlns="http://www.w3.org/2000/svg" xmlns:xlink="http://www.w3.org/1999/xlink" x="0px" y="0px"
	 viewBox="0 0 294.7 134.3" style="enable-background:new 0 0 294.7 134.3;" xml:space="preserve">
<style type="text/css">
	.st0{fill:#EC202F;}
	.st1{fill:#FFFFFF;}
	.st2{fill:none;}
</style>
<g>
	<path class="st0" d="M282.7,97H12C5.4,97,0,91.6,0,85V17C0,10.4,5.4,5,12,5h270.7c6.6,0,12,5.4,12,12v68
		C294.7,91.6,289.3,97,282.7,97z"/>
	<g>
		<g>
			<path class="st1" d="M197.8,130.5c-1.1,0-2.2-0.7-2.7-1.7l-24-48.4c-0.6-1.1-0.3-2.5,0.5-3.4c0.6-0.6,1.3-0.9,2.2-0.9
				c0.4,0,0.9,0.1,1.3,0.3l49.6,22.8c1.2,0.6,1.9,1.8,1.7,3.1c-0.2,1.3-1.2,2.3-2.5,2.6l-20.8,3.5l-2.4,19.6
				c-0.2,1.3-1.2,2.4-2.5,2.6C198.2,130.5,198,130.5,197.8,130.5z"/>
			<path class="st0" d="M173.8,78.1c0.1,0,0.3,0,0.4,0.1l49.6,22.8c0.4,0.2,0.6,0.6,0.6,1c-0.1,0.4-0.4,0.8-0.8,0.9l-22.3,3.7
				l-2.5,21c-0.1,0.4-0.4,0.8-0.8,0.9c-0.1,0-0.1,0-0.2,0c-0.4,0-0.7-0.2-0.9-0.6l-24-48.4c-0.2-0.4-0.1-0.8,0.2-1.1
				C173.3,78.2,173.5,78.1,173.8,78.1 M173.8,74.1c-1.3,0-2.7,0.6-3.6,1.5c-1.5,1.5-1.8,3.8-0.9,5.7l24,48.4
				c0.8,1.7,2.6,2.8,4.5,2.8c0.3,0,0.6,0,0.9-0.1c2.1-0.4,3.8-2.1,4.1-4.3l2.2-18.1l19.3-3.2c2.2-0.4,3.8-2.1,4.1-4.3
				c0.3-2.2-0.9-4.3-2.9-5.2l-49.6-22.8C175.2,74.3,174.5,74.1,173.8,74.1L173.8,74.1z"/>
		</g>
		<g>
		</g>
		<g>
		</g>
		<g>
		</g>
		<g>
		</g>
		<g>
		</g>
		<g>
		</g>
		<g>
		</g>
		<g>
		</g>
		<g>
		</g>
		<g>
		</g>
		<g>
		</g>
		<g>
		</g>
		<g>
		</g>
		<g>
		</g>
		<g>
		</g>
	</g>
	<g>
		<rect y="36.7" class="st2" width="294.7" height="60.3"/>
		<path class="st1" d="M40.9,65.8V36.7h7.9c1.2,0,2.3,0.1,3.3,0.2s1.8,0.4,2.7,0.7s1.5,0.8,2.1,1.4s1,1.3,1.3,2.2s0.5,2,0.5,3.2
			c0,1.9-0.3,3.4-0.8,4.6s-1.4,2.1-2.8,2.7l4,14.1h-6.7l-3.2-13h-1.8v13H40.9z M47.4,49.1H49c1.3,0,2.2-0.3,2.8-1s0.8-1.7,0.8-3.1
			c0-1.3-0.2-2.3-0.7-3s-1.3-1-2.5-1h-2V49.1z"/>
		<path class="st1" d="M62.4,65.8V36.7h13.1v4.4h-6.7v7.2H74v4.5h-5.1v8.7h6.7v4.4H62.4z"/>
		<path class="st1" d="M86.1,66.2c-1.5,0-2.7-0.2-3.8-0.7s-1.9-1.2-2.5-2.1s-1.1-2-1.3-3.2s-0.4-2.6-0.4-4.1v-9.7
			c0-1.3,0.1-2.4,0.3-3.5s0.5-2,0.9-2.8s1-1.6,1.6-2.1s1.5-1,2.5-1.3s2.2-0.5,3.5-0.5c1.3,0,2.4,0.1,3.4,0.4s1.8,0.6,2.4,1.1
			s1.2,1.1,1.6,1.8s0.7,1.5,0.9,2.4s0.3,1.8,0.3,2.9v1.8h-6.3v-2.3c0-0.4,0-0.8,0-1.1s-0.1-0.6-0.1-0.9s-0.2-0.6-0.3-0.8
			S88.2,41.2,88,41s-0.6-0.2-1-0.2c-0.4,0-0.8,0.1-1,0.2s-0.5,0.3-0.7,0.6s-0.3,0.5-0.4,0.9s-0.1,0.7-0.2,1s0,0.7,0,1.1v13.3
			c0,1.2,0.2,2.1,0.5,2.8s1,1,1.9,1c1.7,0,2.5-1.3,2.5-3.9v-3.3H87v-3.8h8.5v15.2h-4.3l-0.4-2.4C90,65.3,88.4,66.2,86.1,66.2z"/>
		<path class="st1" d="M99.5,65.8V36.7h6.4v29.1H99.5z"/>
		<path class="st1" d="M118,66.2c-2.8,0-4.8-0.7-6.2-2.2s-2.1-3.8-2.2-7l5.5-0.8c0,1.8,0.2,3.2,0.7,4s1,1.2,1.9,1.2
			c1.1,0,1.6-0.7,1.6-2.1c0-0.8-0.1-1.5-0.4-2.2s-0.6-1.2-1-1.7s-1-1-1.7-1.7l-2.6-2.2c-0.6-0.5-1.1-1-1.5-1.5s-0.8-1-1.2-1.6
			s-0.7-1.3-0.9-2s-0.3-1.6-0.3-2.5c0-2.4,0.7-4.3,2.2-5.6s3.4-2,6-2c0.9,0,1.7,0.1,2.4,0.3s1.3,0.4,1.8,0.7s0.9,0.7,1.3,1.2
			s0.7,0.9,0.9,1.4s0.4,1,0.5,1.6s0.2,1.1,0.3,1.6s0.1,1,0.1,1.5l-5.6,0.7c0-0.5,0-0.9,0-1.2s0-0.7-0.1-1s-0.1-0.7-0.2-0.9
			s-0.2-0.4-0.3-0.6s-0.3-0.3-0.5-0.4s-0.4-0.1-0.7-0.1c-0.6,0-1,0.2-1.3,0.7s-0.4,1-0.4,1.6c0,0.6,0.1,1.1,0.2,1.5s0.4,0.9,0.7,1.3
			s0.6,0.7,0.8,0.9s0.6,0.5,1.1,1l2.5,2.2c0.7,0.6,1.3,1.2,1.8,1.7s1,1.2,1.4,1.9s0.8,1.5,1,2.3s0.3,1.8,0.3,2.7
			c0,2.1-0.7,3.9-2.1,5.2S120.3,66.2,118,66.2z"/>
		<path class="st1" d="M131.4,65.8V41.4H127v-4.8h15.4v4.8h-4.4v24.4H131.4z"/>
		<path class="st1" d="M144.8,65.8V36.7h13.1v4.4h-6.7v7.2h5.1v4.5h-5.1v8.7h6.7v4.4H144.8z"/>
		<path class="st1" d="M160.9,65.8V36.7h7.9c1.2,0,2.3,0.1,3.3,0.2s1.8,0.4,2.7,0.7s1.5,0.8,2.1,1.4s1,1.3,1.3,2.2s0.5,2,0.5,3.2
			c0,1.9-0.3,3.4-0.8,4.6s-1.4,2.1-2.8,2.7l4,14.1h-6.7l-3.2-13h-1.8v13H160.9z M167.3,49.1h1.7c1.3,0,2.2-0.3,2.8-1
			s0.8-1.7,0.8-3.1c0-1.3-0.2-2.3-0.7-3s-1.3-1-2.5-1h-2V49.1z"/>
		<path class="st1" d="M191.7,65.8V36.7h4.5l6,14v-14h5.3v29.1h-4.4l-6-15.1v15.1H191.7z"/>
		<path class="st1" d="M220.2,66.2c-1.6,0-3-0.2-4.1-0.6s-2.1-1.1-2.7-1.9s-1.2-1.8-1.5-3s-0.4-2.5-0.4-4.1V45.8
			c0-1.6,0.1-2.9,0.4-4.1s0.8-2.1,1.5-3s1.6-1.5,2.7-1.9s2.5-0.6,4.1-0.6c3.2,0,5.4,0.8,6.8,2.4s2,4,2,7.2v10.8c0,3.2-0.7,5.6-2,7.2
			S223.3,66.2,220.2,66.2z M219.2,61.5c0.3,0.1,0.6,0.2,1,0.2s0.7-0.1,1-0.2s0.5-0.3,0.7-0.5s0.3-0.5,0.4-0.8s0.1-0.6,0.2-0.9
			s0-0.6,0-1v-14c0-0.4,0-0.7,0-1s-0.1-0.6-0.2-0.9s-0.2-0.6-0.4-0.8s-0.4-0.4-0.7-0.5s-0.6-0.2-1-0.2s-0.7,0.1-1,0.2
			s-0.5,0.3-0.6,0.5s-0.3,0.5-0.4,0.8s-0.1,0.6-0.1,0.9s0,0.6,0,1v14c0,0.4,0,0.8,0,1s0.1,0.6,0.1,0.9s0.2,0.6,0.4,0.8
			S218.9,61.3,219.2,61.5z"/>
		<path class="st1" d="M235.2,65.8l-3.5-29.1h5.5l1.7,16.9l2.2-16.9h4.3l2.3,16.8l1.8-16.8h5.4l-3.5,29.1h-5.6l-2.5-17.6l-2.4,17.6
			H235.2z"/>
	</g>
</g>
<g>
</g>
<g>
</g>
<g>
</g>
<g>
</g>
<g>
</g>
<g>
</g>
</svg>
