<?xml version="1.0" encoding="utf-8"?>
<!-- Generator: Adobe Illustrator 19.0.1, SVG Export Plug-In . SVG Version: 6.00 Build 0)  -->
<svg version="1.1" id="logo" xmlns="http://www.w3.org/2000/svg" xmlns:xlink="http://www.w3.org/1999/xlink" x="0px" y="0px"
	 viewBox="0 0 445.9 61.5" style="enable-background:new 0 0 445.9 61.5;" xml:space="preserve">
<style type="text/css">
	.st0{fill:#2F2D2E;}
	.st1{fill:#F40C29;}
</style>
<path class="st0" d="M165.1,23.3c0-8.5,0-15.8,0-23.3c3.5,0,6.8,0,10.4,0c0,20.3,0,40.6,0,61.2c-2.8,0-5.5,0-8.5,0
	c-0.4-1.6-0.7-3.2-1.2-5.5c-4.1,4.5-8.8,7-14.7,6.5c-11.3-0.8-18.8-12.3-16.7-25.5c2.1-13.1,11.3-20.4,22.6-18.1
	C159.8,19.2,162.1,20.6,165.1,23.3z M164.8,40.3c0-1.8,0.2-3.7,0-5.5c-0.9-7.3-9.3-11-15-6.5c-3.6,2.8-4.6,6.8-4.9,11
	c-0.4,8.3,3.9,14.3,10.3,14.4C161.6,53.8,164.9,49.2,164.8,40.3z"/>
<path class="st0" d="M0,61.2C0,40.7,0,20.5,0,0c3.5,0,6.7,0,10.5,0c0,7.7,0,15.6,0,24.6c4-4.2,7.9-6.1,12.4-6.5
	c7.8-0.7,15.1,4.4,17.7,12.6c1.9,6.2,1.9,12.5-0.4,18.6C35.3,63,21.7,66.1,9.2,56.1c-0.2,1.8-0.3,3.3-0.5,5C5.7,61.6,3,61.5,0,61.2z
	 M31,40.1c-0.1-1.2-0.1-2.3-0.2-3.5c-0.9-6.4-5.2-10.3-10.9-9.9c-5.4,0.3-8.9,4.5-9.1,11c-0.1,2.2-0.1,4.3,0,6.5
	c0.2,5,3.3,8.7,7.8,9.6c4.8,0.9,9.2-1.6,11.2-6.3C30.7,45,31,42.6,31,40.1z"/>
<path class="st0" d="M226.1,40.1c-0.1,13.4-8.9,22.3-21.7,22.2c-12.8-0.2-21.3-9.1-21-22.2c0.3-13.3,9.2-22.2,22.1-21.9
	C218,18.3,226.2,27.1,226.1,40.1z M215,40.2c-0.1-2.5-0.2-4.9-1.2-7.3c-1.6-4-4.2-6.8-8.7-7c-4.7-0.1-7.7,2.6-9.3,6.8
	c-1.8,4.6-1.8,9.4-0.3,14.1c1.7,5.2,5.3,8.2,9.7,7.8c4.9-0.4,7.6-3.5,9-8C214.9,44.4,214.9,42.3,215,40.2z"/>
<path class="st0" d="M279.8,40.4c0-13.5,8.9-22.5,22-22.3c12.3,0.2,21,9.2,20.9,21.8c-0.1,13.2-8.8,22.2-21.6,22.3
	C288.4,62.4,279.8,53.5,279.8,40.4z M311.7,40.4c-0.3-3-0.6-5.8-1.8-8.4c-1.8-3.7-4.5-6.2-8.8-6c-4.3,0.1-7,2.6-8.7,6.3
	c-1.6,3.6-1.8,7.4-1.3,11.2c0.8,6.5,5,11.1,10.1,11.1c5,0.1,8.7-3.9,10-10.5C311.3,42.8,311.5,41.5,311.7,40.4z"/>
<path class="st0" d="M272,61.2c-3.9,0-7,0-10.6,0c0-6.9,0-13.5,0-20.1c0-2.2-0.1-4.3-0.4-6.5c-0.8-5.3-3.7-8-8.1-7.7
	c-4.6,0.2-8.2,3.9-8.3,9c-0.2,7.5-0.1,15-0.1,22.5c0,0.8-0.1,1.6-0.2,2.6c-3.4,1-6.6,0.2-10.3,0.5c0-14.2,0-28.1,0-42.2
	c2.7,0,5.5,0,8.5,0c0.2,1.6,0.4,3.2,0.8,5.5c3.5-3.2,6.7-5.7,11-6.4c9-1.4,16.2,4,17.4,13.5c0.3,2.1,0.2,4.3,0.2,6.5
	C272.1,45.9,272,53.4,272,61.2z"/>
<path class="st0" d="M434.8,33.6c-0.1-8.3-5.6-9.8-19.5-5.3c-0.6-1.9-1.3-3.9-2.1-6.3c7.8-4.2,15.8-5.5,23.9-2.2
	c7.4,3.1,8.8,9.8,8.7,17c-0.1,8,0,15.9,0,24.1c-2.5,0.9-5.3,0.2-7.8,0.3c-2-0.6-0.8-2.9-2.3-3.9c-3.1,2.4-6.2,4.3-10.2,4.7
	c-6.9,0.7-12.8-2.6-14.7-8.6c-2-6.4,0.6-12.8,6.6-16.2C422.9,34.4,428.9,33.9,434.8,33.6z M435.2,41c-3.8-0.7-7.6,0-10.9,1.9
	c-3.2,1.8-4.2,4.8-2.9,8.1c1.4,3.5,4.4,4.2,7.8,3.3C434.6,52.9,436.3,49.1,435.2,41z"/>
<path class="st1" d="M126.7,61.1c-2.8,0-5.4,0-8.2,0c-1.4-0.6-0.9-2.6-2.1-3.6c-2.9,2.4-6.1,4.2-9.8,4.7c-6.8,1-12.9-2.4-15-8.5
	c-2.2-6.5,0.9-13.5,7.3-16.7c5.2-2.6,10.9-2.8,16.4-3.4c2.2-7.2-7.6-10.5-18.7-5.1c-1.5-1.8-2-4-2.4-6.7c7.5-3.9,15.5-4.9,23.4-2
	c7.2,2.5,8.9,9,9.1,15.8C126.9,43.8,126.7,52.2,126.7,61.1z M115.5,41.1c-3.5-0.8-6.8,0-10,1.5c-3.4,1.6-5,5.5-3.4,8.7
	c1.8,3.6,5,4.1,8.5,2.8C115.5,52.2,116.7,49.1,115.5,41.1z"/>
<path class="st0" d="M85.4,43.2c-4.5,0-9.1,0-13.7,0c-4.5,0-8.9,0-13.4,0c-0.2,9.3,4.6,11.1,24.2,9.7c0.5,2,0.9,4.1,1.5,6.6
	c-9.1,3.1-18.2,4.4-27-0.3c-9-4.8-12.2-17.7-7.5-28.7c4.2-9.8,14.6-14.6,24.7-11.4C83,21.8,87.8,31.8,85.4,43.2z M75.8,35.5
	c-0.1-6.5-2.6-9.6-7.5-9.9c-5.7-0.4-9.3,3.1-10.2,9.9C64,35.5,69.9,35.5,75.8,35.5z"/>
<path class="st0" d="M406,20.4c-0.6,2.5-1.1,4.7-1.7,7.3c-7.4-1.4-14.9-2.8-19.3,5.3c-2.8,5.1-2.7,10.7,0.7,15.6
	c4.8,6.8,11.7,5.6,18.8,4c0.3,2.6,1.6,4.9,1.1,7.4c-11.1,4.6-23.3,2.3-29.1-5.6c-5.7-7.6-5.6-19.8,0.1-27.6
	C382.7,18.7,395,15.9,406,20.4z"/>
<path class="st0" d="M340.5,61.2c-3.4,0-6.5,0-10.1,0c0-14,0-27.9,0-42c2.7,0,5.4,0,8.3,0c0.4,1.9,0.7,3.8,1.2,6.4
	c3.5-4.9,7.3-8.1,13.3-7.3c1.3,3,0.2,6.2,0.7,9.2c-11.8,2.3-13.1,4.1-13.1,15.9c0,5.5,0,11,0,16.5C340.9,60.1,340.7,60.5,340.5,61.2
	z"/>
<path class="st0" d="M361,62.2c-3.8,0-6.4-2.7-6.4-6.8c0-4,2.4-6.7,6.3-6.8c4.1-0.1,6.9,2.8,6.8,6.9C367.6,59.4,364.8,62.2,361,62.2
	z"/>
<g>
</g>
<g>
</g>
<g>
</g>
<g>
</g>
<g>
</g>
<g>
</g>
</svg>
