<?xml version="1.0" encoding="utf-8"?>
<!-- Generator: Adobe Illustrator 19.0.1, SVG Export Plug-In . SVG Version: 6.00 Build 0)  -->
<svg version="1.1" xmlns="http://www.w3.org/2000/svg" xmlns:xlink="http://www.w3.org/1999/xlink" x="0px" y="0px"
	 viewBox="142 -323 906.4 665" style="enable-background:new 142 -323 906.4 665;" xml:space="preserve">
<style type="text/css">
	.st0{clip-path:url(#SVGID_2_);}
	.st1{clip-path:url(#SVGID_4_);fill:#6483A4;}
	.st2{clip-path:url(#SVGID_4_);fill:#93ABC1;}
	.st3{clip-path:url(#SVGID_4_);fill:#252424;}
	.st4{clip-path:url(#SVGID_6_);fill:#6483A4;}
	.st5{clip-path:url(#SVGID_6_);fill:#93ABC1;}
	.st6{clip-path:url(#SVGID_6_);fill:#252424;}
	.st7{clip-path:url(#SVGID_8_);fill:#252424;}
	.st8{clip-path:url(#SVGID_10_);fill:#FBBB91;}
	.st9{clip-path:url(#SVGID_10_);fill:#6483A4;}
	.st10{clip-path:url(#SVGID_12_);fill:#FBBB91;}
	.st11{clip-path:url(#SVGID_12_);fill:#6483A4;}
	.st12{clip-path:url(#SVGID_14_);fill:#EEEDED;}
	.st13{clip-path:url(#SVGID_14_);fill:#6483A4;}
	.st14{clip-path:url(#SVGID_16_);fill:#E98D5E;}
	.st15{clip-path:url(#SVGID_16_);fill:#FBBB91;}
	.st16{clip-path:url(#SVGID_16_);fill:#392D26;}
	.st17{clip-path:url(#SVGID_18_);fill:#ED6E60;}
	.st18{clip-path:url(#SVGID_20_);fill:#353534;}
	.st19{clip-path:url(#SVGID_22_);fill:#353534;}
	.st20{clip-path:url(#SVGID_24_);}
	.st21{clip-path:url(#SVGID_26_);fill:#4F2717;}
	.st22{clip-path:url(#SVGID_28_);fill:#DCDBDB;}
	.st23{clip-path:url(#SVGID_28_);fill:#818286;}
	.st24{clip-path:url(#SVGID_28_);fill:#4C70B7;}
	.st25{clip-path:url(#SVGID_30_);fill:#DCDBDB;}
	.st26{clip-path:url(#SVGID_30_);fill:#818286;}
	.st27{clip-path:url(#SVGID_30_);fill:#4C70B7;}
	.st28{clip-path:url(#SVGID_32_);fill:#4C70B7;}
	.st29{clip-path:url(#SVGID_34_);fill:#FBBB90;}
	.st30{clip-path:url(#SVGID_36_);fill:#FBBB90;}
	.st31{clip-path:url(#SVGID_38_);fill:#5EAD46;}
	.st32{clip-path:url(#SVGID_38_);fill:#FBBB91;}
	.st33{clip-path:url(#SVGID_38_);fill:#F16365;}
	.st34{clip-path:url(#SVGID_38_);fill:#A33C3D;}
	.st35{clip-path:url(#SVGID_38_);fill:#C85055;}
	.st36{clip-path:url(#SVGID_38_);fill:#C13F42;}
	.st37{clip-path:url(#SVGID_40_);fill:#E98D5E;}
	.st38{clip-path:url(#SVGID_40_);fill:#FBBB90;}
	.st39{clip-path:url(#SVGID_40_);fill:#4F2717;}
	.st40{clip-path:url(#SVGID_42_);fill:#ED6E60;}
	.st41{clip-path:url(#SVGID_44_);fill:#353534;}
	.st42{clip-path:url(#SVGID_46_);fill:#353534;}
	.st43{fill:#EB2430;}
	.st44{fill:#FFFFFF;}
</style>
<g id="social_people">
	<g>
		<g>
			<defs>
				<rect id="SVGID_1_" x="884.3" y="-108.6" width="154.8" height="450.6"/>
			</defs>
			<clipPath id="SVGID_2_">
				<use xlink:href="#SVGID_1_"  style="overflow:visible;"/>
			</clipPath>
			<g class="st0">
				<defs>
					<rect id="SVGID_3_" x="842.7" y="-137.8" width="232.5" height="524.7"/>
				</defs>
				<clipPath id="SVGID_4_">
					<use xlink:href="#SVGID_3_"  style="overflow:visible;"/>
				</clipPath>
				<path class="st1" d="M968.8,308.7H985c0,0,27.4,21.2,25.3,33.3h-42.6L968.8,308.7z"/>
				<path class="st2" d="M1008,332.9c1.8,3.3,2.8,6.4,2.4,9.1h-42.6l0.3-9.1H1008z"/>
				<path class="st3" d="M1008.3,175.1c0,0-2,15.6-5,36.2c-5.1,35.2-12.9,85.1-18.4,97.5c-0.1,0.2-0.2,0.3-0.2,0.5h-16.2
					c0,0,1.3-43.2,2.2-81.2c0-0.2,0-0.4,0-0.6c0.5-18.8,0.9-36.2,1-46.4c0-2.5,0.1-4.5,0.1-6H1008.3z"/>
			</g>
			<g class="st0">
				<defs>
					<rect id="SVGID_5_" x="842.7" y="-137.8" width="232.5" height="524.7"/>
				</defs>
				<clipPath id="SVGID_6_">
					<use xlink:href="#SVGID_5_"  style="overflow:visible;"/>
				</clipPath>
				<path class="st4" d="M955.8,308.7h-16.2c0,0-27.4,21.2-25.3,33.3h42.6L955.8,308.7z"/>
				<path class="st5" d="M916.6,332.9c-1.8,3.3-2.8,6.4-2.4,9.1h42.6l-0.3-9.1H916.6z"/>
				<path class="st6" d="M956,309.2h-16.2c-5.5-11.5-13.5-62.7-18.7-98.4c-2.9-20.4-4.9-35.7-4.9-35.7h36.5c0,1.5,0,3.6,0.1,6
					c0.1,10.2,0.5,27.6,1,46.3c0,0.2,0,0.4,0,0.6C954.7,266,956,309.2,956,309.2"/>
			</g>
			<g class="st0">
				<defs>
					<rect id="SVGID_7_" x="842.7" y="-137.8" width="232.5" height="524.7"/>
				</defs>
				<clipPath id="SVGID_8_">
					<use xlink:href="#SVGID_7_"  style="overflow:visible;"/>
				</clipPath>
				<path class="st7" d="M971.9,174.8h36.4c0,0-1.5,12.9-4.5,29.7c-2.5,2.3-6,4.2-9.3,6.1c-6.7,3.6-14.8,6.1-23.7,7
					c-2.7,0.3-5.5,0.5-8.4,0.5c-3,0-5.9-0.2-8.7-0.5c-6.9-0.8-13.4-2.5-19-4.9c-5.4-2.3-10.5-4.5-14.1-7.9
					c-2.9-16.6-4.4-29.9-4.4-29.9h36.5C952.7,174.8,971.5,174.4,971.9,174.8"/>
			</g>
			<g class="st0">
				<defs>
					<rect id="SVGID_9_" x="842.7" y="-137.8" width="232.5" height="524.7"/>
				</defs>
				<clipPath id="SVGID_10_">
					<use xlink:href="#SVGID_9_"  style="overflow:visible;"/>
				</clipPath>
				<path class="st8" d="M985.3,53.9L985.3,53.9c22.9-1.4,37.4,25.5,40.5,31.9c0.4,0.8,0.7,1.6,1,2.4c7.9,22.9,12.3,47.4,11.8,72
					c-0.1,4.9,0,11.4-0.6,18.2c-0.2,2.2-0.4,4.4-0.7,6.6c-0.2,1-0.4,2-0.7,3c-1.2,3.8-4.4,11.4-11.8,9.9c-2.4-0.5-4.1-2.4-5.3-4.7
					c-2-3.8-2.5-8.1-1.9-12.3c1-6,1.5-12.1,1.6-18.2c0.2-11-0.4-18.5-0.4-18.5c-1.4-14.8-2.7-28.6-10.1-41.5
					c-10.2-17.7-22.5-27.9-22.7-28.1C986.1,74.6,969.1,62.1,985.3,53.9"/>
				<path class="st9" d="M984.5,53.5c-16.3,8.2,0.9,20.8,0.9,20.8c0.2,0.2,12.6,10.4,23,28.1c7.6,12.9,8.9,26.8,10.3,41.6
					c0,0,1,15.1,0.4,18.9l19.5-2.9c0.5-25-4.2-50-12.4-73.1C1026.2,86.8,1010.8,51.9,984.5,53.5"/>
			</g>
			<g class="st0">
				<defs>
					<rect id="SVGID_11_" x="842.7" y="-137.8" width="232.5" height="524.7"/>
				</defs>
				<clipPath id="SVGID_12_">
					<use xlink:href="#SVGID_11_"  style="overflow:visible;"/>
				</clipPath>
				<path class="st10" d="M938.3,53.9L938.3,53.9c-22.9-1.4-37.4,25.5-40.5,31.9c-0.4,0.8-0.7,1.6-1,2.4
					c-7.9,22.9-12.3,47.4-11.8,72c0.1,4.9,0,11.4,0.6,18.2c0.2,2.2,0.4,4.4,0.7,6.6c0.2,1,0.4,2,0.7,3c1.2,3.8,4.4,11.4,11.8,9.9
					c2.4-0.5,4.1-2.4,5.3-4.7c2-3.8,2.5-8.1,1.9-12.3c-1-6-1.5-12.1-1.6-18.2c-0.2-11,0.4-18.5,0.4-18.5
					c1.4-14.8,2.7-28.6,10.1-41.5C925,85,937.2,74.8,937.5,74.6C937.5,74.6,954.4,62.1,938.3,53.9"/>
				<path class="st11" d="M939.6,53.2c16.5,8.2-0.9,20.8-0.9,20.8c-0.2,0.2-12.8,10.5-23.3,28.2c-7.7,13-9,26.8-10.5,41.7
					c0,0-1.1,15.2-0.4,19l-19.8-2.9c-0.5-25,4.3-50.1,12.7-73.3C897.4,86.6,913,51.6,939.6,53.2"/>
			</g>
			<g class="st0">
				<defs>
					<rect id="SVGID_13_" x="842.7" y="-137.8" width="232.5" height="524.7"/>
				</defs>
				<clipPath id="SVGID_14_">
					<use xlink:href="#SVGID_13_"  style="overflow:visible;"/>
				</clipPath>
				<path class="st12" d="M993.2,61.9c-5-7-22.1-17.6-31.1-14.5c-9-3.1-26,7.5-31.1,14.5c-7.4,10.4-16.6,28.3-14.5,113.1H962h0.2
					h45.4C1009.7,90.2,1000.6,72.3,993.2,61.9"/>
				<path class="st13" d="M935.4,124.5c0-28.5,3.2-54.3,8.2-72.8c-5.6,3.1-10.5,7-12.9,10.2c-7.6,10.4-17,28.3-14.8,113.1h23
					C936.7,160.1,935.4,142.8,935.4,124.5"/>
				<path class="st13" d="M993.4,61.9c-2.3-3.1-7-6.9-12.3-10c5,18.5,8.1,44.2,8.1,72.5c0,18.4-1.3,35.6-3.6,50.5h22.5
					C1010.2,90.2,1000.9,72.3,993.4,61.9"/>
			</g>
			<g class="st0">
				<defs>
					<rect id="SVGID_15_" x="842.7" y="-137.8" width="232.5" height="524.7"/>
				</defs>
				<clipPath id="SVGID_16_">
					<use xlink:href="#SVGID_15_"  style="overflow:visible;"/>
				</clipPath>
				<path class="st14" d="M1027.2-16.7c1,6.4-3.6,12.2-10.5,12.8c-6.8,0.6-13.2-4.1-14.2-10.5c-1-6.4,3.6-12.2,10.5-12.8
					C1019.8-27.9,1026.1-23.2,1027.2-16.7"/>
				<path class="st14" d="M919.5-15.7c0.2,6.5-5.3,11.8-12.2,11.9c-6.9,0.1-12.6-5.1-12.7-11.6c-0.2-6.5,5.3-11.8,12.2-11.9
					C913.7-27.4,919.4-22.2,919.5-15.7"/>
				<path class="st15" d="M962.8-86.5c-13.7,0.8-28,5.6-38.2,14.4C909.5-59,905.4-32,906.1-11c2.4,64.5,43.6,66.5,56.7,67.8V-86.5z"
					/>
				<path class="st15" d="M961.9-86.5c13.7,0.8,27.1,5.6,37.3,14.4c15.1,13,17.6,40.1,16.6,61.1c-1.4,28.4-10.8,68.3-53.9,67.8
					V-86.5z"/>
				<path class="st14" d="M968.4,4.1c0,3.7-2.7,6.6-6,6.6c-3.3,0-6-3-6-6.6c0-3.7,2.7-6.6,6-6.6C965.7-2.6,968.4,0.4,968.4,4.1"/>
				<path class="st16" d="M1016-46.9c-0.2-4.9-0.9-10.6-2.4-15.3c-3.8-12.3-12.1-21.6-23.5-25.7c-9.2-3.3-49.6-3-58.8,0.3
					c-11.4,4.1-19.7,13.4-23.5,25.7c-1.4,4.7-2.2,10.3-2.4,15.3c-0.2,5.2,2.4,16.6,2.4,16.6c3-19.3,12.8-29.4,25.5-28.2
					c10.7,1.1,18.1,7.2,29.4,6.5c0-0.1,0-0.2,0-0.3c10.7,0.1,17.9-5.9,28.2-6.6c17-1,23.9,27.5,23.9,27.5
					C1016-36.1,1016.2-41.7,1016-46.9"/>
				<path class="st16" d="M907.8-62.7c10.1-27.4,38.6-30,63.8-41.1c6.4-2.8,7.1-4.9,13.1,0.3c14,12,24.4,28,29.7,45.6"/>
			</g>
			<g class="st0">
				<defs>
					<rect id="SVGID_17_" x="842.7" y="-137.8" width="232.5" height="524.7"/>
				</defs>
				<clipPath id="SVGID_18_">
					<use xlink:href="#SVGID_17_"  style="overflow:visible;"/>
				</clipPath>
				<path class="st17" d="M975.8,19.5c-1.7-0.3-3.2,1.2-3.4,3.3c-0.1,1-1.3,9-10.3,9.5c-9-0.5-10.2-8.5-10.3-9.5
					c-0.2-2.1-1.7-3.6-3.4-3.3c-1.7,0.3-2.8,2.2-2.6,4.3c0.6,5.6,4.7,15.6,16.2,16.3v0c0.1,0,0.1,0,0.2,0c0.1,0,0.1,0,0.2,0v0
					c11.5-0.6,15.6-10.7,16.2-16.3C978.7,21.7,977.5,19.8,975.8,19.5"/>
			</g>
			<g class="st0">
				<defs>
					<rect id="SVGID_19_" x="842.7" y="-137.8" width="232.5" height="524.7"/>
				</defs>
				<clipPath id="SVGID_20_">
					<use xlink:href="#SVGID_19_"  style="overflow:visible;"/>
				</clipPath>
				<path class="st18" d="M946.3-18.1c0,5.4-4.4,9.9-9.9,9.9c-5.4,0-9.8-4.4-9.8-9.9c0-5.4,4.4-9.9,9.8-9.9
					C941.9-28,946.3-23.6,946.3-18.1"/>
			</g>
			<g class="st0">
				<defs>
					<rect id="SVGID_21_" x="842.7" y="-137.8" width="232.5" height="524.7"/>
				</defs>
				<clipPath id="SVGID_22_">
					<use xlink:href="#SVGID_21_"  style="overflow:visible;"/>
				</clipPath>
				<path class="st19" d="M997.1-18.1c0,5.4-4.4,9.9-9.9,9.9c-5.4,0-9.8-4.4-9.8-9.9c0-5.4,4.4-9.9,9.8-9.9
					C992.7-28,997.1-23.6,997.1-18.1"/>
			</g>
		</g>
	</g>
	<g>
		<g>
			<defs>
				<rect id="SVGID_23_" x="114" y="-95.8" width="227.2" height="437.8"/>
			</defs>
			<clipPath id="SVGID_24_">
				<use xlink:href="#SVGID_23_"  style="overflow:visible;"/>
			</clipPath>
			<g class="st20">
				<defs>
					<rect id="SVGID_25_" x="109" y="-137.8" width="232.5" height="524.7"/>
				</defs>
				<clipPath id="SVGID_26_">
					<use xlink:href="#SVGID_25_"  style="overflow:visible;"/>
				</clipPath>
				<path class="st21" d="M169.6,104.3l120.6-1.4c0,0,51-198.7-64-198.7C114-95.8,169.6,104.3,169.6,104.3"/>
			</g>
			<g class="st20">
				<defs>
					<rect id="SVGID_27_" x="109" y="-137.8" width="232.5" height="524.7"/>
				</defs>
				<clipPath id="SVGID_28_">
					<use xlink:href="#SVGID_27_"  style="overflow:visible;"/>
				</clipPath>
				<path class="st22" d="M234.9,308.7h16.3c0,0,27.5,21.2,25.4,33.3h-42.7L234.9,308.7z"/>
				<path class="st23" d="M274.2,332.9c1.8,3.3,2.8,6.4,2.4,9.1h-42.7l0.3-9.1H274.2z"/>
				<path class="st24" d="M274.5,175.1c0,0-2,15.6-5,36.2c-5.1,35.2-13,85.1-18.4,97.5c-0.1,0.2-0.2,0.3-0.2,0.5h-16.3
					c0,0,1.3-43.2,2.2-81.2c0-0.2,0-0.4,0-0.6c0.5-18.8,0.9-36.2,1-46.4c0-2.5,0.1-4.5,0.1-6H274.5z"/>
			</g>
			<g class="st20">
				<defs>
					<rect id="SVGID_29_" x="109" y="-137.8" width="232.5" height="524.7"/>
				</defs>
				<clipPath id="SVGID_30_">
					<use xlink:href="#SVGID_29_"  style="overflow:visible;"/>
				</clipPath>
				<path class="st25" d="M221.8,308.7h-16.3c0,0-27.5,21.2-25.4,33.3h42.7L221.8,308.7z"/>
				<path class="st26" d="M182.5,332.9c-1.8,3.3-2.8,6.4-2.4,9.1h42.7l-0.3-9.1H182.5z"/>
				<path class="st27" d="M222.1,309.2h-16.3c-5.5-11.5-13.6-62.7-18.7-98.4c-2.9-20.4-4.9-35.7-4.9-35.7h36.6c0,1.5,0,3.6,0.1,6
					c0.1,10.2,0.5,27.6,1,46.3c0,0.2,0,0.4,0,0.6C220.8,266,222.1,309.2,222.1,309.2"/>
			</g>
			<g class="st20">
				<defs>
					<rect id="SVGID_31_" x="109" y="-137.8" width="232.5" height="524.7"/>
				</defs>
				<clipPath id="SVGID_32_">
					<use xlink:href="#SVGID_31_"  style="overflow:visible;"/>
				</clipPath>
				<path class="st28" d="M274.5,174.8c0,0-0.8,7-2.5,17.4c-0.6,3.7-1.2,7.8-2,12.2c-2.5,2.3-6,4.3-9.3,6.1
					c-6.7,3.6-14.8,6.1-23.8,7.1c-2.7,0.3-5.5,0.5-8.4,0.5c-3,0-5.9-0.2-8.7-0.5c-7-0.8-13.4-2.5-19.1-4.9
					c-5.4-2.3-10.5-4.5-14.1-7.9c-0.8-4.5-1.5-8.7-2-12.4c-1.6-10.3-2.4-17.4-2.4-17.4h36.6c0,0,18.8-0.3,19.3,0H274.5z"/>
			</g>
			<g class="st20">
				<defs>
					<rect id="SVGID_33_" x="109" y="-137.8" width="232.5" height="524.7"/>
				</defs>
				<clipPath id="SVGID_34_">
					<use xlink:href="#SVGID_33_"  style="overflow:visible;"/>
				</clipPath>
				<path class="st29" d="M251.5,53.9L251.5,53.9c22.9-1.4,37.4,25.5,40.5,31.9c0.4,0.8,0.7,1.6,1,2.4c7.9,22.9,12.3,47.4,11.8,72
					c-0.1,4.9,0,11.4-0.6,18.2c-0.2,2.2-0.4,4.4-0.7,6.6c-0.2,1-0.4,2-0.7,3c-1.2,3.8-4.4,11.4-11.8,9.9c-2.4-0.5-4.1-2.4-5.3-4.7
					c-2-3.8-2.5-8.1-1.9-12.3c1-6,1.5-12.1,1.6-18.2c0.2-11-0.4-18.5-0.4-18.5c-1.4-14.8-2.7-28.6-10.1-41.5
					c-10.2-17.7-22.5-27.9-22.7-28.1C252.3,74.6,235.4,62.1,251.5,53.9"/>
			</g>
			<g class="st20">
				<defs>
					<rect id="SVGID_35_" x="109" y="-137.8" width="232.5" height="524.7"/>
				</defs>
				<clipPath id="SVGID_36_">
					<use xlink:href="#SVGID_35_"  style="overflow:visible;"/>
				</clipPath>
				<path class="st30" d="M204.5,53.9L204.5,53.9c-22.9-1.4-37.4,25.5-40.5,31.9c-0.4,0.8-0.7,1.6-1,2.4
					c-7.9,22.9-12.3,47.4-11.8,72c0.1,4.9,0,11.4,0.6,18.2c0.2,2.2,0.4,4.4,0.7,6.6c0.2,1,0.4,2,0.7,3c1.2,3.8,4.4,11.4,11.8,9.9
					c2.4-0.5,4.1-2.4,5.3-4.7c2-3.8,2.5-8.1,1.9-12.3c-1-6-1.5-12.1-1.6-18.2c-0.2-11,0.4-18.5,0.4-18.5
					c1.4-14.8,2.7-28.6,10.1-41.5c10.2-17.7,22.5-27.9,22.7-28.1C203.7,74.6,220.7,62.1,204.5,53.9"/>
			</g>
			<g class="st20">
				<defs>
					<rect id="SVGID_37_" x="109" y="-137.8" width="232.5" height="524.7"/>
				</defs>
				<clipPath id="SVGID_38_">
					<use xlink:href="#SVGID_37_"  style="overflow:visible;"/>
				</clipPath>
				<path class="st31" d="M259.4,61.9c-5-7-22.1-17.6-31.1-14.5c-9-3.1-26,7.5-31.1,14.5c-7.4,10.4-16.6,28.3-14.5,113.1h45.4h0.2
					h45.4C276,90.2,266.8,72.3,259.4,61.9"/>
				<path class="st32" d="M259.8,62.7c-5.1-7.1-22.3-17.8-31.4-14.6c-9.1-3.1-26.3,7.6-31.4,14.6H259.8z"/>
				<path class="st33" d="M274.5,166.1l0,1c0,2.6-0.1,5.3-0.2,8v0.2h-92c-0.1-2.1-0.1-4.2-0.1-6.2l0-1.1
					c-0.8-43.6,1.6-68.4,5.1-83.6c0.2-0.9,0.4-1.7,0.6-2.6c0.7-2.9,1.5-5.4,2.3-7.6c0.2-0.4,0.3-0.9,0.5-1.3
					c0.3-0.7,0.5-1.3,0.8-1.9c1.8-4.2,3.7-7.2,5.5-9.7c2.2-3,6.6-6.7,11.6-9.7l0.7,0.7c5.5,5.5,12.7,8.2,19.9,8.2
					c7.2,0,14.5-2.8,20-8.3c4.6,2.9,8.6,6.3,10.6,9.1C266.9,71.5,275.8,88.6,274.5,166.1"/>
				<polygon class="st34" points="250.1,109.4 251.4,69.2 229.7,82.8 229.6,81.9 208.3,67 208,107.2 229.7,93.2 				"/>
				<rect x="224.4" y="78.1" class="st35" width="10.5" height="19.3"/>
				<path class="st36" d="M274.6,158l-0.1,8.1l0,1l-0.1,7.1c0,0.3,0,0.6,0,0.9h-0.1v0.2h-92c-0.1-2.1-0.1-4.2-0.1-6.2l0-1.1L182,158
					h0.1L274.6,158z"/>
			</g>
			<g class="st20">
				<defs>
					<rect id="SVGID_39_" x="109" y="-137.8" width="232.5" height="524.7"/>
				</defs>
				<clipPath id="SVGID_40_">
					<use xlink:href="#SVGID_39_"  style="overflow:visible;"/>
				</clipPath>
				<path class="st37" d="M293.4-16.7c1,6.4-3.6,12.2-10.5,12.8c-6.8,0.6-13.2-4.1-14.2-10.5c-1-6.4,3.6-12.2,10.5-12.8
					C286-27.9,292.4-23.2,293.4-16.7"/>
				<path class="st37" d="M185.8-15.7c0.2,6.5-5.3,11.8-12.2,11.9c-6.9,0.1-12.6-5.1-12.7-11.6c-0.2-6.5,5.3-11.8,12.2-11.9
					C179.9-27.4,185.6-22.2,185.8-15.7"/>
				<path class="st38" d="M229-86.5c-13.7,0.8-28,5.6-38.2,14.4C175.7-59,171.6-32,172.4-11c2.4,64.5,43.6,66.5,56.7,67.8V-86.5z"/>
				<path class="st38" d="M228.1-86.5c13.7,0.8,27.1,5.6,37.3,14.4C280.5-59,283.1-31.9,282-11c-1.4,28.4-10.8,68.3-53.9,67.8V-86.5
					z"/>
				<path class="st37" d="M234.7,4.1c0,3.7-2.7,6.6-6,6.6c-3.3,0-6-3-6-6.6c0-3.7,2.7-6.6,6-6.6C231.9-2.6,234.7,0.4,234.7,4.1"/>
				<path class="st39" d="M202-58.4c0,0,34.9,28.1,79.4,22.8c0,0,4.4-51.7-55-51.7c-59.3,0-51.1,43.1-51.1,43.1S186.3-46.3,202-58.4
					"/>
			</g>
			<g class="st20">
				<defs>
					<rect id="SVGID_41_" x="109" y="-137.8" width="232.5" height="524.7"/>
				</defs>
				<clipPath id="SVGID_42_">
					<use xlink:href="#SVGID_41_"  style="overflow:visible;"/>
				</clipPath>
				<path class="st40" d="M242.1,19.5c-1.7-0.3-3.2,1.2-3.4,3.3c-0.1,1-1.3,9-10.3,9.5c-9-0.5-10.2-8.5-10.3-9.5
					c-0.2-2.1-1.7-3.6-3.4-3.3c-1.7,0.3-2.8,2.2-2.6,4.3c0.6,5.6,4.7,15.6,16.2,16.3v0c0.1,0,0.1,0,0.2,0c0.1,0,0.1,0,0.2,0v0
					c11.5-0.6,15.6-10.7,16.2-16.3C244.9,21.7,243.7,19.8,242.1,19.5"/>
			</g>
			<g class="st20">
				<defs>
					<rect id="SVGID_43_" x="109" y="-137.8" width="232.5" height="524.7"/>
				</defs>
				<clipPath id="SVGID_44_">
					<use xlink:href="#SVGID_43_"  style="overflow:visible;"/>
				</clipPath>
				<path class="st41" d="M212.5-18.1c0,5.4-4.4,9.9-9.9,9.9c-5.4,0-9.8-4.4-9.8-9.9c0-5.4,4.4-9.9,9.8-9.9
					C208.1-28,212.5-23.6,212.5-18.1"/>
			</g>
			<g class="st20">
				<defs>
					<rect id="SVGID_45_" x="109" y="-137.8" width="232.5" height="524.7"/>
				</defs>
				<clipPath id="SVGID_46_">
					<use xlink:href="#SVGID_45_"  style="overflow:visible;"/>
				</clipPath>
				<path class="st42" d="M263.4-18.1c0,5.4-4.4,9.9-9.9,9.9c-5.4,0-9.8-4.4-9.8-9.9c0-5.4,4.4-9.9,9.8-9.9
					C258.9-28,263.4-23.6,263.4-18.1"/>
			</g>
		</g>
	</g>
</g>
<g id="bubbles">
	<path class="st43" d="M557.4-148.4c0-55.6-61.9-100.6-138.2-100.6S281-203.9,281-148.4c0,46.6,43.6,85.8,102.7,97.3l-0.1,0
		c2,23.3-23.4,48.2-23.4,48.2c35.9-4.9,67.2-44.8,67.2-44.8l-1.6-0.1C499.1-50.4,557.4-94.4,557.4-148.4z"/>
	<path class="st43" d="M629.1-118.2c0-55.6,61.9-100.6,138.2-100.6s138.2,45.1,138.2,100.6c0,46.6-43.6,85.8-102.7,97.3l0.1,0
		c-2,23.3,23.4,48.2,23.4,48.2c-35.9-4.9-67.2-44.8-67.2-44.8l1.6-0.1C687.4-20.2,629.1-64.2,629.1-118.2z"/>
</g>
<g id="media_icons">
	<g>
		<g>
			<g>
				<path class="st44" d="M478.4-180.6c-4.4,1.9-9,3.2-13.9,3.8c5-3,8.9-7.8,10.7-13.4c-4.7,2.8-9.9,4.8-15.4,5.9
					C455.3-189,449-192,442-192c-13.4,0-24.3,10.9-24.3,24.3c0,1.9,0.2,3.8,0.6,5.5c-20.2-1-38.1-10.7-50.1-25.4
					c-2.1,3.6-3.3,7.8-3.3,12.2c0,8.4,4.3,15.9,10.8,20.2c-4-0.1-7.7-1.2-11-3v0.3c0,11.8,8.4,21.6,19.5,23.8
					c-2,0.5-4.2,0.9-6.4,0.9c-1.6,0-3.1-0.2-4.6-0.5c3.1,9.7,12.1,16.7,22.7,16.9c-8.3,6.5-18.8,10.4-30.2,10.4
					c-2,0-3.9-0.1-5.8-0.3c10.8,6.9,23.5,10.9,37.2,10.9c44.7,0,69.1-37,69.1-69.1l-0.1-3.1C471-171.4,475.2-175.7,478.4-180.6z"/>
			</g>
		</g>
		<g>
		</g>
		<g>
		</g>
		<g>
		</g>
		<g>
		</g>
		<g>
		</g>
		<g>
		</g>
		<g>
		</g>
		<g>
		</g>
		<g>
		</g>
		<g>
		</g>
		<g>
		</g>
		<g>
		</g>
		<g>
		</g>
		<g>
		</g>
		<g>
		</g>
	</g>
	<g>
		<g>
			<path id="Facebook__x28_alt_x29__1_" class="st44" d="M815.3-144.5c0-8.4-7.6-16-16-16h-64c-8.4,0-16,7.6-16,16v64
				c0,8.4,7.6,16,16,16h32v-36.3h-11.7v-16h11.7v-6.2c0-10.8,8.1-20.4,18-20.4h12.9v16h-12.9c-1.4,0-3.1,1.7-3.1,4.3v6.4h16v16h-16
				v36.3h17.1c8.4,0,16-7.6,16-16V-144.5z"/>
		</g>
		<g>
		</g>
		<g>
		</g>
		<g>
		</g>
		<g>
		</g>
		<g>
		</g>
		<g>
		</g>
		<g>
		</g>
		<g>
		</g>
		<g>
		</g>
		<g>
		</g>
		<g>
		</g>
		<g>
		</g>
		<g>
		</g>
		<g>
		</g>
		<g>
		</g>
	</g>
</g>
</svg>
