<?xml version="1.0" encoding="utf-8"?>
<!-- Generator: Adobe Illustrator 19.0.1, SVG Export Plug-In . SVG Version: 6.00 Build 0)  -->
<svg version="1.1" id="_x33__people" xmlns="http://www.w3.org/2000/svg" xmlns:xlink="http://www.w3.org/1999/xlink" x="0px"
	 y="0px" viewBox="-22 23.1 154 154.9" style="enable-background:new -22 23.1 154 154.9;" xml:space="preserve">
<style type="text/css">
	.st0{fill:#FFFFFF;}
</style>
<g>
	<path class="st0" d="M74.5,87.7c-0.4-0.8-1.5-2.9-3.3-4.9c-0.1-0.2-0.3-0.3-0.4-0.5c0,0,0,0,0,0c-2-2.2-4.9-4.1-8.3-3.9
		c0,0-0.1,0-0.1,0.1c-0.1-0.1-0.2-0.1-0.3-0.2c6.6-2.8,8.8-10.3,9.4-16.7c0.1,0,0.2,0,0.4,0c2-0.2,3.4-1.9,3.1-3.8
		c-0.3-1.6-1.7-2.8-3.3-3c-0.3-5.1-1.6-10.3-4.9-13.2c-2.9-2.6-6.8-3.9-10.7-4.2v0c0,0-0.1,0-0.1,0c0,0-0.1,0-0.1,0v0
		c-3.9,0.2-8,1.6-11,4.2c-3.3,2.9-4.8,8.1-5.3,13.1c-1.9,0.1-3.4,1.6-3.4,3.5c0,1.8,1.6,3.2,3.4,3.4c0.9,10.7,5.9,14.9,10.3,16.6
		c-0.1,0.1-0.3,0.2-0.4,0.3c-0.1,0-0.1-0.1-0.2-0.1c-4.8-0.3-8.3,3.5-10.4,6.5c0,0,0,0,0,0c-1.3,1.8-2,3.3-2,3.3
		c-2.4,6.8-3.8,14.2-3.7,21.5l0.1,0c0,1.4,0,3.3,0.2,5.3c0.1,0.6,0.1,1.3,0.2,1.9c0,0.3,0.1,0.6,0.2,0.9c0.3,1.1,1.3,3.3,3.5,2.9
		c0.7-0.1,1.2-0.7,1.5-1.4c0.6-1.1,0.7-2.4,0.6-3.6c-0.3-1.8-0.4-3.5-0.5-5.3c-0.1-3.1,0.1-5.3,0.1-5.3c0-0.2,0-0.4,0.1-0.6
		c0.5-4.1,0.9-8.1,3-11.7c0.4-0.7,0.8-1.3,1.2-1.9c-0.7,4.8-1.1,12-0.8,23.1c0,0,0,0,0,0.1h0c0,0,0.1,1.3,0.4,3.3
		c0.2,1.8,0.6,4.3,1,7.1c1.5,10.3,3.8,25.1,5.4,28.7h-0.1c0,0-7.9,6.2-7.4,9.8h12.4l-0.3-9.7H54c0,0-0.4-12.6-0.7-23.7
		c0-0.1,0-0.1,0-0.2c0-1,0-1.9-0.1-2.8c0.1,0,0.1,0,0.2,0c0.8,0,1.6,0.1,2.5,0.1c0.8,0,1.6,0,2.4-0.1c0,0,0,0,0.1,0
		c0,0.9,0,1.9-0.1,2.8c0,0.1,0,0.1,0,0.2c-0.2,10.4-0.5,22-0.6,23.6h0l-0.3,9.8h12.4c0.5-3.4-6.4-9-7.3-9.7c0,0,0,0,0-0.1
		c1.5-3.6,3.8-18.2,5.3-28.5c0.4-3.1,0.8-5.8,1-7.7c0.1-0.9,0.2-1.6,0.3-2.2c0.1-0.5,0.1-0.8,0.1-0.8v-0.1
		c0.3-10.7-0.1-17.8-0.8-22.6c0.3,0.5,0.6,0.9,0.9,1.4c2.2,3.8,2.6,7.8,3,12.2c0,0,0.3,4.4,0.1,5.5l0.2,0c-0.1,1.8-0.2,3.5-0.5,5.2
		c-0.1,1.2,0,2.5,0.6,3.6c0.3,0.7,0.8,1.3,1.5,1.4c2.2,0.4,3.2-1.8,3.5-2.9c0.1-0.3,0.2-0.6,0.2-0.9c0.1-0.6,0.1-1.3,0.2-1.9
		c0.2-2,0.2-3.9,0.2-5.3c0.1-7.2-1.2-14.4-3.5-21.1C74.7,88.2,74.6,87.9,74.5,87.7z M53,113.9C53,113.9,53,113.8,53,113.9l1.7-0.1
		C53.7,113.8,53,113.9,53,113.9z"/>
	<path class="st0" d="M127.6,88.4c-0.1-0.2-0.2-0.5-0.3-0.7c-0.7-1.3-3.1-5.9-7-8.1c0,0,0,0,0,0c-0.1-0.1-0.3-0.2-0.4-0.2
		c-1.4-0.7-3-1.2-4.7-1.1c0,0,0,0,0,0c-0.1-0.1-0.2-0.1-0.3-0.2c6.6-2.8,8.8-10.3,9.4-16.6c0.1,0,0.2,0,0.4,0c2-0.2,3.4-1.9,3.1-3.8
		c-0.3-1.6-1.7-2.8-3.3-3c-0.3-5.1-1.6-10.3-4.9-13.2c-2.9-2.5-6.7-3.9-10.6-4.2v0c0,0-0.1,0-0.2,0c0,0-0.1,0-0.1,0v0
		c-3.9,0.3-8,1.6-10.9,4.2c-3.3,2.9-4.8,8.1-5.3,13.1c-2,0-3.5,1.6-3.5,3.5c0,1.8,1.6,3.3,3.5,3.4c0.9,10.7,5.9,14.9,10.3,16.5
		c-0.1,0.1-0.3,0.2-0.4,0.3c-0.1,0-0.1-0.1-0.2-0.1c-3.5-0.2-6.3,1.7-8.4,3.9c-2.1,2.2-3.5,4.7-3.9,5.6c-0.1,0.2-0.2,0.5-0.3,0.7
		c-2.3,6.7-3.6,13.9-3.5,21.1c0,1.4,0,3.3,0.2,5.3c0.1,0.6,0.1,1.3,0.2,1.9c0,0.3,0.1,0.6,0.2,0.9c0.3,1.1,1.3,3.3,3.5,2.9
		c0.7-0.1,1.2-0.7,1.5-1.4c0.6-1.1,0.7-2.4,0.6-3.6c-0.3-1.7-0.4-3.4-0.5-5.1l0.1,0c-0.2-1.2,0.1-5.6,0.1-5.6
		c0.5-4.3,0.9-8.4,3.1-12.2c0.4-0.7,0.8-1.3,1.2-1.9c-0.7,4.8-1.1,12-0.8,23.1c0,0,0,0,0,0.1h0c0,0,0.1,1.3,0.4,3.3
		c0.2,1.8,0.6,4.3,1,7.1c1.5,10.3,3.8,25.1,5.4,28.7H102c0,0-7.9,6.2-7.4,9.8H107l-0.3-9.7h0.1c0,0-0.4-12.6-0.6-23.7
		c0-0.1,0-0.1,0-0.2c0-1,0-1.9-0.1-2.8c0,0,0,0,0.1,0c0.8,0,1.6,0.1,2.5,0.1c0.8,0,1.6,0,2.4-0.1c0,0.9,0,1.8-0.1,2.8
		c0,0.1,0,0.1,0,0.2c-0.2,11.2-0.6,23.8-0.6,23.8h0.1l-0.3,9.6h12.4c0.5-3.6-7.4-9.8-7.4-9.8c1.5-3.6,3.8-18.2,5.3-28.5
		c0.2-1.2,0.3-2.4,0.5-3.5c0.7-4.2,1-7.2,1-7.2c0.2-10.7-0.2-17.8-0.8-22.6c0.3,0.4,0.6,0.9,0.8,1.4c2.2,3.8,2.6,7.8,3,12.2
		c0,0,0.3,4.4,0.1,5.5l0.3,0c-0.1,1.8-0.2,3.5-0.5,5.2c-0.1,1.2,0,2.5,0.6,3.6c0.3,0.7,0.8,1.3,1.5,1.4c2.2,0.4,3.2-1.8,3.5-2.9
		c0.1-0.3,0.2-0.6,0.2-0.9c0.1-0.6,0.1-1.3,0.2-1.9c0.2-2,0.2-3.9,0.2-5.3C131.2,102.3,129.9,95.1,127.6,88.4z M105.9,113.9
		C105.9,113.9,105.9,113.8,105.9,113.9l1.6-0.1C106.6,113.8,105.9,113.9,105.9,113.9z"/>
	<path class="st0" d="M21.3,87.7c-0.4-0.8-1.5-2.9-3.3-4.9c-0.1-0.2-0.3-0.3-0.4-0.5c0,0,0,0,0,0c-2-2.2-4.9-4.1-8.3-3.9
		c0,0-0.1,0-0.1,0.1c-0.1-0.1-0.2-0.1-0.3-0.2c6.6-2.8,8.8-10.3,9.4-16.7c0.1,0,0.2,0,0.4,0c2-0.2,3.4-1.9,3.1-3.8
		c-0.3-1.6-1.7-2.8-3.3-3c-0.3-5.1-1.6-10.3-4.9-13.2c-2.9-2.5-6.7-3.9-10.6-4.2v0c0,0-0.1,0-0.2,0c0,0-0.1,0-0.1,0c0,0,0,0,0,0
		c-3.9,0.3-8,1.6-10.9,4.2c-3.3,2.9-4.9,8.1-5.3,13.1c-2,0.1-3.5,1.6-3.5,3.5c0,1.8,1.6,3.3,3.5,3.4C-12.6,72.2-7.8,76.3-3.4,78
		c-0.1,0.1-0.3,0.2-0.4,0.3c0,0-0.1,0-0.1-0.1c-3.5-0.2-6.3,1.7-8.4,3.9c-2.1,2.2-3.5,4.7-3.9,5.6c-0.1,0.2-0.2,0.5-0.3,0.7
		c-1.3,3.6-2.2,7.4-2.8,11.3c-0.5,3.2-0.8,6.4-0.7,9.7l0.1,0c0,0,0,0.1,0,0.1c0,1.4,0,3.3,0.2,5.3c0.1,0.6,0.1,1.3,0.2,1.9
		c0,0.3,0.1,0.6,0.2,0.9c0.3,1.1,1.3,3.3,3.5,2.9c0.7-0.1,1.2-0.7,1.5-1.4c0.6-1.1,0.7-2.4,0.6-3.6c-0.3-1.8-0.4-3.5-0.5-5.3
		c0-1.6,0-2.9,0-3.8c0-0.9,0.1-1.6,0.1-1.6c0.5-4.3,0.9-8.4,3.1-12.2c0.3-0.6,0.7-1.1,1.1-1.7c-0.7,4.8-1,12-0.8,22.9c0,0,0,0,0,0.1
		h0c0,0,0.1,1.3,0.4,3.3c0.2,1.8,0.6,4.3,1,7.1c1.5,10.3,3.8,25.2,5.4,28.7c-0.3,0.3-7.9,6.3-7.4,9.8H1.1L0.8,153h0
		c0-1.2-0.3-13.1-0.6-23.6c0-0.1,0-0.1,0-0.2c0-1,0-1.9-0.1-2.8c0,0,0,0,0.1,0c0.8,0,1.6,0.1,2.5,0.1c0.8,0,1.6,0,2.4-0.1
		c0,0,0,0,0.1,0c0,0.9,0,1.9-0.1,2.8c0,0.1,0,0.1,0,0.2c-0.2,10.4-0.5,22-0.6,23.6h0l-0.2,9.8h12.3c0.5-3.4-6.4-9-7.3-9.7
		c0,0,0,0,0-0.1c1.5-3.6,3.8-18.2,5.3-28.5c0.4-3.1,0.8-5.8,1-7.7c0.1-0.9,0.2-1.6,0.3-2.2c0.1-0.5,0.1-0.8,0.1-0.8v-0.1
		c0.3-10.7-0.1-17.8-0.8-22.6c0.3,0.5,0.6,0.9,0.9,1.4c2.2,3.8,2.6,7.8,3,12.2c0,0,0.3,4.4,0.1,5.5l0.2,0c-0.1,1.8-0.2,3.5-0.5,5.2
		c-0.1,1.2,0,2.5,0.6,3.6c0.3,0.7,0.8,1.3,1.5,1.4c2.2,0.4,3.2-1.8,3.5-2.9c0.1-0.3,0.2-0.6,0.2-0.9c0.1-0.6,0.1-1.3,0.2-1.9
		c0.2-2,0.2-3.9,0.2-5.3c0.1-7.2-1.2-14.4-3.5-21.1C21.5,88.2,21.4,87.9,21.3,87.7z M-0.1,113.9C-0.1,113.9-0.1,113.8-0.1,113.9
		l1.7-0.1C0.6,113.8-0.1,113.9-0.1,113.9z"/>
</g>
</svg>
