<?xml version="1.0" encoding="utf-8"?>
<!-- Generator: Adobe Illustrator 19.0.1, SVG Export Plug-In . SVG Version: 6.00 Build 0)  -->
<svg version="1.1" id="_x33__people" xmlns="http://www.w3.org/2000/svg" xmlns:xlink="http://www.w3.org/1999/xlink" x="0px"
	 y="0px" viewBox="0 0 154 154.9" style="enable-background:new 0 0 154 154.9;" xml:space="preserve">
<style type="text/css">
	.st0{fill:#FFFFFF;}
	.st1{display:none;fill:#FFFFFF;}
</style>
<g id="right-leg">
	<g id="XMLID_49_">
		<path id="XMLID_54_" class="st0" d="M79.7,129.9h4.7c0,0,7.9,6.2,7.4,9.8H79.4L79.7,129.9z"/>
	</g>
	<path id="XMLID_23_" class="st0" d="M91.2,90.8c0,0-0.6,4.6-1.4,10.6c-1.5,10.3-3.8,24.9-5.3,28.5c0,0.1,0,0.1-0.1,0.2h-4.7
		c0,0,0.4-12.6,0.6-23.8c0-0.1,0-0.1,0-0.2c0.1-5.5,0.3-10.6,0.3-13.6c0-0.7,0-1.3,0-1.8H91.2z"/>
</g>
<g id="XMLID_59_">
	<path id="XMLID_77_" class="st0" d="M75.9,129.9h-4.7c0,0-7.9,6.2-7.4,9.8h12.4L75.9,129.9z"/>
</g>
<path id="XMLID_19_" class="st0" d="M76,130h-4.7c-1.6-3.4-3.9-18.4-5.4-28.8c-0.9-6-1.4-10.5-1.4-10.5H75c0,0.5,0,1,0,1.8
	c0,3,0.2,8.1,0.3,13.6c0,0.1,0,0.1,0,0.2C75.6,117.4,76,130,76,130z"/>
<path id="XMLID_10_" class="st0" d="M80.6,90.7h10.6c0,0-0.4,3.8-1.3,8.7c-0.7,0.7-1.7,1.2-2.7,1.8c-1.9,1.1-4.3,1.8-6.9,2.1
	c-0.8,0.1-1.6,0.1-2.4,0.1c-0.9,0-1.7-0.1-2.5-0.1c-2-0.2-3.9-0.7-5.5-1.4c-1.6-0.7-3-1.3-4.1-2.3c-0.9-4.9-1.3-8.8-1.3-8.8H75
	C75,90.7,80.5,90.6,80.6,90.7z"/>
<path id="XMLID_9_" class="st0" d="M84.6,55.3L84.6,55.3c6.7-0.4,11,7.5,11.9,9.3c0.1,0.2,0.2,0.5,0.3,0.7
	c2.3,6.7,3.6,13.9,3.5,21.1c0,1.4,0,3.3-0.2,5.3c-0.1,0.6-0.1,1.3-0.2,1.9c0,0.3-0.1,0.6-0.2,0.9c-0.3,1.1-1.3,3.3-3.5,2.9
	c-0.7-0.1-1.2-0.7-1.5-1.4c-0.6-1.1-0.7-2.4-0.6-3.6c0.3-1.8,0.4-3.5,0.5-5.3c0.1-3.2-0.1-5.4-0.1-5.4c-0.4-4.3-0.8-8.4-3-12.2
	c-3-5.2-6.6-8.2-6.6-8.2C84.9,61.4,79.9,57.7,84.6,55.3"/>
<path id="XMLID_55_" class="st0" d="M84.4,55.2c-4.8,2.4,0.2,6.1,0.2,6.1c0.1,0.1,3.7,3,6.7,8.2c2.2,3.8,2.6,7.8,3,12.2
	c0,0,0.3,4.4,0.1,5.5l5.7-0.9c0.1-7.3-1.2-14.6-3.6-21.4C96.6,64.9,92.1,54.7,84.4,55.2L84.4,55.2"/>
<path id="XMLID_3_" class="st0" d="M70.9,55.3L70.9,55.3c-6.7-0.4-11,7.5-11.9,9.3c-0.1,0.2-0.2,0.5-0.3,0.7
	c-2.3,6.7-3.6,13.9-3.5,21.1c0,1.4,0,3.3,0.2,5.3c0.1,0.6,0.1,1.3,0.2,1.9c0,0.3,0.1,0.6,0.2,0.9c0.3,1.1,1.3,3.3,3.5,2.9
	c0.7-0.1,1.2-0.7,1.5-1.4c0.6-1.1,0.7-2.4,0.6-3.6c-0.3-1.8-0.4-3.5-0.5-5.3C60.8,84,61,81.8,61,81.8c0.4-4.3,0.8-8.4,3-12.2
	c3-5.2,6.6-8.2,6.6-8.2C70.6,61.4,75.6,57.7,70.9,55.3"/>
<path id="XMLID_17_" class="st0" d="M71.2,55.1c4.8,2.4-0.3,6.1-0.3,6.1c-0.1,0.1-3.7,3.1-6.8,8.3c-2.2,3.8-2.6,7.9-3.1,12.2
	c0,0-0.3,4.4-0.1,5.6l-5.8-0.9c-0.1-7.3,1.3-14.7,3.7-21.5C58.9,64.9,63.5,54.6,71.2,55.1L71.2,55.1"/>
<g id="shirt_2_">
	<path id="torso_1_" class="st1" d="M86.9,57.8c-1.5-2-6.5-5.1-9.1-4.2c-2.6-0.9-7.6,2.2-9.1,4.2c-2.2,3-4.8,8.2-4.2,32.7h13.3h0.1
		h13.3C91.7,66,89.1,60.8,86.9,57.8z"/>
	<path id="XMLID_46_" class="st0" d="M86.9,57.6c-1.5-2.1-6.5-5.2-9.1-4.3c-2.6-0.9-7.6,2.2-9.1,4.3c-2.2,3-4.8,8.3-4.2,33.1h13.3
		h0.1h13.3C91.8,65.9,89.1,60.7,86.9,57.6z"/>
</g>
<g id="XMLID_219_">
	<path id="XMLID_221_" class="st0" d="M96.9,34.6c0.3,1.9-1.1,3.6-3.1,3.8c-2,0.2-3.9-1.2-4.2-3.1c-0.3-1.9,1.1-3.6,3.1-3.8
		C94.7,31.4,96.6,32.7,96.9,34.6z"/>
	<path id="XMLID_220_" class="st0" d="M65.4,34.9c0,1.9-1.6,3.5-3.6,3.5c-2,0-3.7-1.5-3.7-3.4c0-1.9,1.6-3.5,3.6-3.5
		C63.7,31.5,65.3,33,65.4,34.9z"/>
</g>
<g id="XMLID_216_">
	<path id="XMLID_218_" class="st0" d="M78,14.2c-4,0.2-8.2,1.6-11.2,4.2c-4.4,3.8-5.6,11.7-5.4,17.9C62.1,55.2,74.2,55.8,78,56.2
		V14.2z"/>
	<path id="XMLID_217_" class="st0" d="M77.8,14.2c4,0.2,7.9,1.6,10.9,4.2c4.4,3.8,5.2,11.7,4.9,17.9c-0.4,8.3-3.2,20-15.8,19.9V14.2
		z"/>
</g>
<g id="right-leg_1_">
	<g id="XMLID_33_">
		<path id="XMLID_34_" class="st0" d="M132.5,129.9h4.7c0,0,7.9,6.2,7.4,9.8h-12.4L132.5,129.9z"/>
	</g>
	<path id="XMLID_32_" class="st0" d="M143.9,90.8c0,0-0.6,4.6-1.4,10.6c-1.5,10.3-3.8,24.9-5.3,28.5c0,0.1,0,0.1-0.1,0.2h-4.7
		c0,0,0.4-12.6,0.6-23.8c0-0.1,0-0.1,0-0.2c0.1-5.5,0.3-10.6,0.3-13.6c0-0.7,0-1.3,0-1.8H143.9z"/>
</g>
<g id="XMLID_30_">
	<path id="XMLID_31_" class="st0" d="M128.7,129.9H124c0,0-7.9,6.2-7.4,9.8H129L128.7,129.9z"/>
</g>
<path id="XMLID_29_" class="st0" d="M128.8,130h-4.7c-1.6-3.4-3.9-18.4-5.4-28.8c-0.9-6-1.4-10.5-1.4-10.5h10.6c0,0.5,0,1,0,1.8
	c0,3,0.2,8.1,0.3,13.6c0,0.1,0,0.1,0,0.2C128.4,117.4,128.8,130,128.8,130z"/>
<path id="XMLID_28_" class="st0" d="M133.4,90.7h10.6c0,0-0.4,3.8-1.3,8.7c-0.7,0.7-1.7,1.2-2.7,1.8c-1.9,1.1-4.3,1.8-6.9,2.1
	c-0.8,0.1-1.6,0.1-2.4,0.1c-0.9,0-1.7-0.1-2.5-0.1c-2-0.2-3.9-0.7-5.5-1.4c-1.6-0.7-3-1.3-4.1-2.3c-0.9-4.9-1.3-8.8-1.3-8.8h10.6
	C127.8,90.7,133.2,90.6,133.4,90.7z"/>
<path id="XMLID_27_" class="st0" d="M137.4,55.3L137.4,55.3c6.7-0.4,11,7.5,11.9,9.3c0.1,0.2,0.2,0.5,0.3,0.7
	c2.3,6.7,3.6,13.9,3.5,21.1c0,1.4,0,3.3-0.2,5.3c-0.1,0.6-0.1,1.3-0.2,1.9c0,0.3-0.1,0.6-0.2,0.9c-0.3,1.1-1.3,3.3-3.5,2.9
	c-0.7-0.1-1.2-0.7-1.5-1.4c-0.6-1.1-0.7-2.4-0.6-3.6c0.3-1.8,0.4-3.5,0.5-5.3c0.1-3.2-0.1-5.4-0.1-5.4c-0.4-4.3-0.8-8.4-3-12.2
	c-3-5.2-6.6-8.2-6.6-8.2C137.6,61.4,132.6,57.7,137.4,55.3"/>
<path id="XMLID_26_" class="st0" d="M137.1,55.2c-4.8,2.4,0.2,6.1,0.2,6.1c0.1,0.1,3.7,3,6.7,8.2c2.2,3.8,2.6,7.8,3,12.2
	c0,0,0.3,4.4,0.1,5.5l5.7-0.9c0.1-7.3-1.2-14.6-3.6-21.4C149.3,64.9,144.8,54.7,137.1,55.2L137.1,55.2"/>
<path id="XMLID_25_" class="st0" d="M123.6,55.3L123.6,55.3c-6.7-0.4-11,7.5-11.9,9.3c-0.1,0.2-0.2,0.5-0.3,0.7
	c-2.3,6.7-3.6,13.9-3.5,21.1c0,1.4,0,3.3,0.2,5.3c0.1,0.6,0.1,1.3,0.2,1.9c0,0.3,0.1,0.6,0.2,0.9c0.3,1.1,1.3,3.3,3.5,2.9
	c0.7-0.1,1.2-0.7,1.5-1.4c0.6-1.1,0.7-2.4,0.6-3.6c-0.3-1.8-0.4-3.5-0.5-5.3c-0.1-3.2,0.1-5.4,0.1-5.4c0.4-4.3,0.8-8.4,3-12.2
	c3-5.2,6.6-8.2,6.6-8.2C123.4,61.4,128.3,57.7,123.6,55.3"/>
<path id="XMLID_24_" class="st0" d="M124,55.1c4.8,2.4-0.3,6.1-0.3,6.1c-0.1,0.1-3.7,3.1-6.8,8.3c-2.2,3.8-2.6,7.9-3.1,12.2
	c0,0-0.3,4.4-0.1,5.6l-5.8-0.9c-0.1-7.3,1.3-14.7,3.7-21.5C111.6,64.9,116.2,54.6,124,55.1L124,55.1"/>
<g id="shirt_1_">
	<path id="torso_2_" class="st1" d="M139.6,57.8c-1.5-2-6.5-5.1-9.1-4.2c-2.6-0.9-7.6,2.2-9.1,4.2c-2.2,3-4.8,8.2-4.2,32.7h13.3h0.1
		h13.3C144.5,66,141.8,60.8,139.6,57.8z"/>
	<path id="XMLID_22_" class="st0" d="M139.7,57.6c-1.5-2.1-6.5-5.2-9.1-4.3c-2.6-0.9-7.6,2.2-9.1,4.3c-2.2,3-4.8,8.3-4.2,33.1h13.3
		h0.1h13.3C144.5,65.9,141.8,60.7,139.7,57.6z"/>
</g>
<g id="XMLID_18_">
	<path id="XMLID_21_" class="st0" d="M149.6,34.6c0.3,1.9-1.1,3.6-3.1,3.8c-2,0.2-3.9-1.2-4.2-3.1c-0.3-1.9,1.1-3.6,3.1-3.8
		C147.4,31.4,149.3,32.7,149.6,34.6z"/>
	<path id="XMLID_20_" class="st0" d="M118.1,34.9c0,1.9-1.6,3.5-3.6,3.5c-2,0-3.7-1.5-3.7-3.4c0-1.9,1.6-3.5,3.6-3.5
		C116.4,31.5,118.1,33,118.1,34.9z"/>
</g>
<g id="XMLID_14_">
	<path id="XMLID_16_" class="st0" d="M130.8,14.2c-4,0.2-8.2,1.6-11.2,4.2c-4.4,3.8-5.6,11.7-5.4,17.9c0.7,18.9,12.8,19.5,16.6,19.9
		V14.2z"/>
	<path id="XMLID_15_" class="st0" d="M130.5,14.2c4,0.2,7.9,1.6,10.9,4.2c4.4,3.8,5.2,11.7,4.9,17.9c-0.4,8.3-3.2,20-15.8,19.9V14.2
		z"/>
</g>
<g id="right-leg_2_">
	<g id="XMLID_53_">
		<path id="XMLID_56_" class="st0" d="M26.5,129.9h4.7c0,0,7.9,6.2,7.4,9.8H26.3L26.5,129.9z"/>
	</g>
	<path id="XMLID_52_" class="st0" d="M38,90.8c0,0-0.6,4.6-1.4,10.6c-1.5,10.3-3.8,24.9-5.3,28.5c0,0.1,0,0.1-0.1,0.2h-4.7
		c0,0,0.4-12.6,0.6-23.8c0-0.1,0-0.1,0-0.2c0.1-5.5,0.3-10.6,0.3-13.6c0-0.7,0-1.3,0-1.8H38z"/>
</g>
<g id="XMLID_50_">
	<path id="XMLID_51_" class="st0" d="M22.8,129.9h-4.7c0,0-7.9,6.2-7.4,9.8h12.4L22.8,129.9z"/>
</g>
<path id="XMLID_48_" class="st0" d="M22.8,130h-4.7c-1.6-3.4-3.9-18.4-5.4-28.8c-0.9-6-1.4-10.5-1.4-10.5h10.6c0,0.5,0,1,0,1.8
	c0,3,0.2,8.1,0.3,13.6c0,0.1,0,0.1,0,0.2C22.5,117.4,22.8,130,22.8,130z"/>
<path id="XMLID_47_" class="st0" d="M27.4,90.7H38c0,0-0.4,3.8-1.3,8.7c-0.7,0.7-1.7,1.2-2.7,1.8c-1.9,1.1-4.3,1.8-6.9,2.1
	c-0.8,0.1-1.6,0.1-2.4,0.1c-0.9,0-1.7-0.1-2.5-0.1c-2-0.2-3.9-0.7-5.5-1.4c-1.6-0.7-3-1.3-4.1-2.3c-0.9-4.9-1.3-8.8-1.3-8.8h10.6
	C21.9,90.7,27.3,90.6,27.4,90.7z"/>
<path id="XMLID_45_" class="st0" d="M31.4,55.3L31.4,55.3c6.7-0.4,11,7.5,11.9,9.3c0.1,0.2,0.2,0.5,0.3,0.7
	c2.3,6.7,3.6,13.9,3.5,21.1c0,1.4,0,3.3-0.2,5.3c-0.1,0.6-0.1,1.3-0.2,1.9c0,0.3-0.1,0.6-0.2,0.9c-0.3,1.1-1.3,3.3-3.5,2.9
	c-0.7-0.1-1.2-0.7-1.5-1.4c-0.6-1.1-0.7-2.4-0.6-3.6c0.3-1.8,0.4-3.5,0.5-5.3c0.1-3.2-0.1-5.4-0.1-5.4c-0.4-4.3-0.8-8.4-3-12.2
	c-3-5.2-6.6-8.2-6.6-8.2C31.7,61.4,26.7,57.7,31.4,55.3"/>
<path id="XMLID_44_" class="st0" d="M31.2,55.2c-4.8,2.4,0.2,6.1,0.2,6.1c0.1,0.1,3.7,3,6.7,8.2c2.2,3.8,2.6,7.8,3,12.2
	c0,0,0.3,4.4,0.1,5.5l5.7-0.9c0.1-7.3-1.2-14.6-3.6-21.4C43.4,64.9,38.9,54.7,31.2,55.2L31.2,55.2"/>
<path id="XMLID_43_" class="st0" d="M17.7,55.3L17.7,55.3c-6.7-0.4-11,7.5-11.9,9.3c-0.1,0.2-0.2,0.5-0.3,0.7
	C3.2,72,1.9,79.2,2.1,86.4c0,1.4,0,3.3,0.2,5.3c0.1,0.6,0.1,1.3,0.2,1.9c0,0.3,0.1,0.6,0.2,0.9c0.3,1.1,1.3,3.3,3.5,2.9
	c0.7-0.1,1.2-0.7,1.5-1.4c0.6-1.1,0.7-2.4,0.6-3.6c-0.3-1.8-0.4-3.5-0.5-5.3c-0.1-3.2,0.1-5.4,0.1-5.4c0.4-4.3,0.8-8.4,3-12.2
	c3-5.2,6.6-8.2,6.6-8.2C17.4,61.4,22.4,57.7,17.7,55.3"/>
<path id="XMLID_42_" class="st0" d="M18.1,55.1c4.8,2.4-0.3,6.1-0.3,6.1c-0.1,0.1-3.7,3.1-6.8,8.3c-2.2,3.8-2.6,7.9-3.1,12.2
	c0,0-0.3,4.4-0.1,5.6L2,86.3C1.9,79,3.3,71.7,5.7,64.9C5.7,64.9,10.3,54.6,18.1,55.1L18.1,55.1"/>
<g id="shirt_3_">
	<path id="torso_3_" class="st1" d="M33.7,57.8c-1.5-2-6.5-5.1-9.1-4.2c-2.6-0.9-7.6,2.2-9.1,4.2c-2.2,3-4.8,8.2-4.2,32.7h13.3h0.1
		H38C38.6,66,35.9,60.8,33.7,57.8z"/>
	<path id="XMLID_41_" class="st0" d="M33.7,57.6c-1.5-2.1-6.5-5.2-9.1-4.3c-2.6-0.9-7.6,2.2-9.1,4.3c-2.2,3-4.8,8.3-4.2,33.1h13.3
		h0.1H38C38.6,65.9,35.9,60.7,33.7,57.6z"/>
</g>
<g id="XMLID_38_">
	<path id="XMLID_40_" class="st0" d="M43.7,34.6c0.3,1.9-1.1,3.6-3.1,3.8c-2,0.2-3.9-1.2-4.2-3.1c-0.3-1.9,1.1-3.6,3.1-3.8
		C41.5,31.4,43.4,32.7,43.7,34.6z"/>
	<path id="XMLID_39_" class="st0" d="M12.2,34.9c0,1.9-1.6,3.5-3.6,3.5c-2,0-3.7-1.5-3.7-3.4c0-1.9,1.6-3.5,3.6-3.5
		C10.5,31.5,12.1,33,12.2,34.9z"/>
</g>
<g id="XMLID_35_">
	<path id="XMLID_37_" class="st0" d="M24.9,14.2c-4,0.2-8.2,1.6-11.2,4.2C9.3,22.3,8,30.2,8.3,36.3C9,55.2,21,55.8,24.9,56.2V14.2z"
		/>
	<path id="XMLID_36_" class="st0" d="M24.6,14.2c4,0.2,7.9,1.6,10.9,4.2c4.4,3.8,5.2,11.7,4.9,17.9c-0.4,8.3-3.2,20-15.8,19.9V14.2z
		"/>
</g>
<g>
</g>
<g>
</g>
<g>
</g>
<g>
</g>
<g>
</g>
<g>
</g>
</svg>
