<?xml version="1.0" encoding="utf-8"?>
<!-- Generator: Adobe Illustrator 21.0.1, SVG Export Plug-In . SVG Version: 6.00 Build 0)  -->
<svg version="1.1" xmlns="http://www.w3.org/2000/svg" xmlns:xlink="http://www.w3.org/1999/xlink" x="0px" y="0px"
	 viewBox="0 0 569.4 325" style="enable-background:new 0 0 569.4 325;" xml:space="preserve">
<style type="text/css">
	.st0{fill-rule:evenodd;clip-rule:evenodd;fill:#FFF1D0;}
	.st1{display:none;}
	.st2{display:inline;fill-rule:evenodd;clip-rule:evenodd;fill:#CCC1A6;}
	.st3{fill-rule:evenodd;clip-rule:evenodd;fill:#FDEFD2;}
	.st4{fill-rule:evenodd;clip-rule:evenodd;fill:#5D0C0B;}
	.st5{fill-rule:evenodd;clip-rule:evenodd;fill:#E3605F;}
	.st6{fill-rule:evenodd;clip-rule:evenodd;fill:#423E35;}
	.st7{fill-rule:evenodd;clip-rule:evenodd;fill:#5D2827;}
	.st8{fill-rule:evenodd;clip-rule:evenodd;fill:#DD1C1A;}
	.st9{fill-rule:evenodd;clip-rule:evenodd;fill:#AA1614;}
	.st10{fill-rule:evenodd;clip-rule:evenodd;fill:#7F0011;}
	.st11{fill-rule:evenodd;clip-rule:evenodd;fill:#CC001B;}
	.st12{fill-rule:evenodd;clip-rule:evenodd;fill:#FF0022;}
	.st13{fill-rule:evenodd;clip-rule:evenodd;fill:#7F2632;}
	.st14{fill-rule:evenodd;clip-rule:evenodd;fill:#ED1F24;}
	.st15{fill-rule:evenodd;clip-rule:evenodd;fill:#FDFFFC;}
	.st16{fill-rule:evenodd;clip-rule:evenodd;fill:#BA3902;}
	.st17{fill-rule:evenodd;clip-rule:evenodd;fill:#FFDA83;}
	.st18{fill-rule:evenodd;clip-rule:evenodd;fill:#C6232F;}
	.st19{fill-rule:evenodd;clip-rule:evenodd;fill:#7F7868;}
	.st20{fill-rule:evenodd;clip-rule:evenodd;fill:#7F6D42;}
	.st21{fill-rule:evenodd;clip-rule:evenodd;fill:#FF4C64;}
	.st22{fill:#6483A3;}
	.st23{fill:#92AABF;}
	.st24{fill:#252424;}
	.st25{display:none;fill:#FABA90;}
	.st26{display:none;fill:#E78C5F;}
	.st27{fill:#EEEDED;}
	.st28{fill:#E88D5E;}
	.st29{fill:#FABA90;}
	.st30{fill:#382D26;}
	.st31{fill:#5D2827;}
</style>
<g id="Background">
	<g>
		<rect x="-230.5" y="-327.4" class="st0" width="799.9" height="799.9"/>
		<g class="st1">
			<rect x="-202.5" y="-327.4" class="st2" width="22.1" height="799.9"/>
			<rect x="-146.9" y="-327.4" class="st2" width="22.1" height="799.9"/>
			<rect x="-91.4" y="-327.4" class="st2" width="22.1" height="799.9"/>
			<rect x="-35.9" y="-327.4" class="st2" width="22.1" height="799.9"/>
			<rect x="19.6" y="-327.4" class="st2" width="22.1" height="799.9"/>
			<rect x="75.1" y="-327.4" class="st2" width="22.1" height="799.9"/>
			<rect x="130.6" y="-327.4" class="st2" width="22.1" height="799.9"/>
			<rect x="186.2" y="-327.4" class="st2" width="22.1" height="799.9"/>
			<rect x="241.7" y="-327.4" class="st2" width="22.1" height="799.9"/>
			<rect x="297.2" y="-327.4" class="st2" width="22.1" height="799.9"/>
			<rect x="352.7" y="-327.4" class="st2" width="22.1" height="799.9"/>
			<rect x="408.2" y="-327.4" class="st2" width="22.1" height="799.9"/>
			<rect x="463.8" y="-327.4" class="st2" width="22.1" height="799.9"/>
			<rect x="519.3" y="-327.4" class="st2" width="22.1" height="799.9"/>
		</g>
		<rect x="-229.1" y="264.7" class="st3" width="799.9" height="206.5"/>
	</g>
</g>
<g id="Objects">
	<g>
		<g>
			<g>
				<path class="st4" d="M52.2-117c16.4,0,29.7-13.4,29.7-29.7s-13.4-29.7-29.7-29.7s-29.7,13.4-29.7,29.7S35.8-117,52.2-117z"/>
				<path class="st5" d="M52.2-120.9c14.2,0,25.8-11.6,25.8-25.8s-11.6-25.8-25.8-25.8s-25.8,11.6-25.8,25.8S38-120.9,52.2-120.9z"
					/>
				<path class="st4" d="M52.2-164.3L52.2-164.3c0.8,0,1.4,0.6,1.4,1.4v14.8c0,0.8-0.6,1.4-1.4,1.4h0c-0.8,0-1.4-0.6-1.4-1.4v-14.8
					C50.8-163.7,51.4-164.3,52.2-164.3z"/>
				<path class="st4" d="M41.1-156.6L41.1-156.6c0.5-0.6,1.4-0.6,2-0.1l9,8.1c0.6,0.5,0.6,1.4,0.1,2l0,0c-0.5,0.6-1.4,0.6-2,0.1
					l-9-8.1C40.6-155.1,40.6-156,41.1-156.6z"/>
				<circle class="st4" cx="52.2" cy="-167.3" r="1.5"/>
				<circle class="st4" cx="73.5" cy="-146.1" r="1.5"/>
				<circle class="st4" cx="52.4" cy="-124.7" r="1.5"/>
				<circle class="st4" cx="31" cy="-145.9" r="1.5"/>
				<circle class="st6" cx="52.2" cy="-146.7" r="3.6"/>
			</g>
			<g>
				<path class="st4" d="M254.5-24.3v-25.5c0-3.7,3.1-6.8,6.8-6.8h29.1c3.7,0,6.8,3.1,6.8,6.8v25.5H254.5z"/>
				<path class="st7" d="M254.5-48.4v-1.4c0-3.7,3.1-6.8,6.8-6.8h29.1c3.7,0,6.8,3.1,6.8,6.8v1.4H254.5z"/>
				<rect x="167.8" y="-39.2" class="st5" width="66" height="14.9"/>
				<rect x="167.8" y="-46" class="st8" width="71.9" height="6.8"/>
				<rect x="167.8" y="-60.9" class="st9" width="58.4" height="14.9"/>
				<rect x="167.8" y="-68.4" class="st7" width="65.5" height="7.5"/>
				<rect x="167.8" y="-75.8" class="st4" width="58.4" height="7.5"/>
				<path class="st7" d="M310-98.9L310-98.9c0,4-3.3,7.3-7.3,7.3H167.8c-4,0-7.3-3.3-7.3-7.3l0,0c0-4,3.3-7.3,7.3-7.3h134.9
					C306.7-106.2,310-103,310-98.9z"/>
				<path class="st7" d="M310-17L310-17c0,4-3.3,7.3-7.3,7.3H167.8c-4,0-7.3-3.3-7.3-7.3v0c0-4,3.3-7.3,7.3-7.3h134.9
					C306.7-24.3,310-21,310-17z"/>
				<path class="st10" d="M286.3-121.3c4.5-6.7,7.2-15.6,7.2-25.3c0-4-0.4-7.8-1.3-11.4h-22.5c-0.8,3.6-1.3,7.4-1.3,11.4
					c0,9.9,2.8,18.8,7.3,25.5c2.1,3,0.9,3.4,0.2,4.9c-1.4,2.9-2.1,6.4-2.2,10h14.5c-0.1-3.7-0.9-7.2-2.3-10.1
					C285.3-117.6,284.2-118.1,286.3-121.3z"/>
				<path class="st7" d="M194.2-109.4c3.4,0,6.1-2.7,6.1-6.1c0-3.4-2.7-6.1-6.1-6.1c-3.4,0-6.1,2.7-6.1,6.1
					C188.1-112.1,190.8-109.4,194.2-109.4z"/>
				<path class="st9" d="M204.5-108c5.4,0,9.7-4.4,9.7-9.7c0-5.4-4.4-9.7-9.7-9.7c-5.4,0-9.7,4.4-9.7,9.7
					C194.7-112.4,199.1-108,204.5-108z"/>
				<path class="st8" d="M214-109.4c3.4,0,6.1-2.7,6.1-6.1c0-3.4-2.7-6.1-6.1-6.1c-3.4,0-6.1,2.7-6.1,6.1
					C207.9-112.1,210.6-109.4,214-109.4z"/>
				<path class="st4" d="M180.3-114.1c1.7,3.4,6.2,6.2,12.1,7.9h24.2c5.9-1.7,10.3-4.5,12.1-7.9H180.3z"/>
				<rect x="247.6" y="-161.6" class="st11" width="12.5" height="55.4"/>
				<rect x="235.1" y="-161.6" class="st12" width="12.5" height="55.4"/>
				<rect x="260.1" y="-176.4" class="st13" width="8.3" height="70.2"/>
			</g>
			<g>
				<path class="st7" d="M-53-17L-53-17c0,4-3.3,7.3-7.3,7.3h-134.9c-4,0-7.3-3.3-7.3-7.3l0,0c0-4,3.3-7.3,7.3-7.3h134.9
					C-56.3-24.3-53-21-53-17z"/>
				<path class="st7" d="M-195.2-9.7L-195.2-9.7c-4,0-7.3-3.3-7.3-7.3v-81.9c0-4,3.3-7.3,7.3-7.3h0c4,0,7.3,3.3,7.3,7.3V-17
					C-187.9-13-191.2-9.7-195.2-9.7z"/>
				<path class="st7" d="M81.9,64.9L81.9,64.9c0,4-3.3,7.3-7.3,7.3H-60.3c-4,0-7.3-3.3-7.3-7.3v0c0-4,3.3-7.3,7.3-7.3H74.6
					C78.6,57.7,81.9,60.9,81.9,64.9z"/>
				<path class="st7" d="M-60.3,72.2L-60.3,72.2c-4,0-7.3-3.3-7.3-7.3V-17c0-4,3.3-7.3,7.3-7.3h0c4,0,7.3,3.3,7.3,7.3v81.9
					C-53,68.9-56.3,72.2-60.3,72.2z"/>
				<rect x="-87.9" y="-80.8" class="st7" width="4.2" height="43.1"/>
				<path class="st9" d="M-69.3-46.2c-1.2,9.4-4.2,17.3-8.3,21.9h-16.5c-4-4.6-7.1-12.5-8.3-21.9H-69.3z"/>
				<path class="st12" d="M-70.5-39.7c-0.3,1.3-0.7,2.6-1.1,3.9h-28.6c-0.4-1.2-0.8-2.5-1.1-3.9H-70.5z"/>
				<g>
					<path class="st12" d="M-95.7-67.4c4.8,0,8.8-3.9,8.8-8.8c0-4.8-3.9-8.8-8.8-8.8c-4.8,0-8.8,3.9-8.8,8.8
						C-104.5-71.4-100.5-67.4-95.7-67.4z"/>
					<path class="st12" d="M-85.8-60.9c5.4,0,9.7-4.4,9.7-9.7c0-5.4-4.4-9.7-9.7-9.7c-5.4,0-9.7,4.4-9.7,9.7
						C-95.5-65.3-91.1-60.9-85.8-60.9z"/>
					<path class="st12" d="M-78.5-72.5c4.8,0,8.8-3.9,8.8-8.8c0-4.8-3.9-8.8-8.8-8.8c-4.8,0-8.8,3.9-8.8,8.8
						C-87.2-76.5-83.3-72.5-78.5-72.5z"/>
					<path class="st12" d="M-86.2-82c4.8,0,8.8-3.9,8.8-8.8c0-4.8-3.9-8.8-8.8-8.8c-4.8,0-8.8,3.9-8.8,8.8C-95-85.9-91.1-82-86.2-82
						z"/>
					<path class="st12" d="M-96.5-76.2c5.3,0,9.6-4.3,9.6-9.6c0-5.3-4.3-9.6-9.6-9.6c-5.3,0-9.6,4.3-9.6,9.6
						C-106.1-80.5-101.8-76.2-96.5-76.2z"/>
					<path class="st12" d="M-88.1-71.8c4.8,0,8.8-3.9,8.8-8.8c0-4.8-3.9-8.8-8.8-8.8c-4.8,0-8.8,3.9-8.8,8.8
						C-96.9-75.8-92.9-71.8-88.1-71.8z"/>
					<path class="st14" d="M-82.9-82.2c2.2,0,4.2,1.3,5.1,3.2c-1-0.9-2.3-1.5-3.8-1.5c-3.1,0-5.6,2.5-5.6,5.6c0,0.9,0.2,1.7,0.6,2.4
						c-1.1-1-1.8-2.5-1.8-4.1C-88.5-79.7-86-82.2-82.9-82.2z"/>
					<path class="st14" d="M-86.2-94.9c2.2,0,4.2,1.3,5.1,3.2c-1-0.9-2.3-1.5-3.8-1.5c-3.1,0-5.6,2.5-5.6,5.6c0,0.9,0.2,1.7,0.6,2.4
						c-1.1-1-1.8-2.5-1.8-4.1C-91.8-92.4-89.3-94.9-86.2-94.9z"/>
					<path class="st14" d="M-95.4-84c2.2,0,4.2,1.3,5.1,3.2c-1-0.9-2.3-1.5-3.8-1.5c-3.1,0-5.6,2.5-5.6,5.6c0,0.9,0.2,1.7,0.6,2.4
						c-1.1-1-1.8-2.5-1.8-4.1C-101.1-81.5-98.5-84-95.4-84z"/>
				</g>
				<rect x="-187.9" y="-38.3" class="st8" width="62.3" height="14.1"/>
				<rect x="-187.9" y="-44.8" class="st14" width="44.3" height="6.4"/>
				<rect x="-187.9" y="-58.8" class="st12" width="55.1" height="14.1"/>
				<rect x="-187.9" y="-65.9" class="st0" width="55.1" height="7"/>
				<rect x="-187.9" y="-72.9" class="st15" width="55.1" height="7"/>
				<g>
					<g>
						<rect x="13.9" y="34.8" class="st9" width="55.7" height="22.8"/>
						<rect x="11.2" y="29.7" class="st11" width="61.1" height="5.1"/>
					</g>
					<g>
						<rect x="13.1" y="13.3" class="st12" width="40" height="16.4"/>
						<rect x="11.2" y="9.6" class="st14" width="43.8" height="3.7"/>
					</g>
				</g>
				<rect x="-53" y="-8.4" class="st8" width="14.9" height="66.1"/>
				<rect x="-38.1" y="10.6" class="st14" width="6.8" height="47"/>
				<rect x="-31.3" y="-0.8" class="st0" width="14.9" height="58.4"/>
				<rect x="-16.3" y="-10.9" class="st15" width="7.5" height="68.6"/>
				
					<rect x="-4.9" y="-1" transform="matrix(0.9906 -0.1367 0.1367 0.9906 -3.8661 0.101)" class="st12" width="7.5" height="58.4"/>
			</g>
			<g>
				<rect x="-195.2" y="249.8" class="st7" width="287.3" height="14.6"/>
				<rect x="-187.9" y="212" class="st16" width="29.2" height="6.9"/>
				<path class="st17" d="M-155.5,235.5c17.8,0,32.3-10.6,32.3-23.5c0-13-14.5-23.5-32.3-23.5s-32.3,10.6-32.3,23.5
					C-187.9,224.9-173.4,235.5-155.5,235.5z"/>
				<rect x="-187.9" y="218.9" class="st0" width="272.7" height="30.8"/>
				<rect x="-125.6" y="218.9" class="st5" width="210.4" height="71.1"/>
				<rect x="-125.6" y="218.9" class="st8" width="20.3" height="71.1"/>
				<path class="st4" d="M404.1,184.9L404.1,184.9c0,4-3.3,7.3-7.3,7.3H92.1c-4,0-7.3-3.3-7.3-7.3v0c0-4,3.3-7.3,7.3-7.3h304.8
					C400.9,177.6,404.1,180.9,404.1,184.9z"/>
				<path class="st4" d="M92.1,318.1L92.1,318.1c-4,0-7.3-3.3-7.3-7.3V184.9c0-4,3.3-7.3,7.3-7.3l0,0c4,0,7.3,3.3,7.3,7.3v125.9
					C99.4,314.8,96.1,318.1,92.1,318.1z"/>
				<path class="st7" d="M-195.2,318.1L-195.2,318.1c-4,0-7.3-3.3-7.3-7.3V146.9c0-4,3.3-7.3,7.3-7.3h0c4,0,7.3,3.3,7.3,7.3v163.9
					C-187.9,314.8-191.2,318.1-195.2,318.1z"/>
				<rect x="99.4" y="192.2" class="st9" width="105.2" height="56.3"/>
				<path class="st4" d="M208.3,251.8L208.3,251.8c0,1.8-1.5,3.3-3.3,3.3H88.2c-1.8,0-3.3-1.5-3.3-3.3v0c0-1.8,1.5-3.3,3.3-3.3
					h116.8C206.8,248.5,208.3,250,208.3,251.8z"/>
				<rect x="99.4" y="255.1" class="st9" width="105.2" height="56.3"/>
				<path class="st4" d="M211.9,314.8L211.9,314.8c0,1.8-1.5,3.3-3.3,3.3H91.8c-1.8,0-3.3-1.5-3.3-3.3v0c0-1.8,1.5-3.3,3.3-3.3
					h116.8C210.4,311.5,211.9,312.9,211.9,314.8z"/>
				<path class="st4" d="M208.3,318.1L208.3,318.1c-2,0-3.6-1.6-3.6-3.6V181.2c0-2,1.6-3.6,3.6-3.6l0,0c2,0,3.6,1.6,3.6,3.6v133.2
					C211.9,316.4,210.3,318.1,208.3,318.1z"/>
				<path class="st5" d="M177.5,203.9L177.5,203.9c0,1.8-1.5,3.3-3.3,3.3h-44.3c-1.8,0-3.3-1.5-3.3-3.3v0c0-1.8,1.5-3.3,3.3-3.3
					h44.3C176,200.6,177.5,202.1,177.5,203.9z"/>
				<path class="st5" d="M177.5,266.9L177.5,266.9c0,1.8-1.5,3.3-3.3,3.3h-44.3c-1.8,0-3.3-1.5-3.3-3.3l0,0c0-1.8,1.5-3.3,3.3-3.3
					h44.3C176,263.6,177.5,265.1,177.5,266.9z"/>
				<g>
					<polygon class="st6" points="289.5,157.3 313.4,157.3 324.6,177.6 278.4,177.6 					"/>
					<path class="st4" d="M245.2,89.8h112.4c3.2,0,5.8,2.6,5.8,5.8v61.2c0,3.2-2.6,5.8-5.8,5.8H245.2c-3.2,0-5.8-2.6-5.8-5.8V95.5
						C239.5,92.4,242.1,89.8,245.2,89.8z"/>
					<rect x="243.3" y="93.1" class="st0" width="116.3" height="59.1"/>
					<circle class="st8" cx="356.5" cy="157.4" r="0.7"/>
					<circle class="st8" cx="353.5" cy="157.4" r="0.7"/>
					<circle class="st8" cx="350.6" cy="157.4" r="0.7"/>
					<path class="st4" d="M232.8,171.5h137.2c1.7,0,3.1,1.4,3.1,3.1l0,0c0,1.7-1.4,3.1-3.1,3.1H232.8c-1.7,0-3.1-1.4-3.1-3.1l0,0
						C229.8,172.8,231.2,171.5,232.8,171.5z"/>
					<path class="st4" d="M373.1,174.5c0,1.7-1.4,3.1-3.1,3.1H232.8c-1.7,0-3.1-1.4-3.1-3.1H373.1z"/>
				</g>
				<g>
					<polygon class="st15" points="339.2,93.1 279,152.2 264.2,152.2 324.3,93.1 					"/>
					<polygon class="st15" points="357.8,93.1 297.6,152.2 289.1,152.2 349.3,93.1 					"/>
					<polygon class="st15" points="314.2,93.1 254.1,152.2 245.6,152.2 305.7,93.1 					"/>
				</g>
				<g>
					<circle class="st4" cx="383.5" cy="172.8" r="4.7"/>
					<path class="st4" d="M388.3,172.8v2.7c0,1.2-0.9,2.1-2.1,2.1h-5.3c-1.2,0-2.1-0.9-2.1-2.1v-2.7H388.3z"/>
				</g>
				<g>
					<path class="st9" d="M267.4,47L267.4,47c0.6,1.5-0.1,3.2-1.6,3.8l-94.1,37.8c-1.5,0.6-3.2-0.1-3.8-1.6l0,0
						c-0.6-1.5,0.1-3.2,1.6-3.8l94.1-37.8C265.1,44.8,266.8,45.5,267.4,47z"/>
					<path class="st9" d="M150.4,170.8L150.4,170.8c-1.6,0-2.6-1.9-2.2-3.4l16.5-78.3c0.3-1.6,1.8-2.2,3.4-2.2l0,0
						c1.6,0,2.6,1.9,2.2,3.4l-16.5,78.3C153.5,170.1,152,170.8,150.4,170.8z"/>
					<g>
						<g>
							<path class="st9" d="M158.4,149.3L170.1,93l-6.4-1.3l-5.3,25.5v12.2l7.7-37.2l1.5,0.3l-9.2,44.6V149.3z M146.8,173.5l6.4,1.3
								l5.3-25.5v-12.2l-7.7,37.2l-1.5-0.3l9.2-44.6v-12.2L146.8,173.5z"/>
							<path class="st5" d="M266.5,68.4c3.5,0,6.4-2.9,6.4-6.4c0-3.5-2.9-6.4-6.4-6.4s-6.4,2.9-6.4,6.4
								C260.1,65.5,263,68.4,266.5,68.4z"/>
							<circle class="st5" cx="247.2" cy="30" r="2"/>
							<path class="st7" d="M247.2,30c2-1.2,4.2-2.1,6.4-2.8l8.5,10.4c8.5-0.3,17.7,4.8,23.3,13.8c-6.2,3.1-12.5,6.6-18.9,10.5
								c-6.4,3.9-12.5,7.9-18.1,11.9c-5.3-9.2-5.6-19.8-1.4-27.1l-5.3-12.3C243.3,32.7,245.1,31.3,247.2,30z"/>
							
								<ellipse transform="matrix(0.6998 -0.7143 0.7143 0.6998 -11.6109 146.0815)" class="st7" cx="168" cy="86.9" rx="6.8" ry="6.8"/>
						</g>
						<path class="st7" d="M151.8,161.3c9,0,16.3,7.3,16.3,16.3l0,0h-32.6l0,0C135.5,168.6,142.8,161.3,151.8,161.3z"/>
					</g>
				</g>
			</g>
			<g>
				<g>
					<rect x="406.5" y="-91.7" class="st9" width="120.3" height="395.2"/>
					<path class="st7" d="M541.4,310.8L541.4,310.8c0,4-3.3,7.3-7.3,7.3H399.2c-4,0-7.3-3.3-7.3-7.3v0c0-4,3.3-7.3,7.3-7.3h134.9
						C538.1,303.5,541.4,306.8,541.4,310.8z"/>
					<path class="st7" d="M399.2-106.2L399.2-106.2c4,0,7.3,3.3,7.3,7.3v409.7c0,4-3.3,7.3-7.3,7.3l0,0c-4,0-7.3-3.3-7.3-7.3V-98.9
						C391.9-103,395.2-106.2,399.2-106.2z"/>
					<path class="st7" d="M534.1-106.2L534.1-106.2c4,0,7.3,3.3,7.3,7.3v409.7c0,4-3.3,7.3-7.3,7.3h0c-4,0-7.3-3.3-7.3-7.3V-98.9
						C526.8-103,530.1-106.2,534.1-106.2z"/>
					<path class="st7" d="M541.4-98.9L541.4-98.9c0,4-3.3,7.3-7.3,7.3H399.2c-4,0-7.3-3.3-7.3-7.3l0,0c0-4,3.3-7.3,7.3-7.3h134.9
						C538.1-106.2,541.4-103,541.4-98.9z"/>
					<path class="st7" d="M541.4-13.4L541.4-13.4c0,2-1.6,3.6-3.6,3.6H395.6c-2,0-3.6-1.6-3.6-3.6v0c0-2,1.6-3.6,3.6-3.6h142.2
						C539.7-17,541.4-15.4,541.4-13.4z"/>
					<path class="st7" d="M541.4,68.6L541.4,68.6c0,2-1.6,3.6-3.6,3.6H395.6c-2,0-3.6-1.6-3.6-3.6l0,0c0-2,1.6-3.6,3.6-3.6h142.2
						C539.7,64.9,541.4,66.6,541.4,68.6z"/>
					<path class="st7" d="M541.4,150.5L541.4,150.5c0,2-1.6,3.6-3.6,3.6H395.6c-2,0-3.6-1.6-3.6-3.6l0,0c0-2,1.6-3.6,3.6-3.6h142.2
						C539.7,146.9,541.4,148.5,541.4,150.5z"/>
					<path class="st7" d="M541.4,232.5L541.4,232.5c0,2-1.6,3.6-3.6,3.6H395.6c-2,0-3.6-1.6-3.6-3.6l0,0c0-2,1.6-3.6,3.6-3.6h142.2
						C539.7,228.8,541.4,230.5,541.4,232.5z"/>
				</g>
				<rect x="440.3" y="179.4" class="st5" width="28.1" height="49.4"/>
				<rect x="436.5" y="179.4" class="st8" width="3.8" height="49.4"/>
				<rect x="444" y="191.1" class="st8" width="20.6" height="3.5"/>
				<rect x="448.5" y="197" class="st8" width="11.7" height="1.6"/>
				<rect x="406.5" y="175.9" class="st4" width="12" height="52.9"/>
				<rect x="418.4" y="182" class="st7" width="12" height="46.8"/>
				<rect x="430.4" y="196.5" class="st9" width="6.1" height="32.3"/>
				<g>
					<path class="st18" d="M496,129.8h8.5c0.3,0,0.5-0.2,0.5-0.5v-6c0-0.3-0.2-0.5-0.5-0.5H496c-0.3,0-0.5,0.2-0.5,0.5v6
						C495.6,129.6,495.8,129.8,496,129.8z"/>
					<path class="st9" d="M496.6,127.2h7.5c0.1,0,0.2-0.1,0.2-0.2v-3.1c0-0.1-0.1-0.2-0.2-0.2h-7.5c-0.1,0-0.2,0.1-0.2,0.2v3.1
						C496.3,127.1,496.5,127.2,496.6,127.2z"/>
					<path class="st9" d="M486.3,131.1h28.1c0.6,0,1.1,0.5,1.1,1.1v14.2c0,0.6-0.5,1.1-1.1,1.1h-28.1c-0.6,0-1.1-0.5-1.1-1.1v-14.2
						C485.1,131.6,485.7,131.1,486.3,131.1z"/>
					<path class="st18" d="M486.6,131.9H514c0.4,0,0.7,0.3,0.7,0.7v13.6c0,0.4-0.3,0.7-0.7,0.7h-27.4c-0.4,0-0.7-0.3-0.7-0.7v-13.6
						C485.9,132.2,486.2,131.9,486.6,131.9z"/>
					<circle class="st7" cx="491.5" cy="133.9" r="1.3"/>
					<path class="st0" d="M496.6,126l7.3-2.1c0.1,0,0.1,0.1,0.1,0.2v0.5l-7.4,2.2V126z"/>
					<g>
						<path class="st5" d="M491.6,132.8l-0.2,1.1l-0.7-0.9c0.2-0.1,0.4-0.2,0.7-0.2C491.5,132.8,491.6,132.8,491.6,132.8z"/>
						<path class="st5" d="M492.6,134.1l-1.1-0.2l0.9-0.7c0.1,0.2,0.2,0.4,0.2,0.7C492.6,134,492.6,134,492.6,134.1z"/>
						<path class="st5" d="M491.3,135l0.2-1.1l0.7,0.9c-0.2,0.1-0.4,0.2-0.7,0.2C491.4,135.1,491.4,135,491.3,135z"/>
						<path class="st5" d="M490.4,133.8l1.1,0.2l-0.9,0.7c-0.1-0.2-0.2-0.4-0.2-0.7C490.4,133.9,490.4,133.8,490.4,133.8z"/>
					</g>
					<path class="st8" d="M494.8,147.6c-0.5,0-0.9-0.4-0.9-0.9v-14.7c0-0.4,0.1-0.8,0.2-1.1l1.4-2.7c0.2-0.3,0.5-0.4,0.9-0.4
						c5.1,0,2.7,0,7.8,0c0.4,0,0.7,0.1,0.9,0.4l1.4,2.7c0.2,0.3,0.2,0.7,0.2,1.1v14.7c0,0.5-0.4,0.9-0.9,0.9H494.8z"/>
					<path class="st18" d="M495,131.1l1.1-2.2c0.2-0.3,0.4-0.4,0.8-0.4c4.5,0,2.4,0,6.8,0c0.3,0,0.6,0.1,0.8,0.4l1.1,2.2H495z"/>
					
						<ellipse transform="matrix(0.5011 -0.8654 0.8654 0.5011 126.613 493.6939)" class="st7" cx="491.5" cy="137" rx="1.3" ry="1.3"/>
					<g>
						<path class="st5" d="M492.2,136.1l-0.7,0.9l-0.1-1.1c0.2,0,0.5,0,0.7,0.1C492.1,136.1,492.1,136.1,492.2,136.1z"/>
						<path class="st5" d="M492.4,137.7l-0.9-0.7l1.1-0.1c0,0.2,0,0.5-0.1,0.7C492.4,137.6,492.4,137.7,492.4,137.7z"/>
						<path class="st5" d="M490.8,137.9l0.7-0.9l0.1,1.1c-0.2,0-0.5,0-0.7-0.1C490.9,138,490.8,138,490.8,137.9z"/>
						<path class="st5" d="M490.6,136.3l0.9,0.7l-1.1,0.1c0-0.2,0-0.5,0.1-0.7C490.5,136.4,490.6,136.4,490.6,136.3z"/>
					</g>
					<rect x="487.6" y="130.6" class="st18" width="2.7" height="0.6"/>
					<rect x="487.3" y="128.9" class="st7" width="3.2" height="1.6"/>
					<rect x="510.4" y="130.6" class="st18" width="2.7" height="0.6"/>
					<rect x="510.1" y="128.9" class="st7" width="3.2" height="1.6"/>
					<path class="st5" d="M507.9,134.3h5.7c0.1,0,0.1,0,0.1-0.1V133c0-0.1,0-0.1-0.1-0.1h-5.7c-0.1,0-0.1,0-0.1,0.1L507.9,134.3
						C507.8,134.3,507.8,134.3,507.9,134.3z"/>
					<path class="st18" d="M508.3,134h4.8c0,0,0,0,0,0v-0.4c0,0,0,0,0,0h-4.8c0,0,0,0,0,0L508.3,134C508.3,134,508.3,134,508.3,134z
						"/>
					<g>
						<path class="st7" d="M500.3,146.4c2.8,0,5.1-2.3,5.1-5.1c0-2.8-2.3-5.1-5.1-5.1c-2.8,0-5.1,2.3-5.1,5.1
							C495.2,144.1,497.5,146.4,500.3,146.4z"/>
						<g>
							<circle class="st4" cx="500.3" cy="141.3" r="4"/>
							<g>
								<circle class="st5" cx="500.3" cy="141.3" r="1.4"/>
								<path class="st5" d="M498.3,138.7c0.3-0.3,0.8-0.5,1.3-0.6c0.5-0.1,0.7,0.6,0.2,0.7c-0.4,0.1-0.7,0.2-1,0.5
									C498.3,139.6,497.8,139,498.3,138.7z"/>
								<path class="st5" d="M497.2,142.4c-0.3-0.9-0.2-1.9,0.2-2.7c0.3-0.5,0.9-0.1,0.6,0.3c-0.3,0.6-0.4,1.4-0.1,2.1
									C498.1,142.7,497.4,142.9,497.2,142.4z"/>
							</g>
						</g>
					</g>
				</g>
				<g>
					<path class="st19" d="M521.4-23.7L521.4-23.7l4.1,3.4l-4.1,3.3h4.5l0.9-0.8v-5.2l-3.2-2.6l3.2-2.6v-5.2l-3.2-2.6l3.2-2.6v-5.2
						l-3.2-2.6l3.2-2.6v-5.2l-0.9-0.8h-4.5l4.1,3.3l-4.1,3.4v0v3.7l4.1,3.4l-4.1,3.4v3.7l4.1,3.4l-4.1,3.4V-23.7z M518.2-17h3.1
						l-3.1-2.6V-17L518.2-17z M518.2-21.1l3.2-2.6v-3.7l-3.2-2.6v3.7l0.9,0.8l-0.9,0.8V-21.1L518.2-21.1z M521.4-48.2l-3.2-2.6v3.7
						l0.9,0.8l-0.9,0.8v3.7l3.2-2.6V-48.2L521.4-48.2z M518.2-52.3l3.1-2.6h-3.1V-52.3L518.2-52.3z M521.4-37.8v3.7l-3.2,2.6v-3.7
						l0.9-0.8l-0.9-0.8v-3.7L521.4-37.8z M515.1-18.5L515.1-18.5l1.8,1.5h1.3v-2.6l-0.9-0.8l0.9-0.8v-3.7l-3.2,2.6V-18.5L515.1-18.5
						z M518.2-50.8l-0.9-0.8l0.9-0.8v-2.6h-1.3l-1.8,1.5h0v3.7l3.2,2.6V-50.8L518.2-50.8z M518.2-45.6v3.7l-0.9,0.8l0.9,0.8v3.7
						l-3.2-2.6V-43h0L518.2-45.6L518.2-45.6z M518.2-35.2v3.7l-0.9,0.8l0.9,0.8v3.7l-3.2-2.6h0v-3.7L518.2-35.2z M511.9-21.1
						l0.9,0.8l-0.9,0.8v2.6h1.3l1.8-1.5v-3.7l-3.2-2.6V-21.1L511.9-21.1z M515.1-53.4l-1.8-1.5h-1.3v2.6l0.9,0.8l-0.9,0.8v3.7
						l3.2-2.6V-53.4L515.1-53.4z M515.1-43v3.7l-3.2,2.6v-3.7l0.9-0.8l-0.9-0.8v-3.7L515.1-43L515.1-43z M515.1-32.6v3.7l-3.2,2.6
						V-30l0.9-0.8l-0.9-0.8v-3.7L515.1-32.6z M508.7-23.7L508.7-23.7l3.2,2.6v-3.7l-0.9-0.8l0.9-0.8V-30l-3.2,2.6V-23.7L508.7-23.7z
						 M511.9-19.6l-3.1,2.6h3.1V-19.6L511.9-19.6z M511.9-54.9h-3.1l3.1,2.6V-54.9L511.9-54.9z M511.9-50.8l-3.2,2.6v0v3.7l3.2,2.6
						v-3.7l-0.9-0.8l0.9-0.8V-50.8L511.9-50.8z M511.9-40.4v3.7l-0.9,0.8l0.9,0.8v3.7l-3.2-2.6l0,0v-3.7L511.9-40.4z M505.6-17h3.1
						l-3.1-2.6V-17L505.6-17z M505.6-21.1l3.2-2.6v-3.7l-3.2-2.6v3.7l0.9,0.8l-0.9,0.8V-21.1L505.6-21.1z M508.7-48.2l-3.2-2.6v3.7
						l0.9,0.8l-0.9,0.8v3.7l3.2-2.6V-48.2L508.7-48.2z M505.6-52.3l3.1-2.6h-3.1V-52.3L505.6-52.3z M508.7-37.8v3.7l-3.2,2.6v-3.7
						l0.9-0.8l-0.9-0.8v-3.7L508.7-37.8z M502.4-18.5L502.4-18.5l1.8,1.5h1.3v-2.6l-0.9-0.8l0.9-0.8v-3.7l-3.2,2.6V-18.5L502.4-18.5
						z M505.6-50.8l-0.9-0.8l0.9-0.8v-2.6h-1.3l-1.8,1.5h0v3.7l3.2,2.6V-50.8L505.6-50.8z M505.6-45.6v3.7l-0.9,0.8l0.9,0.8v3.7
						l-3.2-2.6h0V-43h0L505.6-45.6L505.6-45.6z M505.6-35.2v3.7l-0.9,0.8l0.9,0.8v3.7l-3.2-2.6h0v-3.7L505.6-35.2z M499.2-21.1
						l0.9,0.8l-0.9,0.8v2.6h1.3l1.8-1.5v-3.7l-3.2-2.6V-21.1L499.2-21.1z M502.4-53.4l-1.8-1.5h-1.3v2.6l0.9,0.8l-0.9,0.8v3.7
						l3.2-2.6V-53.4L502.4-53.4z M502.4-43v3.7l-3.2,2.6v-3.7l0.9-0.8l-0.9-0.8v-3.7L502.4-43L502.4-43z M502.4-32.6v3.7l-3.2,2.6
						V-30l0.9-0.8l-0.9-0.8v-3.7L502.4-32.6z M496.1-23.7L496.1-23.7l3.2,2.6v-3.7l-0.9-0.8l0.9-0.8V-30l-3.2,2.6V-23.7L496.1-23.7z
						 M499.2-19.6l-3.1,2.6h3.1V-19.6L499.2-19.6z M499.2-54.9h-3.1l3.1,2.6V-54.9L499.2-54.9z M499.2-50.8l-3.2,2.6v0v3.7v0
						l3.2,2.6v-3.7l-0.9-0.8l0.9-0.8V-50.8L499.2-50.8z M499.2-40.4v3.7l-0.9,0.8l0.9,0.8v3.7l-3.2-2.6l0,0v-3.7l0,0L499.2-40.4z
						 M492.9-17h3.1l-3.1-2.6V-17L492.9-17z M492.9-21.1l3.2-2.6v-3.7l-3.2-2.6v3.7l0.9,0.8l-0.9,0.8V-21.1L492.9-21.1z M496.1-48.2
						l-3.2-2.6v3.7l0.9,0.8l-0.9,0.8v3.7l3.2-2.6V-48.2L496.1-48.2z M492.9-52.3l3.1-2.6h-3.1V-52.3L492.9-52.3z M496.1-37.8v3.7
						l-3.2,2.6v-3.7l0.9-0.8l-0.9-0.8v-3.7L496.1-37.8z M489.7-18.5L489.7-18.5l1.8,1.5h1.3v-2.6l-0.9-0.8l0.9-0.8v-3.7l-3.2,2.6
						V-18.5L489.7-18.5z M492.9-50.8l-0.9-0.8l0.9-0.8v-2.6h-1.3l-1.8,1.5l0,0v3.7l0,0l3.2,2.6V-50.8L492.9-50.8z M492.9-45.6v3.7
						l-0.9,0.8l0.9,0.8v3.7l-3.2-2.6l0,0V-43l0,0L492.9-45.6L492.9-45.6z M492.9-35.2v3.7l-0.9,0.8l0.9,0.8v3.7l-3.2-2.6l0,0v-3.7
						l0,0L492.9-35.2z M486.6-21.1l0.9,0.8l-0.9,0.8v2.6h1.3l1.8-1.5v-3.7l-3.2-2.6V-21.1L486.6-21.1z M489.7-53.4l-1.8-1.5h-1.3
						v2.6l0.9,0.8l-0.9,0.8v3.7l3.2-2.6V-53.4L489.7-53.4z M489.7-43v3.7l-3.2,2.6v-3.7l0.9-0.8l-0.9-0.8v-3.7L489.7-43L489.7-43z
						 M489.7-32.6v3.7l-3.2,2.6V-30l0.9-0.8l-0.9-0.8v-3.7L489.7-32.6z M483.4-23.7l3.2,2.6v-3.7l-0.9-0.8l0.9-0.8V-30l-3.2,2.6
						V-23.7L483.4-23.7z M486.6-19.6l-3.1,2.6h3.1V-19.6L486.6-19.6z M486.6-54.9h-3.1l3.1,2.6V-54.9L486.6-54.9z M486.6-50.8
						l-3.2,2.6v3.7l3.2,2.6v-3.7l-0.9-0.8l0.9-0.8V-50.8L486.6-50.8z M486.6-40.4v3.7l-0.9,0.8l0.9,0.8v3.7l-3.2-2.6v-3.7
						L486.6-40.4z M480.2-17h3.1l-3.1-2.6V-17L480.2-17z M480.2-21.1l3.2-2.6v-3.7l0,0l-3.2-2.6v3.7l0.9,0.8l-0.9,0.8V-21.1
						L480.2-21.1z M483.4-48.2l-3.2-2.6v3.7l0.9,0.8l-0.9,0.8v3.7l3.2-2.6V-48.2L483.4-48.2z M480.2-52.3l3.1-2.6h-3.1V-52.3
						L480.2-52.3z M483.4-37.8v3.7l-3.2,2.6v-3.7l0.9-0.8l-0.9-0.8v-3.7L483.4-37.8z M477.1-18.5l1.8,1.5h1.3v-2.6l-0.9-0.8l0.9-0.8
						v-3.7l-3.2,2.6V-18.5L477.1-18.5z M480.2-50.8l-0.9-0.8l0.9-0.8v-2.6h-1.3l-1.8,1.5v3.7l3.2,2.6V-50.8L480.2-50.8z M480.2-45.6
						v3.7l-0.9,0.8l0.9,0.8v3.7l-3.2-2.6V-43L480.2-45.6L480.2-45.6z M480.2-35.2v3.7l-0.9,0.8l0.9,0.8v3.7l-3.2-2.6v-3.7
						L480.2-35.2z M473.9-21.1l0.9,0.8l-0.9,0.8v2.6h1.3l1.8-1.5v-3.7l0,0l-3.2-2.6V-21.1L473.9-21.1z M477.1-53.4l-1.8-1.5h-1.3
						v2.6l0.9,0.8l-0.9,0.8v3.7l3.2-2.6V-53.4L477.1-53.4z M477.1-43v3.7l-3.2,2.6v-3.7l0.9-0.8l-0.9-0.8v-3.7L477.1-43L477.1-43z
						 M477.1-32.6v3.7l-3.2,2.6V-30l0.9-0.8l-0.9-0.8v-3.7L477.1-32.6z M470.7-23.7L470.7-23.7l3.2,2.6v-3.7l-0.9-0.8l0.9-0.8V-30
						l-3.2,2.6l0,0V-23.7L470.7-23.7z M473.9-19.6l-3.1,2.6h3.1V-19.6L473.9-19.6z M473.9-54.9h-3.1l3.1,2.6V-54.9L473.9-54.9z
						 M473.9-50.8l-3.2,2.6l0,0v3.7v0l3.2,2.6v-3.7l-0.9-0.8l0.9-0.8V-50.8L473.9-50.8z M473.9-40.4v3.7l-0.9,0.8l0.9,0.8v3.7
						l-3.2-2.6l0,0v-3.7l0,0L473.9-40.4z M466.2-17h4.5l-4.1-3.3l4.1-3.4v-3.7l-4.1-3.4l4.1-3.4v-3.7l-4.1-3.4l4.1-3.4v-3.7
						l-4.1-3.4l4.1-3.3h-4.5l-0.9,0.8v5.2l3.2,2.6l-3.2,2.6v5.2l3.2,2.6l-3.2,2.6v5.2l3.2,2.6l-3.2,2.6v5.2L466.2-17z"/>
					<rect x="465.3" y="-54.9" class="st20" width="61.5" height="2.8"/>
					<rect x="465.3" y="-54.9" class="st20" width="2.8" height="37.9"/>
					<rect x="524" y="-54.9" class="st20" width="2.8" height="37.9"/>
					<rect x="465.3" y="-19.8" class="st20" width="61.5" height="2.8"/>
				</g>
				<rect x="472.9" y="38" class="st4" width="51.4" height="27"/>
				<rect x="470.5" y="31.9" class="st7" width="56.4" height="6"/>
				<rect x="484" y="16.6" class="st5" width="29.2" height="15.3"/>
				<rect x="482.6" y="13.2" class="st8" width="32" height="3.4"/>
				<path class="st7" d="M451.8-48.1c1.2,6.8-1.3,13.5-6.2,17.8L428.9-26c-6.4-1.4-11.9-6.1-14-12.6L451.8-48.1z"/>
				<path class="st4" d="M452.5-32.7c-0.5,6.9-4.6,12.8-10.5,15.7h-17.2c-5.9-3-10-8.8-10.5-15.7H452.5z"/>
				<rect x="410.9" y="124.2" class="st5" width="55.3" height="22.7"/>
				<rect x="408.2" y="119.1" class="st8" width="60.6" height="5.1"/>
				<rect x="410.9" y="96.4" class="st11" width="55.3" height="22.7"/>
				<rect x="408.2" y="91.4" class="st13" width="60.6" height="5.1"/>
				<g>
					<rect x="468.4" y="269.8" class="st5" width="58.4" height="33.7"/>
					<path class="st8" d="M484.5,280.2L484.5,280.2c0-1.2,1-2.2,2.2-2.2h21.9c1.2,0,2.2,1,2.2,2.2l0,0c0,1.2-1,2.2-2.2,2.2h-21.9
						C485.5,282.4,484.5,281.4,484.5,280.2z"/>
					<rect x="468.4" y="236.1" class="st9" width="58.4" height="33.7"/>
					<path class="st7" d="M484.5,246.5L484.5,246.5c0-1.2,1-2.2,2.2-2.2h21.9c1.2,0,2.2,1,2.2,2.2l0,0c0,1.2-1,2.2-2.2,2.2h-21.9
						C485.5,248.7,484.5,247.7,484.5,246.5z"/>
				</g>
				<g>
					<rect x="406.5" y="269.8" class="st9" width="61.9" height="33.7"/>
					<path class="st7" d="M423.5,280.2L423.5,280.2c0-1.2,1-2.2,2.2-2.2h23.5c1.2,0,2.2,1,2.2,2.2l0,0c0,1.2-1,2.2-2.2,2.2h-23.5
						C424.5,282.4,423.5,281.4,423.5,280.2z"/>
					<rect x="406.5" y="236.1" class="st5" width="61.9" height="33.7"/>
					<path class="st8" d="M423.5,246.5L423.5,246.5c0-1.2,1-2.2,2.2-2.2h23.5c1.2,0,2.2,1,2.2,2.2l0,0c0,1.2-1,2.2-2.2,2.2h-23.5
						C424.5,248.7,423.5,247.7,423.5,246.5z"/>
				</g>
				<rect x="406.5" y="14.5" class="st10" width="11.4" height="50.4"/>
				<rect x="417.9" y="29" class="st13" width="5.2" height="35.9"/>
				<rect x="423.1" y="20.4" class="st11" width="11.4" height="44.6"/>
				<rect x="434.5" y="20.4" class="st12" width="5.7" height="44.6"/>
				
					<rect x="443.2" y="20.2" transform="matrix(0.9906 -0.1367 0.1367 0.9906 -1.6183 61.3743)" class="st21" width="5.7" height="44.6"/>
				<g>
					<rect x="490.5" y="201.2" class="st21" width="6.6" height="6.6"/>
					<rect x="497.1" y="201.2" class="st12" width="6.6" height="6.6"/>
					<rect x="503.7" y="201.2" class="st11" width="6.6" height="6.6"/>
					<rect x="490.5" y="207.8" class="st12" width="6.6" height="6.6"/>
					<rect x="497.1" y="207.8" class="st11" width="6.6" height="6.6"/>
					<rect x="503.7" y="207.8" class="st13" width="6.6" height="6.6"/>
					<rect x="490.5" y="214.4" class="st11" width="6.6" height="6.6"/>
					<rect x="497.1" y="214.4" class="st13" width="6.6" height="6.6"/>
					<rect x="503.7" y="214.4" class="st10" width="6.6" height="6.6"/>
				</g>
				<path class="st10" d="M476.3,221c1.7,3.4,6.2,6.2,12.1,7.9h24.2c5.9-1.7,10.3-4.5,12.1-7.9H476.3z"/>
			</g>
		</g>
	</g>
	<g id="stan">
		<g id="right-leg">
			<g id="XMLID_49_">
				<path id="XMLID_54_" class="st22" d="M327.5,284.9h10.6c0,0,17.8,13.8,16.5,21.7h-27.7L327.5,284.9z"/>
				<path id="XMLID_50_" class="st23" d="M353,300.6c1.2,2.1,1.8,4.2,1.6,5.9h-27.7l0.2-5.9H353z"/>
			</g>
			<path id="XMLID_23_" class="st24" d="M353.3,227.9C353.3,227.9,355.2,214.6,353.3,227.9c-3.3,23-11.7,48.9-15.2,57
				c0,0.1-0.1,0.2-0.1,0.3h-10.5c0,0,0.8-28.1,1.5-52.8c0-0.1,0-0.2,0-0.4c0.3-12.2,0.6,6.5,0.7-0.2c0-1.6,0-2.9,0-3.9
				C329.5,219.4,353.3,219.4,353.3,227.9z"/>
		</g>
		<g id="XMLID_59_">
			<path id="XMLID_77_" class="st22" d="M273,284.9h-10.6c0,0-17.8,13.8-16.5,21.7h27.7L273,284.9z"/>
			<path id="XMLID_64_" class="st23" d="M247.5,300.6c-1.2,2.1-1.8,4.2-1.6,5.9h27.7l-0.2-5.9H247.5z"/>
			<path id="XMLID_19_" class="st24" d="M273.2,285.2h-10.5c-3.5-7.5-8.8-10.8-12.2-34.1c-1.9-13.3-3.2-13.8-3.2-23.2
				c0-9.4,23.7-5.9,23.7,0c0,5.9,0,2.3,0,3.9c0.1,6.6,0.3,18,0.7,30.2c0,0.1,0,0.3,0,0.4C272.4,287.1,273.2,285.2,273.2,285.2z"/>
		</g>
		<path id="XMLID_1_" class="st24" d="M306.5,224.7h23.7c0,0,1.8,8.4-0.1,19.3c-1.6,1.5-6.7,2.8-8.9,4c-4.3,2.3-9.6,4-15.5,4.6
			c-1.8,0.2-3.6,0.3-5.4,0.3c-1.9,0-3.8-0.1-5.7-0.3c-4.5-0.5-8.7-1.6-12.4-3.2c-3.5-1.5-10.2-2.9-12.5-5.2
			c-1.9-10.8,0.5-19.5,0.5-19.5H294C294,224.7,306.3,224.5,306.5,224.7z"/>
		<path id="XMLID_6_" class="st25" d="M315.3,152L315.3,152c14.9-0.9,24.4,16.6,26.4,20.8c0.3,0.5,0.5,1,0.7,1.6
			c5.1,14.9,8,30.9,7.7,46.9c-0.1,3.2,0,7.4-0.4,11.8c-0.1,1.4-0.3,2.9-0.5,4.3c-0.1,0.7-0.2,1.3-0.4,2c-0.8,2.4-2.9,7.4-7.7,6.5
			c-1.5-0.3-2.6-1.6-3.4-3c-1.3-2.4-1.7-5.3-1.2-8c0.6-3.9,1-7.9,1.1-11.9c0.1-7.1-0.2-12.1-0.2-12.1c-0.9-9.6-1.7-18.6-6.6-27
			c-6.7-11.5-14.6-18.2-14.8-18.3C315.8,165.5,304.7,157.4,315.3,152"/>
		<path id="XMLID_55_" class="st22" d="M321.7,149.7c-10.6,5.4,0.6,13.5,0.6,13.5c0.1,0.1-1.6,0.5,10.5,6.1c2.2,1,3.2,0.8,6.2,4.7
			c0,0,0.2-2.3,6.5,4c6,9,16.8,3.7,16.3,0.2s-4.9-8.7-5.8-10C356,168.1,338.8,148.7,321.7,149.7L321.7,149.7"/>
		<path id="XMLID_2_" class="st25" d="M284.6,152L284.6,152c-14.9-0.9-24.4,16.6-26.4,20.8c-0.3,0.5-0.5,1-0.7,1.6
			c-5.1,14.9-8,30.9-7.7,46.9c0.1,3.2,0,7.4,0.4,11.8c0.1,1.4,0.3,2.9,0.5,4.3c0.1,0.7,0.2,1.3,0.4,2c0.8,2.4,2.9,7.4,7.7,6.5
			c1.5-0.3,2.6-1.6,3.4-3c1.3-2.4,1.7-5.3,1.2-8c-0.6-3.9-1-7.9-1.1-11.9c-0.1-7.1,0.2-12.1,0.2-12.1c0.9-9.6,1.7-18.6,6.6-27
			c6.7-11.5,14.6-18.2,14.8-18.3C284.1,165.5,295.2,157.4,284.6,152"/>
		<path id="XMLID_17_" class="st22" d="M285.5,151.6c10.7,5.4-0.6,13.5-0.6,13.5c-0.1,0.1-4.5,12.9-17.9,12.9
			c-7.3,0-2.2-0.2-10.2-0.2c0,0,3.5-9.3-2.7,0c-6.2,9.3-16.3,2.8-15.8-0.2c2.2-7.3,12.8-17.7,16.5-19
			C254.8,158.7,268.2,150.5,285.5,151.6L285.5,151.6"/>
		<g id="shirt_2_">
			<path id="torso_1_" class="st26" d="M320.3,157.6c-3.3-4.5-14.4-11.3-20.2-9.4c-5.8-2-16.9,4.8-20.2,9.4
				c-4.8,6.7-10.8,18.2-9.4,72.8h29.5h0.2h29.5C331.1,175.8,325.1,164.3,320.3,157.6z"/>
			<path id="XMLID_46_" class="st27" d="M320.4,157.2c-3.3-4.6-14.4-11.5-20.2-9.5c-5.8-2-17,4.9-20.2,9.5
				c-4.8,6.8-10.8,18.4-9.4,73.6h29.6h0.2h29.6C331.2,175.6,325.2,164,320.4,157.2z"/>
			<g id="XMLID_43_">
				<path id="XMLID_45_" class="st22" d="M301.3,179.7c1.5-38-0.5-28.8-13.1-29.2c-3.6,2-6.8,4.6-8.4,6.7c-4.9,6.8-11,18.4-9.6,73.6
					h32C300.6,221.1,301.3,191.7,301.3,179.7z"/>
				<path id="XMLID_44_" class="st22" d="M320.5,157.2c-1.5-2-4.5-4.5-8-6.5c-12.5,5-11-4.8-11,47.2c0,12,0,22.5,0,32.8h28.6
					C331.5,175.6,325.4,164,320.5,157.2z"/>
			</g>
		</g>
		<g id="XMLID_219_">
			<path id="XMLID_221_" class="st28" d="M342.5,106.1c0.7,4.2-2.4,7.9-6.8,8.3c-4.4,0.4-8.6-2.7-9.3-6.8c-0.7-4.2,2.4-7.9,6.8-8.3
				C337.7,98.8,341.8,101.9,342.5,106.1z"/>
			<path id="XMLID_220_" class="st28" d="M272.4,106.7c0.1,4.2-3.4,7.7-7.9,7.8c-4.5,0.1-8.2-3.3-8.3-7.5c-0.1-4.2,3.4-7.7,7.9-7.8
				C268.6,99.1,272.3,102.5,272.4,106.7z"/>
		</g>
		<g id="XMLID_216_">
			<path id="XMLID_218_" class="st29" d="M300.6,60.6c-8.9,0.5-18.2,3.6-24.9,9.4c-9.8,8.5-12.5,26.1-12,39.8
				c1.6,42,28.4,43.3,36.9,44.2V60.6z"/>
			<path id="XMLID_217_" class="st29" d="M300,60.6c8.9,0.5,17.6,3.6,24.3,9.4c9.8,8.5,11.5,26.1,10.8,39.8
				c-0.9,18.5-7,44.5-35.1,44.2V60.6z"/>
		</g>
		<g id="hair_1_">
			<path id="XMLID_13_" class="st30" d="M335.3,86.4c-0.1-3.2-0.6-6.9-1.6-9.9c-2.5-8-7.9-14.1-15.3-16.7c-6-2.1-32.3-1.9-38.3,0.2
				c-7.4,2.6-12.8,8.7-15.3,16.7c-0.9,3.1-1.4,6.7-1.6,9.9c-0.1,3.4-0.6,13.9-0.6,13.9c0.5,9.7,2.1,30.8,11.3,37.3
				c5.7,4,18.1,5,25.5,4.6c0,0,12.5,0,15.8-1c3.3-1,6.9-2.8,12.2-7.1c8.2-6.7,8.2-36.3,8.2-36.3C335.8,94.2,335.4,89.8,335.3,86.4z"
				/>
			<path id="XMLID_4_" class="st30" d="M264.8,76.1c6.5-17.8,25.1-19.5,41.6-26.7c4.2-1.8,4.6-3.2,8.5,0.2
				c9.1,7.8,15.9,18.2,19.3,29.7"/>
		</g>
	</g>
	<g id="Layer_4">
		<path class="st4" d="M300.1,217.6c25.4,0,46.2-16.7,46.2-37.2c0-20.5-20.7-37.2-46.2-37.2c-25.4,0-46.2,16.7-46.2,37.2
			C253.9,200.9,274.7,217.6,300.1,217.6z"/>
		<path class="st7" d="M300.1,188.1c3.9,0,7-3.1,7-7c0-3.9-3.1-7-7-7c-3.9,0-7,3.1-7,7C293.1,185,296.2,188.1,300.1,188.1z"/>
		<path class="st4" d="M263.4,242.6h73.3c4.1,0,7.5,3.4,7.5,7.5l0,0c0,4.1-3.4,7.5-7.5,7.5h-73.3c-4.1,0-7.5-3.4-7.5-7.5l0,0
			C256,245.9,259.3,242.6,263.4,242.6z"/>
		<path class="st7" d="M300.1,312.9L300.1,312.9c-2,0-3.6-1.6-3.6-3.6V188.4c0-2,1.6-3.6,3.6-3.6h0c2,0,3.6,1.6,3.6,3.6v120.9
			C303.7,311.3,302.1,312.9,300.1,312.9z"/>
		<rect x="293.9" y="263.4" class="st7" width="12.5" height="20.9"/>
		<path class="st31" d="M252.8,313.1c1.5-7.9,6.6-14.9,14-20.2c8.6-6.1,20.3-9.9,33.3-9.9c12.9,0,24.7,3.8,33.3,9.9
			c6.3,4.5,10.9,10.2,13.1,16.7c-2.1,1.3-4.3,2.7-6.3,4c-1.4-5.7-5.3-10.8-10.9-14.8c-7.4-5.3-17.7-8.5-29.1-8.5
			c-11.4,0-21.7,3.3-29.1,8.5c-6.1,4.3-10.2,10-11.2,16.3C258,314.6,255.5,313.9,252.8,313.1z"/>
		<g>
			<path class="st8" d="M341.7,318.1c2.8,0,5.2-2.3,5.2-5.2c0-2.8-2.3-5.2-5.2-5.2c-2.8,0-5.2,2.3-5.2,5.2
				C336.6,315.8,338.9,318.1,341.7,318.1z"/>
			<path class="st7" d="M341.7,305c4.4,0,8,3.6,8,8h-15.9C333.8,308.5,337.3,305,341.7,305z"/>
		</g>
		<g>
			<circle class="st8" cx="257.9" cy="312.9" r="5.2"/>
			<path class="st7" d="M257.9,305c4.4,0,8,3.6,8,8H250C250,308.5,253.5,305,257.9,305z"/>
		</g>
		<g>
			<circle class="st8" cx="300.1" cy="312.9" r="5.2"/>
			<path class="st7" d="M300.1,305c4.4,0,8,3.6,8,8h-15.9C292.1,308.5,295.7,305,300.1,305z"/>
		</g>
	</g>
</g>
</svg>
