<?xml version="1.0" encoding="utf-8"?>
<!-- Generator: Adobe Illustrator 19.0.1, SVG Export Plug-In . SVG Version: 6.00 Build 0)  -->
<svg version="1.1" id="web_1_" xmlns="http://www.w3.org/2000/svg" xmlns:xlink="http://www.w3.org/1999/xlink" x="0px" y="0px"
	 viewBox="-105 197 400 400" style="enable-background:new -105 197 400 400;" xml:space="preserve">
<style type="text/css">
	.st0{fill:#333333;}
	.st1{fill:none;stroke:#333333;stroke-width:26;stroke-miterlimit:10;}
</style>
<g id="web">
	<g>
		<path class="st0" d="M-37.8,409.1c0-6.5,0-13.1,0-19.6c0.7-5.2,1.2-10.4,2.2-15.6c5.8-28.4,19.3-52.5,41-71.7
			c31-27.5,67.4-38.1,108.3-31.9c29.8,4.6,55,18.4,75.2,40.7c29.2,32.4,40.1,70.5,32.1,113.3c-9.7,51.8-50.6,92.6-102.2,103.1
			c-5.4,1.1-10.8,1.7-16.3,2.4c-6.5,0-13.1,0-19.6,0c-4.6-0.6-9.2-1-13.8-1.9c-28.6-5.5-52.8-18.9-72.5-40.2
			c-16.4-17.8-27.1-38.6-32-62.3C-36.6,420-37.1,414.5-37.8,409.1z M186.7,404.5c-8,0-16.1,0-24.1,0c-1.5,0-2,0.5-2,2
			c-0.1,4.1-0.4,8.2-0.7,12.3c-1,14.5-3.3,28.8-7.2,42.8c-0.6,2.3-0.6,2.3,1.7,3c9.8,2.8,19.3,6.3,27.9,11.9c1.3,0.9,2,0.7,3-0.5
			c5.2-6.4,9.8-13.2,13.7-20.5c8-15.2,12.6-31.3,13.6-48.4c0.1-2.4,0-2.5-2.5-2.5C202.3,404.5,194.5,404.5,186.7,404.5z M-1.1,404.5
			c-7.9,0-15.8,0-23.7,0c-2.3,0-2.5,0.1-2.4,2.5c0.2,5.6,1.1,11.2,2.2,16.7c4.1,19.6,12.6,37.1,25.3,52.5c0.7,0.8,1.2,1.2,2.2,0.5
			c8.7-5.8,18.4-9.3,28.4-12.2c2.4-0.7,2.4-0.7,1.8-2.9c-5-17.9-7.3-36.2-7.9-54.7c-0.1-1.8-0.5-2.4-2.4-2.4
			C14.6,404.5,6.7,404.5-1.1,404.5z M186.6,394.1c7.9,0,15.8,0,23.7,0c1.7,0,2.4-0.5,2.3-2.3c-0.3-5.7-1.1-11.4-2.3-17
			c-4.1-19.4-12.5-36.7-25.1-52.1c-0.6-0.8-1.2-1.3-2.2-0.6c-8.9,5.7-18.7,9.3-28.8,12c-1.7,0.4-2.1,1.1-1.6,2.8
			c5,17.9,7.4,36.3,7.9,54.9c0,1.7,0.6,2.3,2.3,2.3C170.8,394,178.7,394.1,186.6,394.1z M-1.2,394.1c8,0,16,0,23.9,0
			c1.4,0,2.1-0.4,2.1-1.9c0.1-5.6,0.5-11.2,1-16.8c1.2-12.8,3.3-25.5,6.7-37.9c0.7-2.6,0.7-2.6-1.8-3.3c-9.9-2.8-19.6-6.3-28.3-11.9
			c-1.1-0.7-1.7-0.3-2.4,0.5c-5.1,6.2-9.6,12.8-13.3,19.8c-8.2,15.4-12.9,31.7-13.9,49.1c-0.1,2.3,0.1,2.4,2.3,2.4
			C-17,394.1-9.1,394.1-1.2,394.1z M61.4,404.5c-8.1,0-16.2,0-24.3,0c-1.4,0-1.8,0.5-1.8,1.9c0.2,6.1,0.6,12.2,1.2,18.2
			c1.3,11.9,3.5,23.5,6.6,35c0.4,1.5,1.1,1.7,2.5,1.5c13.1-2.6,26.3-3.8,39.6-4.2c1.8-0.1,2.2-0.7,2.2-2.4c0-15.9,0-31.8,0-47.7
			c0-2.3-0.1-2.4-2.3-2.4C77.2,404.5,69.3,404.5,61.4,404.5z M124.1,404.5c-7.9,0-15.8,0-23.7,0c-2.4,0-2.4,0-2.4,2.5
			c0,15.8,0,31.7,0,47.5c0,1.8,0.5,2.4,2.4,2.4c6.6,0.2,13.1,0.6,19.7,1.3c6.7,0.7,13.3,1.6,19.9,2.9c1.3,0.3,2.1,0,2.4-1.4
			c0.3-1.5,0.8-3,1.2-4.6c4.1-15.9,6.2-32.1,6.7-48.5c0.1-1.7-0.4-2.2-2.1-2.2C140,404.5,132,404.5,124.1,404.5z M87.5,368.1
			c0-8,0-16.1,0-24.1c0-1.7-0.5-2.3-2.3-2.3c-13.2-0.4-26.4-1.6-39.4-4.1c-1.6-0.3-2.3,0.1-2.7,1.7c-1.2,4.4-2.3,8.9-3.2,13.4
			c-2.7,13-4.1,26.1-4.6,39.3c-0.1,1.8,0.4,2.2,2.1,2.2c15.9,0,31.9,0,47.8,0c1.7,0,2.3-0.5,2.3-2.3C87.4,383.9,87.5,376,87.5,368.1
			z M124,394.1c8,0,16.1,0,24.1,0c1.5,0,2-0.3,1.9-2c-0.3-6.1-0.6-12.2-1.3-18.2c-1.2-11.7-3.4-23.3-6.5-34.6
			c-0.4-1.5-1.1-2-2.7-1.7c-13,2.5-26.1,3.7-39.4,4.1c-1.7,0.1-2.3,0.5-2.3,2.3c0.1,15.9,0.1,31.9,0,47.8c0,1.7,0.5,2.3,2.3,2.3
			C108.1,394,116.1,394.1,124,394.1z M87.5,305.4c0-7.7,0-15.3,0-23c0-2.9-0.1-3-2.8-2.1c-6.7,2.1-12.1,6.1-16.9,11.1
			c-9.3,9.8-15.3,21.6-20.1,34.1c-0.6,1.5,0.2,1.7,1.4,1.9c12,2.2,24.1,3.4,36.3,3.6c1.6,0,2.1-0.5,2.1-2.1
			C87.5,321.1,87.5,313.3,87.5,305.4z M97.9,305.4c0,7.8,0,15.7,0,23.5c0,1.7,0.6,2.3,2.2,2.2c3.4-0.2,6.8-0.3,10.1-0.5
			c8.8-0.5,17.5-1.6,26.2-3.2c1.4-0.2,1.7-0.7,1.2-2c-4.4-11.5-9.9-22.4-18-31.8c-5.2-6-11.2-10.9-18.9-13.3
			c-2.8-0.9-2.9-0.8-2.9,2.1C97.9,290,97.9,297.7,97.9,305.4z M87.5,493.2c0-7.8,0-15.6,0-23.4c0-2.3-0.1-2.5-2.5-2.4
			c-3.1,0.1-6.3,0.2-9.4,0.4c-9,0.5-17.9,1.6-26.7,3.2c-1.3,0.2-1.6,0.7-1.2,1.9c4.5,11.6,10,22.7,18.3,32.1
			c5.3,6,11.3,10.8,19.1,13.2c2.2,0.7,2.4,0.5,2.4-1.8C87.5,508.8,87.5,501,87.5,493.2z M97.9,493.2c0,7.8,0,15.6,0,23.4
			c0,2.3,0.2,2.5,2.4,1.8c5.7-1.7,10.5-4.8,14.8-8.8c10.8-10.2,17.4-23,22.6-36.6c0.5-1.4-0.2-1.6-1.3-1.8c-12-2.2-24-3.4-36.1-3.6
			c-2.2,0-2.4,0.1-2.4,2.4C97.9,477.6,97.9,485.4,97.9,493.2z M59.8,283.9c-0.7-0.3-1.3,0.1-1.9,0.3c-18.2,5.5-34.1,14.9-48,27.9
			c-1.6,1.5-1.6,1.5,0.3,2.6c7.5,4.3,15.6,7.1,23.9,9.4c2.4,0.7,2.3,0.6,3.2-1.7c5.2-13.8,11.9-26.7,22-37.6
			C59.6,284.6,59.9,284.4,59.8,283.9z M125.5,284c0.1,0.2,0.2,0.4,0.3,0.5c9.9,10.7,16.6,23.2,21.8,36.7c1.4,3.5,1.4,3.6,5,2.5
			c7.9-2.3,15.6-5.1,22.8-9.2c0.9-0.5,1.7-0.9,0.5-2c-14.1-13.3-30.3-22.9-48.9-28.4C126.6,283.9,126.1,283.6,125.5,284z
			 M125.6,514.6c0.6,0.3,1.2-0.1,1.7-0.3c18.1-5.5,34.1-14.7,47.8-27.7c1.6-1.5,1.6-1.5-0.3-2.6c-7.4-4.3-15.3-7.1-23.5-9.5
			c-2.5-0.7-2.5-0.7-3.4,1.7c-5.2,13.7-11.9,26.6-21.9,37.5C125.8,514,125.4,514.2,125.6,514.6z M59.9,514.5c-0.3-0.4-0.6-0.8-1-1.2
			c-4-4.4-7.6-9.2-10.7-14.4c-4.5-7.4-8.1-15.1-11-23.2c-0.4-1.1-0.7-1.8-2.2-1.5c-8.6,2.4-16.9,5.4-24.7,9.8
			c-1.4,0.8-1.4,1.4-0.3,2.5c13.9,13.1,29.9,22.4,48.2,27.9C58.8,514.6,59.3,515,59.9,514.5z"/>
	</g>
</g>
<g id="circle">
	<circle class="st1" cx="95" cy="397" r="182.4"/>
</g>
</svg>
